<svg width="250" height="250" viewBox="0 0 250 250" fill="none" xmlns="http://www.w3.org/2000/svg">
<path d="M236.494 195.163C233.338 184.164 226.254 176.45 217.13 169.944C205.681 161.775 192.445 155.675 185.418 142.879C185.82 142.617 186.206 142.333 186.559 142.011C186.925 141.681 186.839 140.837 186.206 140.952C184.79 141.214 183.607 142.008 182.375 142.72C180.705 143.681 179.024 144.615 177.36 145.578C176.808 145.893 176.989 146.83 177.69 146.597C178.368 146.375 179.024 146.108 179.671 145.82C183.357 152.578 188.41 157.998 194.8 162.372C202.719 167.788 211.333 171.668 217.932 178.878C225.418 187.056 227.603 199.836 225.857 210.473C224.835 216.696 221.588 222.943 216.127 226.277C211.667 229.004 205.899 227.977 201.176 226.654C201.28 224.884 201.544 223.119 201.849 221.368L201.993 221.329C202.097 220.97 202.198 220.613 202.293 220.253C194.042 221.016 186.954 228.801 183.485 235.727C183.283 236.128 183.4 236.663 183.947 236.622C190.392 236.131 195.979 239.255 201.601 241.949C204.063 243.13 206.489 243.9 209.035 243.377C206.742 241.864 204.837 239.539 203.528 237.368L203.497 237.003C203.196 236.588 202.917 236.15 202.672 235.676C213.8 237.443 225.275 234.121 232.554 225.251C239.451 216.85 239.338 205.087 236.494 195.163Z" fill="#231F20"/>
<path d="M234.846 217.796C232.955 224.089 228.224 228.473 222.634 231.573C217.62 234.358 212.257 234.397 206.816 234.377C205.298 234.536 203.772 234.539 202.236 234.49L202.168 234.529L202.154 234.485C201.425 234.463 200.697 234.429 199.967 234.399L199.87 234.397C200.421 237.255 201.609 239.808 203.71 241.394C201.294 240.556 198.953 239.209 196.811 238.167C193.362 236.49 189.871 235.417 186.039 235.216C184.047 235.116 189.661 228.783 190.716 227.71C193.687 224.698 197.17 222.886 201.007 221.639C200.381 223.263 199.911 225.236 199.672 227.324C200.742 227.986 201.778 228.732 202.871 229.348C210.09 231.764 217.291 229.984 222.499 223.847C229.909 215.116 229.933 202.19 227.078 191.745C224.295 181.565 217.248 174.736 208.587 169.196C197.578 162.152 186.644 157.409 179.917 145.712C180.595 145.404 181.261 145.072 181.927 144.729C182.923 144.216 183.978 143.732 184.959 143.15C189.552 152.255 196.425 158.656 204.834 164.35C214.189 170.685 224.154 176.293 230.17 186.2C235.788 195.457 237.989 207.342 234.846 217.796Z" fill="#F0415D"/>
<path d="M206.565 81.3498C204.517 71.8072 200.555 61.3283 193.009 54.7979C196.065 45.6465 197.031 35.4928 196.299 25.9747C195.909 20.9431 195.914 10.7575 191.65 7.08768C187.501 3.5181 183.506 9.60594 181.621 12.8186C176.99 20.7206 172.587 28.7766 168.165 36.8057C151.956 27.9038 131.224 26.3732 113.111 27.449C93.7408 28.6006 73.8492 35.1212 58.4278 47.0499C54.8561 39.3069 51.2909 31.5443 47.5137 23.9063C45.9081 20.6595 42.45 14.4738 38.1761 17.6522C33.7839 20.9186 33.0858 30.8083 32.3599 35.6615C30.9436 45.1771 31.2473 55.4751 33.8183 64.8245C27.6057 72.4307 23.5085 82.1517 19.9156 91.1906C16.1384 100.704 13.4996 110.618 12.3373 120.786C10.8685 133.647 13.6754 159.69 31.2339 160.079C27.1301 162.384 24.1914 166.524 22.8677 171.005C20.2289 179.934 26.5122 194.044 37.0607 186.08L37.2279 185.902C37.3883 186.259 37.5582 186.609 37.7387 186.958C40.5877 192.464 45.8013 193.298 50.6491 190.212C52.0253 192.679 54.4749 194.017 58.5711 192.623C60.787 191.87 62.593 190.672 64.459 189.264C67.7655 186.775 70.4759 186.056 74.4841 185.09C78.3188 184.166 80.2671 181.609 80.7923 178.23L80.84 178.064L80.8429 177.91C80.9527 177.046 80.9757 176.135 80.9145 175.181L80.8573 174.978C80.7781 172.039 80.372 169.108 79.4581 166.528C85.3308 170.494 95.9163 170.032 101.715 170.509C109.31 171.132 116.944 170.898 124.505 170C129.213 169.438 134.173 168.594 138.469 166.46C137.539 169.056 137.129 172.015 137.048 174.978L136.991 175.181C136.929 176.135 136.952 177.046 137.062 177.91L137.067 178.064L137.112 178.23C137.637 181.609 139.585 184.166 143.419 185.09C147.429 186.056 150.138 186.775 153.447 189.264C155.313 190.672 157.119 191.87 159.333 192.623C163.43 194.017 165.881 192.679 167.257 190.212C172.105 193.298 177.315 192.464 180.167 186.958C180.347 186.609 180.517 186.259 180.677 185.902L180.843 186.08C191.393 194.044 197.676 179.934 195.037 171.005C193.71 166.509 190.759 162.362 186.635 160.057C204.254 155.661 208.776 129.331 209.466 114.425C209.976 103.437 208.87 92.0903 206.565 81.3498Z" fill="#231F20"/>
<path d="M36.3922 184.741C26.4979 192.276 22.9872 178.976 23.9775 172.078C24.6623 167.308 27.5714 163.509 31.5673 160.981C34.5853 159.071 42.199 156.59 45.1872 159.641C41.921 162.132 39.2764 165.682 37.5478 168.981C34.9071 174.022 34.7629 179.496 36.6855 184.587L36.3922 184.741Z" fill="#99DDF8"/>
<path d="M38.5744 184.76C36.2729 180.308 36.7293 175.548 38.3483 170.995C39.9191 166.577 43.3689 162.964 47.1632 160.37C49.9864 158.446 58.6402 156.177 61.0066 160.24C55.1571 163.927 50.9137 171.721 49.6587 177.533C48.9893 180.638 48.7629 185.489 50.0761 188.968C44.9197 191.985 41.0614 189.574 38.5744 184.76Z" fill="#99DDF8"/>
<path d="M79.6203 175.142L79.4428 175.509C78.9976 179.342 79.3387 182.885 72.8843 183.912C71.3276 184.159 70.004 184.462 68.5228 185.054C66.0109 186.056 63.886 188.164 61.6951 189.701C57.0764 192.943 51.5629 191.584 50.4304 185.966C49.8238 182.961 50.5803 179.543 51.3042 176.621C53.2122 168.917 59.6284 160.939 67.8896 160.181C76.3952 159.406 78.8392 168.157 79.6203 175.142Z" fill="#99DDF8"/>
<path d="M167.475 185.966C166.341 191.584 160.828 192.943 156.211 189.701C154.019 188.164 151.895 186.056 149.382 185.054C147.902 184.462 146.576 184.159 145.019 183.912C138.566 182.885 138.907 179.342 138.463 175.509L138.285 175.142C139.065 168.157 141.51 159.406 150.014 160.181C158.275 160.939 164.693 168.917 166.602 176.621C167.324 179.543 168.082 182.961 167.475 185.966Z" fill="#99DDF8"/>
<path d="M179.329 184.76C176.844 189.574 172.986 191.985 167.828 188.968C169.143 185.489 168.915 180.638 168.245 177.533C166.993 171.721 162.748 163.927 156.898 160.24C159.265 156.177 167.919 158.446 170.741 160.37C174.537 162.964 177.985 166.577 179.557 170.995C181.177 175.548 181.633 180.308 179.329 184.76Z" fill="#99DDF8"/>
<path d="M193.927 172.078C194.919 178.976 191.406 192.276 181.512 184.741L181.22 184.587C183.142 179.496 182.997 174.022 180.356 168.981C178.627 165.682 175.985 162.132 172.719 159.641C175.705 156.59 183.32 159.071 186.338 160.981C190.334 163.509 193.243 167.308 193.927 172.078Z" fill="#99DDF8"/>
<path d="M30.9961 186.983C30.9942 186.983 30.9914 186.983 30.9895 186.983C30.9914 186.983 30.9942 186.983 30.9961 186.983ZM31.0019 186.983C32.5309 186.98 34.3226 186.318 36.3922 184.741L36.6854 184.587L36.3922 184.741C34.3216 186.318 32.5309 186.983 31.0019 186.983ZM36.5974 184.349C36.5957 184.347 36.5947 184.342 36.5928 184.34C36.5947 184.342 36.5957 184.347 36.5974 184.349ZM36.5793 184.301C36.5737 184.286 36.5678 184.269 36.5622 184.254C36.5678 184.269 36.5737 184.283 36.5793 184.301ZM36.5622 184.252C35.7485 181.985 35.3445 179.645 35.3875 177.303C35.3941 177.306 35.4018 177.306 35.4085 177.308C35.3655 179.645 35.7504 181.988 36.5622 184.252ZM23.9594 172.208C23.9603 172.206 23.9613 172.201 23.9613 172.196C23.9613 172.201 23.9603 172.206 23.9594 172.208ZM23.9718 172.122C23.9737 172.108 23.9756 172.093 23.9775 172.078C23.9756 172.093 23.9737 172.108 23.9718 172.122Z" fill="#100F0D"/>
<path d="M30.9961 186.983C30.9942 186.983 30.9913 186.983 30.9894 186.983C25.2686 186.975 23.2277 177.677 23.9593 172.208C23.9602 172.206 23.9612 172.201 23.9612 172.196C23.965 172.171 23.9679 172.147 23.9717 172.122C23.9736 172.108 23.9755 172.093 23.9774 172.078C24.0147 171.817 24.0844 171.57 24.1341 171.316C26.2848 174.78 30.8796 176.443 35.3874 177.303C35.3444 179.645 35.7484 181.985 36.5621 184.252C36.5621 184.254 36.5621 184.254 36.5621 184.254C36.5678 184.269 36.5736 184.286 36.5792 184.301C36.5841 184.313 36.5878 184.325 36.5927 184.34C36.5946 184.342 36.5956 184.347 36.5973 184.349C36.6262 184.43 36.6558 184.508 36.6854 184.587L36.3921 184.741C34.3225 186.318 32.5308 186.98 31.0018 186.983C31.0009 186.983 30.998 186.983 30.9961 186.983Z" fill="#6AB8E9"/>
<path d="M45.7411 190.3C45.7382 190.3 45.7352 190.3 45.7325 190.3C45.7352 190.3 45.7382 190.3 45.7411 190.3ZM45.7516 190.3C47.0724 190.298 48.5146 189.882 50.0759 188.968C48.5146 189.882 47.0724 190.298 45.7516 190.3ZM50.0608 188.929C50.0598 188.926 50.0579 188.922 50.0569 188.919C50.0579 188.922 50.0598 188.926 50.0608 188.929ZM50.0464 188.89C50.0444 188.885 50.0434 188.88 50.0417 188.878C50.0434 188.88 50.0444 188.885 50.0464 188.89ZM50.0322 188.851C50.0302 188.846 50.0283 188.841 50.0263 188.836C50.0283 188.841 50.0302 188.846 50.0322 188.851ZM50.0168 188.809C50.0158 188.804 50.0138 188.802 50.0129 188.797C50.0138 188.802 50.0158 188.804 50.0168 188.809ZM50.0026 188.768C50.0016 188.765 49.9997 188.76 49.9987 188.758C49.9997 188.76 50.0016 188.765 50.0026 188.768ZM49.9882 188.726C49.9872 188.723 49.9852 188.721 49.9843 188.716C49.9852 188.721 49.9872 188.723 49.9882 188.726ZM49.9738 188.684C49.9728 188.682 49.972 188.679 49.9711 188.677C49.972 188.679 49.9728 188.682 49.9738 188.684ZM49.9576 188.64C49.9576 188.64 49.9576 188.638 49.9566 188.638C49.9576 188.638 49.9576 188.64 49.9576 188.64ZM49.8879 188.43C49.8879 188.428 49.887 188.425 49.887 188.425C49.887 188.425 49.8879 188.428 49.8879 188.43ZM49.8745 188.389C49.8735 188.386 49.8735 188.384 49.8725 188.381C49.8735 188.384 49.8735 188.386 49.8745 188.389ZM49.862 188.347C49.861 188.344 49.8601 188.342 49.8593 188.34C49.8601 188.342 49.861 188.344 49.862 188.347ZM49.8488 188.305C49.8478 188.303 49.8469 188.3 49.8469 188.298C49.8469 188.3 49.8478 188.303 49.8488 188.305ZM49.8354 188.261C49.8344 188.259 49.8344 188.259 49.8334 188.256C49.8344 188.256 49.8354 188.259 49.8354 188.261ZM49.8219 188.22C49.8219 188.217 49.8209 188.215 49.8209 188.213C49.8209 188.215 49.8219 188.217 49.8219 188.22ZM49.8095 188.176C49.8087 188.173 49.8087 188.173 49.8087 188.171C49.8087 188.173 49.8087 188.173 49.8095 188.176ZM49.7828 188.088C49.7818 188.083 49.7808 188.08 49.7799 188.076C49.7808 188.08 49.7818 188.083 49.7828 188.088ZM49.7713 188.046C49.7694 188.039 49.7676 188.034 49.7657 188.027C49.7676 188.034 49.7694 188.039 49.7713 188.046ZM49.7598 188.007C49.7581 187.997 49.7562 187.99 49.7532 187.98C49.7562 187.99 49.7581 187.997 49.7598 188.007ZM49.7483 187.966C49.7466 187.956 49.7437 187.948 49.7417 187.939C49.7437 187.948 49.7466 187.956 49.7483 187.966ZM49.7378 187.926C49.7351 187.917 49.7322 187.904 49.7293 187.895C49.7322 187.904 49.7351 187.917 49.7378 187.926ZM49.7275 187.887C49.7246 187.875 49.7207 187.865 49.7178 187.853C49.7207 187.865 49.7246 187.875 49.7275 187.887ZM49.717 187.851C48.9051 184.843 49.0207 181.154 49.4897 178.418C49.4926 178.418 49.4953 178.418 49.4982 178.418C49.0263 181.159 48.9051 184.841 49.717 187.851Z" fill="#100F0D"/>
<path d="M45.7412 190.3C45.7382 190.3 45.7353 190.3 45.7326 190.3C42.6992 190.296 40.3049 188.11 38.5744 184.76C37.3693 182.428 36.925 180.007 37.0035 177.582C39.0739 177.902 41.0567 178.071 42.6992 178.198C44.5779 178.342 46.5805 178.421 48.6531 178.421C48.9301 178.421 49.2088 178.421 49.4897 178.418C49.0208 181.154 48.9051 184.843 49.7171 187.851C49.7171 187.851 49.7178 187.851 49.7178 187.853C49.7208 187.865 49.7247 187.875 49.7276 187.887C49.7283 187.89 49.7283 187.892 49.7293 187.895C49.7323 187.904 49.7352 187.917 49.7379 187.926C49.7388 187.931 49.7398 187.934 49.7418 187.939C49.7437 187.948 49.7467 187.956 49.7484 187.966C49.7503 187.97 49.7513 187.975 49.7533 187.98C49.7562 187.99 49.7582 187.997 49.7599 188.007C49.7618 188.012 49.7638 188.019 49.7657 188.027C49.7677 188.034 49.7694 188.039 49.7714 188.046C49.7743 188.056 49.7772 188.066 49.7799 188.076C49.7809 188.08 49.7819 188.083 49.7829 188.088C49.7914 188.115 49.8 188.144 49.8088 188.171C49.8088 188.173 49.8088 188.173 49.8095 188.176C49.8134 188.188 49.8173 188.2 49.821 188.213C49.821 188.215 49.822 188.217 49.822 188.22C49.8259 188.232 49.8296 188.244 49.8335 188.256C49.8344 188.259 49.8344 188.259 49.8354 188.261C49.8393 188.274 49.843 188.286 49.8469 188.298C49.8469 188.3 49.8479 188.303 49.8489 188.305C49.8525 188.315 49.8555 188.327 49.8594 188.34C49.8601 188.342 49.8611 188.344 49.8621 188.347C49.866 188.359 49.8689 188.369 49.8726 188.381C49.8736 188.384 49.8736 188.386 49.8745 188.389C49.8785 188.401 49.8821 188.413 49.887 188.425C49.887 188.425 49.888 188.428 49.888 188.43C49.911 188.499 49.9337 188.569 49.9567 188.638C49.9577 188.638 49.9577 188.64 49.9577 188.64C49.9623 188.653 49.9662 188.665 49.9711 188.677C49.9721 188.679 49.9728 188.682 49.9738 188.684C49.9777 188.697 49.9807 188.706 49.9843 188.716C49.9853 188.721 49.9873 188.723 49.9882 188.726C49.9921 188.738 49.9948 188.748 49.9987 188.758C49.9997 188.76 50.0017 188.765 50.0027 188.768C50.0063 188.777 50.0093 188.787 50.0129 188.797C50.0139 188.802 50.0159 188.804 50.0168 188.809C50.0208 188.819 50.0234 188.826 50.0264 188.836C50.0283 188.841 50.0303 188.846 50.0322 188.851C50.0349 188.858 50.0388 188.868 50.0418 188.878C50.0435 188.88 50.0445 188.885 50.0464 188.89C50.0503 188.9 50.0533 188.909 50.0569 188.919C50.0579 188.922 50.0599 188.926 50.0608 188.929C50.0655 188.941 50.0714 188.956 50.076 188.968C48.5147 189.882 47.0724 190.298 45.7517 190.3C45.7478 190.3 45.7448 190.3 45.7412 190.3Z" fill="#6AB8E9"/>
<path d="M56.6456 191.43C56.6419 191.43 56.638 191.43 56.6344 191.43C56.638 191.43 56.6419 191.43 56.6456 191.43ZM56.6551 191.43C58.2522 191.427 59.9673 190.882 61.5795 189.782C59.9673 190.882 58.2522 191.427 56.6551 191.43ZM50.4541 186.083C50.4465 186.044 50.4379 186.005 50.4304 185.966C50.4284 185.953 50.4255 185.944 50.4235 185.931C50.4255 185.944 50.4284 185.956 50.4304 185.966C50.4379 186.005 50.4465 186.044 50.4541 186.083ZM50.4225 185.926C50.4206 185.917 50.4189 185.907 50.4169 185.897C50.4189 185.907 50.4206 185.917 50.4225 185.926ZM50.4159 185.892C50.414 185.882 50.412 185.873 50.4093 185.86C50.412 185.873 50.414 185.882 50.4159 185.892ZM50.4093 185.86C50.3758 185.684 50.3472 185.506 50.3223 185.327C50.3472 185.506 50.3758 185.682 50.4093 185.86ZM50.3213 185.325C50.3203 185.315 50.3194 185.305 50.3177 185.296C50.3194 185.305 50.3203 185.315 50.3213 185.325ZM50.3167 185.286C50.3157 185.278 50.3147 185.269 50.3137 185.261C50.3147 185.269 50.3157 185.278 50.3167 185.286ZM50.3118 185.252C50.3108 185.242 50.3088 185.232 50.3081 185.222C50.3088 185.232 50.3108 185.242 50.3118 185.252ZM50.3062 185.203C50.3052 185.198 50.3052 185.195 50.3042 185.19C50.3052 185.195 50.3052 185.198 50.3062 185.203ZM50.3013 185.168C50.3013 185.166 50.3003 185.164 50.3003 185.161C50.3003 185.164 50.3013 185.166 50.3013 185.168Z" fill="#100F0D"/>
<path d="M56.6457 191.43C56.6421 191.43 56.6381 191.43 56.6345 191.43C53.7233 191.425 51.2136 189.613 50.4542 186.083C50.4466 186.044 50.4381 186.005 50.4305 185.966C50.4285 185.956 50.4256 185.944 50.4236 185.931C50.4227 185.931 50.4227 185.929 50.4227 185.926C50.4207 185.917 50.419 185.907 50.417 185.897C50.417 185.897 50.4161 185.895 50.4161 185.892C50.4141 185.882 50.4121 185.873 50.4095 185.86C50.376 185.682 50.3474 185.506 50.3224 185.327C50.3224 185.325 50.3214 185.325 50.3214 185.325C50.3205 185.315 50.3195 185.305 50.3178 185.296C50.3178 185.291 50.3168 185.288 50.3168 185.286C50.3158 185.278 50.3148 185.269 50.3139 185.261C50.3129 185.259 50.3129 185.254 50.3119 185.252C50.3109 185.242 50.309 185.232 50.3082 185.222C50.3073 185.215 50.3073 185.21 50.3063 185.203C50.3053 185.198 50.3053 185.195 50.3043 185.19C50.3033 185.183 50.3024 185.176 50.3014 185.168C50.3014 185.166 50.3004 185.164 50.3004 185.161C50.0312 182.963 50.3999 180.596 50.8889 178.389C60.7133 178.103 71.6649 175.868 78.5958 169.548C79.0979 171.399 79.417 173.33 79.6204 175.142L79.4429 175.509C78.9977 179.342 79.3388 182.885 72.8844 183.912C71.3277 184.159 70.004 184.462 68.5229 185.054C66.011 186.056 63.8861 188.163 61.6952 189.701C61.6568 189.728 61.6187 189.755 61.5796 189.782C59.9674 190.882 58.2523 191.427 56.6553 191.43C56.6526 191.43 56.6487 191.43 56.6457 191.43Z" fill="#6AB8E9"/>
<path d="M161.258 191.43C161.256 191.43 161.254 191.43 161.252 191.43C161.254 191.43 161.256 191.43 161.258 191.43ZM161.27 191.43C164.213 191.425 166.747 189.574 167.475 185.966C167.477 185.956 167.479 185.944 167.482 185.934C167.479 185.944 167.477 185.956 167.475 185.966C166.747 189.574 164.213 191.425 161.27 191.43ZM156.405 189.836C156.403 189.833 156.4 189.831 156.397 189.831C156.4 189.831 156.403 189.833 156.405 189.836ZM156.326 189.782C156.287 189.755 156.249 189.728 156.211 189.701C154.019 188.163 151.895 186.056 149.382 185.054C147.902 184.462 146.576 184.159 145.019 183.912C138.566 182.885 138.907 179.342 138.463 175.509L138.285 175.142L138.463 175.509C138.907 179.342 138.566 182.885 145.019 183.912C146.576 184.159 147.902 184.462 149.382 185.054C151.895 186.056 154.019 188.163 156.211 189.701C156.249 189.728 156.287 189.755 156.326 189.782ZM167.484 185.919C167.486 185.912 167.487 185.907 167.488 185.899C167.487 185.907 167.486 185.912 167.484 185.919ZM167.492 185.882C167.493 185.878 167.494 185.873 167.495 185.868C167.494 185.873 167.493 185.878 167.492 185.882ZM167.497 185.851C167.498 185.846 167.499 185.841 167.5 185.836C167.499 185.841 167.498 185.846 167.497 185.851ZM167.504 185.816C167.505 185.812 167.506 185.809 167.507 185.804C167.505 185.809 167.505 185.812 167.504 185.816ZM167.51 185.785C167.511 185.78 167.512 185.777 167.512 185.772C167.512 185.777 167.511 185.78 167.51 185.785ZM167.532 185.662C167.532 185.66 167.532 185.66 167.533 185.657C167.532 185.66 167.532 185.66 167.532 185.662ZM167.537 185.631C167.538 185.628 167.538 185.628 167.538 185.626C167.538 185.628 167.538 185.628 167.537 185.631ZM167.542 185.599C167.542 185.599 167.542 185.596 167.543 185.594C167.542 185.596 167.542 185.596 167.542 185.599Z" fill="#100F0D"/>
<path d="M161.258 191.43C161.256 191.43 161.254 191.43 161.252 191.43C159.681 191.427 157.995 190.902 156.405 189.836C156.403 189.833 156.4 189.831 156.397 189.831C156.374 189.814 156.349 189.799 156.326 189.782C156.287 189.755 156.249 189.728 156.211 189.701C154.019 188.163 151.895 186.056 149.382 185.054C147.902 184.462 146.576 184.159 145.019 183.912C138.566 182.885 138.907 179.342 138.463 175.509L138.285 175.142C138.391 174.191 138.533 173.205 138.711 172.215C139.931 172.875 141.19 173.443 142.383 173.917C149.247 176.636 157.085 177.949 164.459 177.949C164.506 177.949 164.554 177.949 164.601 177.949C165.352 177.949 166.119 177.895 166.889 177.819C167.473 180.328 167.953 183.088 167.543 185.594C167.542 185.596 167.542 185.599 167.542 185.599C167.54 185.609 167.54 185.618 167.538 185.626C167.538 185.628 167.538 185.628 167.537 185.631C167.536 185.64 167.534 185.648 167.533 185.657C167.532 185.66 167.532 185.66 167.532 185.662C167.525 185.699 167.518 185.736 167.512 185.772C167.512 185.777 167.511 185.78 167.51 185.785C167.509 185.789 167.508 185.797 167.507 185.804C167.506 185.809 167.505 185.812 167.504 185.816C167.503 185.824 167.501 185.829 167.5 185.836C167.499 185.841 167.498 185.846 167.497 185.851C167.496 185.855 167.496 185.863 167.495 185.868C167.494 185.873 167.493 185.878 167.492 185.882C167.491 185.89 167.489 185.895 167.488 185.899C167.487 185.907 167.486 185.912 167.484 185.919C167.483 185.924 167.482 185.929 167.482 185.934C167.479 185.944 167.477 185.956 167.475 185.966C166.747 189.574 164.213 191.425 161.27 191.43C161.266 191.43 161.263 191.43 161.258 191.43Z" fill="#6AB8E9"/>
<path d="M172.164 190.3C172.161 190.3 172.159 190.3 172.156 190.3C172.159 190.3 172.161 190.3 172.164 190.3ZM172.173 190.3C175.156 190.296 177.519 188.181 179.242 184.929C177.519 188.183 175.156 190.296 172.173 190.3ZM167.828 188.968C169.125 185.53 168.917 180.765 168.268 177.658C168.269 177.655 168.27 177.655 168.271 177.655C168.92 180.765 169.126 185.535 167.828 188.968ZM179.281 184.853C179.298 184.821 179.314 184.792 179.329 184.76C179.338 184.746 179.347 184.728 179.355 184.711C179.347 184.728 179.338 184.746 179.329 184.76C179.314 184.792 179.298 184.821 179.281 184.853ZM179.361 184.702C179.368 184.687 179.374 184.675 179.381 184.662C179.374 184.675 179.368 184.687 179.361 184.702ZM179.386 184.65C179.393 184.636 179.401 184.623 179.408 184.609C179.401 184.623 179.393 184.636 179.386 184.65ZM179.41 184.601C179.489 184.447 179.563 184.291 179.634 184.134C179.563 184.291 179.489 184.447 179.41 184.601ZM179.637 184.129C179.644 184.115 179.652 184.098 179.659 184.081C179.652 184.098 179.645 184.115 179.637 184.129ZM179.66 184.081C179.675 184.044 179.69 184.01 179.706 183.975C179.691 184.01 179.675 184.044 179.66 184.081ZM179.707 183.973C179.714 183.958 179.72 183.944 179.726 183.929C179.72 183.944 179.714 183.958 179.707 183.973ZM179.734 183.912C179.739 183.902 179.744 183.89 179.747 183.88C179.744 183.89 179.739 183.902 179.734 183.912ZM179.756 183.861C179.76 183.851 179.764 183.843 179.769 183.834C179.765 183.841 179.76 183.851 179.756 183.861ZM179.778 183.812C179.781 183.802 179.785 183.795 179.788 183.787C179.785 183.795 179.781 183.802 179.778 183.812ZM179.815 183.721C179.816 183.721 179.816 183.721 179.816 183.719C179.816 183.721 179.816 183.721 179.815 183.721ZM179.833 183.68C179.834 183.68 179.835 183.677 179.836 183.675C179.835 183.677 179.834 183.68 179.833 183.68ZM179.852 183.633C179.852 183.633 179.853 183.633 179.854 183.631C179.853 183.633 179.852 183.633 179.852 183.633Z" fill="#100F0D"/>
<path d="M172.164 190.3C172.161 190.3 172.159 190.3 172.156 190.3C170.834 190.298 169.391 189.882 167.828 188.968C169.126 185.535 168.92 180.765 168.271 177.655C172.314 177.049 176.506 175.521 180.279 173.372C181.15 176.797 181.227 180.286 179.854 183.631C179.853 183.633 179.852 183.633 179.852 183.633C179.846 183.648 179.84 183.66 179.836 183.675C179.835 183.677 179.834 183.68 179.833 183.68C179.827 183.694 179.822 183.706 179.816 183.719C179.816 183.721 179.816 183.721 179.815 183.721C179.807 183.743 179.797 183.765 179.788 183.787C179.785 183.795 179.781 183.802 179.778 183.812C179.774 183.819 179.771 183.826 179.769 183.834C179.764 183.843 179.76 183.851 179.756 183.861C179.753 183.868 179.75 183.873 179.747 183.88C179.744 183.89 179.739 183.902 179.734 183.912C179.731 183.917 179.729 183.922 179.726 183.929C179.72 183.944 179.714 183.958 179.707 183.973C179.706 183.973 179.706 183.975 179.706 183.975C179.69 184.01 179.675 184.044 179.66 184.081C179.659 184.081 179.659 184.081 179.659 184.081C179.652 184.098 179.644 184.115 179.637 184.129C179.636 184.132 179.635 184.134 179.634 184.134C179.563 184.291 179.489 184.447 179.41 184.601C179.41 184.604 179.409 184.606 179.408 184.609C179.401 184.623 179.393 184.636 179.386 184.65C179.385 184.655 179.383 184.658 179.381 184.662C179.374 184.675 179.368 184.687 179.361 184.702C179.359 184.704 179.357 184.709 179.355 184.711C179.347 184.728 179.338 184.746 179.329 184.76C179.314 184.792 179.298 184.821 179.281 184.853C179.269 184.878 179.256 184.902 179.242 184.929C177.519 188.181 175.156 190.296 172.173 190.3C172.169 190.3 172.167 190.3 172.164 190.3Z" fill="#6AB8E9"/>
<path d="M186.908 186.983C186.907 186.983 186.904 186.983 186.902 186.983C186.904 186.983 186.907 186.983 186.908 186.983ZM186.914 186.983C192.636 186.978 194.678 177.677 193.946 172.208C194.678 177.677 192.637 186.978 186.914 186.983ZM181.24 184.535C181.244 184.526 181.246 184.518 181.25 184.508C181.247 184.516 181.244 184.526 181.24 184.535ZM181.258 184.486C181.263 184.474 181.267 184.462 181.272 184.45C181.267 184.462 181.263 184.474 181.258 184.486ZM181.273 184.447C182.709 180.557 182.926 176.452 181.763 172.487C181.767 172.484 181.772 172.482 181.775 172.479C182.943 176.445 182.71 180.555 181.273 184.447ZM193.945 172.196C193.941 172.171 193.937 172.147 193.934 172.122C193.937 172.147 193.941 172.171 193.945 172.196ZM193.927 172.078C193.926 172.061 193.923 172.044 193.92 172.027C193.923 172.044 193.926 172.061 193.927 172.078ZM193.919 172.02C193.917 172.003 193.914 171.985 193.911 171.968C193.914 171.985 193.917 172.003 193.919 172.02ZM193.911 171.963C193.908 171.946 193.906 171.929 193.903 171.91C193.906 171.929 193.908 171.946 193.911 171.963ZM193.903 171.91C193.9 171.893 193.898 171.878 193.895 171.861C193.898 171.875 193.9 171.893 193.903 171.91ZM193.893 171.851C193.89 171.834 193.888 171.817 193.886 171.802C193.888 171.817 193.89 171.834 193.893 171.851ZM193.884 171.792C193.882 171.78 193.88 171.768 193.878 171.756C193.88 171.768 193.882 171.78 193.884 171.792ZM193.875 171.736C193.873 171.724 193.87 171.712 193.868 171.699C193.87 171.712 193.873 171.724 193.875 171.736ZM193.863 171.673C193.863 171.668 193.863 171.665 193.862 171.66C193.863 171.665 193.863 171.668 193.863 171.673Z" fill="#100F0D"/>
<path d="M186.908 186.983C186.907 186.983 186.904 186.983 186.902 186.983C185.374 186.98 183.582 186.318 181.512 184.741L181.22 184.587C181.227 184.57 181.233 184.552 181.239 184.535C181.243 184.526 181.247 184.516 181.25 184.508C181.253 184.501 181.256 184.494 181.257 184.486C181.262 184.474 181.267 184.462 181.272 184.45C181.272 184.447 181.272 184.447 181.273 184.447C182.71 180.555 182.942 176.445 181.775 172.479C184.891 170.506 187.649 168.12 189.681 165.506C189.931 165.184 190.169 164.824 190.398 164.453C192.15 166.48 193.384 168.9 193.861 171.66C193.862 171.665 193.863 171.668 193.863 171.673C193.865 171.682 193.866 171.69 193.868 171.699C193.87 171.712 193.873 171.724 193.875 171.736C193.876 171.743 193.876 171.751 193.877 171.756C193.879 171.768 193.881 171.78 193.883 171.792C193.884 171.795 193.884 171.8 193.885 171.802C193.888 171.817 193.89 171.834 193.893 171.851C193.894 171.853 193.894 171.856 193.895 171.861C193.898 171.878 193.899 171.893 193.902 171.91C193.905 171.929 193.908 171.946 193.911 171.963C193.911 171.966 193.911 171.966 193.911 171.968C193.914 171.985 193.917 172.003 193.919 172.02C193.92 172.022 193.92 172.025 193.92 172.027C193.922 172.044 193.925 172.061 193.927 172.078C193.929 172.093 193.932 172.108 193.934 172.122C193.937 172.147 193.941 172.171 193.944 172.196C193.944 172.201 193.945 172.206 193.945 172.208C194.678 177.677 192.636 186.978 186.913 186.983C186.911 186.983 186.909 186.983 186.908 186.983Z" fill="#6AB8E9"/>
<path d="M207.458 107.569C207.169 97.9874 206.331 88.0244 203.721 78.7606C201.338 70.3011 197.363 63.426 192.486 56.304C192.269 56.8981 192.046 57.4922 191.808 58.0765C191.584 58.6364 190.765 58.2037 190.919 57.6927C191.59 55.458 192.173 53.216 192.681 50.9618L192.537 50.8371C190.191 44.5854 184.931 41.3483 180.681 36.5734C180.244 36.0844 180.794 35.3167 181.339 35.7837C185.532 39.3826 192.294 44.3752 192.81 50.3921C193.631 46.6514 194.219 42.8838 194.572 39.1064L194.508 39.0819C191.497 36.5025 188.267 34.0943 185.351 31.4195C184.924 31.021 185.212 30.3169 185.784 30.6885C188.985 32.7545 192.189 35.4708 194.632 38.4316C194.933 34.8938 195.011 31.3413 194.885 27.7888C193.44 26.1238 191.478 25.1165 189.764 23.7254C189.332 23.3733 189.644 22.7132 190.167 23.0432C191.825 24.0921 193.602 25.2388 194.844 26.7913C194.632 22.2511 194.07 17.7035 193.118 13.1682C192.686 11.1022 191.213 5.25641 186.982 8.18542C185.766 9.02403 184.897 10.3394 184.052 11.5227C182.542 13.6254 181.386 15.9945 180.203 18.2928C176.851 24.7987 173.126 31.1579 169.564 37.5685L169.567 37.571C170.505 38.1186 169.502 39.6125 168.63 39.2506L168.278 39.8814C167.838 40.6882 166.583 39.6785 166.993 38.9352L167.227 38.5098C150.988 29.5467 129.402 27.7668 111.271 29.2949C92.0619 30.9135 74.6799 36.9377 58.7928 47.8396C59.1652 48.6489 59.5378 49.4606 59.9111 50.2699C60.2578 51.0205 58.9723 51.9104 58.5999 51.0987C55.2763 43.8397 51.6566 36.6541 48.5136 29.3193C47.5232 27.0064 46.5672 24.63 45.2453 22.4809C44.5042 21.278 43.7546 19.9382 42.6333 19.0384C38.7271 15.904 36.8934 21.4785 36.33 23.4515C35.0932 27.7888 34.2365 32.1628 33.7132 36.5563C35.0292 35.1358 36.8323 34.1456 38.5122 33.2434C39.0452 32.9598 39.3031 33.62 38.8589 33.9305C37.0988 35.1627 35.1247 36.0087 33.6062 37.5221C33.2385 40.9621 33.0685 44.4143 33.1191 47.8714C35.693 45.1674 38.9899 42.7493 42.2417 40.9621C42.8206 40.6467 43.0536 41.3508 42.6104 41.7029C39.5963 44.1038 36.2947 46.2162 33.1927 48.5095L33.1306 48.5316C33.2118 52.2234 33.5222 55.9201 34.0599 59.6071C34.9767 53.8028 41.8864 49.4215 46.2042 46.2187C46.7667 45.803 47.2442 46.5878 46.7878 47.0303C42.3324 51.3725 37.0034 54.1524 34.2957 60.0569L34.1458 60.1718C34.4849 62.3918 34.8927 64.6118 35.3921 66.822C35.5067 67.3306 34.6806 67.6973 34.5011 67.1349C34.3263 66.5922 34.162 66.0421 34.0045 65.4895C30.0744 73.5626 25.6172 81.2446 22.5238 89.7456C19.4381 98.2295 16.6111 106.902 15.2741 115.857C12.9485 131.458 13.7718 153.957 32.6034 158.199L32.739 158.255C33.3531 158.181 33.9911 158.098 34.5804 158.213C34.8239 158.26 34.907 158.409 34.8974 158.573C38.2716 157.487 43.6534 155.969 45.7421 159.223C47.8555 157.724 50.2116 156.685 52.7416 156.441C55.2494 156.201 61.3837 156.551 61.9854 159.67C63.8812 158.658 65.9298 158.081 68.0852 158.14C73.2836 158.282 76.4831 160.683 78.3884 164.135C84.6269 168.198 95.9469 167.79 102.513 168.223C109.905 168.704 117.373 168.707 124.725 167.68C130.362 166.888 134.985 165.355 140.043 163.255C141.996 160.279 145.076 158.267 149.818 158.14C151.976 158.081 154.024 158.658 155.919 159.67C156.521 156.551 162.654 156.201 165.164 156.441C167.694 156.685 170.049 157.724 172.162 159.223C174.466 155.634 180.78 157.849 183.982 158.89L184.342 159.022C184.524 158.717 184.805 158.455 185.172 158.397C195.668 156.639 201.629 144.162 204.237 135.05C206.79 126.128 207.735 116.833 207.458 107.569Z" fill="#F0415D"/>
<path d="M168.368 72.1714C136.364 68.2669 103.607 70.1837 72.6678 79.5453C57.9648 83.9951 43.2923 89.0365 29.7058 96.2857C25.7519 98.3982 21.8419 100.669 18.0934 103.168C16.9034 107.339 15.9159 111.564 15.2741 115.857C15.0783 117.18 14.9045 118.559 14.7612 119.965C16.3199 118.605 17.9434 117.297 19.6654 116.046C29.2369 109.104 39.8158 103.689 50.6977 99.1243C99.538 78.6456 154.148 74.2007 205.455 86.3471C205.001 83.8728 204.455 81.423 203.786 79.0172C192.151 75.9464 180.317 73.6311 168.368 72.1714Z" fill="#EE2622"/>
<path d="M191.715 58.2183C191.515 58.4285 191.175 58.3283 191.003 58.0985C187.283 57.4823 183.535 57.0349 179.796 56.6951C146.409 53.6536 112.395 54.6242 79.5633 61.717C63.7906 65.1252 48.2338 69.883 33.6407 76.8364C31.234 77.9806 28.8549 79.1566 26.5217 80.4133C25.2258 83.1271 23.9985 85.8801 22.9193 88.726C27.4386 86.0415 32.0925 83.6064 36.8744 81.4084C51.308 74.7924 66.4934 69.993 81.9652 66.487C97.3176 63.0079 112.866 60.492 128.595 59.6192C151.939 58.3283 175.609 60.0251 198.309 65.7046C197.012 63.3135 195.589 60.9835 194.059 58.6461C193.278 58.497 192.498 58.3552 191.715 58.2183Z" fill="#EE2622"/>
<path d="M111.575 168.536C108.551 168.536 105.525 168.418 102.513 168.223C95.9467 167.79 84.6268 168.198 78.3883 164.135C76.483 160.683 73.2835 158.282 68.0851 158.14C67.9859 158.137 67.8866 158.135 67.7864 158.135C65.7397 158.135 63.7933 158.705 61.9853 159.67C61.4782 157.042 57.0497 156.379 54.1655 156.379C53.6249 156.379 53.1379 156.404 52.7415 156.441C50.2115 156.685 47.8554 157.724 45.742 159.223C44.7965 157.749 43.1768 157.255 41.3726 157.255C39.1923 157.255 36.7444 157.979 34.8973 158.573C34.8983 158.565 34.8983 158.558 34.8983 158.551C34.8992 158.394 34.8123 158.257 34.5803 158.213C34.3682 158.174 34.1505 158.157 33.9289 158.157C33.5354 158.157 33.1324 158.208 32.7389 158.255L32.6033 158.199C18.2403 154.961 14.3533 141.109 14.3485 127.793C14.3476 123.649 14.7219 119.559 15.2739 115.857C15.0782 117.18 14.9043 118.559 14.7611 119.965C16.3197 118.605 17.9433 117.297 19.6653 116.046C20.2135 115.65 20.7645 115.258 21.3185 114.87C21.7874 118.317 22.5915 121.73 23.8197 125.087C27.1089 134.072 33.5307 141.016 42.1719 145.072C46.8546 147.27 51.8046 147.778 56.9065 148.03C60.0484 148.187 63.1552 148.522 66.1607 149.502C68.7079 150.331 71.108 151.48 73.7229 152.108C73.7659 152.12 73.8099 152.125 73.8527 152.125C74.2395 152.125 74.5901 151.724 74.3982 151.333C73.6388 149.778 72.6628 148.38 71.7469 146.918C70.4203 144.803 70.6371 143.033 70.4137 140.683C70.1271 137.676 68.3602 137.153 66.0874 135.539C63.6432 133.803 61.0369 132.385 59.403 129.774C56.871 125.723 58.7908 121.036 62.8019 119.29C60.9176 125.481 69.0719 128.065 73.9043 129.207C79.2765 130.476 84.8167 131.004 90.3484 131.004C93.1045 131.004 95.859 130.872 98.5885 130.637C106.567 129.957 114.453 128.268 122.129 126.026C129.474 123.882 136.236 120.808 143.152 117.596C146.433 116.073 150.176 114.271 153.856 114.212C153.871 114.212 153.886 114.212 153.901 114.212C156.704 114.212 152.952 118.031 152.242 118.769C150.891 120.173 149.421 121.454 147.968 122.75C146.799 123.791 145.253 124.845 144.798 126.424C144.326 128.053 144.85 130.37 144.785 132.055C144.628 136.121 141.803 139.343 140.567 143.055C139.564 146.055 139.55 149.187 142.869 150.514C144.239 151.059 145.771 151.248 147.341 151.248C149.679 151.248 152.101 150.832 154.199 150.57C159.11 149.962 164.037 149.984 168.958 149.49C179.466 148.434 189.131 144.502 195.006 135.348C196.792 132.566 198.177 129.544 199.226 126.38C202.769 119.728 205.204 112.398 206.794 105.161C206.967 104.374 207.11 103.584 207.258 102.799C207.339 104.398 207.411 105.99 207.458 107.569C207.489 108.618 207.505 109.667 207.504 110.718C207.5 118.935 206.5 127.138 204.237 135.05C201.629 144.162 195.668 156.639 185.172 158.397C184.805 158.455 184.524 158.717 184.342 159.022L183.982 158.89C182.094 158.277 179.125 157.255 176.533 157.255C174.729 157.255 173.107 157.749 172.162 159.223C170.049 157.724 167.694 156.685 165.164 156.441C164.768 156.404 164.281 156.379 163.739 156.379C160.855 156.379 156.425 157.042 155.919 159.67C154.111 158.705 152.165 158.135 150.118 158.135C150.018 158.135 149.918 158.137 149.818 158.14C145.076 158.267 141.996 160.279 140.043 163.255C134.985 165.355 130.362 166.888 124.724 167.68C120.369 168.289 115.972 168.536 111.575 168.536ZM62.1325 120.965C56.0468 125.588 64.1219 131.754 68.6467 133.363C70.7193 134.101 72.9168 134.583 75.1859 134.889C74.4498 151.517 89.9721 155.485 103.803 155.485C105.644 155.485 107.451 155.414 109.19 155.294C118.33 154.666 127.655 151.636 134.994 146.05C141.636 140.989 141.436 132.463 139.989 125.036L139.931 124.894C144.32 122.667 148.381 119.891 151.533 116.341C151.772 116.07 151.624 115.64 151.343 115.64C151.27 115.64 151.188 115.669 151.102 115.738C146.59 119.29 142.307 122.481 137.479 125.08C137.425 125.062 137.365 125.055 137.304 125.055C136.945 125.055 136.503 125.324 136.36 125.681C134.626 126.561 132.816 127.366 130.897 128.08C122.857 131.057 114.267 132.028 105.786 132.84C99.3936 133.454 92.9642 133.573 86.5436 133.573C85.3839 133.573 84.2246 133.568 83.0662 133.564C79.2699 133.542 75.5135 133.277 71.789 132.534C68.4196 131.859 56.2216 126.608 62.2452 121.121L62.1325 120.965Z" fill="#EA2B3F"/>
<path d="M15.3065 115.64C16.2052 109.733 17.7467 103.951 19.5794 98.2637C17.7467 103.951 16.2052 109.733 15.3065 115.64Z" fill="#100F0D"/>
<path d="M15.274 115.857C15.2846 115.784 15.296 115.713 15.3065 115.64C16.2052 109.733 17.7467 103.951 19.5794 98.2637C20.501 95.4056 21.4972 92.5695 22.521 89.7529C22.265 91.1123 22.031 92.4742 21.8276 93.8384C21.4609 96.3225 21.1715 98.8114 20.9929 101.298C20.0178 101.907 19.0503 102.53 18.0934 103.168C16.9034 107.339 15.9158 111.564 15.274 115.857Z" fill="#EA2B3F"/>
<path d="M14.7612 119.965C14.9045 118.559 15.0783 117.18 15.2741 115.857C15.9159 111.564 16.9034 107.339 18.0934 103.168C19.0503 102.53 20.0178 101.907 20.9929 101.298C20.6663 105.845 20.7093 110.388 21.3186 114.87C20.7647 115.258 20.2136 115.649 19.6654 116.046C17.9434 117.297 16.3199 118.605 14.7612 119.965Z" fill="#E91F24"/>
<path d="M42.2416 40.9621C42.8206 40.6467 43.0536 41.3508 42.6103 41.7029C39.5962 44.1038 36.2946 46.2162 33.1926 48.5095L33.1306 48.5316C33.2117 52.2234 33.5221 55.9201 34.0598 59.6071C34.9767 53.8028 41.8864 49.4215 46.2041 46.2187C46.7667 45.803 47.2442 46.5878 46.7877 47.0303C42.3323 51.3725 37.0034 54.1524 34.2957 60.0569L34.1458 60.1718C34.2747 61.0251 34.4247 61.876 34.5775 62.7292C41.5972 56.8492 48.3454 50.6195 56.3907 46.3678C53.7196 40.7053 50.9727 35.0551 48.5136 29.3193C47.5232 27.0064 46.5672 24.63 45.2452 22.4809C44.5042 21.278 43.7546 19.9382 42.6333 19.0384C38.7271 15.904 36.8934 21.4785 36.33 23.4515C35.0932 27.7888 34.2365 32.1628 33.7131 36.5563C35.0292 35.1358 36.8322 34.1456 38.5122 33.2435C39.0451 32.9598 39.3031 33.62 38.8588 33.9305C37.0987 35.1627 35.1247 36.0087 33.6062 37.5221C33.2385 40.9621 33.0685 44.4143 33.1191 47.8714C35.693 45.1674 38.9899 42.7493 42.2416 40.9621Z" fill="#FCFBCF"/>
<path d="M191.39 56.0105C191.859 54.3308 192.299 52.6512 192.681 50.9618L192.537 50.8371C190.191 44.5854 184.931 41.3483 180.681 36.5734C180.244 36.0844 180.794 35.3167 181.339 35.7837C185.531 39.3826 192.294 44.3751 192.81 50.3921C193.631 46.6513 194.218 42.8837 194.572 39.1063L194.508 39.0819C191.497 36.5025 188.267 34.0942 185.351 31.4195C184.924 31.021 185.212 30.3168 185.783 30.6885C188.985 32.7544 192.189 35.4707 194.632 38.4315C194.933 34.8937 195.011 31.3412 194.885 27.7888C193.44 26.1238 191.477 25.1165 189.764 23.7253C189.332 23.3733 189.644 22.7131 190.167 23.0432C191.825 24.0921 193.602 25.2388 194.844 26.7913C194.632 22.2511 194.07 17.7034 193.118 13.1681C192.685 11.1022 191.213 5.25637 186.982 8.18539C185.766 9.024 184.897 10.3393 184.052 11.5227C182.542 13.6253 181.386 15.9945 180.203 18.2927C176.872 24.7571 173.174 31.0747 169.634 37.4462C177.123 43.3507 184.467 49.4483 191.39 56.0105Z" fill="#FCFBCF"/>
<path d="M36.7933 60.8588C41.3871 56.9567 45.9361 53.0106 50.8861 49.683C50.8871 49.6855 50.889 49.6855 50.8898 49.6879C45.9408 53.0155 41.3881 56.9567 36.7933 60.8588Z" fill="#EF434B"/>
<path d="M36.33 23.4514C36.351 23.3805 36.3729 23.3023 36.3978 23.2216C36.3729 23.3023 36.351 23.3805 36.33 23.4514Z" fill="#100F0D"/>
<path d="M34.5774 62.7292C34.4246 61.876 34.2747 61.0251 34.1457 60.1718L34.2957 60.0569C37.0034 54.1524 42.3323 51.3725 46.7877 47.0303C46.9165 46.9057 46.9711 46.7541 46.9701 46.6098C46.9681 46.3433 46.7791 46.1013 46.5222 46.1013C46.4239 46.1013 46.3158 46.1355 46.2041 46.2187C41.8864 49.4215 34.9766 53.8028 34.0598 59.6071C33.5221 55.9201 33.2117 52.2234 33.1305 48.5316L33.1926 48.5095C36.2946 46.2162 39.5962 44.1038 42.6103 41.7029C42.7707 41.5758 42.8423 41.4022 42.8413 41.2481C42.8413 41.0501 42.721 40.8838 42.514 40.8838C42.4345 40.8838 42.3438 40.9083 42.2416 40.9621C38.9899 42.7493 35.6929 45.1674 33.1191 47.8714C33.1133 47.4656 33.1105 47.0597 33.1105 46.6563C33.1114 43.6075 33.2814 40.5587 33.6061 37.5221C35.1246 36.0087 37.0987 35.1627 38.8588 33.9305C39.0175 33.8205 39.0862 33.664 39.0852 33.5246C39.0842 33.3363 38.96 33.175 38.7576 33.175C38.685 33.175 38.6031 33.1946 38.5121 33.2435C36.8322 34.1456 35.0292 35.1358 33.7131 36.5563C34.2365 32.1628 35.0931 27.7888 36.3299 23.4515C36.351 23.3806 36.3729 23.3024 36.3977 23.2217C36.84 21.7303 37.8713 18.8331 39.726 18.2268C39.4079 23.8647 41.0316 29.691 43.0677 34.8815C45.0916 40.0354 47.7551 45.0304 50.8859 49.6831C45.9359 53.0107 41.3869 56.9567 36.7931 60.8588C36.0558 61.4823 35.3185 62.1082 34.5774 62.7292Z" fill="#F9F6A3"/>
<path d="M177.825 44.0769C175.118 41.8374 172.391 39.6222 169.634 37.4462C172.392 39.6222 175.129 41.8202 177.834 44.0622C177.831 44.0671 177.828 44.072 177.825 44.0769Z" fill="#EF434B"/>
<path d="M181.232 37.1772C181.047 36.9792 180.863 36.7762 180.681 36.5733L181.234 37.1748C181.233 37.1748 181.233 37.1772 181.232 37.1772Z" fill="#100F0D"/>
<path d="M177.834 44.0623C175.129 41.8203 172.392 39.6223 169.634 37.4463C173.174 31.0748 176.872 24.7572 180.203 18.2928C181.386 15.9946 182.542 13.6254 184.052 11.5228C184.897 10.3394 185.766 9.02406 186.982 8.18546C187.796 7.62068 188.505 7.38596 189.126 7.38596C189.628 7.38596 190.072 7.53997 190.463 7.79914C190.081 9.6255 189.563 11.4054 189.145 12.9799C187.894 17.6913 186.662 22.4565 185.16 27.0921C184.17 30.1433 183.016 33.153 181.724 36.1114L181.339 35.7837C181.22 35.681 181.101 35.6395 180.992 35.6395C180.729 35.6395 180.525 35.8889 180.523 36.1676C180.522 36.3045 180.569 36.4487 180.681 36.5734C180.863 36.7764 181.046 36.9793 181.232 37.1774C180.178 39.5074 179.057 41.8105 177.834 44.0623Z" fill="#F9F6A3"/>
<path d="M151.102 115.738C146.59 119.29 142.307 122.481 137.479 125.08C137.105 124.965 136.528 125.263 136.36 125.681C134.627 126.561 132.817 127.366 130.897 128.079C122.858 131.057 114.267 132.028 105.786 132.84C98.2401 133.563 90.6418 133.6 83.0664 133.563C79.2702 133.541 75.5138 133.277 71.7892 132.534C68.4199 131.859 56.2219 126.608 62.2454 121.121L62.1327 120.965C56.0471 125.588 64.1222 131.754 68.647 133.363C70.7196 134.101 72.917 134.583 75.1862 134.889C74.3525 153.729 94.3884 156.316 109.19 155.294C118.331 154.666 127.656 151.636 134.994 146.05C141.637 140.989 141.436 132.463 139.989 125.036L139.931 124.894C144.32 122.666 148.381 119.891 151.533 116.341C151.834 116.002 151.522 115.407 151.102 115.738Z" fill="#231F20"/>
<path d="M136.245 126.591C136.021 129.358 135.601 132.38 133.667 134.478C130.628 137.771 128.342 132.053 127.398 129.815C130.32 128.908 133.311 127.85 136.245 126.591Z" fill="white"/>
<path d="M88.5663 135.236C88.3448 136.162 88.3695 137.268 88.2472 138.109C88.0018 139.813 87.7 141.913 86.4795 143.231C83.9667 145.947 80.2526 137.285 79.4008 135.251C82.4444 135.407 85.5417 135.353 88.5663 135.236Z" fill="white"/>
<path d="M107.69 153.785C103.159 154.101 98.5989 154.103 94.1714 153.37C94.7692 148.614 103.315 146.25 107.302 145.72C113.057 144.957 119.666 145.918 123.509 150.546C118.471 152.419 113.162 153.402 107.69 153.785Z" fill="#F57FA6"/>
<path d="M131.212 146.81C129.188 148.055 127.103 149.099 124.963 149.976C120.88 144.546 112.512 143.111 106.144 144.612C102.193 145.549 93.4697 148.015 93.2357 153.211C90.5174 152.695 87.853 151.888 85.2809 150.688C81.669 149.001 78.9566 146.306 77.3655 142.673C76.6625 141.074 76.3704 139.292 76.0868 137.583C75.9836 136.979 75.8022 135.739 75.6809 134.947C76.6655 135.07 77.6664 135.15 78.6701 135.214L78.652 135.392C79.3635 138.052 81.8715 146.008 85.9085 144.803C87.7307 144.26 88.5062 142.38 89.0087 140.705C89.3561 139.546 89.5453 138.336 89.7267 137.143C89.8155 136.573 90.0219 135.842 90.0705 135.175C92.0037 135.089 93.9022 134.996 95.7188 134.94C105.899 134.615 115.793 133.248 125.57 130.378C125.996 130.251 126.433 130.111 126.867 129.979C127.585 132.876 129.313 138.468 133.395 136.104C136.543 134.28 137.857 129.412 137.804 125.906L138.391 125.647C140.038 134.307 139.249 141.869 131.212 146.81Z" fill="#F9ED5B"/>
<path d="M93.2358 153.211C93.4698 148.015 102.193 145.549 106.144 144.612C107.702 144.245 109.379 144.052 111.084 144.052C109.379 144.052 107.702 144.245 106.144 144.612C102.193 145.549 93.4698 148.015 93.2358 153.211ZM124.963 149.976C124.927 149.93 124.891 149.881 124.855 149.834C124.891 149.881 124.927 149.93 124.963 149.976C127.103 149.099 129.188 148.055 131.212 146.81C129.188 148.055 127.103 149.099 124.963 149.976ZM124.854 149.832C124.799 149.764 124.745 149.695 124.689 149.627C124.745 149.695 124.799 149.764 124.854 149.832ZM111.104 144.052C111.099 144.052 111.094 144.052 111.088 144.052C111.094 144.052 111.099 144.052 111.104 144.052Z" fill="#100F0D"/>
<path d="M93.2357 153.211C90.9236 152.771 88.6505 152.103 86.4396 151.182C88.1366 146.998 91.3294 143.448 95.0215 140.739C99.4062 137.527 104.337 136.192 109.583 136.192C110.331 136.192 111.086 136.219 111.846 136.272C119.118 136.779 128.315 139.637 132.578 145.893C132.148 146.206 131.694 146.514 131.212 146.81C129.188 148.055 127.103 149.099 124.963 149.976C124.927 149.93 124.891 149.881 124.854 149.834C124.853 149.834 124.853 149.832 124.853 149.832C124.799 149.764 124.745 149.695 124.689 149.627C121.563 145.776 116.211 144.057 111.104 144.052C111.099 144.052 111.094 144.052 111.088 144.052C111.086 144.052 111.085 144.052 111.084 144.052C109.379 144.052 107.702 144.245 106.144 144.612C102.193 145.549 93.4697 148.015 93.2357 153.211Z" fill="#F9D623"/>
<path d="M46.7344 26.0188C45.3305 26.2877 43.9944 26.9112 42.8626 27.7815C42.6286 27.9649 42.7709 28.3659 43.0565 28.1703C44.1978 27.4026 45.4318 27.0188 46.7584 26.7131C47.1202 26.63 47.1728 25.9307 46.7344 26.0188Z" fill="#231F20"/>
<path d="M98.0069 112.481C96.8925 112.325 96.2994 113.422 95.9517 114.293C95.7197 114.87 95.3661 115.747 95.5143 116.376C95.6431 116.943 96.2964 116.928 96.6517 116.579C97.0309 116.207 97.2458 115.637 97.5103 115.187L97.7147 114.862L97.9162 114.584C98.114 114.361 98.3536 114.175 98.4922 113.901C98.7567 113.383 98.7443 112.584 98.0069 112.481Z" fill="#231F20"/>
<path d="M109.702 113.099C109.291 112.774 108.845 112.369 108.356 112.168C107.78 111.936 107.152 112.569 107.385 113.144C107.585 113.635 107.997 114.068 108.317 114.488C108.64 114.911 109.093 115.738 109.668 115.779C110.437 115.833 111.048 115.219 110.993 114.452C110.951 113.867 110.122 113.432 109.702 113.099Z" fill="#231F20"/>
<path d="M150.638 27.0237C146.023 16.9335 134.832 15.0411 125.092 18.6718C116.458 21.8917 106.381 32.3315 106.214 41.9548C106.192 43.0941 107.542 42.7812 107.885 42.0062L107.976 41.8057C116.931 29.163 131.132 17.244 145.864 28.9918C146.735 29.6862 147.859 29.251 148.431 28.471L148.628 28.6324C149.63 29.3952 151.17 28.1899 150.638 27.0237Z" fill="#231F20"/>
<path d="M58.2102 38.8984C58.1176 39.1722 58.1232 39.5757 58.3706 39.781L58.5369 39.9204L58.9674 40.094C59.7288 40.4998 61.0801 39.9057 61.1222 38.8006L61.1642 38.5463C61.6762 38.7224 62.3446 38.6564 62.8517 38.2481C72.5502 30.461 86.2151 38.0182 91.2196 47.5779C91.9663 49.0081 94.1937 47.8909 94.2049 46.5241C94.3682 29.2581 64.2404 21.4465 58.2102 38.8984Z" fill="#231F20"/>
<path d="M63.4811 117.723C58.579 117.723 53.6891 116.293 49.3015 113.009C48.4543 112.373 49.3225 111.332 50.1345 111.046C47.5375 109.325 45.594 106.853 44.8395 103.408C44.6945 102.74 45.4145 101.899 46.1155 101.899C46.2654 101.899 46.4145 101.938 46.5539 102.024C48.2377 103.066 50.4582 104.606 52.6796 105.224C50.7684 103.765 49.1966 102.11 47.9331 100.305C48.8526 99.9067 49.7743 99.513 50.6978 99.1243C51.7322 98.6915 52.7703 98.2637 53.8094 97.8456C56.4338 103.432 61.0956 107.723 68.2907 108.921C69.0548 109.048 69.8102 109.107 70.5542 109.107C71.3919 109.107 72.216 109.031 73.0231 108.892C69.6909 110.344 65.9194 111.207 62.2024 111.207C58.3956 111.207 54.6461 110.305 51.4792 108.207L51.2498 108.452C54.3031 111.038 58.6 112.224 62.9825 112.224C67.0416 112.224 71.173 111.207 74.4585 109.344C69.1063 113.073 62.7371 115.921 56.8971 116.124C56.6326 116.134 56.3803 116.64 56.7328 116.684C57.2064 116.74 57.6793 116.767 58.1492 116.767C62.0476 116.767 65.8106 114.955 69.2391 113.229C73.5052 111.082 78.099 108.422 81.397 104.833C82.4722 103.943 83.4761 102.951 84.3834 101.897C87.855 97.8554 90.9283 92.5181 93.082 87.0146L93.4123 86.7285C93.6253 86.3129 93.8182 85.8899 93.992 85.4596C95.545 85.1222 97.1017 84.7971 98.6603 84.4866C96.6777 92.4815 92.8412 100.034 87.3296 106.224C81.2537 113.051 72.3459 117.723 63.4811 117.723ZM43.9601 89.5671C43.5139 85.8483 43.8063 81.9267 44.6906 78.0295C46.2644 77.3889 47.847 76.7679 49.4362 76.164C48.9416 79.7801 49.0839 83.4841 49.9807 87.1662C47.9617 87.9363 45.9532 88.7358 43.9601 89.5671ZM51.1457 85.9853C50.4963 82.6137 50.2183 79.3009 50.587 75.7313C51.1726 75.5137 51.7589 75.2985 52.3461 75.0858C51.4486 78.5478 51.0215 82.291 51.1457 85.9853ZM94.4208 74.2203C94.4494 70.6972 94.1076 67.2376 93.1536 64.1375C94.1172 63.9517 95.0846 63.7707 96.0501 63.5947C96.2795 67.0884 95.8477 70.5921 95.1753 74.0785C94.9252 74.125 94.6722 74.1714 94.4208 74.2203ZM96.1638 73.8976C96.5486 70.4502 96.7303 67.0151 96.0797 63.5898C97.2078 63.3819 98.3356 63.1815 99.4654 62.9883C100.057 66.355 100.298 69.7803 100.203 73.2032C98.8542 73.4208 97.5075 73.6531 96.1638 73.8976ZM46.8289 71.218C50.7342 61.3356 57.9181 51.4678 68.988 49.7197C69.031 49.7124 69.0721 49.71 69.1112 49.71C69.7577 49.71 70.0748 50.5535 69.6794 51.0571C69.2124 51.6464 68.7682 52.2502 68.3223 52.8541C71.3327 51.2282 74.471 49.9422 77.8995 49.9422C78.6589 49.9422 79.4315 50.0058 80.2192 50.1403C84.6201 50.9007 88.8586 52.0277 92.3791 54.612C92.4583 54.5949 92.5395 54.5851 92.6206 54.5851C92.8126 54.5851 93.0064 54.6365 93.1964 54.7538C94.3666 55.48 95.2565 56.5655 95.9328 57.8369C96.2641 57.4873 96.7474 57.277 97.2 57.277C97.7119 57.277 98.1867 57.5435 98.3672 58.1841C98.3796 58.2281 98.3919 58.2745 98.4053 58.321C95.9443 58.678 93.4908 59.0691 91.039 59.4897C88.7212 55.881 84.9947 53.2551 79.229 52.3896C78.168 52.2307 77.1335 52.1549 76.126 52.1549C69.2591 52.1549 63.6292 55.7025 59.468 60.7733L59.4663 60.7757C57.582 63.0739 55.9984 65.6802 54.7358 68.4136C53.8026 68.7217 52.8745 69.0371 51.9462 69.3598C53.6737 64.1912 56.77 59.651 60.2494 55.4164L60.1423 55.326C56.0681 59.4848 52.8887 64.4015 51.0208 69.685C49.6166 70.1789 48.2203 70.6899 46.8289 71.218Z" fill="#EA2B3F"/>
<path d="M47.933 100.305C45.6941 97.1097 44.426 93.4496 43.96 89.5671C45.9531 88.7358 47.9616 87.9364 49.9806 87.1662C50.438 89.0415 51.0913 90.9143 51.9575 92.7626L52.0769 92.902C52.5028 94.6257 53.0768 96.2858 53.8093 97.8456C52.7702 98.2637 51.7321 98.6916 50.6977 99.1243C49.7742 99.5131 48.8525 99.9067 47.933 100.305ZM93.9919 85.4597C94.9078 83.203 95.3205 80.785 95.631 78.3547C95.7532 77.7215 95.862 77.0907 95.9488 76.4721L95.9011 76.1225C95.9393 75.8071 95.9767 75.4868 96.0138 75.169C96.0664 74.746 96.116 74.3206 96.1637 73.8976C97.5074 73.6531 98.8541 73.4208 100.203 73.2032C100.097 77.0002 99.5771 80.7923 98.6602 84.4866C97.1016 84.7971 95.5449 85.1223 93.9919 85.4597ZM94.2337 78.3547C94.3425 76.9782 94.4102 75.5944 94.4207 74.2204C94.6721 74.1715 94.9251 74.125 95.1752 74.0785C95.0329 74.8169 94.8792 75.5577 94.7197 76.2961L94.6337 76.5039C94.5144 77.1004 94.3779 77.7215 94.2337 78.3547Z" fill="#E91F24"/>
<path d="M44.6904 78.0295C45.0611 76.3963 45.5356 74.768 46.1029 73.1593C46.3312 72.5138 46.5728 71.8659 46.8288 71.218C48.2202 70.6899 49.6165 70.1789 51.0206 69.685C50.2746 71.795 49.737 73.9637 49.436 76.1641C47.8468 76.768 46.2642 77.389 44.6904 78.0295ZM50.5869 75.7313C50.6729 74.9001 50.7932 74.0541 50.9526 73.191C51.1961 71.8757 51.5313 70.5994 51.946 69.3599C52.8743 69.0371 53.8024 68.7218 54.7356 68.4137C53.8379 70.3574 53.1024 72.3671 52.5399 74.3695C52.4731 74.6067 52.4091 74.8462 52.346 75.0858C51.7587 75.2986 51.1724 75.5137 50.5869 75.7313ZM93.1535 64.1375C92.6385 62.4676 91.9471 60.9053 91.0388 59.4897C93.4906 59.0692 95.9441 58.678 98.4051 58.321C98.8359 59.8589 99.1883 61.4163 99.4653 62.9884C98.3355 63.1815 97.2076 63.382 96.0795 63.5898C96.072 63.5482 96.0644 63.5091 96.0568 63.4676L96.0424 63.4749C96.0453 63.5165 96.0482 63.5556 96.05 63.5947C95.0845 63.7707 94.117 63.9517 93.1535 64.1375Z" fill="#E91F24"/>
<path d="M147.699 113.972C145.691 113.972 143.786 113.799 142.235 113.552C137.528 112.796 130.466 111.117 126.644 107.212C122.338 104.938 118.489 101.951 115.548 98.5277C111.541 93.8628 108.362 88.7089 106.161 83.1149C107.87 82.8289 109.584 82.5599 111.298 82.3105C113.553 86.9681 116.322 91.3348 119.347 94.8579C120.407 96.0926 121.581 97.2466 122.838 98.293C126.695 102.486 132.067 105.596 137.054 108.107C141.062 110.124 145.462 112.241 150.018 112.241C150.569 112.241 151.121 112.212 151.676 112.146C152.09 112.097 151.795 111.503 151.483 111.493C144.657 111.254 137.21 107.921 130.951 103.567C134.791 105.743 139.623 106.931 144.368 106.931C149.493 106.931 154.517 105.545 158.087 102.52L157.822 102.234C154.118 104.686 149.73 105.743 145.28 105.743C140.933 105.743 136.526 104.735 132.63 103.036C133.576 103.2 134.539 103.288 135.52 103.288C136.389 103.288 137.272 103.217 138.165 103.07C148.924 101.276 154.837 93.5694 157.121 84.3423L157.261 84.1785C157.925 82.758 158.482 81.3301 158.937 79.8925C160.501 79.961 162.064 80.0466 163.625 80.1444C162.416 87.396 160.125 94.0731 154.248 98.9434C151.79 100.978 149.127 102.85 146.285 104.342C152.581 102.838 158.692 99.3443 162.533 94.8872C162.842 94.5278 163.23 94.3763 163.605 94.3763C164.57 94.3763 165.446 95.3787 164.66 96.408C161.158 101.004 156.999 104.63 152.204 107.002C152.844 106.98 153.481 106.965 154.119 106.943C156.117 106.168 157.974 105.112 159.569 103.677C159.942 103.342 160.339 103.202 160.704 103.202C161.829 103.202 162.644 104.535 161.479 105.581C161.068 105.953 160.647 106.303 160.219 106.638C160.226 106.638 160.234 106.638 160.242 106.638C161.371 106.638 161.706 107.804 161.198 108.703C158.898 112.796 152.94 113.972 147.699 113.972ZM103.312 72.7216C102.796 69.7339 102.049 66.2034 101.634 62.6265C102.942 62.4113 104.251 62.2084 105.561 62.0128C105.62 62.5433 105.683 63.0739 105.747 63.6069C105.793 63.9761 105.836 64.3501 105.879 64.7218L105.826 65.1276C105.924 65.8562 106.055 66.5897 106.196 67.3354C106.407 68.9735 106.656 70.6092 107.035 72.2057C105.794 72.3671 104.551 72.5406 103.312 72.7216ZM164.426 71.7191C163.114 71.5798 161.805 71.4502 160.492 71.3304C160.694 67.3941 160.213 63.4895 159.155 59.7146C160.611 59.8075 162.069 59.9151 163.524 60.0349C164.238 63.9272 164.512 67.9075 164.426 71.7191ZM158.923 71.191C158.642 71.1666 158.365 71.1446 158.085 71.1201C157.849 68.2204 157.338 65.3672 156.58 62.6729C156.283 61.6167 155.946 60.5605 155.569 59.5116C156.409 59.5532 157.247 59.5972 158.086 59.6486C158.216 60.1913 158.333 60.739 158.436 61.294C159.078 64.7756 159.185 68.0126 158.923 71.191ZM107.83 67.3305C107.661 66.5897 107.501 65.8636 107.365 65.1668L107.259 64.9223C107.038 63.9003 106.828 62.8783 106.637 61.8539C106.961 61.805 107.285 61.7585 107.61 61.7145C107.599 63.5775 107.682 65.4601 107.83 67.3305ZM101.329 57.9077C101.32 54.7073 101.794 51.6487 103.174 49.1085C103.381 48.7295 103.945 48.3774 104.447 48.3774C104.691 48.3774 104.922 48.4631 105.087 48.6684L105.365 49.0669C108.603 40.3141 117.461 36.2188 126.702 36.2188C134.429 36.2188 142.423 39.0843 147.62 44.4802C146.617 41.9498 145.167 39.6295 142.997 37.7469C141.721 36.6394 143.347 34.9769 144.691 34.9769C144.848 34.9769 145.002 34.9988 145.147 35.0477C154.474 38.2335 159.864 46.2944 162.471 55.4897C160.858 55.4115 159.244 55.3455 157.629 55.2892C155.39 49.8371 151.959 44.7639 147.688 40.407L147.564 40.5097C151.282 45.0328 154.623 49.8542 156.714 55.2599C155.729 55.2281 154.746 55.1988 153.763 55.1743C152.33 52.1744 150.562 49.3139 148.481 46.7761L148.48 46.7736C143.613 40.8447 137.029 36.6956 129 36.6956C127.822 36.6956 126.613 36.7861 125.374 36.9719C113.261 38.7909 108.849 47.2504 107.846 57.0985C107.209 57.1719 106.575 57.2452 105.939 57.321C105.653 54.8589 105.542 52.3945 105.714 49.9324L105.7 49.9251C105.212 52.4165 105.104 54.9103 105.198 57.4115C103.907 57.568 102.619 57.7342 101.329 57.9077Z" fill="#EA2B3F"/>
<path d="M106.161 83.1149C104.9 79.9071 103.96 76.5551 103.372 73.0662C103.351 72.9537 103.332 72.8389 103.312 72.7215C104.551 72.5406 105.794 72.367 107.035 72.2057C107.437 73.9 107.986 75.5527 108.789 77.1224L109.178 77.4573C109.818 79.0954 110.528 80.7188 111.298 82.3105C109.584 82.5599 107.87 82.8288 106.161 83.1149ZM163.625 80.1443C162.064 80.0465 160.501 79.9609 158.937 79.8925C159.841 77.049 160.346 74.1811 160.492 71.3304C161.805 71.4502 163.114 71.5797 164.426 71.7191C164.37 74.2031 164.162 76.6138 163.824 78.8802C163.761 79.3032 163.695 79.7238 163.625 80.1443ZM158.211 76.2544C158.268 74.543 158.224 72.8242 158.085 71.1201C158.365 71.1445 158.642 71.1665 158.923 71.191C158.782 72.8853 158.537 74.5625 158.211 76.2544Z" fill="#E91F24"/>
<path d="M101.634 62.6265C101.452 61.0495 101.334 59.4627 101.33 57.9078C102.619 57.7342 103.907 57.568 105.198 57.4115C105.257 58.942 105.391 60.4774 105.562 62.0128C104.251 62.2084 102.942 62.4113 101.634 62.6265ZM106.637 61.8539C106.355 60.3454 106.114 58.8344 105.939 57.321C106.575 57.2452 107.209 57.1719 107.846 57.0985C107.692 58.6095 107.619 60.1547 107.61 61.7145C107.285 61.7585 106.961 61.805 106.637 61.8539ZM163.524 60.0349C162.069 59.9151 160.611 59.8075 159.155 59.7146C158.735 58.2158 158.224 56.7391 157.629 55.2892C159.244 55.3455 160.858 55.4115 162.471 55.4897C162.894 56.9787 163.243 58.4995 163.524 60.0349ZM158.086 59.6486C157.247 59.5972 156.409 59.5532 155.569 59.5116C155.043 58.0471 154.44 56.5948 153.763 55.1743C154.747 55.1988 155.729 55.2282 156.714 55.2599C157.263 56.6804 157.725 58.14 158.086 59.6486Z" fill="#E91F24"/>
<path d="M157.822 102.234C150.501 107.08 140.516 106.476 132.631 103.036C134.414 103.344 136.264 103.386 138.165 103.07C148.924 101.276 154.837 93.5695 157.122 84.3423L157.261 84.1785C164.489 68.7242 159.076 52.0229 147.689 40.4071L147.565 40.5098C152.612 46.6514 156.964 53.3383 158.436 61.294C159.422 66.6338 159.147 71.394 158.211 76.2545C158.364 71.6336 157.783 66.9491 156.58 62.673C154.995 57.0374 152.254 51.375 148.481 46.7761L148.48 46.7737C142.899 39.9743 135.061 35.5172 125.374 36.9719C109.179 39.4046 106.75 53.705 107.83 67.3305C107.661 66.5897 107.501 65.8636 107.365 65.1668L107.26 64.9223C106.182 59.9469 105.365 54.9348 105.714 49.9325L105.7 49.9252C104.81 54.4703 105.184 59.03 105.748 63.6069C105.794 63.9761 105.837 64.3502 105.879 64.7218L105.826 65.1277C105.924 65.8563 106.055 66.5897 106.197 67.3354C106.629 70.7119 107.23 74.0737 108.79 77.1225L109.178 77.4575C111.693 83.89 115.289 90.1319 119.348 94.858C120.408 96.0926 121.581 97.2467 122.838 98.2931C126.695 102.486 132.067 105.596 137.054 108.107C141.547 110.369 146.531 112.755 151.676 112.146C152.09 112.097 151.795 111.503 151.483 111.493C144.657 111.254 137.21 107.921 130.951 103.567C138.94 108.092 151.213 108.344 158.087 102.52L157.822 102.234Z" fill="#231F20"/>
<path d="M123.087 96.9336C122.832 96.672 122.57 96.4129 122.327 96.1488L122.017 95.9801C113.479 87.9486 108.274 75.3767 108.427 63.6753C108.473 60.3356 109.004 57.0081 109.642 53.7343C110.172 51.0253 111.076 48.4606 112.742 46.534C113.221 45.8152 113.753 45.1428 114.329 44.5023L114.41 44.3702L114.601 44.1918C116.984 41.6784 120.203 39.8324 124.553 39.0232C134.087 37.2433 141.914 40.8129 147.472 47.0474L147.283 47.1404L147.636 47.6709L147.894 47.5266C149.024 46.8102 154.348 58.8637 154.742 60.0764C158.412 71.3304 158.312 88.484 148.27 96.7331C145.76 98.7967 142.207 100.484 139.021 101.161C132.717 102.498 127.441 100.599 123.087 96.9336Z" fill="#FCFBCF"/>
<path d="M51.25 108.452C57.1303 113.434 67.627 113.217 74.4586 109.344C69.1065 113.073 62.7372 115.921 56.8973 116.124C56.6327 116.134 56.3804 116.64 56.733 116.684C61.1348 117.204 65.397 115.165 69.2392 113.229C73.5054 111.082 78.0991 108.422 81.3971 104.833C82.4724 103.943 83.4763 102.951 84.3836 101.897C87.8551 97.8554 90.9284 92.5181 93.0821 87.0146L93.4124 86.7285C94.7486 84.1222 95.2615 81.247 95.6312 78.3547C95.7534 77.7214 95.8622 77.0907 95.949 76.4721L95.9014 76.1224C95.9395 75.807 95.9769 75.4868 96.0141 75.1689C96.4964 71.2546 96.8172 67.3574 96.0571 63.4675L96.0427 63.4748C96.3407 67.751 95.6434 72.0395 94.72 76.2961L94.6339 76.5038C94.5146 77.1004 94.3782 77.7214 94.2339 78.3547C95.1593 66.6997 93.0802 54.4702 79.2292 52.3896C70.9441 51.1451 64.2406 54.9592 59.4681 60.7732L59.4664 60.7757C56.241 64.7071 53.8937 69.5529 52.5402 74.3694C51.5106 78.0295 51.0131 82.0343 51.1458 85.9853C50.3446 81.8264 50.1097 77.7581 50.9529 73.191C52.2108 66.3867 55.9354 60.6681 60.2495 55.4164L60.1424 55.326C50.4057 65.2621 45.7748 79.5478 51.9578 92.7626L52.0771 92.902C54.0301 100.797 59.0872 107.388 68.2908 108.921C69.9145 109.19 71.4978 109.158 73.0232 108.892C66.2787 111.835 57.7386 112.351 51.4793 108.207L51.25 108.452Z" fill="#231F20"/>
<path d="M67.5582 107.288C64.8326 106.711 61.7945 105.266 59.6467 103.501C51.0569 96.4447 50.9728 81.7776 54.1111 72.1495C54.4483 71.1128 59.0029 60.8051 59.9664 61.4187L60.1892 61.5385L60.4928 61.0862L60.3285 61.008C65.0846 55.6732 71.7766 52.6219 79.931 54.1426C83.6509 54.837 86.4061 56.414 88.4422 58.5655L88.6046 58.722L88.6752 58.8295C89.1681 59.3772 89.6246 59.9567 90.0324 60.5679C91.4583 62.2158 92.2318 64.4113 92.6846 66.7267C93.2299 69.5261 93.6854 72.3744 93.7228 75.2277C93.8545 85.2347 89.405 95.9899 82.1008 102.858L81.8353 103C81.627 103.227 81.4035 103.449 81.1867 103.672C77.4621 106.806 72.9465 108.432 67.5582 107.288Z" fill="#FCFBCF"/>
<path d="M135.057 101.591C135.052 101.591 135.046 101.591 135.039 101.591C135.046 101.591 135.052 101.591 135.057 101.591ZM135.062 101.591C136.333 101.589 137.654 101.452 139.021 101.161C142.207 100.484 145.76 98.7967 148.27 96.7332C154.566 91.5622 156.954 82.8901 156.955 74.3646C156.954 82.8901 154.566 91.5622 148.27 96.7332C145.76 98.7967 142.207 100.484 139.021 101.161C137.653 101.452 136.334 101.589 135.062 101.591ZM123.226 97.0486C123.214 97.0388 123.201 97.0291 123.189 97.0193C123.201 97.0291 123.214 97.0388 123.226 97.0486ZM121.954 95.9215C121.946 95.9142 121.938 95.9069 121.93 95.8995C121.939 95.9069 121.946 95.9142 121.954 95.9215ZM121.89 95.8604C121.874 95.8458 121.857 95.8286 121.84 95.8139C121.857 95.8286 121.874 95.8458 121.89 95.8604ZM121.813 95.7871C121.8 95.7748 121.786 95.7626 121.774 95.7504C121.787 95.7626 121.799 95.7748 121.813 95.7871ZM121.757 95.7333C121.265 95.2614 120.784 94.7748 120.315 94.2736C120.785 94.7748 121.264 95.2614 121.757 95.7333ZM120.312 94.2712C120.268 94.2223 120.225 94.1783 120.182 94.1318C120.225 94.1783 120.269 94.2248 120.312 94.2712ZM120.163 94.1098C120.151 94.0976 120.14 94.0854 120.127 94.0707C120.14 94.0829 120.152 94.0976 120.163 94.1098ZM120.078 94.0169C120.07 94.0096 120.061 93.9998 120.053 93.99C120.061 93.9998 120.07 94.0096 120.078 94.0169ZM120.014 93.9485C120.007 93.9411 120 93.9338 119.993 93.924C120 93.9338 120.007 93.9411 120.014 93.9485ZM119.933 93.858C119.931 93.858 119.929 93.8555 119.928 93.8531C119.929 93.8555 119.931 93.8555 119.933 93.858ZM119.865 93.7822C119.864 93.7822 119.863 93.7798 119.861 93.7798C119.862 93.7798 119.864 93.7822 119.865 93.7822ZM154.73 60.0447C154.728 60.0374 154.727 60.0301 154.724 60.0252C154.727 60.0301 154.728 60.0374 154.73 60.0447ZM154.717 60.0056C154.182 58.4971 149.303 47.4949 148.002 47.4949C149.303 47.4949 154.182 58.4971 154.717 60.0056ZM147.894 47.5267C147.927 47.5071 147.962 47.4949 148.001 47.4949C147.962 47.4949 147.927 47.5071 147.894 47.5267ZM147.442 47.0133C147.435 47.006 147.428 46.9986 147.421 46.9888C147.428 46.9986 147.435 47.006 147.442 47.0133ZM147.414 46.9815C147.389 46.9546 147.363 46.9253 147.338 46.8984C147.363 46.9253 147.389 46.9546 147.414 46.9815ZM147.335 46.8959C147.312 46.869 147.289 46.8446 147.266 46.8177C147.289 46.8421 147.312 46.869 147.335 46.8959ZM147.246 46.7957C147.243 46.7932 147.239 46.7883 147.235 46.7834C147.239 46.7883 147.242 46.7932 147.246 46.7957Z" fill="#100F0D"/>
<path d="M135.057 101.591C135.051 101.591 135.046 101.591 135.039 101.591C130.521 101.586 126.598 99.8481 123.226 97.0486C123.214 97.0388 123.201 97.0291 123.189 97.0193C123.155 96.99 123.121 96.9631 123.086 96.9337C122.831 96.6721 122.57 96.413 122.327 96.1489L122.017 95.9802C121.996 95.9607 121.975 95.9411 121.954 95.9215C121.946 95.9142 121.939 95.9069 121.93 95.8995C121.917 95.8849 121.903 95.8726 121.89 95.8604C121.874 95.8458 121.856 95.8286 121.84 95.8139C121.831 95.8041 121.822 95.7968 121.812 95.7871C121.799 95.7748 121.787 95.7626 121.773 95.7504C121.768 95.743 121.763 95.7382 121.757 95.7333C121.264 95.2614 120.785 94.7748 120.315 94.2736C120.314 94.2736 120.313 94.2712 120.312 94.2712C120.269 94.2248 120.225 94.1783 120.182 94.1318C120.176 94.1245 120.169 94.1172 120.163 94.1098C120.152 94.0976 120.139 94.0829 120.127 94.0707C120.111 94.0536 120.094 94.0365 120.078 94.0169C120.07 94.0096 120.061 93.9998 120.052 93.99C120.04 93.9754 120.027 93.9607 120.014 93.9485C120.007 93.9411 120 93.9338 119.993 93.924C119.973 93.902 119.953 93.88 119.933 93.858C119.931 93.8555 119.929 93.8555 119.927 93.8531C119.906 93.8286 119.885 93.8067 119.864 93.7822C119.863 93.7822 119.861 93.7798 119.86 93.7798C114.647 88.0122 110.95 80.4892 109.336 72.7461C111.362 78.3768 114.923 83.3008 120.775 85.6259C122.659 86.3741 124.474 86.7115 126.212 86.7115C134.649 86.7115 141.176 78.7166 144.043 70.8635C147.433 61.5825 145.664 51.3481 141.938 42.2823C143.875 43.5293 145.648 45.0451 147.235 46.7834C147.239 46.7883 147.243 46.7932 147.245 46.7957C147.252 46.803 147.259 46.8104 147.266 46.8177C147.288 46.8446 147.312 46.869 147.335 46.8959C147.336 46.8959 147.337 46.8959 147.338 46.8984C147.363 46.9253 147.389 46.9546 147.413 46.9815C147.415 46.9839 147.418 46.9864 147.421 46.9888C147.428 46.9986 147.434 47.006 147.441 47.0133C147.451 47.0231 147.461 47.0353 147.472 47.0475L147.283 47.1404L147.636 47.671L147.894 47.5267C147.926 47.5071 147.962 47.4949 148.001 47.4949H148.002C149.303 47.4949 154.182 58.4971 154.717 60.0056C154.72 60.0105 154.722 60.0178 154.723 60.0252C154.726 60.0301 154.728 60.0374 154.73 60.0447C154.735 60.0545 154.739 60.0667 154.742 60.0765C156.111 64.2744 156.955 69.2938 156.954 74.3646C156.954 82.8901 154.566 91.5622 148.27 96.7332C145.759 98.7967 142.207 100.484 139.02 101.161C137.654 101.452 136.333 101.589 135.062 101.591C135.061 101.591 135.059 101.591 135.057 101.591Z" fill="#EBEABF"/>
<path d="M70.9468 107.655C70.9449 107.655 70.9439 107.655 70.9419 107.655C70.9439 107.655 70.9449 107.655 70.9468 107.655ZM70.9581 107.655C74.8003 107.652 78.14 106.183 81.0138 103.816C78.14 106.183 74.8003 107.652 70.9581 107.655ZM67.7684 107.332C67.7396 107.327 67.71 107.32 67.6814 107.315C67.71 107.32 67.7396 107.327 67.7684 107.332ZM67.6498 107.307C67.6193 107.303 67.5887 107.295 67.5582 107.288C64.8326 106.711 61.7945 105.266 59.6466 103.501C61.7945 105.266 64.8326 106.711 67.5582 107.288C67.5887 107.295 67.6193 107.303 67.6498 107.307ZM81.0818 103.76C81.0827 103.757 81.0827 103.757 81.0837 103.757C81.0827 103.757 81.0827 103.757 81.0818 103.76ZM59.5931 103.457C59.5835 103.449 59.573 103.44 59.5635 103.432C59.574 103.44 59.5826 103.449 59.5931 103.457ZM59.5405 103.413C59.529 103.403 59.5175 103.393 59.5063 103.383C59.5175 103.393 59.529 103.403 59.5405 103.413ZM59.4889 103.369C59.4757 103.359 59.4633 103.349 59.4508 103.337C59.4633 103.349 59.4767 103.359 59.4889 103.369ZM59.4393 103.327C59.3591 103.259 59.2799 103.19 59.2016 103.122C59.2799 103.19 59.3601 103.261 59.4393 103.327ZM59.2016 103.122C59.1853 103.107 59.1691 103.092 59.1537 103.08C59.1701 103.092 59.1853 103.107 59.2016 103.122ZM59.1518 103.078C59.0735 103.009 58.9963 102.938 58.9197 102.867C58.9963 102.938 59.0735 103.009 59.1518 103.078ZM58.9102 102.858C58.8977 102.848 58.8863 102.836 58.874 102.823C58.8863 102.836 58.8977 102.848 58.9102 102.858ZM58.8586 102.809C58.8471 102.799 58.8356 102.789 58.8251 102.779C58.8366 102.789 58.8471 102.799 58.8586 102.809ZM58.8051 102.76C58.7955 102.75 58.785 102.743 58.7755 102.733C58.785 102.74 58.7955 102.75 58.8051 102.76ZM58.7432 102.701C58.7374 102.696 58.7327 102.691 58.7259 102.687C58.7317 102.691 58.7374 102.696 58.7432 102.701ZM58.6733 102.635C58.6723 102.633 58.6716 102.633 58.6706 102.63C58.6716 102.633 58.6723 102.633 58.6733 102.635ZM58.62 102.581C58.618 102.581 58.618 102.581 58.6161 102.579C58.6171 102.579 58.619 102.581 58.62 102.581Z" fill="#100F0D"/>
<path d="M70.9467 107.655C70.9447 107.655 70.9438 107.655 70.9418 107.655C69.9198 107.655 68.8617 107.55 67.7683 107.332C67.7394 107.327 67.7099 107.32 67.6812 107.315C67.6707 107.312 67.6602 107.31 67.6497 107.307C67.6191 107.303 67.5886 107.295 67.558 107.288C64.8324 106.711 61.7944 105.266 59.6465 103.501C59.6284 103.486 59.611 103.471 59.593 103.457C59.5824 103.449 59.5739 103.44 59.5634 103.432C59.5558 103.425 59.548 103.42 59.5404 103.413C59.5289 103.403 59.5174 103.393 59.5062 103.383C59.5003 103.378 59.4947 103.374 59.4888 103.369C59.4766 103.359 59.4631 103.349 59.4507 103.337C59.4467 103.334 59.4431 103.332 59.4392 103.327C59.36 103.261 59.2798 103.19 59.2015 103.122C59.1851 103.107 59.17 103.092 59.1536 103.08C59.1526 103.078 59.1526 103.078 59.1516 103.078C59.0734 103.009 58.9961 102.938 58.9196 102.867C58.9167 102.865 58.913 102.86 58.9101 102.858C58.8976 102.848 58.8861 102.836 58.8739 102.823C58.868 102.819 58.8634 102.816 58.8585 102.809C58.847 102.799 58.8365 102.789 58.825 102.779C58.8184 102.772 58.8118 102.767 58.805 102.76C58.7954 102.75 58.7849 102.74 58.7754 102.733C58.7649 102.723 58.7534 102.711 58.7431 102.701C58.7372 102.696 58.7316 102.691 58.7257 102.687C58.7086 102.669 58.6915 102.652 58.6732 102.635C58.6722 102.633 58.6715 102.633 58.6705 102.63C58.6531 102.616 58.636 102.599 58.6199 102.581C58.6189 102.581 58.6169 102.579 58.616 102.579C54.2782 98.3615 52.4587 91.9973 52.2535 85.5941C53.0032 88.6184 54.5312 91.3763 57.1681 93.5157C59.6475 95.5254 62.144 96.3689 64.5574 96.3689C70.9027 96.3689 76.6703 90.5353 80.0271 84.7579C85.3172 75.6555 86.3123 64.5995 82.6975 54.8834C85.0612 55.7196 86.9475 56.9885 88.4421 58.5655L88.6044 58.7219L88.6751 58.8295C89.168 59.3772 89.6244 59.9566 90.0322 60.5679C91.4581 62.2157 92.2317 64.4113 92.6845 66.7266C93.2297 69.5261 93.6852 72.3744 93.7226 75.2276C93.7246 75.3645 93.7255 75.5014 93.7255 75.6408C93.7321 85.5281 89.3046 96.0853 82.1007 102.858L81.8351 103C81.6268 103.227 81.4034 103.449 81.1865 103.672C81.1523 103.701 81.1178 103.728 81.0836 103.757C81.0826 103.757 81.0826 103.757 81.0816 103.76C81.0596 103.777 81.0366 103.797 81.0137 103.816C78.1399 106.183 74.8001 107.652 70.9579 107.655C70.9543 107.655 70.9504 107.655 70.9467 107.655Z" fill="#EBEABF"/>
<path d="M73.9829 68.0199C75.8958 67.9514 77.9243 68.2448 79.4944 69.235C82.1628 70.2741 84.6229 73.2814 85.4796 76.1321C86.4031 78.4401 86.4632 81.0636 85.1796 83.9657C84.9381 84.5085 84.6601 85.017 84.3593 85.4986C84.1875 85.9436 83.9371 86.3495 83.5457 86.6673L83.5161 86.6869C80.3653 90.5914 75.1422 91.8775 70.1558 90.2174C65.2899 88.5964 62.5308 83.5819 62.7438 78.6798C63.0218 72.2276 67.3691 68.2546 73.9829 68.0199Z" fill="#100F0D"/>
<path d="M77.0827 71.7143C77.9509 71.685 78.8726 71.8169 79.5878 72.2693C80.8007 72.7387 81.919 74.1103 82.3068 75.4037C82.729 76.455 82.7547 77.6457 82.1723 78.9635C82.0606 79.2104 81.9354 79.4427 81.7997 79.6628L81.4293 80.1908L81.4158 80.2006C79.9834 81.9756 77.6091 82.5648 75.3417 81.8045C73.1307 81.071 71.8748 78.7899 71.9723 76.5625C72.1002 73.6311 74.0762 71.8243 77.0827 71.7143Z" fill="white"/>
<path d="M134.538 56.4799C136.661 56.4017 138.914 56.7269 140.657 57.8271C143.62 58.9787 146.352 62.3184 147.302 65.4846C148.329 68.0468 148.396 70.9588 146.971 74.1836C146.703 74.7851 146.393 75.3498 146.058 75.8877C145.867 76.3791 145.59 76.8315 145.156 77.1811L145.122 77.2056C141.623 81.5404 135.825 82.9707 130.288 81.1248C124.885 79.3253 121.821 73.7582 122.058 68.3133C122.368 61.1497 127.196 56.7367 134.538 56.4799Z" fill="#100F0D"/>
<path d="M137.98 60.5801C138.944 60.5458 139.97 60.6925 140.76 61.1937C142.106 61.717 143.351 63.2377 143.781 64.6778C144.249 65.8415 144.279 67.1667 143.63 68.6287C143.509 68.9026 143.367 69.1617 143.217 69.4062C143.126 69.6311 143.004 69.8341 142.807 69.9906L142.79 70.0028C141.202 71.9734 138.563 72.6262 136.045 71.7851C133.591 70.9685 132.197 68.4381 132.306 65.9638C132.446 62.7047 134.642 60.7023 137.98 60.5801Z" fill="white"/>
<path d="M43.5606 138.999C43.3964 138.999 43.2301 138.991 43.0631 138.979C41.1243 138.84 39.007 137.879 36.9078 135.854C30.2797 129.461 27.831 120.236 26.9523 111.158C31.6139 108.264 36.455 105.662 41.4059 103.288C41.5446 104.07 41.702 104.848 41.8807 105.623C43.6179 113.197 49.5192 119.293 50.9164 126.911C52.1389 133.581 48.5146 138.999 43.5606 138.999ZM26.6677 97.9484C27.0517 93.4717 28.086 89.1442 29.6484 84.9634C32.0236 83.7165 34.4323 82.5307 36.8743 81.4085C38.4816 80.6726 40.0967 79.9586 41.7221 79.2667C41.6993 79.3939 41.6783 79.5235 41.6592 79.6506C41.1033 83.3767 40.704 87.1907 40.5942 91.0121C36.9029 92.638 33.2671 94.3862 29.7057 96.2859C28.6896 96.8286 27.6763 97.3811 26.6677 97.9484ZM33.3483 76.9758C35.0263 73.9783 37.0777 71.1178 39.795 68.998C41.0556 68.0152 42.8318 67.1032 44.5232 67.1032C44.8594 67.1032 45.1929 67.1375 45.5176 67.2181C45.8212 67.289 46.0572 67.4137 46.2415 67.5726C45.6425 69.1349 44.9129 70.685 44.209 72.2351C40.6382 73.6532 37.1122 75.1813 33.6405 76.8365C33.5431 76.8829 33.4457 76.9294 33.3483 76.9758Z" fill="#F2516F"/>
<path d="M26.9525 111.158C26.6717 108.251 26.5514 105.361 26.5065 102.584C26.4817 101.019 26.5371 99.4739 26.6679 97.9483C27.6765 97.3811 28.6898 96.8285 29.7059 96.2858C33.2673 94.3861 36.9031 92.6379 40.5944 91.0121C40.4751 95.1318 40.691 99.2588 41.4061 103.288C36.4552 105.662 31.6141 108.263 26.9525 111.158Z" fill="#EF322E"/>
<path d="M29.6484 84.9634C30.5376 82.5845 31.5987 80.252 32.8068 77.9684C32.9835 77.6359 33.164 77.3058 33.3483 76.9758C33.4457 76.9293 33.5431 76.8829 33.6405 76.8365C37.1122 75.1812 40.6382 73.6531 44.2091 72.2351C43.1462 74.5724 42.1394 76.9049 41.7221 79.2667C40.0967 79.9586 38.4816 80.6725 36.8743 81.4085C34.4323 82.5307 32.0236 83.7165 29.6484 84.9634Z" fill="#EF322E"/>
<path d="M164.323 136.913C162.584 136.913 160.955 136.683 159.653 136.109C152.562 132.974 161.622 124.163 164.583 120.96C166.909 118.442 169.829 115.989 171.72 113.109C178.16 103.29 178.107 91.9509 175.182 81.137C183.336 82.0269 191.453 83.3203 199.498 85.0146C200.807 91.5377 200.893 98.3957 199.684 104.882C197.16 118.41 187.417 130.571 174.299 135.104C171.697 136.001 167.793 136.913 164.323 136.913ZM197.345 77.4012C189.07 75.4281 180.703 73.8414 172.274 72.6776C170.848 69.0884 169.334 64.9467 170.11 61.7414C170.199 61.3722 170.309 61.0275 170.435 60.7097C176.694 61.4163 182.919 62.3795 189.089 63.624C192.661 67.4919 195.428 72.2253 197.345 77.4012Z" fill="#F2516F"/>
<path d="M199.498 85.0146C191.453 83.3203 183.336 82.0269 175.182 81.137C174.745 79.5258 174.246 77.9268 173.695 76.3474C173.312 75.2472 172.799 74.0003 172.274 72.6776C180.703 73.8414 189.07 75.4281 197.345 77.4012C198.256 79.8559 198.975 82.4084 199.498 85.0146Z" fill="#EF322E"/>
<path d="M189.089 63.6241C182.919 62.3797 176.694 61.4164 170.435 60.7098C171.481 58.0571 173.734 57.0766 176.288 57.0766C179.906 57.0766 184.132 59.0424 186.409 61.0203C187.347 61.8345 188.241 62.7049 189.089 63.6241Z" fill="#EF322E"/>
</svg>
