<svg width="250" height="250" viewBox="0 0 250 250" fill="none" xmlns="http://www.w3.org/2000/svg">
<path d="M102.978 208.815C99.336 207.911 97.5287 205.039 96.4477 201.75C97.197 197.434 97.5791 192.605 95.9922 188.516C94.4179 184.456 90.0247 181.882 86.1813 180.424C82.3506 178.972 78.3121 178.915 74.41 180.084C70.1048 181.372 67.8925 185.218 66.3308 189.135L66.2469 189.223C65.1742 193.805 63.5475 197.777 63.0626 202.539C62.5861 207.243 63.283 213.142 59.9833 216.998C59.6181 217.421 59.9623 218.093 60.5123 217.732C61.9396 216.796 63.2011 215.837 64.3073 214.626C63.602 218.658 64.1877 222.763 64.9055 227.048C64.1793 228.349 63.1445 229.85 61.6982 229.99C61.2637 230.035 60.9594 230.536 61.0895 230.881C60.3884 231.197 59.7314 231.601 59.2969 231.848C57.0783 233.105 55.4221 235.731 54.8554 238.166C54.5825 239.338 53.8898 241.528 55.4683 242.026C56.2156 242.259 57.0762 241.369 57.5275 240.918C58.6987 239.749 59.9435 239.6 61.4149 239.203C61.226 239.879 61.1105 240.582 61.0832 241.31C61.0328 242.49 61.4358 243.408 62.6974 243.422C63.4173 243.428 64.0491 242.803 64.5445 242.37C65.806 241.273 67.0655 240.584 68.4991 239.814C68.2913 240.355 68.1128 240.922 67.9869 241.527C67.7644 242.602 68.5621 243.934 69.7984 243.479C71.1838 242.964 72.3256 242.072 73.5472 241.254C76.9645 238.953 80.1697 240.5 83.7422 241.073C85.9 241.419 88.9815 241.061 90.646 239.537L90.7551 239.394C92.4784 239.106 94.1115 238.353 95.6144 236.808C98.0933 234.262 97.5854 231.424 96.2063 228.806C96.9116 229.432 97.5434 230.108 98.0072 231.138C98.2906 231.768 99.0882 231.189 99.1638 230.732C99.5857 228.122 99.8292 225.085 99.3191 222.295C99.5144 222.209 99.6802 222.031 99.7033 221.792C100.018 218.615 100.306 216.288 99.3947 213.169C99.0484 211.976 98.5635 210.916 97.98 209.919C99.422 210.381 100.952 210.106 102.72 209.989C103.309 209.951 103.677 208.989 102.978 208.815Z" fill="#1F1E1D"/>
<path d="M142.843 209.989C144.61 210.106 146.14 210.381 147.582 209.919C146.997 210.916 146.514 211.976 146.168 213.169C145.257 216.288 145.542 218.615 145.859 221.792C145.882 222.031 146.05 222.209 146.241 222.295C145.733 225.085 145.975 228.122 146.401 230.732C146.476 231.189 147.274 231.768 147.555 231.138C148.019 230.108 148.651 229.432 149.354 228.806C147.977 231.424 147.467 234.262 149.946 236.808C151.451 238.353 153.084 239.106 154.805 239.394L154.914 239.537C156.579 241.061 159.662 241.419 161.822 241.073C165.395 240.5 168.598 238.953 172.019 241.254C173.237 242.072 174.379 242.964 175.764 243.479C177 243.934 177.798 242.602 177.578 241.527C177.449 240.922 177.273 240.355 177.061 239.814C178.497 240.584 179.756 241.273 181.018 242.37C181.513 242.803 182.145 243.428 182.865 243.422C184.126 243.408 184.529 242.49 184.481 241.31C184.452 240.582 184.336 239.879 184.145 239.203C185.621 239.6 186.862 239.749 188.035 240.918C188.484 241.369 189.347 242.259 190.094 242.026C191.672 241.528 190.982 239.338 190.707 238.166C190.14 235.731 188.484 233.105 186.263 231.848C185.833 231.601 185.174 231.197 184.473 230.881C184.603 230.536 184.299 230.035 183.864 229.99C182.418 229.85 181.383 228.349 180.657 227.048C181.375 222.763 181.958 218.658 181.255 214.626C182.361 215.837 183.623 216.796 185.05 217.732C185.6 218.093 185.942 217.421 185.581 216.998C182.281 213.142 182.976 207.243 182.5 202.539C182.015 197.777 180.388 193.805 179.318 189.223L179.232 189.135C177.67 185.218 175.46 181.372 171.152 180.084C167.252 178.915 163.214 178.972 159.381 180.424C155.538 181.882 151.144 184.456 149.57 188.516C147.983 192.605 148.365 197.434 149.117 201.75C148.034 205.039 146.229 207.911 142.585 208.815C141.888 208.989 142.251 209.951 142.843 209.989Z" fill="#1F1E1D"/>
<path d="M58.0334 239.1C57.5758 239.388 57.2168 239.86 56.8579 240.253C55.5439 241.696 55.4222 240.009 55.4956 238.987C55.716 235.846 58.3336 232.035 61.6542 231.227C63.2642 231.644 64.8909 231.737 66.4526 231.281C65.9929 232.087 65.6382 232.954 65.3905 233.821C63.7785 234.893 62.5148 236.388 61.7823 238.143C60.6005 238.334 59.0493 238.458 58.0334 239.1Z" fill="#5AC589"/>
<path d="M68.8728 238.978L68.5706 238.949C67.2629 239.367 66.0706 240.005 64.933 240.767C64.4313 241.103 63.9527 241.6 63.472 241.955C62.0531 242.996 62.2798 240.846 62.305 240.441C62.4309 238.225 63.6399 236.373 65.1638 234.852C65.1344 235.454 65.9783 235.265 66.2386 234.938C68.0101 232.719 70.6717 232.163 73.2661 231.542C72.4076 232.746 71.7548 234.148 71.2069 235.417C71.1062 235.643 71.1524 235.832 71.2678 235.962C70.2519 236.816 69.4521 237.817 68.8728 238.978Z" fill="#5AC589"/>
<path d="M76.4562 238.712C74.8861 238.869 73.3391 239.998 72.0776 240.842C70.5411 241.871 68.8871 242.387 69.5924 239.83C70.0017 238.345 70.8748 237.175 71.9202 236.13L72.0902 236.057C75.2282 234.147 78.3747 232.193 82.1362 233.494L82.5203 233.475C82.2957 234.249 82.1928 235.059 82.218 235.889C82.2327 236.365 82.6609 236.583 83.0744 236.329C83.7608 235.905 84.3654 235.494 85.0307 235.175C84.613 236.149 84.0987 237.092 83.045 237.583C82.6399 237.771 82.3251 238.483 82.9464 238.63C85.1231 239.132 87.2494 239.581 89.2729 239.533C87.2935 240.834 84.3192 240.156 81.5128 239.478C79.6362 239.027 77.8352 238.573 76.4562 238.712Z" fill="#5AC589"/>
<path d="M100.102 209.503C99.5544 209.495 98.9961 209.457 98.444 209.374L98.2446 209.386L97.7807 209.239C97.0314 209.063 96.3156 208.782 95.6901 208.366C96.4709 210.114 97.5771 211.731 98.1669 213.599C98.8848 215.862 98.763 217.847 98.6854 219.999C98.1606 218.618 97.3861 217.361 96.2526 216.334L96.1351 216.451C97.4701 217.948 98.2635 219.791 98.6518 221.754L98.6497 221.894L98.7295 222.171C99.0465 224.106 98.9666 226.132 98.6266 228.057C98.677 228.242 98.7232 228.431 98.7505 228.624C98.805 229.001 98.3768 229.35 98.062 229.023C97.1006 228.03 95.9126 227.364 94.6552 226.833C95.8748 229.079 96.2421 231.76 95.8706 234.293C95.8286 234.592 95.5536 234.642 95.3374 234.537C94.9512 235.358 94.2921 236.136 93.2615 236.846C90.5286 238.718 87.3359 237.868 84.2692 237.614C84.8969 236.839 85.3146 235.928 85.556 234.95C85.8142 234.86 86.0807 234.78 86.3746 234.73C86.765 234.661 87.3296 233.909 86.7398 233.682C85.6042 233.25 84.4498 234.014 83.4485 234.724C83.4737 234.316 83.5262 233.915 83.5997 233.513C83.4737 232.614 83.608 231.8 83.8473 231.002C83.4044 231.524 83.0539 232.102 82.7936 232.717L82.6908 232.612C79.7437 230.551 76.1565 232.243 73.2451 233.958C73.5117 233.464 73.7993 232.992 74.1058 232.543L74.1414 232.228C74.9097 230.841 76.018 229.751 77.1913 228.723C75.9718 228.974 74.9747 229.615 74.1456 230.473L73.8266 230.36C71.4253 230.37 68.8015 231.359 66.8368 232.921C67.5882 230.913 68.94 229.082 70.6738 227.876C70.8543 227.753 70.8165 227.407 70.5542 227.505C69.2444 228.004 68.1424 228.922 67.2692 230.045C65.9279 230.16 64.7231 230.332 63.4553 230.25C65.4305 228.743 66.4884 225.991 67.1663 223.559C67.2335 223.124 67.2587 222.692 67.2104 222.262L67.1957 222.144C66.7738 223.246 66.2848 224.319 65.7621 225.375C65.7264 223.81 65.6089 222.247 65.4892 220.687L65.3969 220.457C64.8385 217.115 65.0967 213.809 65.5312 210.499C65.1576 211.359 64.8658 212.222 64.6391 213.089C63.7848 213.916 62.9347 214.701 62.0405 215.442C63.2013 213.022 63.428 210.267 63.493 207.514C63.5728 204.206 63.7386 200.979 64.2676 197.699C64.7378 194.783 66.1945 192.159 66.5052 189.231L66.4947 189.191C69.0702 184.941 71.61 181.948 76.7589 180.924C80.6673 180.149 84.7583 181.411 88.228 183.142C91.6054 184.834 94.078 187.659 94.9428 191.347C95.3375 193.031 95.3102 194.744 95.1863 196.461C95.0688 195.846 94.9596 195.241 94.8483 194.662L94.6615 194.729C94.7539 195.913 94.8588 197.158 95.0184 198.404C94.8798 199.995 94.7581 201.584 94.9155 203.154C94.9848 203.849 95.7068 203.612 96.0574 203.2C96.5255 204.59 97.1615 205.883 98.0368 206.979C98.7547 207.614 99.5019 208.211 100.31 208.735C100.642 208.954 100.526 209.51 100.102 209.503Z" fill="#8D1F7C"/>
<path d="M98.7295 222.171L98.6497 221.894L98.6518 221.754C98.2635 219.791 97.4701 217.948 96.1351 216.451L96.2526 216.334C97.3861 217.361 98.1606 218.618 98.6854 219.999C98.763 217.847 98.8848 215.862 98.1669 213.599C97.6065 211.83 96.5927 210.286 95.8223 208.643C95.8013 210.172 95.7594 211.699 95.6271 213.227C95.5977 213.555 95.1737 213.849 94.9323 213.534C94.4055 212.843 93.866 212.224 93.2321 211.683C93.6519 216.059 95.0373 220.312 94.3929 224.743C94.3572 225.007 93.8933 225.444 93.6981 225.049C92.7829 223.209 91.8887 221.415 90.5391 219.884C90.7196 222.335 91.1961 224.893 90.2263 227.201C90.1298 227.43 89.838 227.512 89.6407 227.381C87.7725 226.153 86.5236 224.397 85.2096 222.641C84.54 224.14 84.2881 225.777 83.6836 227.31C83.5745 227.589 83.2323 227.805 83.0014 227.52C81.3852 225.496 80.9948 222.887 80.0775 220.528C77.6846 223.109 76.2446 226.802 72.6217 227.858C72.3719 227.929 72.2292 227.656 72.2817 227.45C72.7603 225.593 74.1121 223.849 73.9588 221.898C73.1066 222.384 72.1998 222.736 71.2763 223.099C71.0454 223.187 70.8375 223.07 70.8249 222.816C70.7326 220.691 71.6897 218.288 71.0264 216.216C69.9077 217.408 68.8435 218.626 67.3678 219.394C67.1453 219.51 66.925 219.348 66.9187 219.115C66.8137 215.309 67.9136 211.563 67.3973 207.77C65.972 208.836 64.6433 210.012 63.2454 211.091C63.0481 212.606 62.6954 214.078 62.0405 215.442C62.9347 214.701 63.7848 213.916 64.6391 213.089C64.8658 212.222 65.1576 211.359 65.5312 210.499C65.0967 213.809 64.8385 217.115 65.3969 220.457L65.4892 220.687C65.6089 222.247 65.7264 223.81 65.7621 225.375C66.2848 224.319 66.7738 223.246 67.1957 222.144L67.2104 222.262C67.2587 222.692 67.2335 223.124 67.1663 223.559C66.4884 225.991 65.4305 228.743 63.4553 230.25C64.7231 230.332 65.9279 230.16 67.2692 230.045C68.1424 228.922 69.2444 228.004 70.5542 227.505C70.8165 227.407 70.8543 227.753 70.6738 227.876C68.94 229.082 67.5882 230.913 66.8368 232.921C68.8015 231.359 71.4253 230.37 73.8266 230.36L74.1456 230.473C74.9747 229.615 75.9718 228.974 77.1913 228.723C76.018 229.751 74.9097 230.841 74.1414 232.228L74.1058 232.543C73.7993 232.992 73.5117 233.464 73.2451 233.958C76.1565 232.243 79.7437 230.551 82.6908 232.612L82.7936 232.717C83.0539 232.102 83.4044 231.524 83.8473 231.002C83.608 231.8 83.4737 232.614 83.5997 233.513C83.5262 233.915 83.4737 234.316 83.4485 234.724C84.4498 234.014 85.6042 233.25 86.7398 233.682C87.3296 233.909 86.765 234.661 86.3746 234.73C86.0807 234.78 85.8142 234.86 85.556 234.95C85.3146 235.928 84.8969 236.839 84.2692 237.614C87.3359 237.868 90.5286 238.718 93.2615 236.846C94.2921 236.136 94.9512 235.358 95.3374 234.537C95.5536 234.642 95.8286 234.592 95.8706 234.293C96.2421 231.76 95.8748 229.079 94.6552 226.833C95.9126 227.364 97.1006 228.03 98.062 229.023C98.3768 229.35 98.805 229.001 98.7505 228.624C98.7232 228.431 98.677 228.242 98.6266 228.057C98.9666 226.132 99.0464 224.106 98.7295 222.171Z" fill="#BC99C7"/>
<path d="M183.78 238.143C183.047 236.388 181.784 234.893 180.172 233.821C179.924 232.954 179.567 232.087 179.112 231.281C180.673 231.737 182.3 231.644 183.912 231.227C187.229 232.035 189.846 235.846 190.067 238.987C190.14 240.009 190.018 241.696 188.702 240.253C188.348 239.86 187.986 239.388 187.531 239.1C186.513 238.458 184.964 238.334 183.78 238.143Z" fill="#5AC589"/>
<path d="M174.294 235.962C174.41 235.832 174.456 235.643 174.355 235.417C173.807 234.148 173.157 232.746 172.296 231.542C174.891 232.163 177.554 232.719 179.324 234.938C179.584 235.265 180.43 235.454 180.398 234.852C181.924 236.373 183.133 238.225 183.257 240.441C183.282 240.846 183.507 242.996 182.09 241.955C181.61 241.6 181.131 241.103 180.629 240.767C179.494 240.005 178.297 239.367 176.992 238.949L176.689 238.978C176.108 237.817 175.31 236.816 174.294 235.962Z" fill="#5AC589"/>
<path d="M156.291 239.533C158.313 239.581 160.439 239.132 162.616 238.63C163.237 238.483 162.922 237.771 162.517 237.583C161.463 237.092 160.949 236.149 160.531 235.175C161.197 235.494 161.801 235.905 162.488 236.329C162.901 236.583 163.329 236.365 163.344 235.889C163.371 235.059 163.266 234.249 163.04 233.475L163.426 233.494C167.187 232.193 170.334 234.147 173.472 236.057L173.644 236.13C174.687 237.175 175.558 238.345 175.97 239.83C176.675 242.387 175.021 241.871 173.484 240.842C172.223 239.998 170.676 238.869 169.108 238.712C167.727 238.573 165.926 239.027 164.049 239.478C161.243 240.156 158.269 240.834 156.291 239.533Z" fill="#5AC589"/>
<path d="M145.254 208.735C146.06 208.211 146.808 207.614 147.526 206.979C148.403 205.883 149.037 204.59 149.505 203.2C149.855 203.612 150.58 203.849 150.649 203.154C150.806 201.584 150.687 199.995 150.544 198.404C150.703 197.158 150.81 195.913 150.901 194.729L150.714 194.662C150.603 195.241 150.491 195.846 150.378 196.461C150.252 194.744 150.225 193.031 150.62 191.347C151.482 187.659 153.959 184.834 157.334 183.142C160.804 181.411 164.893 180.149 168.803 180.924C173.954 181.948 176.492 184.941 179.068 189.191L179.055 189.231C179.37 192.159 180.825 194.783 181.297 197.699C181.824 200.979 181.992 204.206 182.069 207.514C182.134 210.267 182.361 213.022 183.522 215.442C182.626 214.701 181.775 213.916 180.923 213.089C180.697 212.222 180.405 211.359 180.031 210.499C180.468 213.809 180.726 217.115 180.165 220.457L180.075 220.687C179.953 222.247 179.834 223.81 179.8 225.375C179.278 224.319 178.791 223.246 178.367 222.144L178.352 222.262C178.304 222.692 178.329 223.124 178.396 223.559C179.074 225.991 180.13 228.743 182.107 230.25C180.841 230.332 179.634 230.16 178.293 230.045C177.42 228.922 176.318 228.004 175.008 227.505C174.746 227.407 174.708 227.753 174.886 227.876C176.624 229.082 177.974 230.913 178.726 232.921C176.761 231.359 174.137 230.37 171.736 230.36L171.417 230.473C170.59 229.615 169.591 228.974 168.371 228.723C169.544 229.751 170.653 230.841 171.421 232.228L171.457 232.543C171.765 232.992 172.051 233.464 172.317 233.958C169.408 232.243 165.821 230.551 162.872 232.612L162.769 232.717C162.508 232.102 162.158 231.524 161.715 231.002C161.956 231.8 162.091 232.614 161.963 233.513C162.036 233.915 162.091 234.316 162.114 234.724C161.113 234.014 159.958 233.25 158.822 233.682C158.235 233.909 158.797 234.661 159.188 234.73C159.482 234.78 159.748 234.86 160.006 234.95C160.248 235.928 160.665 236.839 161.293 237.614C158.226 237.868 155.032 238.718 152.301 236.846C151.268 236.136 150.611 235.358 150.225 234.537C150.009 234.642 149.736 234.592 149.692 234.293C149.32 231.76 149.688 229.079 150.907 226.833C149.652 227.364 148.462 228.03 147.5 229.023C147.185 229.35 146.757 229.001 146.812 228.624C146.841 228.431 146.887 228.242 146.936 228.057C146.596 226.132 146.514 224.106 146.835 222.171L146.915 221.894L146.913 221.754C147.297 219.791 148.09 217.948 149.425 216.451L149.308 216.334C148.178 217.361 147.402 218.618 146.877 219.999C146.799 217.847 146.678 215.862 147.395 213.599C147.987 211.731 149.089 210.114 149.872 208.366C149.247 208.782 148.533 209.063 147.78 209.239L147.32 209.386L147.118 209.374C146.57 209.457 146.008 209.495 145.46 209.503C145.036 209.51 144.919 208.954 145.254 208.735Z" fill="#8D1F7C"/>
<path d="M159.188 234.73C158.804 234.663 158.256 233.937 158.802 233.697C155.726 233.9 152.578 233.548 149.568 232.79C149.583 233.296 149.618 233.798 149.692 234.293C149.736 234.592 150.009 234.642 150.225 234.537C150.611 235.358 151.268 236.136 152.301 236.846C155.032 238.718 158.226 237.868 161.293 237.614C160.665 236.839 160.248 235.928 160.006 234.95C159.748 234.86 159.482 234.78 159.188 234.73Z" fill="#AC65B0"/>
<path d="M171.421 232.228C170.932 231.344 170.298 230.591 169.605 229.888C168.913 230.456 168.157 230.977 167.303 231.422C167.101 231.529 166.891 231.617 166.686 231.714C168.617 231.934 170.588 232.937 172.317 233.958C172.051 233.464 171.765 232.992 171.457 232.543L171.421 232.228Z" fill="#AC65B0"/>
<path d="M147.777 218.187L147.748 218.086C147.79 215.719 148.13 213.392 148.497 211.064C148.073 211.878 147.677 212.711 147.395 213.599C146.678 215.862 146.799 217.847 146.877 219.999C147.118 219.361 147.419 218.76 147.777 218.187Z" fill="#AC65B0"/>
<path d="M183.522 215.442C182.361 213.022 182.134 210.267 182.069 207.514C182.034 206.034 181.975 204.572 181.878 203.11C181.48 204.195 180.98 205.243 180.31 206.221C180.163 206.439 179.731 206.634 179.635 206.251L179.456 205.732C178.125 210.75 177.08 215.854 174.962 220.618C174.866 220.834 174.46 221 174.322 220.729C173.459 219.065 173.499 217.171 173.094 215.372C171.289 219.405 170.155 223.846 167.292 227.291C167.12 227.497 166.767 227.522 166.679 227.23C166.15 225.477 165.951 223.708 164.734 222.298C163.581 223.718 162.93 225.421 162.005 226.995C161.826 227.298 161.358 227.354 161.32 226.93C161.167 225.03 161.113 223.124 160.976 221.227C159.058 223.764 157.538 226.573 155.836 229.258C155.67 229.522 155.141 229.644 155.149 229.193C155.237 225.366 156.468 221.779 157.647 218.183C155.204 220.698 153.367 223.786 150.55 225.927C150.336 226.088 150 225.998 150.009 225.695C150.12 222.171 151.74 218.882 151.839 215.379C150.534 216.208 149.448 217.291 148.288 218.318L148.084 218.396C147.528 219.439 147.144 220.577 146.913 221.754L146.915 221.894L146.835 222.171C146.514 224.106 146.596 226.132 146.936 228.057C146.888 228.242 146.841 228.431 146.812 228.624C146.757 229.001 147.186 229.35 147.5 229.023C148.462 228.03 149.652 227.364 150.907 226.833C149.688 229.079 149.32 231.76 149.692 234.293C149.736 234.592 150.009 234.642 150.225 234.537C150.611 235.358 151.268 236.136 152.301 236.846C155.032 238.718 158.226 237.868 161.293 237.614C160.666 236.839 160.248 235.928 160.006 234.95C159.748 234.86 159.482 234.78 159.188 234.73C158.797 234.661 158.235 233.909 158.823 233.682C159.958 233.25 161.113 234.014 162.114 234.724C162.091 234.316 162.036 233.915 161.963 233.513C162.091 232.614 161.956 231.8 161.715 231.002C162.158 231.524 162.509 232.102 162.769 232.717L162.872 232.612C165.821 230.551 169.408 232.243 172.317 233.958C172.051 233.464 171.765 232.992 171.457 232.543L171.421 232.228C170.653 230.841 169.544 229.751 168.371 228.723C169.591 228.974 170.59 229.615 171.417 230.473L171.736 230.36C174.137 230.37 176.761 231.359 178.726 232.921C177.974 230.913 176.624 229.082 174.886 227.876C174.708 227.753 174.746 227.407 175.008 227.505C176.318 228.004 177.42 228.922 178.293 230.045C179.634 230.16 180.841 230.332 182.107 230.25C180.13 228.743 179.074 225.991 178.396 223.559C178.329 223.124 178.304 222.692 178.352 222.262L178.367 222.144C178.791 223.246 179.278 224.319 179.8 225.375C179.834 223.81 179.954 222.247 180.075 220.687L180.166 220.457C180.726 217.115 180.468 213.809 180.031 210.499C180.405 211.359 180.697 212.222 180.923 213.089C181.776 213.916 182.626 214.701 183.522 215.442Z" fill="#BC99C7"/>
<path d="M100.31 208.735C99.5019 208.211 98.7547 207.614 98.0368 206.979C97.1616 205.883 96.5255 204.59 96.0574 203.2L95.9315 203.324C95.8518 205.027 95.8476 206.733 95.8245 208.446C96.4206 208.815 97.0839 209.075 97.7808 209.239L98.2447 209.386L98.444 209.374C98.9961 209.457 99.5544 209.495 100.102 209.503C100.526 209.51 100.642 208.954 100.31 208.735Z" fill="#AC65B0"/>
<path d="M57.6156 148.265C60.5941 141.485 63.008 134.47 62.9324 126.985C62.8967 123.602 62.0508 119.374 57.8129 119.464C54.4796 119.537 50.3382 121.302 48.7303 124.397L48.8437 124.603C37.3074 136.369 28.7329 155.067 31.9381 171.769C30.8886 172.368 29.9042 173.1 28.9239 174.358C26.657 177.267 24.8959 180.319 23.7183 183.816C22.8682 186.339 21.8963 193.927 26.4428 193.503C26.489 193.708 26.5268 193.912 26.5814 194.12C27.4189 197.305 29.7005 201.656 33.5817 201.005L33.6761 200.97C35.116 202.705 37.2361 203.478 40.3028 202.43L40.5861 202.186C42.6054 203.291 45.5629 204.084 47.2568 202.384C48.9465 200.692 47.9348 197.946 46.5956 196.278C47.6389 195.35 48.0587 193.935 47.9495 192.546C47.7879 190.464 47.198 188.467 47.7879 186.367C48.2644 184.659 49.8281 183.016 50.7391 181.507C51.7614 179.811 52.7353 177.178 52.2819 175.176C51.9398 173.669 51.0729 172.454 50.2479 171.226L50.3823 170.886C50.313 162.626 54.3768 155.647 57.6156 148.265Z" fill="#1F1E1D"/>
<path d="M48.8332 171.923C49.6938 173.808 50.7559 175.643 50.5628 178.033C50.2479 181.994 45.9051 184.542 46.1402 188.585C46.1884 189.395 46.7069 196.528 44.6834 194.286C43.6066 193.096 42.9433 191.417 42.3262 189.958C41.7112 188.505 41.4866 186.996 41.3502 185.48C40.8443 183.837 40.4832 182.145 40.2356 180.434C40.076 184.744 40.2881 188.642 41.9904 192.751C42.4375 193.833 43.7661 196.612 45.3467 196.754C45.8547 197.707 46.3501 198.549 46.6712 199.636C47.8152 203.532 42.1142 201.161 41.4446 200.87C39.2532 199.92 37.8091 198.087 36.833 195.982C35.1265 192.3 35.6534 187.729 35.8927 183.808C35.9074 183.528 35.5191 183.621 35.4939 183.848C34.7823 190.04 33.7789 197.154 39.2784 201.32C35.3574 200.91 33.4977 198.973 32.5384 194.712C31.7303 191.104 31.7765 187.334 32.0934 183.667C32.1186 183.366 31.6841 183.411 31.6274 183.654C30.792 187.208 30.4016 195.096 32.7651 199.592C29.6145 198.598 28.29 195.224 27.6204 192.082C26.7913 188.205 28.8148 183.795 30.0805 180.208C30.1791 179.796 30.3009 179.393 30.4373 178.996L30.3827 179.049C27.7673 183.289 25.5865 187.548 26.2581 192.466C20.8972 191.402 26.4618 180.189 27.8324 178.085C29.5326 175.472 31.4238 172.909 34.3793 171.641C35.4183 171.199 35.5736 170.943 36.2264 170.111C36.4426 169.834 36.1026 169.561 35.836 169.719C34.7592 170.37 33.7811 170.815 32.8638 171.277C32.8071 162.884 33.1031 155.273 35.7793 147.182C38.6256 138.596 43.6528 130.618 49.7526 123.985L49.7882 123.888C52.6975 121.62 57.1034 119.031 60.2918 121.92C62.3866 123.817 61.5974 128.735 61.3917 131.187C61.0894 134.757 60.0064 138.237 58.8309 141.602C57.0215 146.783 54.5321 151.718 52.3512 156.747C50.6384 160.706 48.8983 164.86 49.0515 169.192C48.7954 168.63 48.596 168.039 48.5079 167.393L48.4134 167.223C48.4365 168.802 48.5603 170.367 48.8332 171.923Z" fill="#9A419A"/>
<path d="M60.2919 121.92C57.1035 119.031 52.6976 121.62 49.7883 123.888L49.7527 123.985C43.6529 130.618 38.6257 138.596 35.7794 147.182C35.4792 148.097 35.2106 149.004 34.965 149.906C34.9104 150.397 34.8453 150.884 34.8013 151.375C37.4523 147.465 40.0635 143.517 43.3821 140.125C43.6801 139.822 44.1671 140.047 43.9488 140.475C39.3142 149.505 40.5589 160.911 43.2834 170.336C44.7486 175.405 45.2649 180.356 45.0718 185.609C44.9627 188.49 45.1474 191.166 46.0625 193.591C46.3753 191.956 46.1696 189.082 46.1402 188.585C45.9051 184.542 50.248 181.994 50.5629 178.033C50.756 175.643 49.6939 173.808 48.8333 171.923C48.5604 170.367 48.4365 168.802 48.4135 167.223L48.508 167.393C48.5961 168.039 48.7955 168.63 49.0516 169.192C48.8983 164.86 50.6384 160.706 52.3512 156.747C54.5321 151.718 57.0216 146.783 58.831 141.602C60.0064 138.237 61.0895 134.757 61.3918 131.187C61.5975 128.735 62.3867 123.817 60.2919 121.92Z" fill="#882078"/>
<path d="M199.617 170.886L199.755 171.226C198.931 172.454 198.059 173.669 197.719 175.176C197.266 177.178 198.238 179.811 199.262 181.507C200.173 183.016 201.735 184.659 202.216 186.367C202.805 188.467 202.211 190.464 202.05 192.546C201.941 193.935 202.36 195.35 203.408 196.278C202.064 197.946 201.055 200.692 202.745 202.384C204.438 204.084 207.396 203.291 209.415 202.186L209.697 202.43C212.765 203.478 214.885 202.705 216.325 200.97L216.422 201.005C220.301 201.656 222.582 197.305 223.42 194.12C223.475 193.912 223.514 193.708 223.559 193.503C228.103 193.927 227.131 186.339 226.283 183.816C225.103 180.319 223.344 177.267 221.075 174.358C220.097 173.1 219.113 172.368 218.061 171.769C221.268 155.067 212.694 136.369 201.156 124.603L201.271 124.397C199.665 121.302 195.52 119.537 192.186 119.464C187.948 119.374 187.105 123.602 187.069 126.985C186.991 134.47 189.409 141.485 192.384 148.265C195.625 155.647 199.686 162.626 199.617 170.886Z" fill="#1F1E1D"/>
<path d="M201.588 167.223L201.496 167.393C201.405 168.039 201.206 168.63 200.948 169.192C201.103 164.86 199.363 160.706 197.65 156.747C195.469 151.718 192.98 146.783 191.171 141.602C189.993 138.237 188.91 134.757 188.608 131.187C188.402 128.735 187.615 123.817 189.71 121.92C192.9 119.031 197.304 121.62 200.213 123.888L200.247 123.985C206.349 130.618 211.378 138.596 214.22 147.182C216.896 155.273 217.192 162.884 217.138 171.277C216.22 170.815 215.24 170.37 214.163 169.719C213.899 169.561 213.559 169.834 213.773 170.111C214.428 170.943 214.585 171.199 215.62 171.641C218.575 172.909 220.469 175.472 222.169 178.085C223.54 180.189 229.104 191.402 223.741 192.466C224.415 187.548 222.234 183.289 219.621 179.049L219.562 178.996C219.698 179.393 219.822 179.796 219.921 180.208C221.185 183.795 223.208 188.205 222.381 192.082C221.711 195.224 220.387 198.598 217.236 199.592C219.602 195.096 219.207 187.208 218.374 183.654C218.317 183.411 217.883 183.366 217.908 183.667C218.223 187.334 218.273 191.104 217.461 194.712C216.504 198.973 214.644 200.91 210.721 201.32C216.222 197.154 215.219 190.04 214.508 183.848C214.482 183.621 214.094 183.528 214.109 183.808C214.348 187.729 214.875 192.3 213.168 195.982C212.19 198.087 210.746 199.92 208.555 200.87C207.889 201.161 202.184 203.532 203.33 199.636C203.649 198.549 204.147 197.707 204.655 196.754C206.233 196.612 207.564 193.833 208.011 192.751C209.713 188.642 209.923 184.744 209.764 180.434C209.518 182.145 209.155 183.837 208.649 185.48C208.513 186.996 208.29 188.505 207.673 189.958C207.058 191.417 206.395 193.096 205.318 194.286C203.295 196.528 203.813 189.395 203.859 188.585C204.096 184.542 199.756 181.994 199.439 178.033C199.246 175.643 200.306 173.808 201.166 171.923C201.441 170.367 201.565 168.802 201.588 167.223Z" fill="#9A419A"/>
<path d="M201.496 167.393L201.588 167.223C201.565 168.802 201.441 170.367 201.166 171.923C200.306 173.808 199.246 175.643 199.439 178.033C199.756 181.994 204.096 184.542 203.859 188.585C203.83 189.091 203.616 192.073 203.956 193.688C204.749 191.886 205.135 189.878 205.175 187.665C205.24 184.009 204.902 180.375 205.438 176.735C206.103 172.225 208.391 168.191 209.539 163.814C210.198 161.299 210.328 159.119 210.148 156.581C209.988 154.373 208.525 143.357 210.219 137.936C207.505 132.872 204.09 128.162 200.247 123.985L200.213 123.888C197.304 121.62 192.9 119.031 189.71 121.92C187.615 123.817 188.402 128.735 188.608 131.187C188.91 134.757 189.993 138.237 191.171 141.602C192.98 146.783 195.469 151.718 197.65 156.747C199.363 160.706 201.103 164.86 200.948 169.192C201.206 168.63 201.405 168.039 201.496 167.393Z" fill="#882078"/>
<path d="M45.3467 196.754C43.7661 196.612 42.4375 193.833 41.9904 192.751C40.2881 188.642 40.076 184.744 40.2356 180.434C40.4832 182.145 40.8443 183.837 41.3502 185.48C41.4866 186.996 41.7112 188.505 42.3262 189.958C42.9433 191.417 43.6066 193.096 44.6834 194.286C46.7069 196.528 46.1884 189.395 46.1402 188.585C46.0121 186.398 47.2253 184.647 48.4155 182.874C47.9285 183.323 47.3996 183.717 46.8223 184.047C46.5642 184.191 46.1842 184.013 46.2052 183.69C46.3185 181.723 46.4529 179.783 46.136 177.859C45.4538 180.079 44.8619 182.326 43.9929 184.487C43.8333 184.884 43.1574 184.876 43.1868 184.377C43.382 181.087 43.0776 177.914 42.1205 174.794C41.7846 175.93 41.4068 177.045 40.9346 178.14C40.7792 178.505 40.2964 178.331 40.1831 178.039C39.7108 176.816 39.5198 175.531 39.2176 174.265C37.9078 176.916 37.1815 179.815 35.9997 182.527C35.8318 182.915 35.2273 182.706 35.2336 182.319C35.2882 179.5 35.8864 176.801 36.5812 174.091C34.5871 175.71 32.8617 177.607 31.4763 179.786C31.2706 180.107 30.6724 180.01 30.7081 179.578C30.8886 177.504 31.5771 175.733 32.5783 173.999C31.4868 174.511 30.4373 175.153 29.434 175.795C28.8693 176.535 28.3383 177.307 27.8324 178.085C26.4618 180.189 20.8972 191.402 26.2581 192.466C25.5865 187.548 27.7673 183.289 30.3827 179.049L30.4373 178.996C30.3009 179.393 30.1791 179.796 30.0805 180.208C28.8148 183.795 26.7913 188.205 27.6204 192.082C28.29 195.224 29.6145 198.598 32.7651 199.592C30.4016 195.096 30.792 187.208 31.6274 183.654C31.6841 183.411 32.1186 183.366 32.0934 183.667C31.7765 187.334 31.7303 191.104 32.5384 194.712C33.4977 198.973 35.3574 200.91 39.2784 201.32C33.7789 197.154 34.7823 190.04 35.4939 183.848C35.5191 183.621 35.9074 183.528 35.8927 183.808C35.6534 187.729 35.1265 192.3 36.833 195.982C37.8091 198.087 39.2532 199.92 41.4446 200.87C42.1142 201.161 47.8152 203.532 46.6712 199.636C46.3501 198.549 45.8547 197.707 45.3467 196.754Z" fill="#C8C9DD"/>
<path d="M222.169 178.085C221.489 177.042 220.777 176.01 219.98 175.06C219.793 176.889 219.253 178.629 218.227 180.059C218.049 180.311 217.53 180.355 217.473 179.96C217.196 178.038 216.445 176.387 215.316 174.903C215.586 176.412 215.675 177.924 215.114 179.412C214.973 179.788 214.451 179.819 214.321 179.412C213.88 178.027 213.196 176.839 212.394 175.686C212.566 177.683 212.56 179.641 211.961 181.608C211.852 181.968 211.241 182.032 211.168 181.608C210.679 178.745 210.03 175.877 208.271 173.568C208.536 175.741 208.882 177.825 207.984 179.96C207.828 180.329 207.331 180.374 207.192 179.96C206.8 178.805 206.51 177.637 205.964 176.57C205.773 178.793 205.622 181.035 204.653 183.077C204.487 183.421 204.006 183.285 203.901 182.976C203.055 180.48 202.438 177.926 202.442 175.306C201.424 177.397 201.174 179.763 201.088 182.126C202.409 184.164 204.006 186.089 203.859 188.585C203.813 189.395 203.294 196.528 205.318 194.286C206.395 193.096 207.058 191.417 207.673 189.958C208.29 188.505 208.513 186.996 208.649 185.48C209.155 183.837 209.518 182.145 209.764 180.434C209.923 184.744 209.713 188.642 208.011 192.751C207.564 193.833 206.233 196.612 204.655 196.754C204.147 197.707 203.649 198.549 203.33 199.636C202.184 203.532 207.889 201.161 208.555 200.87C210.746 199.92 212.19 198.087 213.168 195.982C214.875 192.3 214.348 187.729 214.109 183.808C214.094 183.528 214.482 183.621 214.507 183.848C215.219 190.04 216.222 197.154 210.721 201.32C214.644 200.91 216.504 198.973 217.461 194.712C218.273 191.104 218.223 187.334 217.908 183.667C217.883 183.366 218.317 183.411 218.374 183.654C219.207 187.208 219.602 195.096 217.236 199.592C220.387 198.598 221.711 195.224 222.381 192.082C223.208 188.205 221.184 183.795 219.921 180.208C219.822 179.796 219.698 179.393 219.562 178.996L219.621 179.049C222.234 183.289 224.415 187.548 223.741 192.466C229.104 191.402 223.54 180.189 222.169 178.085Z" fill="#C8C9DD"/>
<path d="M203.263 131.92C204.229 132.57 205.19 133.221 206.135 133.911C206.546 134.211 207.117 133.821 207.054 133.326C205.963 124.794 201.985 117.104 198.127 109.519C196.968 107.243 195.461 104.531 193.656 101.99C194.307 102.611 194.953 103.236 195.6 103.86C195.914 104.164 196.443 103.811 196.471 103.431C196.658 100.584 194.934 97.4012 193.03 95.2849C190.167 90.0374 186.211 85.1653 182.355 80.8123C178.694 76.6749 174.479 73 169.448 70.9723C171.005 70.7666 172.531 70.2164 173.421 69.1291C173.637 68.8642 173.472 68.5412 173.163 68.6422C173.197 68.4822 173.146 68.3231 172.936 68.2853L172.47 68.1871C171.091 67.3892 169.397 67.1579 167.859 66.7719C167.668 66.726 167.481 66.6693 167.292 66.6185C166.429 65.3509 165.453 64.1628 164.416 63.0247C164.723 62.2991 165.017 61.5701 165.294 60.8338L165.317 60.8633C165.437 60.3992 165.59 59.9501 165.783 59.5114V59.5089C165.926 59.1105 166.07 58.7118 166.207 58.3126C167.068 55.8127 168.482 52.8388 168.358 50.0779C173.562 50.2313 178.877 48.529 183.287 45.0281C185.018 43.653 186.444 41.7578 187.537 39.642L187.6 39.2494C190.31 34.6022 190.245 28.8907 189.101 23.7754C188.639 21.7015 187.781 19.5374 186.683 17.7197C182.921 11.4939 175.934 7.57924 168.753 7.03979C163.4 6.63887 157.851 9.30887 154.265 13.2802C146.47 21.9135 145.206 34.2243 153.382 43.2086C155.017 45.005 156.881 46.4218 158.875 47.5133C158.44 48.689 158.079 49.8934 157.733 51.1003L157.702 51.3562C157.586 51.6654 157.485 51.9803 157.393 52.2968L157.282 52.6853C157.026 53.6177 156.812 54.5637 156.467 55.4691L156.432 55.5379C155.311 54.5516 154.156 53.5881 152.912 52.8281C154.093 52.8199 155.271 52.8027 156.453 52.7502C156.852 52.7353 157.072 52.1876 156.732 51.9523C152.336 48.8899 147.284 46.7138 142.095 46.753C142.727 46.4113 143.346 46.048 143.963 45.6536C144.31 45.4315 144.463 44.7615 143.93 44.663C138.951 43.7537 133.733 43.6948 128.777 44.8156C127.381 45.1305 125.547 45.4691 123.966 46.1405C124.411 44.5558 124.877 42.9395 124.94 41.3128C124.953 40.9748 124.65 40.7271 124.321 40.8615C122.197 41.72 118.437 44.0333 117.438 46.7474C116.775 45.4921 115.887 44.3146 114.862 43.37C114.598 43.1265 114.256 43.37 114.134 43.6276C113.559 44.8895 113.435 46.8523 114.124 48.2184C108.733 45.2363 101.32 46.134 96.1286 48.9826C95.7781 49.1736 95.818 49.7295 96.2588 49.7255C97.7743 49.7148 99.0106 50.1058 100.327 50.6887C96.3449 51.3037 92.4868 52.7632 88.9458 54.786C88.4231 52.9559 87.9298 51.1176 87.2707 49.3311C89.2669 48.2438 91.1309 46.8269 92.766 45.0281C100.94 36.0442 99.6781 23.7355 91.8823 15.098C88.2972 11.1287 82.7452 8.45665 77.3948 8.85966C70.214 9.39911 63.2285 13.3138 59.4649 19.5416C58.3671 21.3573 57.5086 23.5193 57.0447 25.5931C55.9007 30.7085 55.8356 36.4199 58.5476 41.0714L58.6106 41.4618C59.7021 43.5776 61.1273 45.4733 62.859 46.8483C67.2691 50.3493 72.5859 52.0516 77.7873 51.8999C77.6635 54.6605 79.0782 57.6327 79.9389 60.1329C80.0774 60.5338 80.2201 60.9305 80.3649 61.3291L79.8213 61.8661C75.6484 66.1634 72.481 71.3413 69.0638 76.2241C65.3716 81.488 58.2747 89.2945 51.0457 86.7314C50.5335 86.5486 49.9626 87.4121 50.5041 87.5924L50.8127 87.6827C51.4634 89.2085 54.3621 90.107 55.6216 90.4425C57.9053 91.0516 60.1387 91.1943 62.3237 90.7991C52.2694 96.337 45.8926 105.102 44.5072 117.103C44.4253 117.801 45.4727 117.6 45.5252 117.002L45.5672 116.636C47.5382 113.005 51.1276 111.307 54.7988 109.825C47.4878 115.927 42.4333 126.702 43.2729 135.557L43.3632 135.746L43.6025 135.795L43.6088 135.786L44.0202 135.389L44.0349 135.305C45.3342 133.786 46.3292 132.033 47.7649 130.635C49.6582 128.792 51.7279 127.613 54.041 126.489C44.6226 135.979 43.6298 150.63 43.8376 163.98C43.8481 164.488 44.4736 164.303 44.5471 163.913C45.1012 160.911 46.1172 158.143 47.4374 155.511C43.2856 166.522 46.4488 181.356 52.6011 190.417L52.6536 190.472L52.6473 191.003C52.6452 191.637 53.5603 191.45 53.5624 190.913C53.5771 187.218 53.7765 183.623 54.6644 180.155C52.8739 191.104 57.3176 205.304 68.6545 209.134L69.1372 208.973L69.2946 209.183L69.5717 208.962C67.3509 204.542 67.2355 199.529 67.9051 194.704C68.0226 196.27 68.4634 197.835 68.9105 199.303C70.9025 205.845 77.9636 211.425 84.8778 211.383L84.945 211.366L85.1864 211.212C85.3669 210.993 85.3942 210.625 85.0563 210.574L84.7141 210.518C81.5509 206.093 80.451 201.433 80.621 195.929C80.6378 195.39 80.6798 194.853 80.7343 194.317C80.9337 195.772 81.299 197.208 81.7251 198.612C84.1999 206.754 90.9042 212.428 98.9288 214.671L99.1345 214.827L99.6047 214.589C99.8293 214.352 99.8712 213.922 99.4787 213.797L98.9246 213.611C95.7299 209.659 96.0363 201.931 96.4897 197.491C96.6912 195.493 97.1761 193.553 97.7995 191.656C98.6307 189.116 97.6001 192.216 97.5182 193.1C97.281 195.703 97.7638 198.302 98.5404 200.774C101.536 210.295 111.745 216.898 121.409 217.478C121.775 217.504 122.092 216.893 121.644 216.815L121.565 216.8C121.558 214.466 120.645 212.337 120.862 209.867C121.172 206.326 123.009 203.093 124.957 200.168C125.416 204.267 124.694 208.629 123.25 212.314L123.427 212.556C128.513 212.003 133.64 208.981 136.795 204.919C136.275 208.228 134.831 211.504 132.824 213.364C132.57 213.599 132.513 214.245 132.988 214.275C137.454 214.531 142.234 214.3 145.903 211.465L145.905 211.462C145.403 212.891 144.734 214.231 143.846 215.335C143.594 215.65 143.623 216.107 144.106 216.116C151.547 216.235 159.36 212.476 164.165 206.544C163.149 208.801 161.673 210.843 159.889 212.594C159.671 212.809 159.626 213.322 160.027 213.366C168.789 214.355 177.307 205.285 178.438 196.676C179.492 200.76 183.61 203.606 187.609 204.399C187.926 204.46 188.196 204.132 188.167 203.839C188.06 202.831 187.831 201.962 187.52 200.998C186.895 199.055 187.319 196.878 187.751 194.935C188.23 192.787 189.118 190.726 189.945 188.68C190.27 190.46 190.808 192.092 191.58 193.78C191.807 194.277 192.411 193.973 192.644 193.677C197.47 187.512 202.102 179.049 201.618 170.926C202.207 171.746 202.795 172.567 203.345 173.417C203.605 173.825 204.101 173.568 204.258 173.211C207.432 166.039 207.606 157.146 204.034 150.149C205.194 151.61 206.265 153.126 207.256 154.725C207.48 155.082 208.032 154.825 208.047 154.444C208.36 146.816 207.006 138.687 203.263 131.92Z" fill="#231F20"/>
<path d="M153.812 41.0481C148.256 33.691 147.574 24.2286 152.578 16.903L152.666 16.9072C159.61 15.78 167.141 17.6502 173.388 20.7379C176.291 22.1715 179.129 23.7773 181.706 25.7525C184.443 27.8494 186.322 30.5446 188.822 32.8094C188.763 33.1558 188.702 33.5042 188.612 33.8422L188.643 33.838C187.336 39.0855 184.592 43.6215 179.315 45.8461C170.558 49.5383 159.973 49.211 153.812 41.0481Z" fill="#C9DBD7"/>
<path d="M158.745 52.4163L158.93 52.1432C159.238 50.7075 159.477 49.2866 159.656 47.9262C162.145 49.1521 164.828 49.8597 167.561 50.0425C167.219 52.9016 166.098 55.9198 165.013 58.6609C164.723 59.5759 164.318 60.4491 163.93 61.3668L163.892 61.4216C162.355 65.0212 160.424 68.3083 158.449 71.7068L158.432 71.7717L158.195 72.093C158.781 69.8997 159.07 67.645 158.13 65.5205C157.97 65.1622 157.271 64.9605 157.173 65.336C156.971 65.2605 156.753 65.309 156.686 65.5835C156.222 67.5276 155.38 69.2635 154.045 70.6722C154.316 69.0658 154.056 67.353 153.472 65.7181L153.611 65.2901L153.701 64.9834L153.915 64.8178C154.524 63.9421 155.076 62.9851 155.586 61.9816L155.653 61.7381C157.122 58.7847 157.813 55.5592 158.745 52.4163Z" fill="#881F81"/>
<path d="M66.8302 47.6665C61.5553 45.4411 58.8119 40.9056 57.5021 35.658L57.5336 35.6622C57.4434 35.3242 57.3825 34.9779 57.3237 34.6295C59.8258 32.3625 61.7044 29.6695 64.4415 27.5725C67.017 25.5994 69.857 23.9916 72.7579 22.5579C79.0046 19.4703 86.538 17.5979 93.4795 18.7251L93.5677 18.7209C98.5739 26.0465 97.8896 35.511 92.3355 42.8684C86.1728 51.0315 75.5874 51.3562 66.8302 47.6665Z" fill="#C9DBD7"/>
<path d="M78.5869 51.8604C81.3199 51.6801 84.0003 50.97 86.4919 49.7442C86.6682 51.107 86.9096 52.5279 87.2161 53.9611L87.3986 54.2342C88.3327 57.3787 89.0254 60.6026 90.4947 63.556L90.5598 63.8037C91.0699 64.8047 91.6219 65.76 92.2327 66.6374L92.4447 66.8055L92.535 67.1096L92.6756 67.5385C92.0921 69.1709 91.8297 70.8879 92.1005 72.4941C90.7676 71.0814 89.9238 69.3472 89.462 67.4039C89.3927 67.1285 89.1765 67.08 88.9729 67.1564C88.8743 66.7784 88.1753 66.9841 88.0158 67.3384C87.0754 69.4629 87.3672 71.7193 87.9528 73.9126L87.7156 73.5912L87.6967 73.5264C85.7215 70.1278 83.7925 66.8431 82.2539 63.2411L82.2182 63.187C81.8299 62.2695 81.4227 61.398 81.1352 60.4788C80.0479 57.7394 78.9291 54.7212 78.5869 51.8604Z" fill="#881F81"/>
<path d="M159.656 47.9262C159.603 48.3272 159.532 48.7413 159.471 49.1521C164.637 50.4558 162.007 58.9422 158.419 66.3018C158.995 68.1926 158.707 70.1661 158.195 72.093L158.432 71.7717L158.449 71.7068C160.424 68.3083 162.355 65.0212 163.892 61.4216L163.929 61.3668C164.318 60.4491 164.723 59.5759 165.012 58.6609C166.098 55.9198 167.219 52.9016 167.561 50.0425C164.828 49.8597 162.145 49.1521 159.656 47.9262Z" fill="#791E71"/>
<path d="M80.348 53.7617C81.0827 54.0873 81.8509 54.484 82.3841 55.1137C83.7401 56.7111 84.4978 58.8126 85.3164 60.7164C86.2568 62.895 87.1111 65.1072 88.0767 67.248C88.3013 66.952 88.8848 66.8135 88.9729 67.1563C89.1765 67.0799 89.3927 67.1284 89.462 67.4037C89.9238 69.347 90.7676 71.0812 92.1005 72.4939C91.8297 70.8877 92.0921 69.1707 92.6756 67.5383L92.535 67.1095L92.4447 66.8053L92.2327 66.6372C91.6219 65.7598 91.0699 64.8045 90.5598 63.8035L90.4947 63.5558C89.0254 60.6025 88.3327 57.3786 87.3986 54.234L87.2161 53.9609C86.9096 52.5277 86.6682 51.1069 86.4919 49.744C84.0003 50.9698 81.3199 51.6799 78.5869 51.8602C78.6541 52.4335 78.7612 53.0124 78.8871 53.5961C79.3678 53.5747 79.8485 53.5411 80.348 53.7617Z" fill="#791E71"/>
<path d="M203.011 148.136L202.839 148.09C201.636 146.269 200.15 144.612 198.337 143.214L198.284 143.269C205.719 150.811 207.606 162.282 203.738 172.037C203.055 170.98 202.285 170.019 201.416 169.085L201.378 168.898C200.48 168.034 199.739 167.005 199.095 165.896C201.397 175.734 197.816 183.976 192.287 192.208C191.307 190.086 190.585 187.942 190.547 185.546C190.53 184.355 190.617 183.327 190.295 182.24C190.337 183.595 190.083 185.094 189.737 186.376C189.724 186.66 189.72 186.941 189.739 187.222L189.412 187.451L189.311 187.754C187.865 191.74 186.135 195.383 186.452 199.733L186.391 200.02C186.473 200.736 186.614 201.448 186.842 202.151L186.784 202.615C187.466 204.59 184.722 202.646 183.853 202.199C181.288 200.877 179.607 198.553 178.511 195.971C178.545 195.6 178.555 195.233 178.56 194.865C178.304 194.221 178.087 193.564 177.894 192.897L177.89 192.905C177.886 200.692 173.898 206.684 167.183 210.457C165.623 211.334 163.948 211.901 162.204 212.276C159.96 212.757 162.087 211.038 162.636 210.304C163.848 208.692 164.742 206.994 165.241 205.117C166.379 203.461 167.279 201.66 167.899 199.752C168.014 198.484 168.012 197.225 167.871 195.971C167.429 198.711 166.526 201.185 165.248 203.392L165.239 203.408L165.237 203.412C162.34 208.404 157.502 212.003 151.539 214.042C149.509 214.735 147.391 214.995 145.267 215.142C145.036 215.161 146.071 212.909 146.239 212.449C147.169 209.915 147.337 207.057 147.194 204.386L147.137 204.399C147.072 206.511 146.736 208.899 146.016 211.101L145.754 211.006C142.005 212.537 138.351 213.24 134.36 213.183C137.133 209.831 138.97 203.451 137.257 199.285C136.925 198.797 136.564 198.329 136.18 197.878C136.953 199.622 137.15 201.851 136.896 204.122C134.302 206.792 131.734 208.996 128.282 210.53C127.033 211.083 125.729 211.466 124.411 211.821C123.714 212.008 125.169 209.214 125.27 208.975C126.829 205.312 127.068 200.537 125.244 196.893C124.759 196.162 124.199 195.547 123.599 194.962C124.193 196.318 124.596 197.766 124.831 199.261C120.58 204.533 119.098 210.286 121.021 216.699C108.599 214.403 97.5392 205.232 98.3788 192.057C98.2361 191.139 98.1857 190.212 98.297 189.309V189.3L98.0934 189.459C95.839 193.927 95.3394 198.948 95.5221 203.893C95.6144 206.36 95.9502 210.511 97.5245 213.1C88.8597 209.655 82.147 202.231 81.4375 192.806C81.1752 191.809 80.9674 190.799 80.8309 189.83L80.7806 189.454L80.7427 189.531C79.2776 196.018 78.5766 205.22 83.7486 210.335C74.6094 208.369 66.1797 200.023 68.9756 189.901C69.0722 189.549 68.6104 189.538 68.4991 189.821C66.5785 194.745 65.403 203.174 68.5243 208.125C57.7961 202.609 53.4407 190.539 55.1535 178.881L55.0569 178.774C55.4956 177.391 56.054 176.029 56.7718 174.693L56.5703 174.591C53.5666 179.024 52.8193 183.95 52.6787 189.129C50.3719 183.134 47.9139 177.461 46.9378 171.007C45.8421 163.77 47.0575 156.961 50.3593 150.561C50.6363 149.799 50.9407 149.042 51.2661 148.294L51.0436 148.451C48.3841 152.064 46.2158 155.783 44.7863 160.047C44.5219 160.84 44.2595 161.847 44.0979 162.668C44.2637 161.824 44.4967 160.534 44.4589 159.327C44.3708 156.399 44.356 153.527 44.6856 150.612C45.3342 144.812 46.9001 139.214 49.7128 134.097C51.138 131.501 52.9432 129.51 54.8533 127.621C55.4977 126.62 56.1967 125.643 56.9356 124.68C57.2987 124.202 57.6387 123.708 57.9746 123.202C56.8894 123.962 55.8755 124.766 54.9436 125.624C54.8953 125.504 54.7735 125.427 54.5531 125.476C52.2064 126.01 50.1326 127.524 48.3043 129.035C46.4929 130.536 45.393 132.438 44.2008 134.365C45.1096 129.199 46.0416 124.409 48.5038 119.638C51.3102 114.202 55.4117 110.296 60.1954 106.635L60.3171 106.448L60.2226 106.406C58.8184 107.019 57.4603 107.823 56.1631 108.767C52.4982 109.109 47.8258 112.035 45.7057 115.444C47.1772 103.801 53.5771 95.795 63.7049 90.4721C64.1856 90.3293 64.6642 90.1572 65.1407 89.962L65.3757 89.7078C65.5689 89.4939 65.7305 89.2674 65.8984 89.0428L65.8291 89.047C65.3568 89.2544 64.9056 89.4815 64.4522 89.6996C62.2629 90.4072 60.0547 90.5745 57.6891 90.2811C56.2597 90.1047 53.0754 89.2987 51.5746 87.8793C59.9707 89.7332 67.1851 80.3023 71.358 74.3456C74.1518 70.3631 77.3024 66.2847 80.854 62.6557C82.1491 66.079 83.7192 69.4415 85.8707 72.3908C86.1541 73.1108 86.4899 73.8209 86.874 74.4964C83.6289 72.941 79.5946 72.353 76.9372 74.658C76.614 74.9393 76.5678 75.7453 77.1387 75.7747C77.7894 75.8042 78.4296 75.9109 79.0572 76.0683C78.2743 76.1231 77.5417 76.243 76.9666 76.3855C74.6702 76.9562 72.3298 78.0901 71.3496 80.3753C71.2047 80.7116 71.5322 80.9133 71.824 80.8476C73.562 80.445 75.2307 79.7792 76.9876 79.4603C78.9985 79.0953 81.1542 79.8596 82.9635 80.6337L83.0307 80.5271C81.3599 79.6308 79.8003 78.9396 77.8985 78.7511C76.148 78.5764 74.389 79.4308 72.672 79.8449C73.8915 78.4173 75.6484 77.7918 77.548 77.4942C79.6743 77.1579 81.2339 77.8023 83.2238 78.2303L83.4106 78.2328C83.7758 78.5116 84.1306 78.8061 84.4622 79.1159C84.796 79.4291 85.3207 78.9379 85.1549 78.5601C84.2439 76.4732 81.7713 75.1949 79.4393 74.6743C82.5437 73.7659 86.9349 75.7369 89.0969 77.4982C89.6489 77.9492 90.35 77.2505 90.1506 76.6561C89.2081 73.8627 88.484 71.4152 88.782 68.592C89.311 70.6026 90.625 72.3047 92.3378 73.4699L92.3945 73.6635C92.47 73.8815 92.659 73.8708 92.8227 73.7724L93.0326 73.9019L93.2929 73.5749L93.0893 73.4025L93.0998 73.323C92.7786 69.9811 93.7924 66.5406 95.8033 63.848C95.8663 65.8863 95.8831 67.914 96.1455 69.9433C96.2336 70.6239 97.0711 70.2353 97.2432 69.8384C98.1059 67.8573 99.3402 66.4315 100.805 65.3009C101.945 63.9275 103.297 62.7099 104.791 61.7047C101.618 62.8549 98.8364 65.0106 97.0837 67.8821C96.9263 66.0249 96.9095 64.1603 96.8318 62.2949C96.813 61.8325 96.1769 61.894 95.9523 62.1375C94.9805 63.1887 94.0569 64.5276 93.339 65.9888L93.0389 65.5394C91.9915 62.9853 90.8139 60.5149 89.9029 57.8968C89.649 57.1672 89.4223 56.4342 89.2061 55.6928C92.7828 53.3757 96.6786 51.6801 100.925 50.9643L101.259 50.9053C103.095 50.6176 104.997 50.5126 106.968 50.6216L107.016 50.4839C105.123 50.2878 103.234 50.3174 101.364 50.5338L101.269 50.4142C100.033 49.5827 98.849 49.2194 97.3923 48.9407C98.3032 49.1145 101.492 47.7543 102.634 47.5305C107.692 46.531 112.312 47.8806 116.668 50.3739L116.808 50.1961C116.313 49.7089 115.773 49.2868 115.215 48.9006L115.253 48.5775C114.653 47.2927 114.336 45.8742 114.684 44.5033C115.725 45.5593 116.607 46.8227 117.19 48.1741L117.195 48.1789C117.203 48.5087 117.245 48.8357 117.356 49.1655C117.421 49.3582 117.715 49.2194 117.749 49.0769C118.506 45.8553 120.853 43.548 123.802 42.182C123.586 43.7432 122.967 45.2191 122.742 46.7719C121.957 47.2738 121.313 47.9075 120.939 48.7389C120.853 48.9325 121.118 49.0202 121.235 48.8899C121.67 48.4054 122.211 48.0028 122.814 47.6584C123.053 47.8429 123.542 47.7001 123.636 47.341L123.67 47.2171C125.761 46.2833 128.355 45.9013 130.276 45.5593C134.226 44.8582 138.277 44.9124 142.234 45.5274C141.478 45.9684 140.725 46.4029 139.984 46.8819L139.975 46.8876C138.567 47.0704 137.154 47.4231 135.746 47.9839C135.523 48.0691 135.433 48.529 135.763 48.4726C142.272 47.3517 149.259 48.6678 155.002 51.9614C153.814 51.9843 152.624 52.0031 151.436 52.0621C150.221 51.539 148.915 51.2538 147.469 51.3627H147.467L147.469 51.3652C150.359 52.2951 152.836 53.9701 155.225 55.8945C155.521 56.075 155.808 56.2726 156.098 56.4678C155.208 58.9423 154.104 61.293 153.109 63.7199L152.809 64.1693C152.089 62.7099 151.165 61.3692 150.193 60.3174C149.973 60.0762 149.333 60.0147 149.316 60.4723C149.236 62.3409 149.219 64.2071 149.06 66.0641C147.311 63.1887 144.528 61.0355 141.354 59.8852C142.849 60.8904 144.201 62.1098 145.343 63.4806C146.808 64.6097 148.042 66.0396 148.905 68.019C149.077 68.4159 149.914 68.8036 150 68.1256C150.265 66.0962 150.279 64.0661 150.342 62.0285C152.355 64.7212 153.367 68.1617 153.048 71.5029L153.056 71.5848L152.855 71.7546L153.113 72.0825L153.323 71.9504C153.487 72.0531 153.676 72.0596 153.751 71.8455L153.81 71.6505C155.521 70.4853 156.835 68.7832 157.364 66.7719C157.664 69.5932 156.938 72.0424 155.997 74.8343L155.97 75.113C157.595 74.171 159.54 73.6274 161.238 73.1969L161.623 73.2369C163.35 72.6597 165.183 72.4097 166.706 72.8549C164.433 73.3625 162.036 74.5973 161.075 76.5931C162.601 76.0773 164.186 75.7386 165.814 75.6426L166.087 75.6968C166.872 75.569 167.68 75.5287 168.6 75.6722C170.499 75.9724 172.254 76.5971 173.476 78.0271C171.757 77.613 169.998 76.757 168.249 76.9308C166.348 77.1201 164.788 77.8105 163.115 78.7068L163.182 78.8157C164.994 78.0393 167.147 77.2753 169.158 77.6409C170.917 77.9598 172.584 78.6247 174.324 79.0256C174.614 79.0953 174.941 78.8938 174.798 78.5559C173.818 76.27 171.478 75.1342 169.179 74.5652C168.604 74.4227 167.871 74.3028 167.091 74.2489C167.718 74.0914 168.356 73.988 169.007 73.9544C169.58 73.9273 169.532 73.1198 169.208 72.8402C166.551 70.5353 162.517 71.119 159.272 72.6761C159.656 71.9989 159.992 71.2888 160.275 70.5689C161.719 68.5937 162.899 66.4275 163.908 64.184C164.593 64.8532 165.277 65.523 165.957 66.2119C165.449 66.0412 164.941 65.8649 164.435 65.6911C164.624 65.9445 164.788 66.2134 164.941 66.489C165.418 66.7784 165.997 67.049 166.219 67.1579C166.969 67.5385 167.739 67.9033 168.541 68.1575C168.799 68.237 168.919 68.4362 168.942 68.6445C169.975 68.902 171.045 69.0496 172.181 69.0349L172.189 69.0366C170.336 69.6457 168.291 69.4186 166.417 69.9473L166.362 69.9753C165.808 69.8384 165.248 69.7106 164.675 69.6178L164.622 69.6268C166.104 70.7076 167.775 71.4234 169.402 72.4309C171.799 73.9191 174.158 75.4762 176.414 77.1726C179.687 79.6285 182.483 82.7015 184.884 86.0156C187.481 89.0657 189.873 92.2898 192.071 95.5244C192.854 97.8481 194.286 99.7307 195.062 102C194.082 101.194 193.068 100.457 191.981 99.8021C189.777 97.1388 187.218 94.9071 184.361 93.9649L184.292 94.0698C190.258 96.9896 194.506 104.29 197.468 109.932C200.992 116.653 205.392 124.51 205.954 132.24C205.497 131.861 205.031 131.516 204.55 131.196L204.225 131.191C202.787 130.706 201.215 129.802 199.861 128.63C204.35 136.296 206.605 144.153 207.144 153.057C205.881 151.31 204.651 149.581 203.011 148.136Z" fill="#B47FBC"/>
<path d="M72.6719 79.8447C73.7424 79.5863 74.8318 79.1583 75.9233 78.9123C75.3062 78.8937 74.687 78.8976 74.0615 78.9484L73.7823 78.8494C73.3793 79.1304 73.0035 79.4585 72.6719 79.8447Z" fill="#B47FBC"/>
<path d="M89.0969 77.4982C86.9349 75.7369 82.5438 73.7659 79.4393 74.6744C81.7713 75.1949 84.244 76.4732 85.1549 78.5601C85.3208 78.9379 84.796 79.4291 84.4623 79.1159C84.1306 78.8036 83.7759 78.5116 83.4106 78.2329L83.2238 78.2303C81.234 77.8023 79.6723 77.1579 77.5481 77.4942C76.6791 77.6277 75.8415 77.8401 75.0691 78.1592C76.7084 78.1132 78.3163 78.2746 79.9368 78.6059C80.2726 78.6772 80.2327 78.9988 80.0585 79.2087C81.0723 79.5341 82.0337 79.9916 83.0308 80.5271L82.9636 80.6337C81.9497 80.2015 80.8267 79.7775 79.6828 79.5464C78.2512 80.7853 76.7651 81.9496 75.237 83.0663C78.8641 82.8736 82.4556 83.1402 86.0575 83.606C85.4194 82.9599 84.6806 82.4645 83.8829 81.971C83.5702 81.7783 83.9375 81.3388 84.1642 81.2863C86.2318 80.814 88.2258 81.3142 90.2409 81.7676C89.9764 80.8017 89.4034 80.0399 88.7611 79.2274C88.5575 78.9692 88.9311 78.583 89.1956 78.6059C90.6292 78.7486 91.7312 79.4734 92.8773 80.2605C93.8974 77.9197 95.0834 75.7033 96.857 73.8306C97.0019 73.6799 97.3062 73.5749 97.4364 73.8102C98.1018 75.009 98.2865 76.3412 98.5195 77.668C100.591 73.5371 103.129 69.6096 107.016 66.9695C107.354 66.7407 107.659 67.0383 107.501 67.3909C107.033 68.4633 106.536 69.5275 106.049 70.5943C108.238 68.7889 110.459 66.9883 112.224 64.7655C107.835 64.8557 104.334 68.1888 100.688 70.2836L100.245 70.0951C99.6446 67.8215 100.761 65.7642 102.067 63.9448C101.626 64.3793 101.198 64.8287 100.805 65.3009C99.3402 66.4315 98.106 67.8574 97.2433 69.8384C97.0712 70.2353 96.2337 70.6256 96.1455 69.9434C95.8831 67.914 95.8663 65.8864 95.8033 63.848C93.7925 66.5406 92.7786 69.9811 93.0998 73.323L93.0893 73.4026L93.2929 73.5749L93.0326 73.9019L92.8227 73.7724C92.659 73.8709 92.4701 73.8816 92.3945 73.6635L92.3378 73.4674C90.625 72.3048 89.311 70.6027 88.7821 68.592C88.484 71.4127 89.2082 73.8627 90.1506 76.6561C90.3501 77.2505 89.649 77.9493 89.0969 77.4982Z" fill="#881F7F"/>
<path d="M153.81 71.6504L153.751 71.8454C153.676 72.0595 153.489 72.053 153.323 71.9503L153.113 72.0824L152.855 71.7545L153.056 71.5847L153.048 71.5012C153.367 68.1616 152.353 64.7211 150.342 62.0284C150.279 64.066 150.265 66.0961 150 68.1255C149.914 68.8035 149.077 68.4158 148.905 68.0189C148.042 66.0395 146.808 64.6096 145.343 63.4805C144.841 62.8762 144.291 62.3089 143.714 61.77C144.016 63.1426 144.413 64.5154 144.568 65.8713C144.604 66.169 144.245 66.602 143.938 66.3396C142.016 64.6833 139.799 63.6191 137.387 63.0204C140.089 65.4599 142.553 68.0942 143.919 71.5471C144.043 71.862 143.647 72.3989 143.321 72.0987C141.808 70.6968 139.954 69.8448 138.023 69.2044C140.452 71.5912 142.154 74.5298 144.085 77.357C145.479 75.7345 146.379 73.8477 147.185 71.8643C147.301 71.5782 147.758 71.5119 147.859 71.8364C148.43 73.6338 148.739 75.2998 148.365 77.1177C151.228 76.738 154.133 77.0447 156.988 76.6438L156.994 76.6356L157.37 76.5871L157.59 76.5552C158.103 76.4633 157.989 77.2292 157.565 77.3045L157.162 77.3612C155.582 78.6057 153.967 79.8087 152.469 81.1477C155.98 80.6672 159.536 80.0841 162.913 81.5068C163.243 81.6479 163.052 82.1029 162.8 82.2119C161.01 82.9784 159.1 83.4442 157.341 84.261C162.24 83.919 167.156 83.6795 171.931 84.8718C170.611 83.8451 169.179 82.995 167.666 82.2226C167.292 82.0299 167.594 81.4354 167.966 81.4862C170.126 81.7904 172.296 81.9249 174.433 82.3233C171.677 80.2014 168.69 78.2976 165.082 78.3352L164.84 78.1712C164.267 78.369 163.709 78.5871 163.182 78.8156L163.115 78.7067C163.722 78.3837 164.314 78.0852 164.914 77.8293L165.294 77.5802L165.516 77.5841C166.377 77.2628 167.269 77.0275 168.249 76.9307C169.998 76.7569 171.757 77.6129 173.476 78.027C172.254 76.597 170.499 75.9723 168.6 75.6721C167.68 75.5286 166.872 75.5689 166.087 75.6967L165.814 75.6425C164.186 75.741 162.601 76.0773 161.075 76.593C162.036 74.5972 164.433 73.3624 166.706 72.8548C165.183 72.4096 163.35 72.6596 161.623 73.2368L161.238 73.1968C159.54 73.6273 157.595 74.1709 155.97 75.113L155.997 74.8342C156.938 72.0423 157.664 69.5931 157.364 66.7718C156.835 68.7846 155.521 70.4852 153.81 71.6504Z" fill="#881F7F"/>
<path d="M198.337 143.214C200.15 144.612 201.636 146.268 202.839 148.09L203.011 148.136C204.651 149.581 205.881 151.31 207.144 153.057C206.605 144.153 204.35 136.296 199.861 128.63C201.215 129.802 202.787 130.706 204.225 131.191L204.55 131.196C205.031 131.516 205.497 131.861 205.954 132.24C205.392 124.51 200.992 116.653 197.468 109.932C194.506 104.29 190.258 96.9896 184.292 94.0698L184.361 93.9649C187.218 94.9071 189.777 97.1388 191.981 99.802C193.068 100.457 194.082 101.194 195.062 102C194.286 99.7307 192.854 97.8481 192.071 95.5244C191.248 94.3133 190.388 93.1063 189.51 91.9053C184.983 87.995 181.568 82.3005 175.485 81.1207C178.039 83.9248 180.919 86.2551 182.206 90.0038C182.3 90.2743 181.924 90.6589 181.652 90.5203C177.775 88.4969 173.774 87.0733 169.475 86.7652C176.484 91.7437 183.276 98.2574 184.401 107.008C184.439 107.304 184.072 107.741 183.772 107.474C181.717 105.663 179.779 103.543 177.649 101.748C183.774 108.696 188.66 117.138 187.976 126.294C187.955 126.546 187.583 126.93 187.336 126.672C186.391 125.681 185.604 124.577 184.844 123.456C185.621 126.229 185.99 129.102 185.85 131.989C188.801 137.595 190.824 144.257 187.371 149.249C187.252 149.421 186.872 149.671 186.729 149.362C184.836 145.261 182.575 138.086 177.498 137.01C179.267 141.98 183.398 145.613 183.969 151.104C184.429 155.538 184.315 160.854 181.276 164.423C181.116 164.612 180.732 164.67 180.665 164.362C179.962 161.27 179.036 158.166 177.68 155.292C177.588 155.095 177.489 154.891 177.388 154.687C178.532 162.278 178.039 170.219 173.05 176.213C172.836 176.469 172.458 176.406 172.428 176.06C171.908 169.938 172.099 159.767 165.951 156.201C167.622 163.472 172.88 172.729 166.112 178.757L165.613 178.705C164.192 175.352 163.799 171.222 162.204 167.878C162.448 171.925 162.189 176.026 161.35 179.928C160.145 185.516 157.643 191.175 152.311 193.894C152.093 194.003 151.86 193.847 151.862 193.61C151.923 187.263 153.491 180.752 151.06 174.677C149.736 177.548 150.061 180.986 148.43 183.801C148.317 184 147.937 184.202 147.79 183.915C143.705 176.029 144.809 165.922 136.814 160.453C135.297 167.653 139.016 175.193 135.855 182.112L135.861 182.145L135.62 182.605C135.509 182.823 135.393 183.037 135.269 183.256C135.026 183.673 134.371 183.461 134.64 182.999C134.799 182.72 134.942 182.443 135.078 182.164C133.443 174.261 130.681 166.026 124.113 160.922C124.445 168.201 127.398 176.026 123.202 182.706C123.063 182.926 122.61 183.117 122.528 182.735C121.707 178.961 120.855 175.161 119.461 171.591C119.228 175.556 118.834 179.513 118.024 183.398C116.951 188.56 115.263 194.009 111.265 197.68L110.826 197.699C104.756 190.617 102.061 180.206 102.388 170.875C101.628 172.67 100.896 174.478 100.205 176.304C100.11 176.551 99.5606 176.883 99.4913 176.427C99.0505 173.556 98.8658 170.705 98.8931 167.863C94.4179 173.875 89.8609 179.832 86.4563 186.547C86.2947 186.863 85.7972 186.893 85.772 186.481C85.3081 179.204 86.4857 171.952 89.6657 165.403C84.1663 170.426 80.1151 176.541 76.8574 183.256C76.7483 183.478 76.2193 183.662 76.1816 183.283C75.9905 181.371 76.0556 179.448 75.9822 177.529C74.219 181.826 73.1884 186.364 71.9604 190.837C71.8723 191.152 71.3748 191.358 71.2446 190.961C67.6994 180.044 68.2724 168.867 70.743 157.821C65.3989 163.016 61.8032 169.587 60.7306 177.03C60.6739 177.427 59.9939 177.701 59.9939 177.158V177.082C58.4972 172.895 58.8981 168.583 59.8511 164.289C60.3129 160.494 61.2449 156.765 62.7016 153.24L62.7583 152.949C58.8918 157.782 54.7064 162.72 53.5855 168.898C53.5162 169.274 52.7942 169.391 52.8635 168.93C53.9151 161.883 53.9025 154.715 55.0527 147.681C56.0938 141.3 58.2496 135.421 62.0824 130.28C58.4993 132.763 55.2962 135.677 52.6598 139.195C52.4457 139.48 51.9231 139.335 52.0553 138.941C55.1262 129.791 59.1164 121.305 65.8816 114.355C61.6143 115.327 57.6471 117.186 53.9528 119.525C53.6317 119.726 53.2685 119.464 53.4658 119.101C57.6744 111.321 64.1122 105.942 70.9172 100.577C65.6487 101.337 60.6298 103.209 55.4117 104.248C55.1157 104.304 54.9772 103.973 55.1115 103.747C59.6265 96.1059 69.112 91.7863 71.8659 83.0835C68.1716 84.5931 64.3556 87.0448 60.3045 86.0517C57.6177 87.7055 54.6791 88.564 51.5746 87.8793C53.0754 89.2987 56.2597 90.1047 57.6891 90.2811C60.0547 90.5745 62.2629 90.4072 64.4522 89.6996C64.9056 89.4815 65.3568 89.2544 65.8291 89.047L65.8984 89.0428C65.7305 89.2674 65.5689 89.4939 65.3757 89.7078L65.1407 89.962C64.6642 90.1572 64.1856 90.3293 63.7049 90.4721C53.5771 95.795 47.1772 103.801 45.7057 115.444C47.8258 112.035 52.4982 109.109 56.1631 108.767C57.4603 107.823 58.8184 107.019 60.2226 106.406L60.3171 106.448L60.1954 106.635C55.4117 110.296 51.3102 114.202 48.5038 119.638C46.0416 124.409 45.1096 129.199 44.2008 134.365C45.393 132.438 46.4929 130.536 48.3043 129.035C50.1326 127.524 52.2064 126.01 54.5531 125.476C54.7735 125.427 54.8953 125.504 54.9436 125.624C55.8755 124.766 56.8894 123.962 57.9746 123.202C57.6387 123.708 57.2987 124.202 56.9356 124.68C56.1967 125.643 55.4977 126.62 54.8533 127.621C52.9432 129.51 51.138 131.501 49.7128 134.097C46.9001 139.214 45.3342 144.812 44.6856 150.612C44.356 153.527 44.3708 156.399 44.4589 159.327C44.4967 160.534 44.2637 161.824 44.0979 162.668C44.2595 161.847 44.5219 160.84 44.7863 160.047C46.2158 155.783 48.3841 152.064 51.0436 148.451L51.2661 148.294C50.9407 149.042 50.6363 149.799 50.3593 150.561C47.0575 156.961 45.8421 163.77 46.9378 171.007C47.9139 177.461 50.3719 183.134 52.6787 189.129C52.8193 183.95 53.5666 179.024 56.5703 174.591L56.7718 174.693C56.054 176.029 55.4956 177.391 55.0569 178.774L55.1535 178.881C53.4407 190.539 57.7961 202.609 68.5243 208.125C65.403 203.174 66.5785 194.745 68.4991 189.821C68.6104 189.538 69.0722 189.549 68.9756 189.901C66.1797 200.023 74.6094 208.369 83.7486 210.335C78.5766 205.22 79.2776 196.018 80.7427 189.531L80.7806 189.454L80.8309 189.83C80.9674 190.799 81.1752 191.809 81.4375 192.806C82.147 202.231 88.8597 209.655 97.5245 213.1C95.9502 210.511 95.6144 206.36 95.5221 203.893C95.3394 198.948 95.839 193.927 98.0934 189.459L98.297 189.3V189.309C98.1857 190.212 98.2361 191.139 98.3788 192.057C97.5392 205.232 108.599 214.403 121.021 216.699C119.098 210.286 120.58 204.533 124.831 199.261C124.596 197.766 124.193 196.318 123.599 194.962C124.199 195.547 124.759 196.162 125.244 196.893C127.068 200.537 126.829 205.312 125.27 208.975C125.169 209.214 123.714 212.008 124.411 211.821C125.729 211.466 127.033 211.083 128.282 210.53C131.734 208.996 134.302 206.792 136.896 204.122C137.15 201.851 136.953 199.622 136.18 197.878C136.564 198.329 136.925 198.797 137.257 199.285C138.97 203.451 137.133 209.831 134.36 213.183C138.351 213.24 142.005 212.537 145.754 211.006L146.016 211.101C146.736 208.899 147.072 206.511 147.137 204.399L147.194 204.386C147.337 207.057 147.169 209.915 146.239 212.449C146.071 212.909 145.036 215.161 145.267 215.142C147.391 214.995 149.509 214.735 151.539 214.042C157.502 212.003 162.34 208.404 165.237 203.412L165.239 203.408L165.248 203.392C166.526 201.185 167.429 198.711 167.871 195.971C168.012 197.225 168.014 198.484 167.899 199.752C167.279 201.66 166.379 203.461 165.241 205.117C164.742 206.994 163.848 208.692 162.636 210.304C162.087 211.038 159.96 212.757 162.204 212.276C163.948 211.901 165.623 211.334 167.183 210.457C173.898 206.684 177.886 200.692 177.89 192.905L177.894 192.897C178.087 193.564 178.304 194.221 178.56 194.865C178.555 195.233 178.545 195.6 178.511 195.971C179.607 198.553 181.288 200.877 183.853 202.199C184.722 202.646 187.466 204.59 186.784 202.615L186.842 202.151C186.614 201.448 186.473 200.736 186.391 200.02L186.452 199.733C186.135 195.383 187.865 191.74 189.311 187.754L189.412 187.451L189.739 187.222C189.72 186.941 189.724 186.66 189.737 186.376C190.083 185.094 190.337 183.595 190.295 182.24C190.617 183.327 190.53 184.355 190.547 185.546C190.585 187.942 191.307 190.086 192.287 192.208C197.816 183.976 201.397 175.734 199.095 165.896C199.739 167.005 200.48 168.034 201.378 168.898L201.416 169.085C202.285 170.019 203.055 170.98 203.738 172.037C207.606 162.282 205.719 150.811 198.284 143.269L198.337 143.214Z" fill="#881F7F"/>
<path d="M198.337 143.214C200.15 144.612 201.636 146.268 202.839 148.09L203.011 148.136C204.651 149.581 205.881 151.31 207.144 153.057C206.605 144.153 204.35 136.296 199.861 128.63C201.215 129.802 202.787 130.706 204.225 131.191L204.55 131.196C205.031 131.516 205.497 131.861 205.954 132.24C205.392 124.51 200.992 116.653 197.468 109.932C194.506 104.29 190.258 96.9896 184.292 94.0698L184.361 93.9649C187.218 94.9071 189.777 97.1388 191.981 99.802C193.068 100.457 194.082 101.194 195.062 102C194.286 99.7307 192.854 97.8481 192.071 95.5244C191.248 94.3133 190.388 93.1063 189.51 91.9053C184.983 87.995 181.568 82.3005 175.485 81.1207C178.039 83.9248 180.919 86.2551 182.206 90.0038C182.3 90.2743 181.924 90.6589 181.652 90.5203C177.775 88.4969 173.774 87.0733 169.475 86.7652C176.484 91.7437 183.276 98.2574 184.401 107.008C184.439 107.304 184.072 107.741 183.772 107.474C181.717 105.663 179.779 103.543 177.649 101.748C183.774 108.696 188.66 117.138 187.976 126.294C187.955 126.546 187.583 126.93 187.336 126.672C186.391 125.681 185.604 124.577 184.844 123.456C185.621 126.229 185.99 129.102 185.85 131.989C188.801 137.595 190.824 144.257 187.371 149.249C187.252 149.421 186.872 149.671 186.729 149.362C184.836 145.261 182.575 138.086 177.498 137.01C179.267 141.98 183.398 145.613 183.969 151.104C184.429 155.538 184.315 160.854 181.276 164.423C181.116 164.612 180.732 164.67 180.665 164.362C179.962 161.27 179.036 158.166 177.68 155.292C177.588 155.095 177.489 154.891 177.388 154.687C178.532 162.278 178.039 170.219 173.05 176.213C172.836 176.469 172.458 176.406 172.428 176.06C171.908 169.938 172.099 159.767 165.951 156.201C167.622 163.472 172.88 172.729 166.112 178.757L165.613 178.705C164.192 175.352 163.799 171.222 162.204 167.878C162.448 171.925 162.189 176.026 161.35 179.928C160.145 185.516 157.643 191.175 152.311 193.894C152.093 194.003 151.86 193.847 151.862 193.61C151.923 187.263 153.491 180.752 151.06 174.677C149.736 177.548 150.061 180.986 148.43 183.801C148.317 184 147.937 184.202 147.79 183.915C143.705 176.029 144.809 165.922 136.814 160.453C135.297 167.653 139.016 175.193 135.855 182.112L135.861 182.145L135.62 182.605C135.509 182.823 135.393 183.037 135.269 183.256C135.026 183.673 134.371 183.461 134.64 182.999C134.799 182.72 134.942 182.443 135.078 182.164C133.443 174.261 130.681 166.026 124.113 160.922C124.445 168.201 127.398 176.026 123.202 182.706C123.063 182.926 122.61 183.117 122.528 182.735C121.707 178.961 120.855 175.161 119.461 171.591C119.228 175.556 118.834 179.513 118.024 183.398C116.951 188.56 115.263 194.009 111.265 197.68L110.826 197.699C104.756 190.617 102.061 180.206 102.388 170.875C101.628 172.67 100.896 174.478 100.205 176.304C100.11 176.551 99.5606 176.883 99.4913 176.427C99.0505 173.556 98.8658 170.705 98.8931 167.863C94.4179 173.875 89.8609 179.832 86.4563 186.547C86.2947 186.863 85.7972 186.893 85.772 186.481C85.3081 179.204 86.4857 171.952 89.6657 165.403C84.1663 170.426 80.1151 176.541 76.8574 183.256C76.7483 183.478 76.2193 183.662 76.1816 183.283C75.9905 181.371 76.0556 179.448 75.9822 177.529C74.219 181.826 73.1884 186.364 71.9604 190.837C71.8723 191.152 71.3748 191.358 71.2446 190.961C67.6994 180.044 68.2724 168.867 70.743 157.821C65.3989 163.016 61.8032 169.587 60.7306 177.03C60.6739 177.427 59.9939 177.701 59.9939 177.158V177.082C58.4972 172.895 58.8981 168.583 59.8511 164.289C60.3129 160.494 61.2449 156.765 62.7016 153.24L62.7583 152.949C58.8918 157.782 54.7064 162.72 53.5855 168.898C53.5162 169.274 52.7942 169.391 52.8635 168.93C53.9151 161.883 53.9025 154.715 55.0527 147.681C56.0938 141.3 58.2496 135.421 62.0824 130.28C58.4993 132.763 55.2962 135.677 52.6598 139.195C52.4457 139.48 51.9231 139.335 52.0553 138.941C55.1262 129.791 59.1164 121.305 65.8816 114.355C61.6143 115.327 57.6471 117.186 53.9528 119.525C53.6317 119.726 53.2685 119.464 53.4658 119.101C57.6744 111.321 64.1122 105.942 70.9172 100.577C65.6487 101.337 60.6298 103.209 55.4117 104.248C55.1157 104.304 54.9772 103.973 55.1115 103.747C59.6265 96.1059 69.112 91.7863 71.8659 83.0835C68.1716 84.5931 64.3556 87.0448 60.3045 86.0517C57.6177 87.7055 54.6791 88.564 51.5746 87.8793C53.0754 89.2987 56.2597 90.1047 57.6891 90.2811C60.0547 90.5745 62.2629 90.4072 64.4522 89.6996C64.9056 89.4815 65.3568 89.2544 65.8291 89.047L65.8984 89.0428C65.7305 89.2674 65.5689 89.4939 65.3757 89.7078L65.1407 89.962C64.6642 90.1572 64.1856 90.3293 63.7049 90.4721C53.5771 95.795 47.1772 103.801 45.7057 115.444C47.8258 112.035 52.4982 109.109 56.1631 108.767C57.4603 107.823 58.8184 107.019 60.2226 106.406L60.3171 106.448L60.1954 106.635C55.4117 110.296 51.3102 114.202 48.5038 119.638C46.0416 124.409 45.1096 129.199 44.2008 134.365C45.393 132.438 46.4929 130.536 48.3043 129.035C50.1326 127.524 52.2064 126.01 54.5531 125.476C54.7735 125.427 54.8953 125.504 54.9436 125.624C55.8755 124.766 56.8894 123.962 57.9746 123.202C57.6387 123.708 57.2987 124.202 56.9356 124.68C56.1967 125.643 55.4977 126.62 54.8533 127.621C52.9432 129.51 51.138 131.501 49.7128 134.097C46.9001 139.214 45.3342 144.812 44.6856 150.612C44.356 153.527 44.3708 156.399 44.4589 159.327C44.4967 160.534 44.2637 161.824 44.0979 162.668C44.2595 161.847 44.5219 160.84 44.7863 160.047C46.2158 155.783 48.3841 152.064 51.0436 148.451L51.2661 148.294C50.9407 149.042 50.6363 149.799 50.3593 150.561C47.0575 156.961 45.8421 163.77 46.9378 171.007C47.9139 177.461 50.3719 183.134 52.6787 189.129C52.8193 183.95 53.5666 179.024 56.5703 174.591L56.7718 174.693C56.054 176.029 55.4956 177.391 55.0569 178.774L55.1535 178.881C53.4407 190.539 57.7961 202.609 68.5243 208.125C65.403 203.174 66.5785 194.745 68.4991 189.821C68.6104 189.538 69.0722 189.549 68.9756 189.901C66.1797 200.023 74.6094 208.369 83.7486 210.335C78.5766 205.22 79.2776 196.018 80.7427 189.531L80.7806 189.454L80.8309 189.83C80.9674 190.799 81.1752 191.809 81.4375 192.806C82.147 202.231 88.8597 209.655 97.5245 213.1C95.9502 210.511 95.6144 206.36 95.5221 203.893C95.3394 198.948 95.839 193.927 98.0934 189.459L98.297 189.3V189.309C98.1857 190.212 98.2361 191.139 98.3788 192.057C97.5392 205.232 108.599 214.403 121.021 216.699C119.098 210.286 120.58 204.533 124.831 199.261C124.596 197.766 124.193 196.318 123.599 194.962C124.199 195.547 124.759 196.162 125.244 196.893C127.068 200.537 126.829 205.312 125.27 208.975C125.169 209.214 123.714 212.008 124.411 211.821C125.729 211.466 127.033 211.083 128.282 210.53C131.734 208.996 134.302 206.792 136.896 204.122C137.15 201.851 136.953 199.622 136.18 197.878C136.564 198.329 136.925 198.797 137.257 199.285C138.97 203.451 137.133 209.831 134.36 213.183C138.351 213.24 142.005 212.537 145.754 211.006L146.016 211.101C146.736 208.899 147.072 206.511 147.137 204.399L147.194 204.386C147.337 207.057 147.169 209.915 146.239 212.449C146.071 212.909 145.036 215.161 145.267 215.142C147.391 214.995 149.509 214.735 151.539 214.042C157.502 212.003 162.34 208.404 165.237 203.412L165.239 203.408L165.248 203.392C166.526 201.185 167.429 198.711 167.871 195.971C168.012 197.225 168.014 198.484 167.899 199.752C167.279 201.66 166.379 203.461 165.241 205.117C164.742 206.994 163.848 208.692 162.636 210.304C162.087 211.038 159.96 212.757 162.204 212.276C163.948 211.901 165.623 211.334 167.183 210.457C173.898 206.684 177.886 200.692 177.89 192.905L177.894 192.897C178.087 193.564 178.304 194.221 178.56 194.865C178.555 195.233 178.545 195.6 178.511 195.971C179.607 198.553 181.288 200.877 183.853 202.199C184.722 202.646 187.466 204.59 186.784 202.615L186.842 202.151C186.614 201.448 186.473 200.736 186.391 200.02L186.452 199.733C186.135 195.383 187.865 191.74 189.311 187.754L189.412 187.451L189.739 187.222C189.72 186.941 189.724 186.66 189.737 186.376C190.083 185.094 190.337 183.595 190.295 182.24C190.617 183.327 190.53 184.355 190.547 185.546C190.585 187.942 191.307 190.086 192.287 192.208C197.816 183.976 201.397 175.734 199.095 165.896C199.739 167.005 200.48 168.034 201.378 168.898L201.416 169.085C202.285 170.019 203.055 170.98 203.738 172.037C207.606 162.282 205.719 150.811 198.284 143.269L198.337 143.214Z" fill="#881F7F"/>
<path d="M56.7718 174.693C56.054 176.029 55.4956 177.391 55.0569 178.774L55.1535 178.881C54.4797 183.478 54.761 188.129 55.991 192.428C56.711 189.67 57.6178 186.948 58.365 184.191C58.4637 183.82 59.0556 183.686 59.085 184.159C59.3809 189.082 60.3423 193.927 62.4392 198.393C63.7343 192.015 64.9602 185.535 68.5495 179.981L68.9798 179.736C68.3186 172.45 69.112 165.107 70.743 157.821C65.3989 163.016 61.8032 169.587 60.7306 177.03C60.6739 177.427 59.9939 177.701 59.9939 177.158V177.082C58.4972 172.895 58.8981 168.583 59.8511 164.289C60.3129 160.494 61.2449 156.765 62.7016 153.24L62.7583 152.949C58.8918 157.782 54.7064 162.72 53.5855 168.898C53.5162 169.274 52.7942 169.391 52.8635 168.93C53.9151 161.883 53.9025 154.715 55.0527 147.681C56.0938 141.3 58.2496 135.421 62.0824 130.28C58.4993 132.763 55.2962 135.677 52.6598 139.195C52.4457 139.48 51.9231 139.335 52.0553 138.941C55.1262 129.791 59.1164 121.305 65.8816 114.355C61.6143 115.327 57.6471 117.186 53.9528 119.525C53.6317 119.726 53.2685 119.464 53.4658 119.101C57.6744 111.321 64.1122 105.942 70.9172 100.578C65.6487 101.337 60.6298 103.209 55.4117 104.248C55.1157 104.304 54.9772 103.973 55.1115 103.747C59.6265 96.1059 69.112 91.7863 71.8659 83.0835C68.1716 84.5931 64.3556 87.0448 60.3045 86.0517C57.6177 87.7055 54.6791 88.564 51.5746 87.8793C53.0754 89.2987 56.2597 90.1047 57.6891 90.2811C60.0547 90.5745 62.2629 90.4072 64.4522 89.6996C64.9056 89.4815 65.3568 89.2544 65.8291 89.047L65.8984 89.0428C65.7305 89.2674 65.5689 89.4939 65.3757 89.7078L65.1407 89.962C64.6642 90.1572 64.1856 90.3293 63.7049 90.4721C53.5771 95.795 47.1772 103.801 45.7057 115.444C47.8258 112.035 52.4982 109.109 56.1631 108.767C57.4603 107.823 58.8184 107.019 60.2226 106.406L60.3171 106.448L60.1954 106.635C55.4117 110.296 51.3102 114.202 48.5038 119.638C46.0416 124.409 45.1096 129.199 44.2008 134.365C45.393 132.438 46.4929 130.536 48.3043 129.035C50.1326 127.524 52.2064 126.01 54.5531 125.476C54.7735 125.427 54.8953 125.504 54.9436 125.624C55.8755 124.766 56.8894 123.962 57.9746 123.202C57.6387 123.708 57.2987 124.202 56.9335 124.68C56.1967 125.643 55.4977 126.62 54.8533 127.621C52.9432 129.51 51.138 131.501 49.7128 134.097C46.9001 139.214 45.3342 144.812 44.6856 150.612C44.356 153.527 44.3708 156.399 44.4589 159.327C44.4967 160.534 44.2637 161.824 44.0979 162.668C44.2595 161.847 44.5219 160.84 44.7863 160.047C46.2158 155.783 48.3841 152.064 51.0436 148.451L51.2661 148.294C50.9407 149.042 50.6363 149.799 50.3593 150.561C47.0575 156.961 45.8421 163.77 46.9378 171.007C47.9139 177.461 50.374 183.134 52.6787 189.129C52.8214 183.95 53.5666 179.024 56.5703 174.591L56.7718 174.693Z" fill="#881F7F"/>
<path d="M165.237 203.412L165.239 203.408L165.248 203.392C165.678 202.65 166.047 201.866 166.39 201.061C165.565 201.89 164.704 202.649 163.877 203.32C159.259 207.063 153.816 210.274 148.197 212.266C147.92 212.365 147.7 212.178 147.763 211.886C148.619 207.909 150.452 203.793 149.06 199.76C146.241 203.284 143.961 207.272 140.061 209.745C139.795 209.915 139.442 209.777 139.537 209.42C141.306 202.627 138.911 194.842 133.361 190.483C133.139 195.126 133.053 199.84 129.995 203.637C129.837 203.832 129.447 203.88 129.384 203.576C128.248 198.316 126.506 192.473 122.316 188.818C121.197 196.826 119.89 204.85 117.207 212.501C117.127 212.728 116.909 212.906 116.659 212.827C103.066 208.459 101.488 194.231 99.5985 182.042C94.5755 188.175 93.3224 196.305 91.1562 203.727C91.0974 203.927 90.7322 204.244 90.5307 204.003C85.9275 198.484 82.8188 191.886 81.5342 184.817C78.2408 189.502 77.4747 195.556 76.0725 200.984C76.0053 201.251 75.575 201.5 75.3903 201.193C71.7128 195.025 69.7817 188.155 68.6462 181.11C65.3066 186.749 64.2214 193.264 62.9095 199.613C62.857 199.872 62.391 200.138 62.2294 199.823C60.0548 195.574 58.957 190.97 58.5036 186.259C57.769 188.751 56.9755 191.228 56.3899 193.747C58.4343 199.795 62.4582 205.008 68.5223 208.125C65.4031 203.174 66.5786 194.745 68.4992 189.821C68.6105 189.538 69.0723 189.549 68.9757 189.901C66.1798 200.023 74.6095 208.369 83.7487 210.335C78.5767 205.22 79.2777 196.018 80.7428 189.531L80.7807 189.454L80.831 189.83C80.9675 190.799 81.1753 191.809 81.4376 192.806C82.1471 202.231 88.8598 209.655 97.5246 213.1C95.9503 210.511 95.6145 206.36 95.5222 203.893C95.3395 198.948 95.8391 193.927 98.0935 189.459L98.2971 189.3V189.307C98.1858 190.212 98.2362 191.139 98.3789 192.057C97.5393 205.232 108.599 214.403 121.021 216.699C119.098 210.286 120.58 204.533 124.831 199.261C124.596 197.766 124.191 196.318 123.599 194.962C124.199 195.547 124.76 196.162 125.244 196.893C127.068 200.537 126.829 205.312 125.27 208.975C125.169 209.214 123.714 212.008 124.411 211.821C125.729 211.466 127.033 211.084 128.282 210.53C131.735 208.996 134.302 206.792 136.896 204.122C137.15 201.851 136.953 199.624 136.18 197.879C136.564 198.329 136.925 198.797 137.257 199.285C138.97 203.451 137.133 209.831 134.361 213.183C138.351 213.24 142.005 212.537 145.754 211.006L146.016 211.101C146.736 208.899 147.072 206.511 147.137 204.399L147.194 204.386C147.337 207.057 147.169 209.915 146.239 212.449C146.071 212.909 145.036 215.161 145.267 215.142C147.391 214.995 149.509 214.735 151.539 214.042C157.502 212.003 162.341 208.404 165.237 203.412Z" fill="#832372"/>
<path d="M197.262 162.664C197.128 162.933 196.689 163.077 196.57 162.716C196.276 161.837 195.965 160.85 195.562 159.91C194.886 158.931 194.156 157.996 193.368 157.11L193.308 156.77L193.228 156.7C193.709 164.444 196.08 173.424 190.875 180.055C190.732 180.237 190.306 180.304 190.262 179.993C189.993 178.069 189.475 176.333 188.505 174.687C186.463 180.873 185.138 187.263 183.572 193.579C183.52 193.79 183.146 194.089 182.949 193.856C180.579 191.099 179.185 187.622 176.734 184.941C176.685 192.718 173.787 201.885 166.572 205.683C166.306 205.824 166.066 205.57 166.136 205.305C166.369 204.443 166.532 203.587 166.654 202.732C166.234 203.553 165.766 204.351 165.241 205.117C164.742 206.994 163.848 208.692 162.637 210.304C162.087 211.038 159.96 212.757 162.204 212.276C163.948 211.901 165.623 211.334 167.183 210.457C173.898 206.684 177.888 200.692 177.89 192.905L177.894 192.897C178.088 193.564 178.304 194.221 178.56 194.865C178.556 195.233 178.545 195.6 178.512 195.971C179.607 198.553 181.289 200.877 183.854 202.199C184.723 202.646 187.468 204.59 186.784 202.615L186.843 202.151C186.614 201.448 186.473 200.736 186.391 200.02L186.452 199.733C186.135 195.383 187.865 191.74 189.311 187.754L189.412 187.451L189.739 187.222C189.72 186.941 189.725 186.66 189.737 186.379C190.083 185.094 190.338 183.595 190.296 182.24C190.617 183.327 190.531 184.355 190.547 185.546C190.585 187.942 191.307 190.086 192.288 192.208C197.55 184.374 201.032 176.532 199.38 167.318C198.79 165.712 198.085 164.155 197.262 162.664Z" fill="#832372"/>
<path d="M198.337 143.214C200.15 144.612 201.636 146.268 202.839 148.09L203.011 148.136C204.651 149.581 205.881 151.31 207.144 153.057C206.605 144.153 204.35 136.296 199.861 128.63C201.214 129.802 202.787 130.709 204.224 131.191L204.55 131.196C205.031 131.516 205.496 131.86 205.954 132.24C205.486 125.809 202.363 119.292 199.296 113.412C200.104 117.568 200.557 121.788 200.589 126.021C200.589 126.298 200.196 126.624 199.949 126.396C197.871 124.479 196.177 122.186 194.076 120.304C197.165 127.528 201.322 134.455 202.226 142.383C202.256 142.639 201.983 143.063 201.672 142.898C199.334 141.64 197.516 139.728 195.453 138.104C197.006 143.267 199.212 148.229 200.478 153.472C201.07 155.939 201.504 158.464 201.584 161.006C201.775 161.954 201.953 162.907 202.098 163.864C202.331 163.795 202.581 163.911 202.493 164.238C202.413 164.534 202.337 164.83 202.264 165.13C202.487 166.904 202.615 168.694 202.617 170.504C203.011 170.997 203.391 171.503 203.737 172.037C207.606 162.282 205.719 150.811 198.284 143.269L198.337 143.214Z" fill="#832372"/>
<path d="M87.9403 25.297C85.9714 22.031 82.4304 20.0809 78.7109 19.5919C76.5489 20.316 74.3785 21.0507 72.3487 22.0204C70.7262 22.8873 69.1163 23.7815 67.5021 24.6673C67.1642 24.8625 66.8157 25.0409 66.4735 25.232C63.6252 30.5005 64.8468 38.0696 70.2371 41.2329C77.1912 45.3092 87.1994 40.6808 88.8681 32.7885C89.3131 30.6936 89.0675 27.1736 87.9403 25.297Z" fill="#54B467"/>
<path d="M181.36 25.2552C178.736 23.8278 176.391 21.966 173.742 20.5554C170.894 19.0399 167.77 18.2234 164.826 16.9388C164.011 17.2495 163.222 17.663 162.477 18.1961C157.445 21.8044 155.384 29.6149 159.259 34.7953C164.089 41.2456 175.109 40.8594 179.706 34.2306C180.927 32.4695 182.067 29.13 181.752 26.9638C181.666 26.3781 181.534 25.8093 181.36 25.2552Z" fill="#54B467"/>
<path d="M155.737 13.2696C159.742 9.59841 164.03 8.26343 168.277 8.50272C173.369 8.3306 179.593 10.6731 182.735 14.4367C185.195 16.4412 186.78 19.5709 187.714 22.7068C188.534 25.4608 189.242 28.7835 188.948 31.8607C184.261 26.4704 179.378 22.2472 172.645 19.3169C166.589 16.6847 160.048 14.8607 153.426 15.7528C154.11 14.8901 154.881 14.0547 155.737 13.2696Z" fill="#B47FBC"/>
<path d="M187.714 22.7068C187.363 21.5293 186.92 20.3518 186.375 19.2351C186.009 19.7619 185.558 20.2489 185.037 20.6813C182.613 22.6733 179.467 21.7665 176.914 20.5323C172.649 18.4752 168.749 16.2125 163.99 15.4316C160.661 14.8859 157.33 14.8712 153.995 15.0916C153.806 15.3141 153.604 15.5282 153.426 15.7528C160.048 14.8607 166.589 16.6847 172.645 19.3169C179.378 22.2472 184.261 26.4704 188.948 31.8607C189.242 28.7835 188.534 25.4608 187.714 22.7068Z" fill="#97519A"/>
<path d="M58.4321 24.5267C59.3683 21.3907 60.9531 18.2611 63.4132 16.2565C66.5533 12.4929 72.779 10.1483 77.8692 10.3225C82.1176 10.0811 86.4059 11.4161 90.4109 15.0894C91.2673 15.8766 92.0355 16.7078 92.7198 17.5747C86.0953 16.6805 79.5589 18.5024 73.5011 21.1367C66.7674 24.0649 61.8851 28.2902 57.2 33.6805C56.9062 30.6055 57.6114 27.2785 58.4321 24.5267Z" fill="#B47FBC"/>
<path d="M90.4108 15.0894C89.0485 13.8405 87.6548 12.8707 86.2401 12.1319C86.1687 12.8456 85.9063 13.5823 85.4235 14.3002C84.395 15.8262 82.3862 16.3257 80.7259 16.7749C77.8167 17.5621 74.9599 18.6368 72.2206 19.8962C69.5528 21.1199 67.1095 22.5662 64.7754 24.3504C62.8863 25.7924 60.7557 28.1328 58.5224 29.0228C58.0669 29.2033 57.6848 29.2789 57.3595 29.2873C57.1496 30.7503 57.0635 32.2427 57.2 33.6805C61.885 28.2902 66.7673 24.0649 73.501 21.1367C79.5588 18.5024 86.0952 16.6805 92.7198 17.5747C92.0355 16.7078 91.2672 15.8766 90.4108 15.0894Z" fill="#97519A"/>
<path d="M76.7378 22.5767C73.9922 22.6501 71.3243 23.8508 69.8214 26.2982C67.5104 30.0618 68.3143 35.767 72.2941 38.1011C77.252 41.0082 84.3929 37.7086 85.581 32.0811C85.8979 30.5845 85.7237 28.074 84.9198 26.7369C83.2364 23.9389 79.9346 22.4927 76.7378 22.5767Z" fill="#214128"/>
<path d="M79.9768 22.0689C78.2598 22.115 76.591 22.8665 75.6506 24.3967C74.2023 26.7539 74.7061 30.3243 77.1956 31.7853C80.3 33.6072 84.7667 31.5397 85.514 28.0175C85.7113 27.0792 85.6022 25.5092 85.0984 24.6716C84.0447 22.9211 81.9792 22.0143 79.9768 22.0689Z" fill="#C9DBD7"/>
<path d="M169.824 19.9256C167.256 19.9172 164.723 20.9668 163.249 23.2148C160.98 26.6698 161.57 32.0349 165.231 34.3292C169.788 37.1881 176.561 34.2998 177.833 29.0669C178.171 27.6795 178.079 25.3223 177.363 24.0481C175.867 21.3845 172.817 19.9382 169.824 19.9256Z" fill="#214128"/>
<path d="M177.204 22.5746C175.898 22.0667 174.403 22.1024 173.213 22.9567C171.379 24.2707 170.629 27.1169 172.04 29.0019C173.799 31.3528 177.812 31.2122 179.489 28.7983C179.932 28.1581 180.348 26.9406 180.232 26.1514C179.993 24.4995 178.725 23.1666 177.204 22.5746Z" fill="#C9DBD7"/>
<path d="M173.658 32.0097C172.926 31.7242 172.086 31.7473 171.419 32.2238C170.388 32.9626 169.968 34.5579 170.76 35.6158C171.748 36.9382 174.001 36.8584 174.939 35.5046C175.189 35.1435 175.422 34.4592 175.357 34.0163C175.224 33.0907 174.511 32.3413 173.658 32.0097Z" fill="#C9DBD7"/>
<path d="M83.2994 33.9303C82.5668 33.6428 81.7293 33.6658 81.0618 34.1465C80.0312 34.8833 79.6114 36.4785 80.4027 37.5364C81.3893 38.8567 83.6415 38.777 84.5798 37.4231C84.8317 37.0621 85.0626 36.3799 84.9996 35.937C84.8653 35.0113 84.1537 34.262 83.2994 33.9303Z" fill="#C9DBD7"/>
<path d="M118.878 87.0675L118.555 87.3209C115.219 87.9825 112.396 89.9012 112.593 93.8008C112.826 98.4844 119.886 99.0041 123.185 98.7146C127.096 98.3704 130.794 96.1475 130.601 91.8575C130.347 86.255 122.9 85.4842 118.878 87.0675Z" fill="#881F81"/>
<path d="M116.533 92.4971L116.468 92.5496C115.792 92.6841 115.219 93.0743 115.259 93.864C115.307 94.8125 116.739 94.92 117.406 94.8585C118.198 94.7897 118.947 94.3388 118.907 93.4696C118.857 92.3315 117.35 92.1766 116.533 92.4971Z" fill="#C9DBD7"/>
<path d="M124.232 92.4971L124.167 92.5496C123.489 92.6841 122.918 93.0743 122.96 93.864C123.007 94.8125 124.438 94.92 125.106 94.8585C125.897 94.7897 126.646 94.3388 126.609 93.4696C126.556 92.3315 125.049 92.1766 124.232 92.4971Z" fill="#C9DBD7"/>
<path d="M130.641 90.3104C129.493 87.6883 126.792 86.5725 124.057 86.2238C124.197 85.5515 124.185 84.8464 124.229 84.1535C124.308 82.8752 124.577 81.6208 124.938 80.3967C125.14 79.712 124.254 79.5317 123.945 80.0751C123.343 81.1246 123.083 82.1874 122.994 83.3878C122.931 84.2085 122.856 85.2366 123.03 86.1287C122.436 86.0935 121.846 86.087 121.279 86.1059C120.956 86.1189 120.629 86.1476 120.299 86.1837C120.849 84.028 120.358 81.7168 119.781 79.6014C119.621 79.016 118.817 79.4078 118.884 79.9137C119.166 82.0274 119.653 84.1586 119.529 86.2952C116.443 86.8348 113.431 88.5328 112.694 91.7651C111.813 95.6483 115.184 98.4402 118.578 99.1517C118.805 99.2002 118.971 98.8262 118.717 98.755C115.44 97.8548 112.247 94.5488 114.204 91.0329C115.492 88.7133 118.725 88.081 121.112 87.8925C123.563 87.699 126.252 88.0514 128.169 89.7078C131.485 92.5686 128.024 96.278 125.448 97.8816C125.026 98.144 125.152 98.95 125.717 98.7107C128.88 97.3653 132.316 94.1386 130.641 90.3104Z" fill="#231F20"/>
<path d="M153.466 108.1C149.094 106.799 144.329 107.925 140.017 108.898C136.258 109.743 132.643 110.095 128.997 110.218C125.958 110.751 122.898 111.143 119.827 111.342C112.889 111.798 105.646 111.443 99.0778 109.066C98.593 108.994 98.1081 108.918 97.6232 108.847C94.4243 108.377 90.3795 107.673 87.3694 109.308C81.8427 112.314 82.2121 119.525 84.6155 124.491C87.6822 130.828 94.3655 135.207 100.352 138.439C106.92 141.98 113.96 144.319 121.445 144.515C127.429 144.673 133.437 143.408 139.257 142.167C143.651 141.232 147.989 140.399 152.135 138.599C158.883 135.668 163.293 129.285 163.715 121.949C164.093 115.301 159.618 109.938 153.466 108.1Z" fill="#881F7F"/>
<path d="M106.126 110.642C107.035 110.784 107.946 110.897 108.861 110.99C107.948 110.881 107.037 110.768 106.126 110.642Z" fill="#881F7F"/>
<path d="M160.829 117.235C158.031 106.907 144.574 110.073 137.127 111.758C132.404 112.827 127.74 114.029 122.914 114.567C116.422 115.291 109.919 114.613 103.461 113.906C99.4871 113.471 95.2806 112.781 91.2694 113.116C84.3237 113.693 86.322 122.039 88.8597 125.927C93.9016 133.658 103.456 137.532 112.088 139.455C125.171 142.366 143.094 142.836 154.379 134.558C159.759 130.612 162.594 123.739 160.829 117.235Z" fill="#231F20"/>
<path d="M148.477 136.582C137.648 141.275 123.859 140.448 112.566 138.076C104.609 136.403 97.1091 132.961 91.5278 126.945C88.2743 123.439 83.6081 114.265 92.0861 113.662C95.665 113.408 99.4726 114.762 102.913 115.48C110.971 117.161 119.355 116.617 127.39 115.186C136.418 113.58 145.11 110.058 154.274 111.989C158.248 113.49 160.206 117.541 160.177 121.932C160.124 128.945 154.406 134.012 148.477 136.582Z" fill="#B6E3A3"/>
<path d="M156.172 121.853C152.452 122.275 150.437 114.88 154.005 113.502C154.215 113.423 154.369 113.521 154.444 113.673C157.528 114.284 160.298 121.384 156.172 121.853ZM150.651 114.273C150.899 115.807 148.783 117.638 148.08 118.561C146.596 120.518 143.613 121.372 141.369 122.197C137.144 123.75 132.675 124.308 128.234 124.863C120.635 125.811 112.642 125.345 105.148 123.284C103.698 122.883 102.01 122.407 100.856 121.378C100.197 120.788 98.9247 119.592 99.5272 118.559C100.172 117.462 102.168 117.501 103.219 117.567C108.104 117.854 112.835 119.284 117.766 119.487C122.822 119.693 127.954 119.296 132.889 118.154C136.55 117.308 139.915 115.882 143.405 114.552C144.709 114.057 149.774 111.825 150.586 114.025L150.651 114.273ZM142.746 133.548C140.91 136.132 137.314 137.221 134.34 137.727C128.03 138.8 120.748 138.857 114.548 137.018C112.512 136.415 109.33 135.421 108.614 133.105C107.827 130.557 109.806 129.806 111.941 130.255C116.905 131.305 122.549 131.189 127.591 130.668C130.517 130.368 133.681 130.07 136.51 129.21C138.895 128.483 141.182 127.48 143.584 126.802C143.779 126.747 143.93 126.83 144.014 126.957L144.258 127.045C146.132 128.532 143.695 132.213 142.746 133.548ZM154.274 111.989C145.11 110.058 136.418 113.58 127.39 115.186C119.355 116.617 110.971 117.161 102.913 115.48C99.4726 114.762 95.665 113.408 92.0861 113.662C83.6081 114.265 88.2743 123.439 91.5278 126.945C97.1091 132.961 104.609 136.403 112.566 138.076C123.859 140.448 137.648 141.275 148.477 136.582C154.406 134.012 160.124 128.945 160.177 121.932C160.206 117.541 158.248 113.49 154.274 111.989Z" fill="#9EDA84"/>
<path d="M96.2944 136.582H160.176V113.956H96.2944V136.582Z" fill="#100F0D"/>
<path d="M129.804 139.984C129.806 139.984 129.808 139.984 129.812 139.984C129.808 139.984 129.806 139.984 129.804 139.984ZM130.173 138.269C130.44 138.24 130.702 138.209 130.966 138.175C132.073 138.059 133.166 137.925 134.226 137.746C132.91 137.967 131.554 138.143 130.173 138.269ZM134.34 137.727C134.352 137.726 134.365 137.723 134.377 137.721C134.365 137.723 134.352 137.726 134.34 137.727ZM134.405 137.717C134.409 137.717 134.413 137.715 134.417 137.715C134.413 137.715 134.409 137.717 134.405 137.717ZM134.44 137.711C135.412 137.54 136.443 137.302 137.457 136.976C137.507 136.963 137.559 136.949 137.61 136.936C136.548 137.287 135.46 137.532 134.44 137.711ZM101.005 115.039C99.4536 114.657 97.8563 114.233 96.2568 113.95C96.2694 113.952 96.282 113.954 96.2946 113.956C97.8815 114.239 99.4662 114.661 101.005 115.039Z" fill="#6DC259"/>
<path d="M129.803 139.984C123.884 139.984 117.942 139.206 112.566 138.076C104.609 136.403 97.1089 132.961 91.5276 126.945C89.6406 124.911 87.2792 120.969 87.2813 117.9C87.2854 115.679 88.526 113.916 92.0859 113.662C92.3882 113.641 92.6883 113.631 92.9927 113.631C94.0695 113.631 95.1631 113.756 96.2567 113.95C97.8562 114.233 99.4535 114.657 101.005 115.039C99.1114 114.884 96.9452 114.303 95.0309 114.303C93.2824 114.303 91.7417 114.787 90.8118 116.519C89.2333 119.458 90.5137 123.254 92.4071 125.69C94.9784 128.993 98.5593 131.357 102.214 133.311C109.069 136.978 116.538 138.607 124.113 138.607C126.128 138.607 128.154 138.491 130.173 138.269C131.554 138.143 132.91 137.967 134.226 137.746C134.264 137.74 134.302 137.734 134.339 137.727C134.352 137.726 134.365 137.723 134.377 137.721C134.386 137.721 134.396 137.719 134.404 137.717C134.409 137.717 134.413 137.715 134.417 137.715C134.425 137.712 134.432 137.712 134.44 137.711C135.46 137.532 136.548 137.287 137.61 136.936C146.186 134.711 154.438 129.807 157.962 121.378C158.623 119.799 158.997 118.175 159.079 116.569C159.656 117.808 160.004 119.193 160.126 120.643C160.128 120.656 160.128 120.668 160.13 120.682C160.13 120.686 160.13 120.687 160.13 120.691C160.13 120.702 160.132 120.715 160.132 120.725C160.132 120.729 160.134 120.734 160.134 120.738C160.134 120.748 160.136 120.759 160.136 120.769C160.136 120.776 160.136 120.782 160.139 120.787C160.139 120.796 160.139 120.807 160.141 120.818C160.141 120.822 160.141 120.828 160.141 120.834C160.141 120.843 160.143 120.853 160.143 120.864C160.143 120.873 160.145 120.881 160.145 120.892C160.145 120.904 160.147 120.916 160.147 120.929C160.147 120.937 160.149 120.948 160.149 120.956C160.149 120.963 160.149 120.969 160.151 120.975C160.151 120.986 160.151 120.994 160.151 121.005C160.153 121.01 160.153 121.017 160.153 121.023C160.153 121.034 160.153 121.044 160.155 121.055C160.155 121.059 160.155 121.065 160.155 121.069C160.155 121.082 160.157 121.092 160.157 121.103C160.157 121.11 160.157 121.114 160.157 121.12C160.16 121.13 160.16 121.143 160.16 121.155C160.16 121.16 160.16 121.162 160.16 121.166C160.164 121.216 160.164 121.265 160.166 121.315C160.166 121.317 160.166 121.321 160.166 121.324C160.168 121.338 160.168 121.351 160.168 121.364C160.168 121.368 160.168 121.372 160.168 121.376C160.168 121.388 160.17 121.399 160.17 121.411C160.17 121.416 160.17 121.42 160.17 121.425C160.17 121.437 160.17 121.45 160.17 121.462C160.172 121.466 160.172 121.47 160.172 121.475C160.172 121.488 160.172 121.502 160.172 121.516C160.172 121.519 160.172 121.521 160.172 121.523C160.172 121.557 160.174 121.59 160.174 121.624C160.174 121.624 160.174 121.626 160.174 121.628C160.174 121.643 160.174 121.657 160.174 121.672C160.174 121.676 160.174 121.68 160.174 121.684C160.174 121.695 160.174 121.707 160.176 121.718C160.176 121.725 160.176 121.731 160.176 121.737C160.176 121.748 160.176 121.758 160.176 121.769C160.176 121.775 160.176 121.779 160.176 121.785C160.176 121.796 160.176 121.807 160.176 121.816C160.176 121.823 160.176 121.829 160.176 121.834C160.176 121.846 160.176 121.859 160.176 121.871C160.176 121.875 160.176 121.878 160.176 121.882C160.176 121.898 160.176 121.916 160.176 121.932C160.124 128.945 154.406 134.012 148.476 136.582C142.805 139.039 136.323 139.984 129.812 139.984C129.808 139.984 129.805 139.984 129.803 139.984Z" fill="#5EB84A"/>
<path d="M154.87 122.715C152.981 122.044 151.812 120.278 151.314 118.217C151.106 117.805 151.018 117.376 151.096 116.937C151.058 116.586 151.031 116.231 151.029 115.877C149.807 116.893 149.715 118.1 150.248 119.227C141.365 125.778 130.209 128.055 119.333 127.549C113.832 127.291 108.358 126.848 103.139 125.012C100.192 123.973 92.8248 121.426 92.8542 117.59L92.6107 117.613C92.4869 120.605 95.9041 122.134 98.1731 123.28C99.0064 123.701 99.8398 124.101 100.671 124.487C100.054 126.657 100.623 129.012 101.88 130.826C102.033 131.048 102.342 130.992 102.474 130.769C102.89 130.066 103.207 129.311 103.587 128.591C104.011 127.789 104.586 127.098 105.033 126.32C108.46 127.602 111.978 128.532 115.761 128.97C125.244 130.072 136.025 128.929 144.717 124.288C144.956 124.751 145.855 126.212 145.949 126.406C146.51 127.558 146.766 128.847 147.02 130.091C147.106 130.515 147.605 130.377 147.792 130.114C148.808 128.685 149.614 126.985 149.914 125.242C150.12 124.044 150.292 122.239 149.408 121.263C149.885 120.893 150.357 120.524 150.811 120.127C151.826 121.429 153.537 122.486 154.977 122.818L154.87 122.715Z" fill="#231F20"/>
<path d="M102.052 129.93C100.925 128.567 100.797 126.271 100.955 124.615C102.023 125.104 103.093 125.566 104.17 125.99C103.167 126.943 102.468 128.553 102.052 129.93Z" fill="white"/>
<path d="M148.785 125.354C148.657 126.574 148.233 127.776 147.639 128.863C147.198 127.108 146.571 125.276 145.326 123.962C146.409 123.355 147.454 122.684 148.462 121.962C148.592 123.091 148.915 124.121 148.785 125.354Z" fill="white"/>
<path d="M81.9855 44.4195C80.1887 44.0078 78.2785 44.4104 76.444 44.3015C74.3492 44.1802 72.3257 43.5438 70.4177 42.7002C66.5345 40.9894 64.2948 37.4295 62.9682 33.5547C62.7478 32.9124 61.8578 33.4266 61.7151 33.838C59.8596 39.1591 62.2818 43.8292 66.9438 46.6612C71.125 49.2046 78.4486 50.1032 82.4157 46.8079C83.2511 46.1151 83.0896 44.6711 81.9855 44.4195Z" fill="white"/>
<path d="M166.396 41.0671C162.347 39.476 158.778 38.5125 156.446 34.4572C153.99 30.1815 156.236 25.0284 156.18 20.5112C156.173 19.9277 155.483 19.6884 155.099 20.1544C151.726 24.2244 149.345 31.0358 151.591 36.2078C153.759 41.2098 159.309 45.6551 164.987 45.0886C166.608 44.9295 168.57 41.9277 166.396 41.0671Z" fill="white"/>
<path d="M90.1863 36.9635C88.9751 37.7989 88.7023 38.9513 88.0999 40.0386C87.5772 40.9832 86.9349 41.3169 86.1226 42.0877C85.7699 42.4214 85.4782 43.2799 85.9736 43.6422C87.4576 44.7278 89.2186 43.552 90.3416 42.4821C91.494 41.3799 92.9402 39.5034 92.7555 37.8304C92.617 36.592 91.0553 36.3653 90.1863 36.9635Z" fill="white"/>
<path d="M175.423 40.9117C174.517 41.0083 173.837 41.4134 173.06 41.85C172.481 42.1793 171.637 42.5091 170.98 42.3303C169.744 41.9925 168.455 44.1719 169.79 44.7966C172.042 45.8444 175.203 45.4985 176.641 43.265C177.287 42.2572 176.775 40.7648 175.423 40.9117Z" fill="white"/>
<path d="M43.9675 196.294C42.282 194.572 41.0184 193.289 39.887 191.116C38.6507 188.738 38.6738 185.839 38.6087 183.23C38.5982 182.779 38.0063 182.922 37.9622 183.294C37.4186 188.17 35.2229 197.111 41.5914 199.276C43.1804 199.815 45.4095 197.769 43.9675 196.294Z" fill="#BC99C7"/>
<path d="M35.4309 194.864C34.2575 192.01 34.6794 188.917 33.7559 185.999C33.5921 185.479 32.8784 185.821 32.9456 186.286C33.4053 189.554 32.4376 192.773 33.739 195.933C34.1756 196.994 35.836 195.846 35.4309 194.864Z" fill="#BC99C7"/>
<path d="M31.3839 194.798C30.3239 191.299 29.9859 188.148 30.9976 184.584C31.1928 183.891 30.3469 183.763 30.0132 184.269C27.8155 187.602 27.3852 192.268 29.2303 195.846C29.818 196.979 31.7155 195.889 31.3839 194.798Z" fill="#BC99C7"/>
<path d="M212.01 183.404C211.42 182.56 210.129 183.478 210.507 184.355C212.434 188.864 208.538 193.711 206.519 197.35C206.045 198.207 206.603 199.592 207.76 199.055C212.434 196.874 214.976 187.642 212.01 183.404Z" fill="#BC99C7"/>
<path d="M217.073 187.006C216.93 186.536 216.286 186.667 216.164 187.095C215.79 188.428 215.524 189.805 215.27 191.162C215.022 192.495 214.464 193.763 214.59 195.128C214.688 196.198 216.002 195.705 216.397 195.188C217.979 193.132 217.776 189.373 217.073 187.006Z" fill="#BC99C7"/>
<path d="M220.845 186.832C220.593 186.203 219.604 186.82 219.728 187.376C220.024 188.711 219.646 190.046 219.906 191.364C220.112 192.416 221.405 191.738 221.539 190.999C221.787 189.647 221.348 188.085 220.845 186.832Z" fill="#BC99C7"/>
<path d="M58.5873 237.551C58.1486 237.551 57.7792 237.284 57.8002 236.633C57.8463 235.15 59.0932 233.838 60.3421 233.147C60.9781 232.797 61.6057 232.526 62.3278 232.427C62.5209 232.403 62.7077 232.394 62.8966 232.394C63.054 232.394 63.2115 232.4 63.3689 232.407C63.5284 232.412 63.6859 232.416 63.8454 232.416C63.9692 232.416 64.0973 232.415 64.2232 232.404C64.2316 232.403 64.2379 232.403 64.2463 232.403C64.4982 232.403 64.4457 232.767 64.2379 232.832C63.2955 233.12 62.1179 233.941 61.3916 234.602C60.6423 235.29 60.3169 236.166 59.7229 236.963C59.4542 237.325 58.9903 237.551 58.5873 237.551Z" fill="#9ADCBD"/>
<path d="M64.2443 240.076C63.7384 240.076 63.2745 239.74 63.3228 239.106C63.4026 238.09 64.322 237.02 65.0314 236.336C65.7115 235.677 66.5616 235.156 67.5272 235.137C67.5293 235.137 67.5335 235.137 67.5356 235.137C67.884 235.137 67.9428 235.515 67.7266 235.737C67.2018 236.281 66.7085 236.871 66.3055 237.513C65.8647 238.225 65.6569 239.062 65.1007 239.692C64.874 239.95 64.5508 240.076 64.2443 240.076Z" fill="#9ADCBD"/>
<path d="M72.6154 239.802C71.7947 239.799 71.2993 238.7 71.7296 237.832C72.9324 235.418 75.7744 234.234 78.436 234.234C79.1791 234.234 79.9074 234.327 80.5812 234.51C80.9359 234.604 80.8709 235.032 80.6064 235.2C79.3974 235.968 78.098 236.283 76.7966 236.863C75.426 237.473 74.5486 238.588 73.3941 239.491C73.1171 239.709 72.8526 239.802 72.6154 239.802Z" fill="#9ADCBD"/>
<path d="M170.651 238.015C170.544 238.015 170.43 237.998 170.315 237.96C169.301 237.635 168.392 237.123 167.382 236.787C166.551 236.51 165.762 236.237 165.084 235.67C164.414 235.11 165.248 234.094 165.89 234.024C166.186 233.991 166.503 233.974 166.837 233.974C168.585 233.974 170.701 234.455 171.692 235.781C172.271 236.554 171.648 238.015 170.651 238.015Z" fill="#9ADCBD"/>
<path d="M179.301 237.853C179.299 237.853 179.294 237.853 179.292 237.851C177.496 237.826 176.23 236.285 175.122 235.035C174.693 234.552 175.214 233.739 175.791 233.739C175.89 233.739 175.993 233.762 176.091 233.819C176.813 234.22 177.517 234.652 178.232 235.066C178.881 235.441 179.513 235.746 180.084 236.239C180.68 236.758 179.977 237.853 179.301 237.853Z" fill="#9ADCBD"/>
<path d="M186.767 236.779C186.719 236.779 186.668 236.777 186.62 236.77C185.984 236.697 185.623 236.5 185.262 235.964C185.079 235.691 184.907 235.404 184.71 235.141C184.271 234.568 183.771 233.964 183.085 233.682C182.466 233.427 182.896 232.508 183.379 232.373C183.709 232.283 184.023 232.236 184.33 232.236C185.048 232.236 185.707 232.488 186.332 232.996C186.719 233.307 187.067 233.651 187.424 233.997C187.846 234.402 187.995 234.764 188.049 235.336C188.121 236.09 187.518 236.781 186.767 236.779Z" fill="#9ADCBD"/>
</svg>
