<svg width="250" height="250" viewBox="0 0 250 250" fill="none" xmlns="http://www.w3.org/2000/svg">
<path d="M56.5607 215.503C67.6331 210.994 74.8515 202.774 80.5882 192.572C87.7976 179.767 92.6552 165.336 105.159 156.607C105.479 156.992 105.814 157.366 106.188 157.697C106.573 158.039 107.439 157.853 107.251 157.212C106.82 155.769 105.864 154.629 104.987 153.428C103.8 151.801 102.645 150.161 101.457 148.539C101.065 148.002 100.114 148.294 100.433 148.994C100.741 149.672 101.09 150.326 101.462 150.965C94.8574 155.549 89.7891 161.403 85.9624 168.531C81.2203 177.363 78.1526 186.743 71.4031 194.403C63.7429 203.089 50.713 206.789 39.4684 206.164C32.8934 205.797 26.0398 203.121 21.9661 197.824C18.6378 193.497 19.0592 187.388 19.9043 182.334C21.7554 182.245 23.6178 182.322 25.4711 182.445L25.5277 182.59C25.9106 182.658 26.2935 182.723 26.6787 182.78C24.9636 174.295 16.0867 167.802 8.50344 164.974C8.06389 164.809 7.52013 164.99 7.62435 165.556C8.85688 172.195 6.2321 178.344 4.06294 184.488C3.11407 187.175 2.58232 189.781 3.40974 192.371C4.72655 189.817 6.93037 187.576 9.03813 185.977L9.41196 185.902C9.81298 185.542 10.2344 185.206 10.7011 184.896C10.1075 196.655 14.8428 208.201 24.8707 214.774C34.3616 220.997 46.5713 219.565 56.5607 215.503Z" fill="#231F20"/>
<path d="M32.8662 216.319C26.1191 215.059 21.0371 210.634 17.19 205.174C13.7394 200.275 13.1005 194.711 12.5136 189.06C12.1738 187.499 12.0039 185.913 11.8838 184.314L11.8339 184.248L11.8793 184.23C11.8226 183.469 11.775 182.707 11.7207 181.946L11.7161 181.844C8.80928 182.734 6.28871 184.255 4.8772 186.616C5.47805 184.01 6.61519 181.429 7.45689 179.087C8.81607 175.317 9.54109 171.574 9.31678 167.568C9.2035 165.488 16.4061 170.613 17.6363 171.587C21.0983 174.336 23.3685 177.754 25.095 181.599C23.3391 181.13 21.2342 180.865 19.0388 180.849C18.4701 182.032 17.8131 183.19 17.2942 184.4C15.5904 192.164 18.2481 199.444 25.2037 204.17C35.0979 210.892 48.5289 209.472 59.0552 205.339C69.321 201.311 75.6286 193.227 80.4137 183.614C86.4993 171.388 90.2014 159.504 101.602 151.21C101.999 151.88 102.418 152.535 102.848 153.186C103.492 154.164 104.115 155.204 104.829 156.16C95.8838 161.949 90.0043 169.804 85.0266 179.175C79.4939 189.602 74.7812 200.574 65.1634 207.931C56.1755 214.803 44.0768 218.417 32.8662 216.319Z" fill="#C0E24F"/>
<path d="M33.419 216.418C33.4145 216.416 33.4077 216.416 33.4032 216.414C33.4077 216.416 33.4145 216.416 33.419 216.418ZM33.3692 216.409C33.2015 216.38 33.0339 216.35 32.8662 216.319C26.119 215.059 21.0371 210.634 17.19 205.174C13.7393 200.275 13.1004 194.711 12.5136 189.06C12.1738 187.499 12.0038 185.913 11.8838 184.314L11.8339 184.248L11.8838 184.314C12.0038 185.913 12.1738 187.499 12.5136 189.06C13.1004 194.711 13.7393 200.275 17.19 205.174C21.0371 210.634 26.119 215.059 32.8662 216.319C33.0339 216.35 33.2015 216.38 33.3692 216.409ZM17.3463 193.383C16.6508 190.644 16.6122 187.705 17.2308 184.692C16.6168 187.687 16.6621 190.608 17.3463 193.331C17.3463 193.347 17.3463 193.365 17.3463 193.383ZM17.233 184.687C17.2376 184.665 17.2421 184.642 17.2466 184.619C17.2421 184.642 17.2376 184.665 17.233 184.687ZM17.2489 184.61C17.2534 184.59 17.2557 184.572 17.2602 184.554C17.2557 184.572 17.2534 184.59 17.2489 184.61ZM17.2625 184.54C17.267 184.52 17.2715 184.499 17.2761 184.479C17.2715 184.499 17.267 184.52 17.2625 184.54ZM17.2806 184.461C17.2851 184.44 17.2897 184.42 17.2942 184.4C17.813 183.19 18.4701 182.032 19.0388 180.849C21.2342 180.865 23.339 181.13 25.0949 181.599C23.339 181.13 21.2342 180.865 19.0388 180.849C18.4701 182.032 17.813 183.19 17.2942 184.4C17.2897 184.42 17.2851 184.44 17.2806 184.461ZM17.6363 171.587C17.6318 171.583 17.625 171.578 17.6205 171.574C17.625 171.578 17.6318 171.583 17.6363 171.587ZM17.6159 171.571C16.5443 170.726 11.4216 167.076 9.80614 167.076C11.4216 167.076 16.5443 170.726 17.6159 171.571ZM9.31675 167.561C9.30089 167.221 9.48441 167.076 9.80387 167.076C9.48441 167.076 9.30089 167.221 9.31675 167.561Z" fill="#100F0D"/>
<path d="M39.3506 216.91C37.3636 216.91 35.3789 216.751 33.4191 216.418C33.4145 216.416 33.4077 216.416 33.4032 216.414C33.3919 216.414 33.3805 216.412 33.3692 216.409C33.2016 216.38 33.0339 216.35 32.8662 216.319C26.1191 215.059 21.0371 210.634 17.19 205.174C13.7394 200.275 13.1005 194.711 12.5136 189.06C12.1738 187.499 12.0039 185.913 11.8838 184.314L11.8339 184.248L11.8793 184.23C11.8226 183.469 11.775 182.707 11.7207 181.946L11.7161 181.844C8.80928 182.735 6.28871 184.255 4.8772 186.616C5.47805 184.01 6.61519 181.429 7.45689 179.087C8.65068 175.774 9.3553 172.482 9.35756 169.014C9.35756 168.536 9.34397 168.055 9.31678 167.568C9.31678 167.566 9.31678 167.564 9.31678 167.561C9.30092 167.221 9.48445 167.076 9.80391 167.076H9.80618C11.4216 167.076 16.5443 170.726 17.616 171.572C17.6182 171.572 17.6182 171.574 17.6205 171.574C17.625 171.578 17.6318 171.583 17.6363 171.587C21.0983 174.336 23.3685 177.755 25.095 181.599C23.3391 181.13 21.2343 180.865 19.0388 180.849C18.4701 182.032 17.8131 183.19 17.2942 184.4C17.2897 184.42 17.2852 184.441 17.2806 184.461C17.2784 184.468 17.2784 184.475 17.2761 184.479C17.2716 184.5 17.2671 184.52 17.2625 184.54C17.2625 184.545 17.2625 184.549 17.2603 184.554C17.2557 184.572 17.2535 184.59 17.2489 184.611C17.2489 184.613 17.2467 184.617 17.2467 184.62C17.2421 184.642 17.2376 184.665 17.2331 184.688C17.2331 184.69 17.2331 184.69 17.2308 184.692C16.6123 187.705 16.6508 190.644 17.3464 193.383C17.3418 194.108 17.3894 194.822 17.4778 195.504C18.6061 204.24 26.0828 210.967 34.0398 213.668C37.4248 214.814 40.9683 215.283 44.539 215.283C47.3416 215.283 50.1579 214.996 52.922 214.517C48.5538 216.058 43.9431 216.91 39.3506 216.91Z" fill="#A6D330"/>
<path d="M108.27 198.128C112.518 201.057 118.502 202.568 123.529 203.461C127.148 204.363 131.056 204.818 134.98 204.836C136.983 204.587 139.002 204.517 140.966 204.014C141.331 203.923 141.449 204.179 141.401 204.458L141.979 204.385C147.151 210.102 157.83 210.378 164.819 209.565C174.534 208.436 182.729 205.756 189.189 198.15C209.473 196.263 225.188 184.182 233.297 165.824C235.259 161.376 236.8 156.797 237.865 152.057C238.198 150.589 238.288 149.098 238.238 147.603C238.404 139.598 235.252 131.458 232.017 124.348C228.682 117.025 223.294 105.217 215.002 102.224C215.387 98.9136 213.001 94.9985 210.697 93.0455C209.152 91.7473 206.508 90.2338 204.244 90.2134C206.093 84.9774 206.886 79.3382 207.128 73.8145C212.129 73.1733 216.973 70.7943 220.718 66.8294C222.222 65.2389 223.353 63.1817 224.123 60.959L224.132 60.5671C225.213 57.9026 225.458 55.0479 225.165 52.2248C224.916 49.8187 224.275 47.4352 223.43 45.2058C222.689 43.2392 221.545 41.2431 220.213 39.6141C215.659 34.0451 208.27 31.1903 201.163 31.6706C195.866 32.0309 190.806 35.4203 187.852 39.8134C181.431 49.361 181.92 61.5912 191.183 69.2401C193.036 70.7717 195.059 71.8977 197.166 72.6816C197.082 73.0781 197.01 73.4701 196.94 73.8666L196.912 74.3514C195.811 78.1124 195.426 82.1522 194.268 85.8996C194.148 86.2893 194.015 86.6654 193.886 87.0528L193.815 87.0098C190.872 85.7999 184.626 83.899 180.645 85.3988C179.245 86.6291 178.003 88.0271 177.144 89.6855L177.065 90.2384L176.934 90.1319C176.08 89.8373 175.11 89.8464 174.174 89.8532C173.852 89.8555 173.535 89.8577 173.227 89.8487C171.999 89.8079 170.758 89.7218 169.541 89.5247C169.26 89.2505 168.947 88.9945 168.607 88.7611C165.211 86.4524 161.219 85.3853 157.129 85.4986L157.118 85.451C156.076 83.0539 155.027 80.6613 154.291 78.1782C154.2 77.8723 154.123 77.5415 154.055 77.2039C152.802 73.7556 151.832 70.4205 152.507 69.1381C152.401 68.8663 152.297 68.5966 152.165 68.3474C153.998 67.6767 155.766 66.7297 157.392 65.436C165.959 58.6435 166.623 47.5281 160.954 38.7259C158.348 34.6794 153.806 31.5007 148.996 31.0793C142.539 30.5151 135.766 32.9825 131.521 37.9624C130.283 39.4192 129.205 41.2159 128.494 42.9899C127.682 45.0041 127.059 47.1611 126.79 49.3452C126.473 51.9099 126.64 54.5087 127.581 56.9533V57.309C128.242 59.3458 129.23 61.2377 130.571 62.7104C133.723 66.1791 137.79 68.3633 142.056 69.163C143.114 72.9739 142.994 77.2311 144.12 81.0873C144.621 82.8002 145.115 84.5424 145.667 86.2644C145.291 86.1352 144.877 86.0763 144.53 86.0446C143.556 85.954 142.652 85.9653 141.727 86.2916L141.517 86.4071C140.744 86.577 140.021 86.8036 139.419 87.0505C136.985 88.0406 133.997 90.5102 133.045 93.3038L133.007 93.2902C131.67 93.0229 130.084 93.6505 128.797 93.979C127.574 94.2939 126.355 94.4548 125.127 94.6587C123.051 92.5743 119.309 91.6521 116.701 91.813C116.053 91.8515 115.303 91.9603 114.532 92.1438L114.29 92.1302C113.318 92.2367 112.496 92.6173 111.657 93.1226C111.358 93.3016 111.009 93.5327 110.728 93.8113C110.481 92.0192 110.173 90.2361 109.881 88.4711C109.224 84.513 107.273 80.7293 106.573 76.8369C110.071 74.2654 112.792 70.5315 114.129 66.0409C114.698 64.1355 114.77 62.0012 114.485 59.8783L114.331 59.5589C114.116 56.9511 113.146 54.5336 111.746 52.3585C110.556 50.5075 109.059 48.8331 107.459 47.3695C106.048 46.0781 104.298 44.9271 102.554 44.15C96.5679 41.4991 89.3948 42.2151 83.8212 45.5185C79.666 47.9858 76.9495 52.8139 76.3536 57.5922C75.0553 67.9826 80.4748 77.7115 91.1371 80.1221C93.1626 80.5798 95.1678 80.6681 97.1094 80.4801C97.0981 80.761 97.123 81.051 97.1457 81.341C98.308 82.2043 98.8767 85.6277 99.2437 89.2777C99.3253 89.613 99.4023 89.9438 99.4544 90.261C99.8645 92.8167 99.9574 95.429 100.057 98.0368L100.066 98.0889C96.3346 99.7564 93.1944 102.448 91.1371 106.005C89.7958 108.316 89.9658 111.062 91.8123 112.621C87.1677 120.127 82.6862 126.877 79.734 135.343C77.0333 143.083 76.8022 151.577 78.0936 159.607C80.2098 172.752 89.5353 185.601 100.925 192.867C102.697 194.509 104.67 195.968 106.779 197.206C107.255 197.525 107.749 197.835 108.27 198.128Z" fill="#231F20"/>
<path d="M191.301 67.0649C184.991 60.7958 182.952 51.9234 186.45 44.1839L186.457 44.1204C186.638 43.2935 187.059 42.6047 187.601 42.0043C188.101 41.1819 188.654 40.3753 189.293 39.5959C192.696 35.4406 196.709 33.5284 200.905 33.1705C205.862 32.2868 212.285 33.7097 215.888 36.9519C218.579 38.5696 220.569 41.413 221.923 44.3515C225.623 52.3788 225.295 63.168 216.946 68.1842C208.887 73.0282 198.48 74.195 191.301 67.0649Z" fill="#FCFBCF"/>
<path d="M196.523 85.6796C197.653 81.6105 198.879 77.3125 198.34 73.0757C200.843 73.8392 203.444 74.1406 206.023 73.9412C206.029 74.2222 206.025 74.5076 206.016 74.7931C204.249 82.7162 203.125 91.0425 199.362 98.2723L199.357 98.295C197.778 98.483 196.172 98.4286 194.703 98.0072C193.156 97.5654 192.062 96.8767 191.142 96.027C194.175 93.4442 195.478 89.4452 196.523 85.6796Z" fill="#8FD252"/>
<path d="M133.979 64.0131C126.475 59.2982 126.366 49.4788 129.878 42.2445C131.165 39.5936 133.025 37.0447 135.504 35.6174C138.839 32.7377 144.707 31.5573 149.204 32.45C153.013 32.8532 156.627 34.6635 159.649 38.5038C160.215 39.2243 160.702 39.972 161.144 40.7265C161.627 41.2793 161.998 41.9137 162.148 42.6727L162.15 42.7316C165.193 49.8322 163.179 57.8686 157.327 63.4558C150.666 69.8087 141.22 68.5626 133.979 64.0131Z" fill="#FCFBCF"/>
<path d="M143.801 70.2208C143.801 69.9603 143.801 69.6998 143.812 69.4437C146.152 69.6703 148.525 69.4483 150.815 68.7958C150.772 69.0971 150.754 69.3962 150.729 69.6975C152.209 72.4481 151.95 75.7808 152.802 78.7353C154.116 83.2893 156.561 87.4038 157.68 92.0439V92.2387C157.843 92.7417 158.002 93.2469 158.154 93.7499C156.901 94.5361 155.455 95.2045 154.03 95.4741C153.249 95.6214 152.374 95.6644 151.475 95.5987C151.06 94.9416 150.629 94.2937 150.206 93.6457L150.188 93.4826C149.086 90.1611 147.72 86.962 146.563 83.6745C145.4 79.2564 144.702 74.6752 143.801 70.2208Z" fill="#8FD252"/>
<path d="M90.3374 78.3049C82.6432 75.8081 77.346 69.437 77.0107 61.7179L76.9903 61.6657C76.7955 60.9181 76.8544 60.1863 77.0492 59.4771C77.1195 58.6026 77.235 57.7212 77.4344 56.8263C78.4947 52.0548 80.9666 48.8556 84.2246 46.8414C87.8905 44.0886 93.6906 42.6114 97.9456 43.7646C100.794 43.9753 103.58 45.4662 105.884 47.2968C112.183 52.2949 116.343 61.1922 111.621 68.6916C107.067 75.9327 99.0943 81.1483 90.3374 78.3049Z" fill="#FCFBCF"/>
<path d="M203.768 72.1151C203.764 72.1151 203.762 72.1151 203.759 72.1151C203.762 72.1151 203.764 72.1151 203.768 72.1151ZM203.775 72.1151C208.289 72.1128 212.91 70.6084 216.946 68.1841C216.957 68.1773 216.968 68.1706 216.98 68.1638C216.968 68.1706 216.957 68.1773 216.946 68.1841C212.91 70.6084 208.289 72.1128 203.775 72.1151Z" fill="#100F0D"/>
<path d="M203.769 72.1151C203.764 72.1151 203.762 72.1151 203.759 72.1151C199.264 72.1128 194.88 70.6198 191.301 67.0649C187.061 62.853 184.75 57.4675 184.75 52.0367C184.75 49.3858 185.303 46.7237 186.45 44.1838L186.457 44.1204C186.638 43.2934 187.059 42.6047 187.601 42.0043C188.101 41.1819 188.654 40.3752 189.293 39.5959L189.468 39.3988C190.002 42.0247 191.026 44.6075 192.284 46.9525C195.705 53.344 201.818 58.0657 208.626 60.3472C211.945 61.4597 215.387 61.9535 218.844 61.9535C220.118 61.9535 221.396 61.8879 222.667 61.7587C221.516 64.2985 219.674 66.5348 216.98 68.1638C216.968 68.1706 216.957 68.1773 216.946 68.1841C212.911 70.6084 208.289 72.1128 203.775 72.1151C203.773 72.1151 203.771 72.1151 203.769 72.1151Z" fill="#F9F6A3"/>
<path d="M146.257 67.826C146.254 67.826 146.25 67.826 146.248 67.826C146.25 67.826 146.254 67.826 146.257 67.826ZM146.266 67.826C150.178 67.8238 154.007 66.5618 157.207 63.5688C154.007 66.5618 150.181 67.8238 146.266 67.826ZM134.122 64.1012C134.11 64.0944 134.101 64.0899 134.09 64.0831C134.101 64.0899 134.11 64.0944 134.122 64.1012ZM134.033 64.0469C134.015 64.0355 133.997 64.0242 133.979 64.0129C133.997 64.0242 134.015 64.0355 134.033 64.0469ZM157.225 63.5507C157.259 63.519 157.293 63.4873 157.327 63.4556C157.293 63.4873 157.259 63.519 157.225 63.5507Z" fill="#100F0D"/>
<path d="M146.257 67.826C146.254 67.826 146.25 67.826 146.248 67.826C142.081 67.8238 137.819 66.3941 134.122 64.1012C134.11 64.0944 134.101 64.0899 134.09 64.0831C134.072 64.0718 134.051 64.0582 134.033 64.0469C134.015 64.0355 133.997 64.0242 133.979 64.0129C127.026 59.6447 126.43 50.8946 129.173 43.8801C132.561 49.7708 139.528 53.9963 146.898 54.71C147.539 54.7712 148.169 54.8029 148.792 54.8029C154.452 54.8029 159.375 52.3084 163.521 48.638C163.809 54.0031 161.593 59.3819 157.327 63.4556C157.293 63.4873 157.259 63.519 157.225 63.5507C157.22 63.5575 157.214 63.5643 157.207 63.5688C154.008 66.5618 150.179 67.8238 146.266 67.826C146.263 67.826 146.261 67.826 146.257 67.826Z" fill="#F9F6A3"/>
<path d="M95.2358 79.0957C101.91 79.0889 107.77 74.6799 111.465 68.9387C107.767 74.6799 101.913 79.0889 95.2358 79.0957ZM90.5391 78.3707C90.4983 78.3571 90.4575 78.3435 90.4167 78.3321C90.4575 78.3435 90.4983 78.3571 90.5391 78.3707ZM90.4167 78.3321C90.4122 78.3299 90.4099 78.3299 90.4054 78.3276C90.4099 78.3299 90.4122 78.3299 90.4167 78.3321ZM111.528 68.839C111.544 68.8118 111.562 68.7823 111.58 68.7551C111.562 68.7823 111.544 68.8118 111.528 68.839ZM111.621 68.6917C111.628 68.6804 111.635 68.669 111.644 68.6554C111.635 68.669 111.628 68.6804 111.621 68.6917ZM111.653 68.6418C111.657 68.6328 111.662 68.626 111.666 68.6169C111.662 68.626 111.657 68.6328 111.653 68.6418ZM111.687 68.5875C111.689 68.5829 111.691 68.5784 111.694 68.5761C111.691 68.5784 111.689 68.5829 111.687 68.5875Z" fill="#100F0D"/>
<path d="M95.2222 79.0957C93.6997 79.0957 92.1318 78.8646 90.5391 78.3707C90.4983 78.3571 90.4575 78.3435 90.4167 78.3321C90.4122 78.3299 90.4099 78.3299 90.4054 78.3276C90.3827 78.3208 90.3601 78.314 90.3374 78.305C82.6432 75.8082 77.346 69.4371 77.0107 61.718L76.9903 61.6658C76.9065 61.3486 76.8702 61.0382 76.8702 60.7278C76.8702 60.3042 76.9382 59.8873 77.0492 59.4772L77.0719 59.2688C81.4854 64.1762 87.571 67.0083 94.1234 67.0083C94.4292 67.0083 94.7351 67.0015 95.0432 66.9902C103.746 66.6412 109.002 61.002 111.485 53.8901C113.987 58.4237 114.65 63.7752 111.694 68.5761C111.691 68.5784 111.689 68.5829 111.687 68.5875C111.68 68.5965 111.673 68.6079 111.666 68.617C111.662 68.626 111.657 68.6328 111.653 68.6418C111.648 68.6464 111.646 68.6509 111.644 68.6554C111.635 68.669 111.628 68.6804 111.621 68.6917C111.608 68.7121 111.594 68.7347 111.58 68.7551C111.562 68.7823 111.544 68.8118 111.528 68.839C111.506 68.873 111.485 68.9047 111.465 68.9387C107.77 74.6799 101.91 79.0889 95.2358 79.0957C95.2313 79.0957 95.2267 79.0957 95.2222 79.0957Z" fill="#F9F6A3"/>
<path d="M98.99 81.0736C98.8359 80.8131 98.6909 80.5525 98.521 80.301C100.871 79.8932 103.102 79.0685 105.116 77.8518C105.236 78.0739 105.347 78.3072 105.458 78.5428C106.578 82.9473 107.935 87.3812 108.8 91.8673C109.181 95.3338 109.337 98.8048 109.781 102.274L109.838 102.428C109.734 103.198 109.63 103.968 109.541 104.739C108.757 105.189 107.948 105.529 107.185 105.735C105.78 106.109 104.187 106.137 102.717 105.969C102.638 105.448 102.563 104.927 102.493 104.406L102.407 104.222C101.405 99.5593 101.827 94.79 101.038 90.1182C100.524 87.0844 98.8473 84.1957 98.99 81.0736Z" fill="#8FD252"/>
<path d="M94.8528 186.101C92.4194 183.992 90.1673 181.638 88.1939 179.093C83.3023 172.777 81.4467 165.105 80.3162 157.363C79.1403 149.329 80.3524 141.506 82.2262 133.692C83.4134 128.737 85.0446 124.207 87.7929 119.93C89.3018 117.583 90.8855 115.355 92.177 112.89C92.5508 113.146 92.9722 113.364 93.4594 113.527L93.5636 113.541C95.9425 115.165 99.153 115.204 102.194 114.592C102.499 114.451 102.794 114.297 103.075 114.127C103.07 113.935 102.921 113.745 102.66 113.776C100.542 114.041 97.3019 114.211 95.034 113.185C93.7516 112.743 92.5236 112.025 92.1793 110.765C91.0827 106.714 96.1306 102.185 99.3116 100.588L99.7443 100.54L100.154 100.298C100.243 102.033 100.41 103.751 100.691 105.448C99.8395 105.062 99.008 104.548 98.1471 104.269C97.6735 104.12 96.7718 104.718 97.1366 105.262C98.3328 107.063 100.247 108.017 102.384 108.311C107.812 108.21 113.003 105.801 114.474 100.4C114.469 99.7903 114.376 99.2034 114.281 98.6166C114.059 100.486 112.82 102.239 111.229 103.565L111.102 103.449C111.064 103.089 111.018 102.727 110.98 102.366L111.073 102.128C111.295 99.7902 111.166 97.434 110.919 95.0799C111.848 94.1623 113.323 93.938 114.455 93.3739L114.65 93.2266C115.312 93.0113 115.989 92.8414 116.723 92.8075C119.1 92.6919 122.578 93.6367 123.885 95.9296C125.863 99.3938 123.276 102.353 121.341 105.069C122.949 104.254 124.415 103.273 125.623 101.922C126.411 100.527 126.84 98.9769 126.608 97.4521C126.502 96.7679 126.244 96.1516 125.886 95.5942C126.516 95.5806 127.168 95.4515 127.689 95.3586C129.325 95.0799 131.224 94.8624 132.789 94.33C132.687 95.0255 132.719 95.7256 132.934 96.4235C133.385 97.8984 134.443 99.1128 135.757 100.026C137.432 100.724 139.178 100.968 140.98 101.005C138.061 99.3983 134.448 97.8508 134.726 93.8723C134.912 91.2396 137.636 88.881 139.829 87.9566C140.506 87.6689 141.19 87.5284 141.877 87.4333L142.122 87.4831C142.557 87.4877 143.012 87.44 143.474 87.3925C144.351 87.3018 145.248 87.2113 146.075 87.4877C146.841 89.7194 147.747 91.9012 148.962 93.9085L149.147 94.083C149.27 94.4251 149.388 94.7695 149.505 95.1116L149.442 95.268C147.435 94.765 145.559 93.7227 144.546 92.1368C144.718 92.7055 144.888 93.2719 145.146 93.8225C148.814 98.0525 154.533 97.9754 159.47 95.7166C161.267 94.5248 162.583 92.8369 162.88 90.6936C162.97 90.0433 161.896 89.8983 161.538 90.2404C160.884 90.8635 160.356 91.6859 159.753 92.3996C159.273 90.7502 158.679 89.128 158.006 87.5262L158.482 87.5692L158.892 87.4242C162.454 87.4854 168.963 89.3817 169.729 93.5075C169.967 94.7922 169.169 95.9703 168.206 96.9264C166.607 98.8319 163.614 100.08 161.588 100.76C161.341 100.844 161.287 101.082 161.366 101.256C161.695 101.288 162.028 101.301 162.363 101.295C165.37 100.527 168.247 99.1038 169.686 96.6093L169.774 96.5481C171.763 94.6336 171.591 92.0621 170.087 90.1453C170.712 90.2903 171.347 90.3922 172.006 90.467C173.508 90.6415 175.23 90.9337 176.732 90.7661L177.02 90.6074C176.673 94.8103 179.888 98.0298 183.522 100.196C183.96 100.454 184.327 99.8605 183.932 99.5659C180.867 97.2912 175.49 92.4699 179.628 88.4256C183.339 84.7892 189.243 87.0005 193.639 87.8139C192.75 90.4104 191.729 92.8868 190.473 95.3586C189.483 94.2802 188.64 93.0159 187.512 91.7109C187.197 91.3438 186.332 91.2215 186.44 91.9465C186.998 95.6169 191.101 98.5759 194.533 99.3643C197.053 99.9489 203.005 100.769 204.083 97.4793C204.154 97.2685 203.929 97.0737 203.73 97.1553C202.676 97.5858 201.514 97.9324 200.32 98.1499C201.831 95.9001 203.027 93.4871 203.975 90.9745C206.007 91.8785 208.218 92.2863 209.988 93.8225C211.889 95.4742 213.853 98.7322 213.178 101.44C212.138 105.599 207.878 105.91 204.38 106.592C203.832 106.698 204.083 107.496 204.521 107.58C207.763 108.196 212.142 107.441 214.145 104.591C214.363 104.276 214.528 103.941 214.664 103.599C215.276 104.036 215.806 104.582 216.332 105.121C216.558 105.357 216.803 105.618 217.068 105.855L217.29 105.609C229.448 118.324 238.476 136.458 235.889 154.071C235.032 157.316 233.621 160.501 232.377 163.508C229.448 170.586 225.94 176.832 220.802 182.54C209.319 195.291 191.717 198.732 175.407 196.172C176.959 196.908 178.549 197.554 180.205 198.03C182.396 198.325 184.637 198.392 186.894 198.302C181.349 204.213 174.654 206.508 166.614 207.761C159.57 208.855 149.077 208.776 142.899 204.231C145.454 203.794 147.933 203.13 150.246 202.201C151.198 201.82 150.842 200.463 149.811 200.703C145.391 201.734 140.914 202.659 136.378 202.962C132.012 203.252 127.621 202.389 123.301 201.895C111.984 200.608 103.168 193.308 94.8528 186.101Z" fill="#C0E24F"/>
<path d="M178.699 186.998C177.559 187.477 176.415 187.948 175.25 188.358C173.451 188.99 171.634 189.581 169.785 190.053C165.544 191.138 161.21 191.89 156.837 192.166C150.434 192.572 144.066 192.198 137.792 191.047C146.275 194.351 155.367 195.721 164.472 194.564C169.02 193.986 181.66 192.799 181.515 186.212C181.497 185.376 179.068 186.84 178.699 186.998Z" fill="#C0E24F"/>
<path d="M159.008 208.343C159.003 208.343 159.001 208.343 158.996 208.343C159.001 208.343 159.003 208.343 159.008 208.343ZM159.012 208.343C161.645 208.343 164.187 208.126 166.401 207.793C164.187 208.126 161.647 208.343 159.012 208.343ZM166.489 207.779C166.53 207.772 166.573 207.768 166.614 207.761C173.934 206.619 180.14 204.616 185.378 199.804C180.14 204.616 173.934 206.619 166.614 207.761C166.573 207.768 166.53 207.772 166.489 207.779ZM134.561 203.019C134.554 203.019 134.55 203.019 134.543 203.019C134.55 203.019 134.554 203.019 134.561 203.019ZM134.563 203.019C135.143 203.019 135.723 203.003 136.303 202.967C135.723 203.003 135.143 203.019 134.563 203.019ZM136.378 202.962C140.914 202.659 145.391 201.734 149.811 200.704C149.893 200.683 149.97 200.676 150.045 200.674C149.97 200.676 149.893 200.685 149.811 200.704C145.391 201.734 140.914 202.659 136.378 202.962ZM150.28 202.188C150.312 202.174 150.342 202.158 150.371 202.142C150.342 202.158 150.312 202.174 150.28 202.188ZM150.056 200.674C150.054 200.674 150.049 200.674 150.047 200.674C150.049 200.674 150.054 200.674 150.056 200.674ZM185.07 198.34C185.063 198.34 185.059 198.34 185.054 198.34C185.059 198.34 185.063 198.34 185.07 198.34ZM185.074 198.34C185.21 198.34 185.344 198.338 185.48 198.338C185.344 198.338 185.21 198.34 185.074 198.34ZM185.389 196.961C185.389 196.961 185.387 196.961 185.385 196.961C185.387 196.961 185.389 196.961 185.389 196.961ZM185.405 196.961C185.453 196.961 185.5 196.961 185.548 196.961C185.5 196.961 185.453 196.961 185.405 196.961ZM98.7884 114.957C98.7861 114.957 98.7815 114.957 98.777 114.957C98.7815 114.957 98.7861 114.957 98.7884 114.957ZM98.7974 114.957C99.8306 114.957 100.889 114.839 101.929 114.644C100.889 114.839 99.8306 114.957 98.7974 114.957ZM101.933 114.644C101.985 114.633 102.04 114.624 102.092 114.612C102.04 114.624 101.985 114.633 101.933 114.644ZM99.6199 113.978C99.6176 113.978 99.6131 113.978 99.6085 113.978C99.6131 113.978 99.6176 113.978 99.6199 113.978ZM99.6266 113.978C100.73 113.978 101.79 113.885 102.66 113.776C101.79 113.885 100.73 113.978 99.6266 113.978ZM102.676 113.774C102.69 113.774 102.703 113.774 102.717 113.774C102.703 113.774 102.69 113.774 102.676 113.774ZM102.728 113.774C102.724 113.774 102.722 113.774 102.717 113.774C102.722 113.774 102.724 113.774 102.728 113.774ZM93.677 113.615C93.6702 113.611 93.6657 113.609 93.6589 113.604C93.6657 113.609 93.6702 113.611 93.677 113.615ZM93.6 113.563C93.5864 113.557 93.575 113.548 93.5637 113.541C93.575 113.548 93.5864 113.557 93.6 113.563ZM95.1519 113.237C95.1383 113.233 95.1225 113.226 95.1066 113.219C95.1225 113.226 95.1383 113.233 95.1519 113.237ZM95.0817 113.208C95.0659 113.201 95.05 113.194 95.0341 113.185C93.7517 112.743 92.5238 112.025 92.1794 110.765C92.0751 110.378 92.0276 109.986 92.0276 109.592C92.0276 109.986 92.0751 110.378 92.1794 110.765C92.5238 112.025 93.7517 112.743 95.0341 113.185C95.05 113.194 95.0659 113.201 95.0817 113.208ZM206.709 107.781H206.707H206.709ZM206.721 107.781C209.526 107.779 212.571 106.832 214.145 104.591C212.571 106.832 209.526 107.779 206.721 107.781ZM204.598 107.596C204.573 107.591 204.546 107.586 204.521 107.58C204.546 107.586 204.573 107.591 204.598 107.596ZM97.1367 105.262C97.1344 105.26 97.1321 105.255 97.1299 105.253C97.1321 105.255 97.1344 105.26 97.1367 105.262ZM97.1208 105.239C96.8353 104.766 97.4879 104.258 97.9659 104.247C97.4879 104.258 96.8353 104.766 97.1208 105.239ZM97.9863 104.247H97.984H97.9863ZM162.193 101.297C162.184 101.297 162.175 101.297 162.166 101.297C162.175 101.297 162.184 101.297 162.193 101.297ZM162.2 101.297C162.223 101.297 162.248 101.297 162.27 101.297C162.248 101.297 162.223 101.297 162.2 101.297ZM161.776 101.286C161.749 101.286 161.722 101.283 161.695 101.281C161.722 101.283 161.749 101.286 161.776 101.286ZM161.452 101.263C161.423 101.261 161.396 101.258 161.366 101.256C161.396 101.258 161.423 101.261 161.452 101.263ZM183.738 100.259C183.738 100.259 183.738 100.259 183.735 100.259C183.738 100.259 183.738 100.259 183.738 100.259ZM183.749 100.259C184.062 100.248 184.245 99.8288 183.955 99.5841C184.245 99.8288 184.062 100.248 183.749 100.259ZM183.559 100.214C183.554 100.212 183.552 100.212 183.55 100.209C183.552 100.212 183.554 100.212 183.559 100.214ZM183.54 100.205C183.534 100.203 183.529 100.198 183.522 100.196C183.529 100.198 183.534 100.203 183.54 100.205ZM198.97 99.9036C198.968 99.9036 198.963 99.9036 198.961 99.9036C198.963 99.9036 198.968 99.9036 198.97 99.9036ZM198.983 99.9036C201.242 99.9013 203.465 99.3666 204.083 97.4793C203.465 99.3666 201.242 99.9013 198.983 99.9036ZM194.67 99.3938C194.658 99.3915 194.649 99.3915 194.64 99.3892C194.649 99.3915 194.658 99.3915 194.67 99.3938ZM194.595 99.378C194.586 99.3757 194.579 99.3734 194.572 99.3734C194.579 99.3734 194.586 99.3757 194.595 99.378ZM200.32 98.1499C201.514 97.9324 202.676 97.5858 203.73 97.1553C203.732 97.1553 203.737 97.1531 203.739 97.1531C203.737 97.1531 203.732 97.1553 203.73 97.1553C202.676 97.5858 201.514 97.9324 200.32 98.1499ZM152.918 97.2505C152.915 97.2505 152.913 97.2505 152.911 97.2505C152.913 97.2505 152.915 97.2505 152.918 97.2505ZM152.927 97.2505C155.102 97.2505 157.358 96.6818 159.47 95.7166C157.358 96.6818 155.102 97.2505 152.927 97.2505ZM203.748 97.1485C203.773 97.1417 203.798 97.1372 203.823 97.1372C203.798 97.1372 203.773 97.1417 203.748 97.1485ZM203.841 97.1372C203.836 97.1372 203.832 97.1372 203.825 97.1372C203.832 97.1372 203.836 97.1372 203.841 97.1372ZM123.885 95.9296C123.865 95.8911 123.842 95.8526 123.817 95.8163C123.842 95.8526 123.865 95.8911 123.885 95.9296ZM123.804 95.7914C123.795 95.7778 123.788 95.7665 123.779 95.7529C123.788 95.7665 123.795 95.7778 123.804 95.7914ZM190.473 95.3587C189.483 94.2802 188.641 93.0159 187.512 91.7109C187.503 91.6996 187.492 91.6905 187.483 91.6792C187.492 91.6905 187.503 91.6996 187.512 91.7109C188.641 93.0159 189.483 94.2802 190.473 95.3587C191.729 92.8868 192.75 90.4104 193.639 87.8139C192.75 90.4104 191.729 92.8868 190.473 95.3587ZM145.246 93.9381C145.232 93.9199 145.219 93.9041 145.203 93.8882C145.219 93.9041 145.232 93.9199 145.246 93.9381ZM145.183 93.8656C145.171 93.852 145.158 93.8361 145.146 93.8225C145.158 93.8361 145.171 93.852 145.183 93.8656ZM116.723 92.8075C116.853 92.8007 116.984 92.7984 117.118 92.7984C116.984 92.7984 116.853 92.8007 116.723 92.8075ZM117.147 92.7984C117.138 92.7984 117.129 92.7984 117.12 92.7984C117.129 92.7984 117.138 92.7984 117.147 92.7984ZM159.753 92.3997C159.273 90.7503 158.679 89.128 158.006 87.5262C158.679 89.128 159.273 90.7503 159.753 92.3997C160.356 91.686 160.884 90.8635 161.539 90.2405C161.541 90.2382 161.543 90.2359 161.545 90.2337C161.543 90.2359 161.541 90.2382 161.539 90.2405C160.884 90.8635 160.356 91.686 159.753 92.3997ZM186.441 91.9465C186.384 91.5682 186.592 91.4209 186.851 91.4186C186.592 91.4209 186.384 91.5682 186.441 91.9465ZM187.469 91.6679C187.465 91.6611 187.46 91.6565 187.453 91.652C187.46 91.6565 187.465 91.6611 187.469 91.6679ZM186.867 91.4186C186.862 91.4186 186.86 91.4186 186.855 91.4186C186.86 91.4186 186.862 91.4186 186.867 91.4186ZM175.765 90.816C175.762 90.816 175.758 90.816 175.756 90.816C175.758 90.816 175.762 90.816 175.765 90.816ZM175.769 90.816C176.071 90.816 176.367 90.8046 176.657 90.7752C176.367 90.8046 176.071 90.816 175.769 90.816ZM176.694 90.7707C176.705 90.7707 176.719 90.7684 176.732 90.7661C176.719 90.7684 176.705 90.7707 176.694 90.7707ZM172.783 90.5622C172.711 90.5531 172.64 90.5441 172.568 90.535C172.64 90.5441 172.711 90.5531 172.783 90.5622ZM172.445 90.5214C172.405 90.5146 172.364 90.5101 172.321 90.5055C172.364 90.5101 172.405 90.5146 172.445 90.5214ZM161.554 90.2246C161.681 90.1158 161.881 90.0615 162.089 90.0615C161.881 90.0615 161.681 90.1158 161.554 90.2246ZM162.1 90.0615C162.098 90.0615 162.096 90.0615 162.094 90.0615C162.096 90.0615 162.098 90.0615 162.1 90.0615ZM179.662 88.3917C181.216 86.8918 183.146 86.4024 185.19 86.4024C183.149 86.4024 181.214 86.8918 179.662 88.3917ZM193.639 87.8139C193.577 87.8026 193.514 87.7913 193.453 87.7777C193.514 87.7913 193.577 87.8026 193.639 87.8139ZM193.403 87.7686C193.401 87.7686 193.396 87.7686 193.394 87.7664C193.396 87.7686 193.401 87.7686 193.403 87.7686ZM193.206 87.7301C193.192 87.7278 193.181 87.7255 193.17 87.7233C193.181 87.7255 193.192 87.7278 193.206 87.7301ZM192.784 87.644C192.728 87.6327 192.669 87.6191 192.612 87.6077C192.669 87.6191 192.728 87.6304 192.784 87.644ZM192.535 87.5896C192.51 87.5851 192.483 87.5806 192.458 87.5738C192.483 87.5806 192.51 87.5851 192.535 87.5896ZM146.075 87.4877C146.055 87.4809 146.034 87.4741 146.012 87.4673C146.034 87.4741 146.055 87.4809 146.075 87.4877ZM142.192 87.4832C142.178 87.4832 142.167 87.4832 142.156 87.4832C142.167 87.4832 142.178 87.4832 142.192 87.4832ZM145.948 87.4469C145.944 87.4469 145.942 87.4446 145.937 87.4446C145.942 87.4446 145.944 87.4469 145.948 87.4469ZM143.545 87.3857C143.56 87.3834 143.576 87.3812 143.592 87.3812C143.576 87.3812 143.56 87.3834 143.545 87.3857ZM143.927 87.3472C144.213 87.3223 144.496 87.3042 144.779 87.3019C144.496 87.3042 144.213 87.3223 143.927 87.3472ZM144.797 87.3019C144.793 87.3019 144.791 87.3019 144.786 87.3019C144.791 87.3019 144.793 87.3019 144.797 87.3019ZM185.208 86.4024C185.203 86.4024 185.201 86.4024 185.197 86.4024C185.201 86.4024 185.203 86.4024 185.208 86.4024Z" fill="#100F0D"/>
<path d="M159.008 208.343C159.003 208.343 159.001 208.343 158.996 208.343C153.26 208.341 147.088 207.315 142.899 204.231C145.454 203.794 147.933 203.13 150.246 202.201C150.258 202.197 150.269 202.192 150.28 202.188C150.312 202.174 150.342 202.158 150.371 202.142C151.094 201.734 150.851 200.683 150.056 200.674C150.054 200.674 150.049 200.674 150.047 200.674H150.045C149.97 200.676 149.893 200.683 149.811 200.704C145.391 201.734 140.914 202.659 136.378 202.962C136.353 202.962 136.328 202.965 136.303 202.967C135.723 203.003 135.143 203.019 134.563 203.019H134.561C134.554 203.019 134.55 203.019 134.543 203.019C131.906 203.019 129.266 202.675 126.64 202.323C126.663 202.201 126.686 202.077 126.704 201.952L126.751 201.777L126.756 201.617C126.869 200.715 126.896 199.761 126.831 198.766L126.772 198.556C126.536 189.887 123.672 181.244 113.429 180.965C113.325 180.96 113.223 180.96 113.121 180.96C110.98 180.96 108.945 181.554 107.056 182.565C106.528 179.821 101.901 179.125 98.888 179.125C98.3216 179.125 97.8118 179.15 97.3972 179.191C94.9117 179.431 92.5849 180.403 90.4801 181.821C89.6848 180.94 88.9213 180.029 88.194 179.093C83.3024 172.777 81.4468 165.105 80.3163 157.363C79.9945 155.166 79.8518 152.984 79.8518 150.816C79.8518 145.052 80.8646 139.369 82.2262 133.692C83.4134 128.737 85.0447 124.207 87.793 119.93C89.3019 117.583 90.8856 115.355 92.1771 112.89C92.5509 113.146 92.9723 113.364 93.4594 113.527L93.5637 113.541C93.575 113.548 93.5863 113.557 93.5999 113.563C93.618 113.577 93.6384 113.591 93.6588 113.604C93.6656 113.609 93.6701 113.611 93.6769 113.615C95.1474 114.581 96.9237 114.954 98.777 114.957C98.7815 114.957 98.7861 114.957 98.7883 114.957C98.7906 114.957 98.7951 114.957 98.7974 114.957C99.8305 114.957 100.889 114.839 101.929 114.644C101.931 114.644 101.931 114.644 101.933 114.644C101.985 114.633 102.04 114.624 102.092 114.612C102.126 114.606 102.16 114.599 102.194 114.592C102.5 114.451 102.794 114.297 103.075 114.127C103.075 114.123 103.075 114.121 103.075 114.118C103.068 113.946 102.944 113.779 102.728 113.774C102.724 113.774 102.722 113.774 102.717 113.774C102.703 113.774 102.69 113.774 102.676 113.774C102.672 113.776 102.665 113.776 102.66 113.776C101.79 113.885 100.73 113.978 99.6266 113.978C99.6243 113.978 99.6221 113.978 99.6198 113.978C99.6176 113.978 99.613 113.978 99.6085 113.978C98.0769 113.978 96.4637 113.799 95.1519 113.237C95.1383 113.233 95.1225 113.226 95.1066 113.219C95.0975 113.214 95.0907 113.21 95.0817 113.208C95.0658 113.201 95.0499 113.194 95.0341 113.185C93.7517 112.743 92.5237 112.025 92.1793 110.765C92.0751 110.378 92.0275 109.986 92.0275 109.592C92.0321 105.874 96.4343 102.031 99.3117 100.588L99.7444 100.54L100.155 100.298C100.243 102.033 100.411 103.751 100.691 105.448C99.8396 105.062 99.0081 104.548 98.1471 104.27C98.0973 104.254 98.0429 104.247 97.9863 104.247H97.984C97.9772 104.247 97.9727 104.247 97.9659 104.247C97.4878 104.258 96.8353 104.766 97.1208 105.239C97.1253 105.244 97.1276 105.248 97.1298 105.253C97.1321 105.255 97.1344 105.26 97.1366 105.262C98.3329 107.063 100.247 108.017 102.384 108.312C107.813 108.21 113.003 105.801 114.474 100.4C114.469 99.7903 114.376 99.2035 114.281 98.6167C114.059 100.486 112.82 102.24 111.229 103.565L111.102 103.449C111.064 103.089 111.018 102.727 110.98 102.366L111.073 102.128C111.152 101.288 111.188 100.445 111.188 99.6023C111.188 98.0979 111.077 96.5889 110.919 95.08C111.848 94.1624 113.323 93.9381 114.455 93.3739L114.65 93.2266C115.312 93.0114 115.989 92.8415 116.723 92.8075C116.853 92.8007 116.984 92.7984 117.118 92.7984C117.12 92.7984 117.12 92.7984 117.12 92.7984C117.129 92.7984 117.138 92.7984 117.147 92.7984C119.433 92.8052 122.48 93.7183 123.779 95.7529C123.788 95.7665 123.795 95.7778 123.804 95.7914C123.808 95.8004 123.813 95.8073 123.817 95.8163C123.842 95.8526 123.865 95.8911 123.885 95.9296C124.388 96.8087 124.594 97.6561 124.594 98.474C124.592 100.88 122.784 103.044 121.341 105.069C122.95 104.254 124.415 103.273 125.623 101.922C126.269 100.776 126.674 99.5275 126.672 98.2746C126.67 98.0004 126.649 97.7263 126.609 97.4521C126.502 96.7679 126.244 96.1516 125.886 95.5942C126.516 95.5806 127.168 95.4515 127.689 95.3587C129.325 95.08 131.224 94.8625 132.789 94.33C132.753 94.5793 132.735 94.8307 132.735 95.0822C132.735 95.5285 132.796 95.9772 132.934 96.4235C133.385 97.8985 134.443 99.1128 135.757 100.026C137.432 100.724 139.179 100.968 140.98 101.005C138.168 99.4572 134.715 97.9664 134.711 94.3051C134.711 94.1646 134.715 94.0196 134.726 93.8724C134.912 91.2396 137.636 88.8811 139.829 87.9566C140.506 87.6689 141.19 87.5285 141.877 87.4333L142.122 87.4832C142.133 87.4832 142.144 87.4832 142.156 87.4832C142.167 87.4832 142.178 87.4832 142.192 87.4832C142.606 87.4832 143.037 87.4378 143.474 87.3925C143.497 87.3902 143.52 87.388 143.544 87.3857C143.56 87.3834 143.576 87.3812 143.592 87.3812C143.703 87.3698 143.816 87.3585 143.927 87.3472C144.213 87.3223 144.496 87.3042 144.779 87.3019C144.782 87.3019 144.784 87.3019 144.786 87.3019C144.791 87.3019 144.793 87.3019 144.797 87.3019C145.185 87.3042 145.568 87.3404 145.937 87.4446C145.942 87.4446 145.944 87.4469 145.948 87.4469C145.969 87.4537 145.991 87.4605 146.012 87.4673C146.034 87.4741 146.055 87.4809 146.075 87.4877C146.841 89.7194 147.747 91.9012 148.962 93.9086L149.148 94.0831C149.27 94.4252 149.388 94.7696 149.505 95.1117L149.442 95.268C147.435 94.765 145.559 93.7228 144.546 92.1368C144.718 92.7055 144.888 93.272 145.146 93.8225C145.158 93.8361 145.171 93.852 145.183 93.8656C145.189 93.8724 145.196 93.8814 145.203 93.8882C145.219 93.9041 145.232 93.9199 145.246 93.9381C147.33 96.2717 150.052 97.2505 152.911 97.2505C152.913 97.2505 152.915 97.2505 152.918 97.2505C152.92 97.2505 152.922 97.2505 152.927 97.2505C155.102 97.2505 157.358 96.6818 159.47 95.7166C161.267 94.5248 162.583 92.8369 162.88 90.6936C162.939 90.2722 162.508 90.0615 162.1 90.0615C162.098 90.0615 162.096 90.0615 162.094 90.0615C162.094 90.0615 162.091 90.0615 162.089 90.0615C161.881 90.0615 161.681 90.1158 161.554 90.2246C161.552 90.2291 161.548 90.2314 161.545 90.2337C161.543 90.2359 161.541 90.2382 161.538 90.2405C160.884 90.8635 160.356 91.686 159.753 92.3997C159.273 90.7503 158.679 89.128 158.006 87.5262L158.482 87.5692L158.892 87.4243C162.454 87.4854 168.963 89.3818 169.729 93.5076C169.758 93.6639 169.772 93.818 169.772 93.9698C169.772 95.0754 169.054 96.0859 168.206 96.9265C166.607 98.8319 163.614 100.08 161.588 100.76C161.412 100.819 161.332 100.959 161.332 101.098C161.332 101.152 161.344 101.206 161.366 101.256C161.396 101.258 161.423 101.261 161.452 101.263C161.532 101.27 161.613 101.277 161.695 101.281C161.722 101.283 161.749 101.286 161.776 101.286C161.906 101.292 162.037 101.295 162.166 101.297C162.175 101.297 162.184 101.297 162.193 101.297C162.196 101.297 162.198 101.297 162.2 101.297C162.223 101.297 162.248 101.297 162.27 101.297C162.302 101.295 162.331 101.295 162.363 101.295C165.37 100.527 168.247 99.1038 169.686 96.6093L169.774 96.5481C170.791 95.5671 171.245 94.4161 171.242 93.2674C171.238 92.1731 170.821 91.0811 170.087 90.1453C170.712 90.2903 171.347 90.3923 172.006 90.467C172.11 90.4784 172.217 90.4919 172.321 90.5055C172.364 90.5101 172.405 90.5146 172.445 90.5214C172.486 90.5259 172.527 90.5305 172.568 90.535C172.64 90.5441 172.711 90.5531 172.783 90.5622C173.753 90.6845 174.779 90.816 175.756 90.816C175.758 90.816 175.762 90.816 175.765 90.816C175.767 90.816 175.767 90.816 175.769 90.816C176.071 90.816 176.367 90.8046 176.657 90.7752C176.669 90.7729 176.682 90.7729 176.694 90.7707C176.705 90.7707 176.719 90.7684 176.732 90.7661L177.02 90.6075C177.002 90.8114 176.995 91.0153 176.995 91.2147C176.988 95.1208 180.065 98.1363 183.522 100.196C183.529 100.198 183.534 100.203 183.54 100.205C183.543 100.207 183.547 100.207 183.55 100.209C183.552 100.212 183.554 100.212 183.559 100.214C183.62 100.246 183.679 100.259 183.735 100.259C183.738 100.259 183.738 100.259 183.738 100.259C183.742 100.259 183.747 100.259 183.749 100.259C184.062 100.248 184.245 99.8288 183.955 99.5841C183.948 99.5773 183.939 99.5705 183.932 99.566C181.662 97.8826 178.128 94.8036 178.121 91.6769C178.121 90.5781 178.551 89.4769 179.628 88.4257C179.639 88.4143 179.65 88.403 179.662 88.3917C181.214 86.8918 183.149 86.4024 185.19 86.4024C185.192 86.4024 185.194 86.4024 185.197 86.4024C185.201 86.4024 185.203 86.4024 185.208 86.4024C187.619 86.4047 190.181 87.0821 192.458 87.5738C192.483 87.5806 192.51 87.5851 192.535 87.5896C192.56 87.5964 192.587 87.6009 192.612 87.6077C192.669 87.6191 192.728 87.6327 192.784 87.644C192.914 87.6712 193.043 87.6984 193.17 87.7233C193.181 87.7255 193.192 87.7278 193.206 87.7301C193.269 87.7437 193.33 87.755 193.394 87.7664C193.396 87.7686 193.401 87.7686 193.403 87.7686C193.419 87.7709 193.437 87.7754 193.453 87.7777C193.514 87.7913 193.577 87.8026 193.639 87.8139C192.75 90.4104 191.729 92.8868 190.473 95.3587C189.483 94.2802 188.641 93.0159 187.512 91.7109C187.503 91.6996 187.492 91.6905 187.483 91.6792C187.478 91.6747 187.474 91.6701 187.469 91.6679C187.465 91.6611 187.46 91.6565 187.453 91.652C187.301 91.5138 187.07 91.4209 186.866 91.4186C186.862 91.4186 186.86 91.4186 186.855 91.4186C186.853 91.4186 186.851 91.4186 186.851 91.4186C186.592 91.4209 186.384 91.5682 186.441 91.9465C186.998 95.6169 191.101 98.5759 194.534 99.3644C194.547 99.3666 194.558 99.3689 194.572 99.3734C194.579 99.3734 194.586 99.3757 194.595 99.378C194.608 99.3802 194.624 99.3847 194.64 99.3892C194.649 99.3915 194.658 99.3915 194.669 99.3938C195.741 99.6362 197.359 99.9036 198.961 99.9036C198.963 99.9036 198.967 99.9036 198.97 99.9036C198.974 99.9036 198.979 99.9036 198.983 99.9036C201.242 99.9013 203.465 99.3666 204.083 97.4793C204.14 97.3071 204.002 97.1462 203.841 97.1372C203.836 97.1372 203.832 97.1372 203.825 97.1372H203.823C203.798 97.1372 203.773 97.1417 203.748 97.1485C203.746 97.1508 203.743 97.1508 203.739 97.1531C203.737 97.1531 203.732 97.1553 203.73 97.1553C202.676 97.5858 201.514 97.9324 200.32 98.1499C201.831 95.9001 203.028 93.4872 203.975 90.9745C206.007 91.8786 208.218 92.2864 209.988 93.8225C211.628 95.2476 213.316 97.8713 213.314 100.305C213.314 100.69 213.271 101.07 213.178 101.44C212.138 105.599 207.878 105.91 204.38 106.592C204.158 106.635 204.068 106.794 204.068 106.97C204.068 107.229 204.262 107.53 204.521 107.58C204.546 107.586 204.573 107.591 204.598 107.596C204.616 107.598 204.634 107.6 204.65 107.605C205.302 107.72 205.996 107.781 206.707 107.781H206.709C206.714 107.781 206.718 107.781 206.721 107.781C209.526 107.779 212.571 106.832 214.145 104.591C214.363 104.276 214.528 103.941 214.664 103.599C215.276 104.036 215.806 104.582 216.332 105.121C216.558 105.357 216.803 105.618 217.068 105.855L217.29 105.609C228.023 116.833 236.317 132.282 236.333 147.868C236.335 149.937 236.193 152.007 235.889 154.071C235.033 157.316 233.621 160.501 232.377 163.508C229.593 170.235 226.289 176.209 221.556 181.683C219.506 180.342 217.251 179.422 214.845 179.191C214.431 179.15 213.921 179.125 213.355 179.125C210.341 179.125 205.717 179.821 205.187 182.565C203.297 181.554 201.263 180.96 199.122 180.96C199.02 180.96 198.918 180.96 198.816 180.965C189.198 181.225 186.087 188.859 185.548 196.961C185.5 196.961 185.453 196.961 185.405 196.961C185.401 196.961 185.394 196.961 185.389 196.961C185.389 196.961 185.387 196.961 185.385 196.961C182.047 196.961 178.701 196.689 175.407 196.172C176.959 196.909 178.549 197.554 180.205 198.03C181.8 198.243 183.418 198.338 185.054 198.34C185.058 198.34 185.063 198.34 185.07 198.34C185.07 198.34 185.072 198.34 185.074 198.34C185.21 198.34 185.344 198.338 185.48 198.338C185.478 198.411 185.475 198.483 185.473 198.556L185.414 198.766C185.392 199.118 185.38 199.464 185.378 199.804C180.14 204.616 173.934 206.619 166.614 207.761C166.573 207.768 166.53 207.772 166.489 207.779C166.46 207.784 166.43 207.788 166.401 207.793C164.187 208.126 161.645 208.343 159.012 208.343C159.012 208.343 159.01 208.343 159.008 208.343ZM157.49 204.841C157.39 204.841 157.29 204.859 157.193 204.895C156.762 205.058 156.549 205.538 156.713 205.969C156.839 206.302 157.157 206.506 157.492 206.506C157.589 206.506 157.689 206.49 157.787 206.454C158.217 206.288 158.432 205.806 158.267 205.378C158.142 205.045 157.825 204.841 157.49 204.841ZM161.233 200.781C160.943 200.781 160.65 200.833 160.363 200.941C159.103 201.419 158.466 202.829 158.947 204.088C159.318 205.065 160.245 205.665 161.23 205.665C161.518 205.665 161.813 205.613 162.098 205.504C163.358 205.029 163.992 203.617 163.512 202.355C163.143 201.381 162.216 200.781 161.233 200.781ZM167.323 201.032C167.175 201.032 167.024 201.059 166.876 201.116C166.226 201.363 165.9 202.09 166.147 202.738C166.339 203.241 166.815 203.549 167.323 203.549C167.47 203.549 167.622 203.524 167.769 203.468C168.419 203.221 168.746 202.496 168.499 201.845C168.308 201.342 167.83 201.032 167.323 201.032ZM135.925 199.265C135.732 199.265 135.54 199.331 135.381 199.469C135.035 199.77 134.996 200.296 135.297 200.645C135.461 200.835 135.694 200.932 135.927 200.932C136.12 200.932 136.312 200.864 136.469 200.731C136.82 200.425 136.856 199.899 136.553 199.553C136.389 199.362 136.158 199.265 135.925 199.265ZM158.036 195.61C157.834 195.61 157.628 195.644 157.429 195.721C156.549 196.054 156.11 197.038 156.443 197.914C156.701 198.596 157.347 199.016 158.033 199.016C158.235 199.016 158.439 198.979 158.638 198.905C159.518 198.567 159.962 197.584 159.626 196.707C159.368 196.027 158.722 195.61 158.036 195.61ZM138.596 194.07C138.03 194.07 137.461 194.267 136.999 194.665C135.979 195.549 135.868 197.092 136.75 198.109C137.235 198.669 137.914 198.954 138.599 198.954C139.165 198.954 139.736 198.757 140.196 198.359C141.215 197.477 141.326 195.934 140.441 194.912C139.96 194.355 139.28 194.07 138.596 194.07ZM174.981 193.945C174.788 193.945 174.593 194.011 174.435 194.147C174.088 194.448 174.05 194.976 174.353 195.323C174.519 195.513 174.75 195.613 174.983 195.613C175.176 195.613 175.368 195.545 175.527 195.406C175.873 195.105 175.914 194.579 175.611 194.233C175.445 194.042 175.214 193.945 174.981 193.945ZM145.248 193.404C149.435 194.425 153.724 194.969 158.047 194.969C160.184 194.969 162.327 194.835 164.473 194.564C166.904 194.253 171.65 193.771 175.518 192.382C175.599 192.524 175.694 192.66 175.805 192.789C176.29 193.349 176.97 193.635 177.654 193.635C178.221 193.635 178.789 193.437 179.252 193.039C180.142 192.268 180.339 190.995 179.789 190.007C180.885 188.997 181.549 187.751 181.515 186.212C181.513 186.029 181.39 185.956 181.202 185.956C180.532 185.956 178.986 186.874 178.699 186.998C177.559 187.477 176.415 187.948 175.25 188.358C173.451 188.99 171.634 189.581 169.786 190.053C165.544 191.138 161.21 191.89 156.837 192.166C155.174 192.273 153.513 192.325 151.857 192.325C147.133 192.325 142.437 191.899 137.792 191.047C139.5 191.713 141.231 192.298 142.985 192.803C142.643 193.265 142.656 193.916 143.048 194.371C143.298 194.656 143.646 194.804 143.998 194.804C144.29 194.804 144.584 194.702 144.822 194.493C145.149 194.212 145.294 193.802 145.248 193.404ZM133.564 190.356C133.17 190.356 132.773 190.492 132.449 190.773C131.74 191.387 131.663 192.463 132.28 193.172C132.615 193.562 133.091 193.761 133.569 193.761C133.963 193.761 134.359 193.626 134.679 193.347C135.39 192.728 135.467 191.654 134.853 190.943C134.516 190.556 134.042 190.356 133.564 190.356ZM183.053 186.964C182.761 186.964 182.469 187.066 182.233 187.273C181.705 187.728 181.649 188.523 182.104 189.047C182.353 189.334 182.704 189.482 183.056 189.482C183.348 189.482 183.64 189.382 183.878 189.176C184.404 188.72 184.46 187.927 184.005 187.399C183.756 187.112 183.405 186.964 183.053 186.964ZM105.778 118.015C97.268 119.81 99.3003 129.618 103.218 135.035C104.5 136.805 106.247 138.182 108.173 139.342C107.935 151.522 110.201 165.946 117.768 175.731C125.412 185.628 138.003 188.528 149.963 188.528C151.427 188.528 152.879 188.485 154.313 188.405C168.95 187.592 181.66 180.38 190.446 168.896L190.743 168.511L191.135 168.003C199.819 156.154 207.137 137.947 203.08 123.235C204.813 123.709 206.107 125.22 207.489 126.924C207.631 127.101 207.831 127.178 208.032 127.178C208.504 127.178 209 126.763 208.88 126.24C208.295 123.666 205.814 121.529 203.116 121.529C203.08 121.529 203.046 121.529 203.012 121.529C199.871 121.593 197.019 123.419 194.529 125.2C194.298 125.365 194.334 125.692 194.645 125.692C194.647 125.692 194.651 125.692 194.656 125.692C196.28 125.648 198.079 124.235 199.513 123.623C200.248 123.31 200.911 123.14 201.521 123.088L201.299 123.34C198.401 128.689 194.046 132.883 188.876 136.145C188.838 136.139 188.797 136.134 188.756 136.134C188.443 136.134 188.051 136.356 187.986 136.696C176.114 143.826 160.265 146.282 147.718 146.599C147.045 146.615 146.37 146.624 145.695 146.624C136.02 146.624 126.343 144.898 117.317 141.438C113.094 139.818 108.991 137.981 105.47 135.092C100.639 131.131 96.5634 120.603 105.792 118.176L105.778 118.015ZM172.62 185.036C172.226 185.036 171.829 185.172 171.505 185.451C170.796 186.067 170.719 187.141 171.333 187.853C171.671 188.24 172.144 188.442 172.622 188.442C173.016 188.442 173.415 188.303 173.737 188.025C174.446 187.409 174.523 186.335 173.907 185.623C173.571 185.236 173.098 185.036 172.62 185.036ZM206.335 129.731C205.982 129.731 205.561 130.212 205.767 130.588L206.086 131.109C210.151 147.202 201.464 164.027 191.636 176.291C191.436 176.54 191.393 177.075 191.835 177.1C194.606 177.258 197.28 178.312 200.06 178.312C200.458 178.312 200.862 178.291 201.265 178.242C201.994 178.155 202.593 177.532 203.111 177.082C204.815 175.602 206.628 174.712 208.728 174.22C208.762 174.499 208.875 174.771 209.072 174.999C209.362 175.332 209.77 175.502 210.178 175.502C210.518 175.502 210.858 175.385 211.132 175.144C211.54 174.793 211.705 174.272 211.617 173.783C214.036 173.543 216.662 173.393 218.645 171.982C221.035 170.28 222.832 167.262 224.388 164.75C224.885 164.74 225.381 164.564 225.786 164.21C226.609 163.501 226.776 162.321 226.242 161.421C232.409 148.412 226.683 134.562 220.888 122.119C220.82 121.971 220.713 121.915 220.596 121.915C220.337 121.915 220.029 122.184 219.966 122.399C218.982 125.662 214.068 132.321 210.067 132.321C208.948 132.321 207.901 131.802 207.031 130.545L206.979 130.325L206.721 130.039L206.655 129.933C206.576 129.79 206.46 129.731 206.335 129.731ZM102.631 174.75C105.264 174.75 107.688 175.283 110.225 176.794C110.298 176.835 110.366 176.853 110.432 176.853C110.794 176.853 111.052 176.286 110.932 175.98C106.258 164.129 102.098 151.951 103.68 139.048L103.716 138.694L103.732 138.545C103.771 138.261 103.621 138.15 103.428 138.15C103.419 138.15 103.413 138.15 103.406 138.15C101.657 135.454 100.286 132.527 98.3737 129.933C98.2831 129.808 98.1494 129.747 98.0112 129.747C97.9024 129.747 97.7914 129.786 97.6985 129.86C90.6636 135.57 87.1495 145.151 86.3339 154.395C86.2274 154.733 86.1957 155.095 86.2523 155.458C86.0937 157.853 86.1164 160.214 86.3044 162.468C86.4041 163.646 86.5015 164.974 86.6873 166.322C86.6511 166.517 86.6669 166.725 86.7417 166.925C86.7576 166.965 86.7757 167.004 86.7938 167.042C87.3059 170.194 88.3798 173.327 91.1349 174.809C92.1295 175.344 93.2714 175.521 94.4427 175.521C96.0423 175.521 97.7008 175.194 99.1214 175.008C100.345 174.848 101.507 174.75 102.631 174.75ZM136.46 102.96C127.605 104.748 117.899 110.142 112.545 117.521C110.268 120.653 109.192 124.473 110.531 128.209C112.217 132.921 117.317 136.041 121.547 138.184C129.839 142.383 139.568 143.869 149.039 143.869C152.295 143.869 155.523 143.692 158.65 143.391C171.489 142.152 185.111 137.901 194.509 128.714C194.903 128.315 195.293 127.907 195.669 127.488C195.891 127.248 195.9 126.693 195.472 126.679C195.336 126.673 195.2 126.67 195.066 126.67C192.653 126.67 190.378 127.477 187.997 127.731C191.069 120.832 199.387 120.442 206.159 120.442C206.589 120.442 207.017 120.442 207.434 120.444C207.502 120.444 207.57 120.444 207.636 120.444C210.253 120.444 212.437 120.193 214.29 118.135C216.361 115.834 216.436 112.122 216.2 109.243C216.182 109.009 216.044 108.812 215.811 108.812C215.781 108.812 215.749 108.814 215.718 108.821C209.897 109.972 204.539 112.215 198.72 112.215C197.739 112.215 196.745 112.152 195.732 112.009C198.097 109.295 200.381 105.502 195.63 104.018C188.702 101.852 181.27 104.863 176.236 98.1182L175.683 97.9755C170.193 100.953 164.665 106.519 158.335 106.519C157.014 106.519 155.657 106.277 154.259 105.717C156.715 102.362 151.336 101.852 148.656 101.852C148.606 101.852 148.554 101.852 148.506 101.852C144.768 101.882 140.545 102.119 136.695 102.969L136.46 102.96Z" fill="#A6D330"/>
<path d="M158.047 194.969C153.724 194.969 149.435 194.425 145.248 193.404C145.221 193.161 145.124 192.921 144.951 192.722C144.7 192.434 144.349 192.287 143.998 192.287C143.705 192.287 143.413 192.389 143.175 192.595C143.103 192.658 143.039 192.728 142.985 192.803C141.231 192.298 139.5 191.713 137.792 191.047C142.437 191.899 147.133 192.325 151.857 192.325C153.513 192.325 155.174 192.273 156.837 192.167C161.21 191.89 165.544 191.138 169.785 190.053C171.634 189.581 173.451 188.99 175.25 188.358C176.415 187.948 177.559 187.477 178.699 186.999C178.986 186.874 180.532 185.956 181.202 185.956C181.39 185.956 181.513 186.029 181.515 186.212C181.549 187.751 180.885 188.997 179.788 190.007C179.707 189.862 179.609 189.724 179.498 189.593C179.014 189.035 178.334 188.75 177.65 188.75C177.083 188.75 176.515 188.945 176.055 189.346C175.164 190.116 174.965 191.389 175.518 192.382C171.65 193.771 166.904 194.253 164.472 194.564C162.327 194.836 160.184 194.969 158.047 194.969Z" fill="#A6D330"/>
<path d="M208.88 126.24C208.288 123.632 205.751 121.473 203.012 121.53C199.871 121.593 197.019 123.419 194.529 125.2C194.293 125.368 194.334 125.701 194.656 125.692C196.28 125.649 198.079 124.235 199.513 123.623C200.248 123.31 200.911 123.14 201.521 123.088L201.299 123.34C198.401 128.689 194.046 132.883 188.876 136.145C188.557 136.075 188.06 136.311 187.986 136.696C176.114 143.826 160.265 146.282 147.718 146.599C137.373 146.858 126.973 145.138 117.317 141.438C113.094 139.818 108.991 137.981 105.47 135.092C100.639 131.132 96.5634 120.603 105.791 118.176L105.778 118.016C97.268 119.81 99.3003 129.618 103.218 135.035C104.5 136.805 106.247 138.182 108.173 139.342C107.935 151.523 110.2 165.946 117.768 175.731C126.348 186.838 141.156 189.135 154.313 188.406C168.949 187.592 181.66 180.381 190.446 168.896L190.743 168.511L191.135 168.003C199.819 156.154 207.137 137.947 203.08 123.236C204.813 123.709 206.107 125.22 207.489 126.924C207.967 127.515 209.05 126.988 208.88 126.24Z" fill="#231F20"/>
<path d="M202.013 124.799L202.051 125.046C200.968 129.917 200.766 134.378 197.223 138.323C194.846 140.969 191.599 138.948 188.985 137.591L189.028 137.337C194.273 134.199 198.872 130.144 202.013 124.799Z" fill="#FCFBCF"/>
<path d="M174.079 143.76C178.737 142.328 183.432 140.495 187.743 138.082C186.69 144.009 184.56 151.742 177.353 151.577C173.447 151.491 170.198 148.695 167.558 146.04L167.604 145.53C169.788 145.002 171.949 144.415 174.079 143.76Z" fill="#FCFBCF"/>
<path d="M166.174 145.861C164.421 150.138 162.329 155.988 157.102 156.822C152.691 157.527 148.092 151.856 145.677 148.362C152.557 148.301 159.468 147.395 166.174 145.861Z" fill="#FCFBCF"/>
<path d="M134.912 147.75C137.824 148.124 140.762 148.319 143.71 148.36C142.042 151.717 141.077 156.897 136.924 157.758C134.402 158.283 131.804 153.655 130.68 151.998C129.475 150.229 128.319 148.4 127.408 146.459C129.885 146.993 132.388 147.422 134.912 147.75Z" fill="#FCFBCF"/>
<path d="M116.288 143.101C119.422 144.367 122.632 145.351 125.895 146.123C124.821 149.42 122.469 157.132 118.47 155.703C114.99 154.456 113.209 148.459 112.197 145.396C111.768 144.105 111.551 142.111 110.844 140.763C112.67 141.644 114.546 142.396 116.288 143.101Z" fill="#FCFBCF"/>
<path d="M121.321 175.684C123.079 172.716 127.642 166.27 130.866 168.241C133.53 169.863 133.732 175.258 133.881 177.929C133.988 179.837 133.818 181.901 134.017 183.854C129.275 182.039 124.939 179.336 121.321 175.684Z" fill="#FCFBCF"/>
<path d="M152.698 186.69C146.846 186.978 140.993 186.251 135.594 184.431C135.608 183.947 135.597 183.45 135.597 182.956C136.204 181.042 137.529 179.372 138.653 177.727C139.956 175.824 140.81 173.783 142.41 172.054C147.013 167.067 151.511 182.671 152.768 186.684L152.698 186.69Z" fill="#FCFBCF"/>
<path d="M154.495 186.559L154.417 186.144C156.728 182.093 156.083 176.699 159.23 173.008C163.569 167.919 169.609 178.174 172.887 181.667C167.248 184.413 161.013 186.036 154.495 186.559Z" fill="#FCFBCF"/>
<path d="M174.632 180.766L174.448 180.471C175.146 177.276 176.274 174.07 177.369 171.012C178.458 167.962 180.094 166.349 183.513 166.816C185.416 167.076 186.998 168.035 188.715 168.674C184.832 173.817 180.04 177.841 174.632 180.766Z" fill="#FCFBCF"/>
<path d="M202.62 131.236C202.661 143.389 196.77 156.426 190.61 165.98C190.351 166.381 190.07 166.757 189.803 167.144C186.685 164.562 180.011 163.789 177.602 167.156C175.935 169.485 175.262 172.233 174.532 174.961C174.276 175.908 173.651 177.365 173.32 178.765C170.402 174.578 165.334 168.925 161.119 170.228C154.789 172.19 155.827 179.404 154.1 184.685C152.775 178.989 148.969 166.728 143.216 169.63C140.244 171.13 138.732 174.342 137.285 177.175C136.872 177.979 136.129 179.026 135.52 180.134C135.411 178.047 135.211 175.958 134.928 173.975C134.609 171.737 133.501 167.138 130.719 166.689C126.468 166 122.51 171.451 120.858 175.228C119.646 173.96 118.518 172.582 117.489 171.094C110.982 161.625 110.214 150.46 108.488 139.528C109 139.827 109.528 140.099 110.058 140.373C110.545 140.942 110.908 144.091 111.046 144.671C111.556 146.844 112.351 148.922 113.282 150.947C114.385 153.346 116.431 156.89 119.474 156.924C123.468 156.967 125.745 150.836 126.937 147.095C127.612 149.66 129.189 152.162 130.574 154.269C131.777 156.102 133.757 159.208 136.317 159.138C138.852 159.07 140.574 157.107 141.965 155.188C143.076 153.659 144.696 151.119 145.223 148.937C147.587 153.539 152.412 158.845 157.855 158.023C162.03 157.391 166.41 151.475 167.393 147.052C169.802 150.664 174.8 153.82 179.025 152.782C185.464 151.199 187.789 144.445 188.835 138.493C191.312 140.226 194.067 141.726 196.974 139.995C199.595 138.434 201.641 134.849 202.62 131.236Z" fill="#F36E7C"/>
<path d="M161.638 156.154C160.426 157.137 159.13 157.83 157.854 158.023C155.546 158.374 153.35 157.613 151.402 156.276C150.541 156.364 149.68 156.464 148.826 156.595C141.421 157.715 135.087 160.209 128.761 164.054C127.424 164.867 121.23 168.558 118.133 171.945C118.987 173.103 119.886 174.211 120.858 175.228C122.51 171.451 126.468 166 130.718 166.689C133.501 167.14 134.609 171.737 134.928 173.975C135.211 175.958 135.411 178.047 135.517 180.134C136.129 179.026 136.872 177.979 137.284 177.175C138.732 174.342 140.243 171.13 143.216 169.63C148.971 166.728 152.775 178.989 154.1 184.685C155.827 179.404 154.789 172.19 161.119 170.228C165.333 168.925 170.402 174.578 173.32 178.765C173.651 177.365 174.276 175.908 174.532 174.961C175.262 172.233 175.935 169.485 177.602 167.156C180.01 163.789 186.685 164.562 189.803 167.144C189.977 166.893 190.154 166.637 190.328 166.385C181.982 160.472 171.908 156.947 161.638 156.154Z" fill="#F15080"/>
<path d="M126.831 198.767L126.772 198.556C126.536 189.887 123.672 181.244 113.429 180.965C111.175 180.904 109.036 181.507 107.056 182.565C106.428 179.307 100.019 178.937 97.3974 179.191C94.7556 179.445 92.2928 180.53 90.0883 182.093C87.6799 178.348 81.0845 180.662 77.7404 181.747C71.9788 183.618 67.8575 188.752 66.19 194.405C63.4349 203.731 69.9963 218.471 81.0188 210.154L81.191 209.966C81.3587 210.337 81.5354 210.707 81.7257 211.071C84.7028 216.822 90.1472 217.692 95.211 214.472C96.6497 217.046 99.2099 218.444 103.49 216.987C105.801 216.203 107.69 214.948 109.639 213.482C113.094 210.879 115.926 210.129 120.113 209.116C124.119 208.155 126.156 205.48 126.704 201.952L126.752 201.778L126.756 201.617C126.869 200.715 126.897 199.761 126.831 198.767Z" fill="#231F20"/>
<path d="M80.3185 208.754C69.9825 216.625 66.3144 202.731 67.3498 195.524C68.0635 190.544 71.104 186.575 75.2797 183.933C78.4312 181.939 86.386 179.345 89.5059 182.533C86.0938 185.136 83.3319 188.843 81.5239 192.291C78.7688 197.557 78.617 203.275 80.6244 208.595L80.3185 208.754Z" fill="#87D497"/>
<path d="M82.5979 208.776C80.1918 204.123 80.6721 199.152 82.3623 194.396C84.0049 189.779 87.6073 186.002 91.57 183.296C94.5199 181.282 103.56 178.915 106.034 183.158C99.9236 187.012 95.4896 195.153 94.1778 201.225C93.48 204.471 93.2421 209.538 94.6151 213.172C89.2273 216.319 85.1967 213.802 82.5979 208.776Z" fill="#87D497"/>
<path d="M125.292 199.111C124.83 203.114 125.183 206.816 118.443 207.886C116.816 208.146 115.432 208.463 113.887 209.08C111.259 210.129 109.04 212.329 106.752 213.935C101.926 217.322 96.1669 215.906 94.9842 210.034C94.3498 206.893 95.1428 203.323 95.8973 200.273C97.8888 192.223 104.593 183.888 113.225 183.099C122.109 182.286 124.662 191.428 125.478 198.723L125.292 199.111Z" fill="#87D497"/>
<path d="M185.487 201.617L185.491 201.778L185.541 201.952C186.089 205.48 188.124 208.155 192.13 209.116C196.319 210.129 199.149 210.879 202.604 213.482C204.552 214.948 206.442 216.203 208.755 216.987C213.033 218.444 215.593 217.046 217.032 214.472C222.095 217.692 227.542 216.822 230.519 211.071C230.707 210.707 230.884 210.337 231.052 209.966L231.226 210.154C242.246 218.471 248.81 203.731 246.055 194.405C244.385 188.752 240.266 183.618 234.505 181.747C231.16 180.662 224.563 178.348 222.157 182.093C219.95 180.53 217.487 179.445 214.845 179.191C212.224 178.937 205.817 179.307 205.187 182.565C203.206 181.507 201.068 180.904 198.816 180.965C188.57 181.244 185.709 189.887 185.473 198.556L185.414 198.767C185.348 199.761 185.373 200.715 185.487 201.617Z" fill="#231F20"/>
<path d="M231.618 208.595C233.626 203.275 233.476 197.557 230.719 192.291C228.911 188.843 226.149 185.136 222.737 182.533C225.859 179.345 233.814 181.939 236.965 183.933C241.141 186.575 244.179 190.544 244.895 195.524C245.928 202.731 242.262 216.625 231.924 208.754L231.618 208.595Z" fill="#87D497"/>
<path d="M217.63 213.172C219.003 209.538 218.765 204.471 218.065 201.225C216.755 195.153 212.321 187.012 206.211 183.158C208.683 178.915 217.725 181.282 220.673 183.296C224.635 186.002 228.24 189.779 229.883 194.396C231.573 199.152 232.051 204.123 229.645 208.776C227.046 213.802 223.018 216.319 217.63 213.172Z" fill="#87D497"/>
<path d="M186.767 198.723C187.58 191.428 190.134 182.286 199.017 183.099C207.65 183.888 214.354 192.223 216.348 200.273C217.102 203.323 217.893 206.893 217.261 210.034C216.076 215.906 210.316 217.322 205.49 213.935C203.202 212.329 200.982 210.129 198.358 209.08C196.811 208.463 195.429 208.146 193.8 207.886C187.059 206.816 187.415 203.114 186.953 199.111L186.767 198.723Z" fill="#87D497"/>
<path d="M69.3843 189.862C69.5633 190.798 69.9167 191.763 70.5148 192.749C72.529 196.07 75.7735 198.259 79.394 199.378C79.641 196.976 80.3207 194.591 81.5238 192.291C83.3318 188.843 86.0937 185.136 89.5058 182.533C86.3859 179.345 78.4311 181.939 75.2796 183.933C72.8417 185.474 70.8094 187.479 69.3843 189.862Z" fill="#87D497"/>
<path d="M74.6815 211.096C74.6792 211.096 74.677 211.096 74.6747 211.096C74.677 211.096 74.6792 211.096 74.6815 211.096ZM74.6861 211.096C76.2834 211.096 78.1548 210.401 80.3185 208.754L80.6244 208.595L80.3185 208.754C78.1548 210.401 76.2834 211.096 74.6861 211.096ZM80.5088 208.285C80.5066 208.275 80.5043 208.266 80.4998 208.26C80.5043 208.269 80.5066 208.275 80.5088 208.285ZM80.4884 208.223C80.4816 208.203 80.4726 208.183 80.4658 208.162C80.4726 208.183 80.4816 208.203 80.4884 208.223ZM80.4658 208.162C79.5844 205.67 79.1744 203.096 79.2831 200.527C79.2854 200.527 79.2876 200.529 79.2899 200.529C79.1789 203.098 79.5844 205.672 80.4658 208.162ZM67.3362 195.608C67.3407 195.579 67.3453 195.551 67.3498 195.524C67.3453 195.551 67.3407 195.579 67.3362 195.608ZM67.3498 195.524C67.3521 195.508 67.3521 195.495 67.3543 195.479C67.3521 195.495 67.3498 195.508 67.3498 195.524Z" fill="#100F0D"/>
<path d="M74.6816 211.096C74.6793 211.096 74.677 211.096 74.6748 211.096C68.6798 211.089 66.5523 201.315 67.3362 195.608C67.3408 195.579 67.3453 195.551 67.3498 195.524C67.3498 195.508 67.3521 195.495 67.3544 195.479C67.5764 193.97 68.0341 192.568 68.6503 191.251C69.9848 195.878 74.7722 199.278 79.2832 200.527C79.1744 203.096 79.5845 205.67 80.4658 208.162C80.4726 208.183 80.4817 208.203 80.4885 208.223C80.493 208.235 80.4976 208.248 80.4998 208.26C80.5044 208.266 80.5066 208.275 80.5089 208.285C80.5474 208.386 80.5859 208.491 80.6244 208.595L80.3186 208.754C78.1548 210.401 76.2834 211.096 74.6861 211.096C74.6838 211.096 74.6816 211.096 74.6816 211.096Z" fill="#6CC47F"/>
<path d="M84.1702 200.244C87.7318 200.425 91.2934 199.988 94.7554 199.059C96.5317 193.338 100.621 186.568 106.034 183.158C103.56 178.915 94.5198 181.282 91.5699 183.296C87.6072 186.002 84.0048 189.779 82.3622 194.396C81.7255 196.179 81.2633 197.994 81.0571 199.813C82.0835 200.033 83.1234 200.192 84.1702 200.244Z" fill="#87D497"/>
<path d="M90.0882 214.56H90.086H90.0882ZM90.0928 214.56C91.4273 214.558 92.8795 214.155 94.4474 213.269C92.8795 214.155 91.4273 214.558 90.0928 214.56ZM94.47 213.255C94.504 213.235 94.538 213.217 94.5743 213.196C94.538 213.217 94.504 213.235 94.47 213.255ZM82.5979 208.776C82.5889 208.76 82.582 208.744 82.573 208.726C82.582 208.744 82.5889 208.76 82.5979 208.776ZM82.5685 208.72C82.5617 208.704 82.5526 208.688 82.5458 208.672C82.5526 208.688 82.5617 208.704 82.5685 208.72ZM82.5413 208.665C82.5322 208.649 82.5254 208.633 82.5163 208.618C82.5254 208.633 82.5322 208.649 82.5413 208.665ZM82.5118 208.608C82.505 208.593 82.4982 208.579 82.4892 208.563C82.4959 208.579 82.505 208.593 82.5118 208.608ZM82.4824 208.55C82.4778 208.538 82.471 208.525 82.4642 208.511C82.471 208.525 82.4778 208.538 82.4824 208.55ZM82.4552 208.493C82.4507 208.482 82.4438 208.473 82.4393 208.461C82.4438 208.473 82.4507 208.482 82.4552 208.493ZM82.428 208.436C82.4235 208.427 82.4189 208.418 82.4144 208.409C82.4189 208.418 82.4235 208.427 82.428 208.436ZM82.3985 208.375C82.394 208.368 82.3917 208.362 82.3872 208.355C82.3917 208.362 82.394 208.368 82.3985 208.375ZM93.6182 206.753C93.6182 204.732 93.8447 202.772 94.1778 201.225C94.2458 200.914 94.3205 200.599 94.4021 200.28C94.4044 200.28 94.4066 200.28 94.4066 200.28C94.3273 200.599 94.2458 200.917 94.1778 201.225C93.8447 202.772 93.6182 204.732 93.6182 206.753Z" fill="#100F0D"/>
<path d="M90.0882 214.56H90.0859C86.9139 214.56 84.4081 212.277 82.5978 208.776C82.5888 208.76 82.582 208.744 82.5729 208.726C82.5706 208.724 82.5707 208.722 82.5684 208.72C82.5616 208.704 82.5525 208.688 82.5457 208.672C82.5434 208.67 82.5412 208.667 82.5412 208.665C82.5321 208.649 82.5253 208.633 82.5163 208.618C82.5163 208.615 82.514 208.611 82.5117 208.608C82.5049 208.593 82.4959 208.579 82.4891 208.563C82.4868 208.559 82.4846 208.554 82.4823 208.55C82.4778 208.538 82.4709 208.525 82.4641 208.511C82.4619 208.507 82.4574 208.5 82.4551 208.493C82.4506 208.482 82.4438 208.473 82.4392 208.461C82.4347 208.452 82.4324 208.445 82.4279 208.436C82.4234 208.427 82.4188 208.418 82.4143 208.409C82.4075 208.398 82.403 208.386 82.3985 208.375C82.3939 208.368 82.3917 208.362 82.3871 208.355C81.2271 205.924 80.8351 203.416 80.9711 200.898C82.693 201.216 84.4262 201.367 86.1617 201.367C88.9259 201.367 91.6923 200.984 94.402 200.28C94.3204 200.599 94.2457 200.914 94.1777 201.225C93.8447 202.772 93.6181 204.732 93.6181 206.753C93.6181 208.976 93.8968 211.271 94.615 213.172C94.6014 213.181 94.5878 213.19 94.5742 213.196C94.538 213.217 94.504 213.235 94.47 213.255C94.4632 213.26 94.4541 213.264 94.4473 213.269C92.8795 214.155 91.4272 214.558 90.0927 214.56C90.0904 214.56 90.0904 214.56 90.0882 214.56Z" fill="#6CC47F"/>
<path d="M117.777 183.702C116.481 183.178 114.981 182.936 113.225 183.099C105.2 183.831 98.8474 191.088 96.3914 198.576C104.747 195.93 112.387 190.44 117.777 183.702Z" fill="#87D497"/>
<path d="M101.476 215.743C101.473 215.743 101.471 215.743 101.469 215.743C101.471 215.743 101.473 215.743 101.476 215.743ZM101.482 215.743C103.177 215.741 105.001 215.154 106.709 213.967C104.999 215.154 103.177 215.741 101.482 215.743ZM94.9957 210.088C94.9912 210.07 94.9867 210.052 94.9844 210.033C94.8235 209.236 94.7533 208.411 94.7533 207.573C94.7533 208.411 94.8235 209.236 94.9844 210.033C94.9867 210.052 94.9912 210.07 94.9957 210.088Z" fill="#100F0D"/>
<path d="M101.476 215.743C101.473 215.743 101.471 215.743 101.469 215.743C98.4078 215.738 95.7706 213.824 94.9957 210.088C94.9912 210.07 94.9867 210.052 94.9844 210.033C94.8235 209.236 94.7533 208.411 94.7533 207.573C94.751 205.112 95.3333 202.548 95.8975 200.273L96.0243 199.822C104.87 197.103 113.028 191.081 118.611 184.094C123.235 186.602 124.857 193.188 125.478 198.723L125.292 199.111C124.83 203.114 125.184 206.816 118.443 207.886C116.816 208.146 115.432 208.463 113.887 209.08C111.259 210.129 109.041 212.329 106.752 213.935C106.739 213.946 106.723 213.955 106.709 213.967C105.001 215.154 103.177 215.741 101.482 215.743C101.48 215.743 101.478 215.743 101.476 215.743Z" fill="#6CC47F"/>
<path d="M237.561 211.096C237.561 211.096 237.559 211.096 237.557 211.096C237.559 211.096 237.561 211.096 237.561 211.096ZM237.568 211.096C243.509 211.092 245.652 201.497 244.927 195.767C245.652 201.497 243.511 211.092 237.568 211.096ZM232.01 207.469C232.015 207.453 232.019 207.439 232.024 207.424C232.019 207.439 232.015 207.453 232.01 207.469ZM232.026 207.414C233.413 202.994 233.304 198.35 231.478 193.947C231.482 193.945 231.487 193.94 231.491 193.938C233.322 198.34 233.415 202.992 232.026 207.414ZM244.925 195.737C244.916 195.665 244.904 195.594 244.895 195.524C244.904 195.594 244.916 195.665 244.925 195.737ZM244.895 195.524C244.893 195.504 244.888 195.486 244.886 195.465C244.888 195.486 244.893 195.504 244.895 195.524ZM244.886 195.463C244.884 195.445 244.882 195.427 244.877 195.409C244.882 195.427 244.884 195.445 244.886 195.463ZM244.877 195.406C244.836 195.137 244.789 194.869 244.734 194.607C244.789 194.869 244.836 195.137 244.877 195.406ZM244.734 194.6C244.73 194.584 244.727 194.566 244.723 194.55C244.727 194.566 244.73 194.584 244.734 194.6ZM244.723 194.543C244.718 194.527 244.714 194.509 244.712 194.491C244.714 194.509 244.718 194.527 244.723 194.543ZM244.703 194.459C244.703 194.453 244.7 194.448 244.7 194.441C244.7 194.448 244.703 194.453 244.703 194.459ZM244.691 194.398C244.689 194.396 244.689 194.396 244.689 194.396C244.689 194.396 244.689 194.396 244.691 194.398Z" fill="#100F0D"/>
<path d="M237.561 211.096C237.561 211.096 237.559 211.096 237.556 211.096C235.959 211.096 234.088 210.401 231.924 208.754L231.618 208.595C231.761 208.221 231.89 207.845 232.01 207.469C232.015 207.453 232.019 207.439 232.024 207.424C232.026 207.421 232.026 207.417 232.026 207.414C233.415 202.992 233.322 198.34 231.491 193.938C234.525 191.469 237.09 188.48 238.71 185.184C241.678 187.531 243.862 190.646 244.689 194.396C244.689 194.396 244.689 194.396 244.691 194.398C244.693 194.412 244.696 194.428 244.7 194.441C244.7 194.448 244.702 194.453 244.702 194.459C244.707 194.471 244.709 194.48 244.711 194.491C244.714 194.509 244.718 194.527 244.723 194.543C244.723 194.545 244.723 194.548 244.723 194.55C244.727 194.566 244.73 194.584 244.734 194.6C244.734 194.602 244.734 194.604 244.734 194.607C244.788 194.869 244.836 195.137 244.877 195.406C244.877 195.406 244.877 195.406 244.877 195.409C244.881 195.427 244.884 195.445 244.886 195.463C244.886 195.465 244.886 195.465 244.886 195.465C244.888 195.486 244.893 195.504 244.895 195.524C244.904 195.594 244.915 195.665 244.924 195.737C244.924 195.746 244.927 195.755 244.927 195.767C245.652 201.497 243.508 211.092 237.568 211.096C237.566 211.096 237.563 211.096 237.561 211.096Z" fill="#6CC47F"/>
<path d="M222.157 214.56C222.154 214.56 222.152 214.56 222.15 214.56C222.152 214.56 222.154 214.56 222.157 214.56ZM222.157 214.56C225.331 214.56 227.834 212.277 229.645 208.776C227.834 212.277 225.331 214.56 222.157 214.56ZM217.709 213.217C217.707 213.217 217.705 213.215 217.702 213.215C217.705 213.215 217.707 213.217 217.709 213.217ZM218.627 206.753C218.627 204.732 218.398 202.772 218.065 201.225C218.015 200.998 217.954 200.767 217.897 200.538C217.9 200.536 217.902 200.536 217.906 200.536C217.963 200.769 218.017 200.998 218.065 201.225C218.398 202.772 218.627 204.732 218.627 206.753Z" fill="#100F0D"/>
<path d="M222.157 214.56C222.155 214.56 222.152 214.56 222.15 214.56C220.791 214.558 219.309 214.139 217.709 213.217C217.707 213.217 217.705 213.215 217.702 213.215C217.678 213.201 217.655 213.187 217.63 213.172C218.348 211.271 218.625 208.976 218.627 206.753C218.627 204.732 218.398 202.772 218.065 201.225C218.017 200.998 217.963 200.769 217.906 200.536C221.976 199.732 226.31 197.767 230.091 195.01C231.607 199.577 231.947 204.322 229.645 208.776C227.835 212.277 225.331 214.56 222.157 214.56Z" fill="#6CC47F"/>
<path d="M210.767 215.743C210.765 215.743 210.763 215.743 210.76 215.743C210.763 215.743 210.765 215.743 210.767 215.743ZM210.776 215.743C213.808 215.738 216.422 213.86 217.227 210.194C216.422 213.86 213.808 215.738 210.776 215.743ZM205.538 213.969C205.522 213.958 205.506 213.946 205.49 213.935C203.202 212.329 200.982 210.129 198.358 209.08C196.811 208.463 195.429 208.146 193.8 207.886C187.059 206.816 187.415 203.114 186.953 199.111L186.767 198.723L186.953 199.111C187.415 203.114 187.059 206.816 193.8 207.886C195.429 208.146 196.811 208.463 198.358 209.08C200.982 210.129 203.202 212.329 205.49 213.935C205.506 213.946 205.522 213.958 205.538 213.969ZM217.261 210.033C217.528 208.708 217.542 207.308 217.41 205.903C217.542 207.308 217.528 208.708 217.261 210.033Z" fill="#100F0D"/>
<path d="M210.767 215.743C210.765 215.743 210.763 215.743 210.76 215.743C209.068 215.741 207.246 215.154 205.538 213.969C205.522 213.958 205.506 213.946 205.49 213.935C203.202 212.329 200.982 210.129 198.358 209.08C196.811 208.463 195.429 208.146 193.8 207.886C187.059 206.816 187.415 203.114 186.953 199.111L186.767 198.723C187 196.632 187.385 194.394 188.011 192.275C194.087 198.112 202.862 201.134 211.368 201.134C213.085 201.134 214.793 201.012 216.465 200.762C216.862 202.394 217.247 204.152 217.41 205.903C217.542 207.308 217.528 208.708 217.261 210.033C217.249 210.088 217.238 210.14 217.227 210.194C216.422 213.86 213.808 215.738 210.776 215.743C210.774 215.743 210.772 215.743 210.767 215.743Z" fill="#6CC47F"/>
<path d="M95.0794 51.2888C96.9553 51.2209 98.9514 51.5109 100.494 52.4829C103.116 53.5001 105.531 56.4568 106.371 59.2572C107.282 61.5229 107.341 64.1035 106.079 66.956C105.841 67.4884 105.567 67.9846 105.273 68.4626C105.105 68.8999 104.858 69.2964 104.473 69.6091L104.443 69.6295C101.346 73.463 96.2167 74.7273 91.3183 73.096C86.5378 71.5032 83.8257 66.5799 84.0365 61.7608C84.3083 55.4214 88.5837 51.5154 95.0794 51.2888Z" fill="#231F20"/>
<path d="M98.1267 54.9186C98.9786 54.8891 99.8826 55.0183 100.585 55.4623C101.777 55.9268 102.876 57.2704 103.259 58.5437C103.671 59.5723 103.698 60.7459 103.125 62.0396C103.016 62.2843 102.891 62.5109 102.76 62.7284L102.393 63.2472L102.382 63.254C100.972 64.9985 98.6411 65.5763 96.4139 64.8332C94.2434 64.1082 93.0086 61.8697 93.1038 59.6788C93.2284 56.8014 95.17 55.0251 98.1267 54.9186Z" fill="white"/>
<path d="M145.088 37.738C146.964 37.6723 148.96 37.9601 150.5 38.932C153.124 39.9516 155.539 42.906 156.38 45.7064C157.29 47.9721 157.349 50.5527 156.087 53.4052C155.85 53.9399 155.575 54.4361 155.281 54.9096C155.113 55.3469 154.866 55.7479 154.483 56.0583L154.452 56.0764C151.354 59.9122 146.225 61.1764 141.327 59.5474C136.548 57.9524 133.834 53.0268 134.045 48.21C134.317 41.8706 138.59 37.9646 145.088 37.738Z" fill="#231F20"/>
<path d="M148.132 41.3654C148.987 41.3405 149.891 41.4674 150.593 41.9137C151.785 42.3759 152.886 43.7195 153.264 44.9928C153.679 46.0214 153.706 47.1973 153.131 48.4887C153.024 48.7311 152.899 48.96 152.766 49.1797L152.403 49.6963L152.39 49.7054C150.983 51.4477 148.649 52.0277 146.422 51.28C144.249 50.5595 143.017 48.3211 143.112 46.1302C143.236 43.2482 145.178 41.4742 148.132 41.3654Z" fill="white"/>
<path d="M205.925 41.6439C207.804 41.5782 209.8 41.866 211.338 42.8402C213.962 43.8552 216.377 46.8142 217.218 49.6146C218.128 51.8802 218.187 54.4608 216.925 57.3111C216.687 57.8458 216.416 58.342 216.119 58.8178C215.951 59.255 215.704 59.6538 215.321 59.9642L215.289 59.9846C212.195 63.8204 207.065 65.0846 202.167 63.4533C197.386 61.8606 194.674 56.935 194.883 52.1181C195.157 45.7788 199.427 41.8728 205.925 41.6439Z" fill="#231F20"/>
<path d="M208.971 45.276C209.825 45.2465 210.731 45.3757 211.431 45.8197C212.625 46.2819 213.724 47.6255 214.105 48.8988C214.517 49.9274 214.544 51.101 213.969 52.397C213.862 52.6394 213.738 52.8683 213.604 53.0858L213.241 53.6046L213.228 53.6114C211.821 55.356 209.487 55.9337 207.26 55.1906C205.09 54.4678 203.855 52.2271 203.952 50.0362C204.074 47.1565 206.016 45.3825 208.971 45.276Z" fill="white"/>
<path d="M95.7342 164.963C95.7342 164.65 95.6798 164.33 95.562 164.015C95.0794 162.726 94.7214 161.464 94.4722 160.225C95.1655 160.59 95.7342 161.199 96.0355 161.99C96.4229 163.012 96.2757 164.104 95.7342 164.963Z" fill="#5EB533"/>
<path d="M87.8089 167.661C87.3898 167.661 86.9932 167.428 86.7939 167.042C86.7553 166.802 86.7191 166.562 86.6874 166.322C86.7553 165.941 87.0159 165.606 87.4033 165.459C87.5347 165.409 87.673 165.384 87.8066 165.384C88.2666 165.384 88.6993 165.663 88.8715 166.118C89.0935 166.705 88.799 167.362 88.2122 167.586C88.0785 167.636 87.9426 167.661 87.8089 167.661Z" fill="#5EB533"/>
<path d="M86.7938 167.042C86.7757 167.004 86.7576 166.965 86.7417 166.925C86.6669 166.725 86.6511 166.517 86.6873 166.322C86.7191 166.562 86.7553 166.802 86.7938 167.042Z" fill="#55A935"/>
<path d="M87.9902 157.359C87.2765 157.18 86.658 156.666 86.377 155.927C86.3181 155.773 86.2774 155.614 86.2524 155.458C86.2751 155.105 86.3023 154.749 86.334 154.395C86.5424 153.743 87.0341 153.19 87.7251 152.929C87.92 152.855 88.1171 152.809 88.3142 152.789C88.0854 154.325 87.9675 155.854 87.9902 157.359Z" fill="#5EB533"/>
<path d="M86.2523 155.458C86.1957 155.095 86.2274 154.733 86.3339 154.395C86.3021 154.749 86.275 155.105 86.2523 155.458Z" fill="#55A935"/>
<path d="M101.237 163.621C100.544 163.621 99.8917 163.2 99.6334 162.513C99.2958 161.625 99.7399 160.633 100.628 160.295C100.827 160.218 101.034 160.184 101.235 160.184C101.929 160.184 102.583 160.606 102.844 161.294C103.181 162.182 102.735 163.172 101.849 163.508C101.648 163.585 101.441 163.621 101.237 163.621Z" fill="#5EB533"/>
<path d="M161.23 205.665C160.245 205.665 159.318 205.065 158.947 204.088C158.466 202.829 159.103 201.419 160.363 200.941C160.65 200.833 160.943 200.78 161.233 200.78C162.216 200.78 163.143 201.381 163.512 202.355C163.992 203.617 163.358 205.029 162.098 205.504C161.813 205.613 161.518 205.665 161.23 205.665Z" fill="#55A935"/>
<path d="M157.492 206.506C157.157 206.506 156.84 206.302 156.713 205.969C156.55 205.539 156.763 205.058 157.193 204.895C157.291 204.859 157.39 204.841 157.49 204.841C157.825 204.841 158.142 205.045 158.267 205.378C158.432 205.806 158.217 206.288 157.787 206.454C157.689 206.49 157.59 206.506 157.492 206.506Z" fill="#55A935"/>
<path d="M158.034 199.016C157.347 199.016 156.701 198.597 156.443 197.915C156.11 197.038 156.55 196.054 157.429 195.721C157.628 195.644 157.834 195.61 158.036 195.61C158.722 195.61 159.368 196.027 159.626 196.707C159.962 197.584 159.518 198.567 158.639 198.905C158.439 198.979 158.235 199.016 158.034 199.016Z" fill="#55A935"/>
<path d="M167.323 203.549C166.815 203.549 166.34 203.241 166.147 202.738C165.9 202.09 166.226 201.363 166.877 201.116C167.024 201.059 167.176 201.032 167.323 201.032C167.83 201.032 168.308 201.343 168.499 201.846C168.746 202.496 168.419 203.221 167.769 203.468C167.622 203.524 167.47 203.549 167.323 203.549Z" fill="#55A935"/>
<path d="M138.599 198.955C137.914 198.955 137.235 198.669 136.75 198.109C135.869 197.092 135.98 195.549 136.999 194.666C137.461 194.267 138.03 194.07 138.596 194.07C139.281 194.07 139.96 194.355 140.441 194.913C141.327 195.934 141.216 197.477 140.196 198.359C139.736 198.757 139.165 198.955 138.599 198.955Z" fill="#55A935"/>
<path d="M135.927 200.932C135.694 200.932 135.461 200.835 135.297 200.645C134.996 200.296 135.035 199.77 135.381 199.469C135.54 199.331 135.732 199.265 135.925 199.265C136.158 199.265 136.39 199.362 136.553 199.553C136.856 199.899 136.82 200.425 136.469 200.731C136.312 200.864 136.12 200.932 135.927 200.932Z" fill="#55A935"/>
<path d="M133.569 193.762C133.091 193.762 132.615 193.562 132.28 193.172C131.663 192.463 131.74 191.387 132.449 190.773C132.773 190.492 133.17 190.356 133.564 190.356C134.042 190.356 134.516 190.556 134.853 190.943C135.467 191.654 135.39 192.728 134.679 193.347C134.359 193.626 133.963 193.762 133.569 193.762Z" fill="#55A935"/>
<path d="M143.998 194.804C143.647 194.804 143.298 194.656 143.048 194.371C142.657 193.916 142.643 193.265 142.985 192.803C143.735 193.018 144.492 193.218 145.248 193.404C145.294 193.802 145.149 194.212 144.822 194.493C144.585 194.702 144.29 194.804 143.998 194.804Z" fill="#55A935"/>
<path d="M145.248 193.404C144.492 193.218 143.735 193.018 142.985 192.803C143.039 192.728 143.103 192.658 143.175 192.595C143.413 192.389 143.705 192.287 143.998 192.287C144.349 192.287 144.7 192.434 144.951 192.722C145.124 192.921 145.221 193.161 145.248 193.404Z" fill="#55A935"/>
<path d="M177.654 193.635C176.97 193.635 176.29 193.349 175.806 192.789C175.695 192.66 175.599 192.524 175.518 192.382C177.192 191.779 178.701 191.009 179.789 190.007C180.339 190.995 180.142 192.268 179.252 193.039C178.789 193.438 178.221 193.635 177.654 193.635Z" fill="#55A935"/>
<path d="M175.518 192.382C174.965 191.389 175.164 190.116 176.055 189.346C176.515 188.945 177.083 188.75 177.65 188.75C178.334 188.75 179.014 189.035 179.499 189.593C179.61 189.724 179.707 189.862 179.789 190.007C178.701 191.009 177.192 191.779 175.518 192.382Z" fill="#55A935"/>
<path d="M174.983 195.613C174.75 195.613 174.519 195.513 174.353 195.323C174.05 194.976 174.088 194.448 174.435 194.147C174.593 194.011 174.788 193.945 174.981 193.945C175.214 193.945 175.445 194.043 175.611 194.233C175.914 194.58 175.873 195.105 175.527 195.406C175.368 195.545 175.176 195.613 174.983 195.613Z" fill="#55A935"/>
<path d="M172.622 188.442C172.144 188.442 171.671 188.24 171.333 187.853C170.719 187.141 170.796 186.067 171.505 185.451C171.829 185.172 172.226 185.036 172.62 185.036C173.098 185.036 173.572 185.236 173.907 185.623C174.523 186.335 174.446 187.409 173.737 188.025C173.415 188.303 173.017 188.442 172.622 188.442Z" fill="#55A935"/>
<path d="M183.056 189.482C182.704 189.482 182.353 189.334 182.104 189.047C181.649 188.523 181.705 187.728 182.233 187.273C182.469 187.066 182.761 186.964 183.053 186.964C183.405 186.964 183.756 187.112 184.005 187.4C184.46 187.927 184.404 188.72 183.878 189.176C183.64 189.382 183.348 189.482 183.056 189.482Z" fill="#55A935"/>
<path d="M214.868 172.036C213.667 172.036 212.473 171.533 211.626 170.554C210.074 168.764 210.271 166.059 212.061 164.509C212.87 163.807 213.869 163.463 214.861 163.463C216.062 163.463 217.254 163.966 218.101 164.942C218.353 165.234 218.559 165.549 218.72 165.88C218.756 166.118 218.84 166.317 218.955 166.48C219.445 168.055 218.996 169.84 217.671 170.989C216.86 171.691 215.861 172.036 214.868 172.036Z" fill="#5EB533"/>
<path d="M208.728 174.22C208.669 173.753 208.839 173.269 209.22 172.938C209.496 172.698 209.836 172.58 210.176 172.58C210.586 172.58 210.991 172.752 211.281 173.085C211.46 173.291 211.571 173.534 211.617 173.783C211.041 173.839 210.479 173.901 209.94 173.984C209.523 174.05 209.12 174.129 208.728 174.22Z" fill="#5EB533"/>
<path d="M210.178 175.502C209.77 175.502 209.362 175.333 209.072 174.999C208.875 174.771 208.762 174.499 208.728 174.22C209.12 174.129 209.523 174.05 209.94 173.984C210.479 173.901 211.041 173.839 211.617 173.783C211.705 174.272 211.54 174.793 211.132 175.144C210.858 175.385 210.518 175.502 210.178 175.502Z" fill="#55A935"/>
<path d="M206.036 162.923C205.2 162.923 204.367 162.572 203.775 161.89C202.699 160.644 202.83 158.761 204.079 157.676C204.645 157.187 205.341 156.946 206.034 156.946C206.87 156.946 207.702 157.298 208.293 157.98C209.374 159.228 209.238 161.113 207.992 162.192C207.428 162.683 206.73 162.923 206.036 162.923Z" fill="#5EB533"/>
<path d="M224.345 164.75C224.198 164.75 224.051 164.736 223.906 164.706C224.638 163.526 225.256 162.232 225.759 160.853C225.847 160.927 225.931 161.011 226.011 161.099C226.099 161.201 226.176 161.308 226.242 161.421C225.777 162.4 225.243 163.377 224.638 164.346C224.556 164.48 224.472 164.614 224.388 164.75C224.375 164.75 224.359 164.75 224.345 164.75Z" fill="#5EB533"/>
<path d="M224.388 164.75C224.472 164.614 224.556 164.48 224.638 164.346C225.243 163.377 225.777 162.4 226.242 161.421C226.776 162.321 226.609 163.501 225.786 164.21C225.381 164.564 224.885 164.74 224.388 164.75Z" fill="#55A935"/>
<path d="M144.149 139.859C136.632 139.859 128.589 138.996 122.526 134.505C107.387 123.292 126.919 107.723 139.043 105.711C140.66 105.296 142.278 105.067 143.907 105.067C147.029 105.067 150.187 105.908 153.427 107.886C160.721 112.333 167.654 113.715 175.291 113.715C178.157 113.715 181.125 113.52 184.245 113.219C184.345 113.21 184.442 113.205 184.537 113.205C186.959 113.205 187.422 116.328 185.774 117.821C182.242 121.02 177.754 122.805 173.701 125.184C174.836 125.121 175.971 125.046 177.106 125.046C178.592 125.046 180.078 125.175 181.56 125.635C183.873 126.353 183.821 129.41 181.735 130.518C171.564 135.937 160.344 139.383 148.76 139.773C147.262 139.823 145.717 139.859 144.149 139.859Z" fill="#D4EB76"/>
<path d="M92.7097 168.112C92.0164 168.112 91.3299 167.792 90.8087 167.017C88.8557 164.124 88.0469 160.814 87.9902 157.359C88.1738 157.404 88.3618 157.427 88.5544 157.427C88.8263 157.427 89.1049 157.379 89.3768 157.275C90.5776 156.817 91.1803 155.474 90.7249 154.275C90.3715 153.346 89.4878 152.775 88.5521 152.775C88.4728 152.775 88.3935 152.78 88.3142 152.789C89.2386 146.601 91.9552 140.328 94.3772 135.418C94.6853 134.793 95.4466 134.453 96.1467 134.453C96.9691 134.453 97.7032 134.924 97.5083 135.953C95.8929 144.476 92.7912 151.889 94.4723 160.225C93.9965 159.973 93.4641 159.838 92.9158 159.838C92.5216 159.838 92.1228 159.91 91.7309 160.057C90.0112 160.712 89.1435 162.638 89.7982 164.358C90.3035 165.692 91.5723 166.512 92.9181 166.512C93.31 166.512 93.7111 166.442 94.1008 166.295C94.8009 166.027 95.3605 165.552 95.7343 164.962C95.7321 166.621 94.2027 168.112 92.7097 168.112Z" fill="#D4EB76"/>
<path d="M92.9181 166.512C91.5723 166.512 90.3035 165.692 89.7982 164.358C89.1434 162.638 90.0112 160.712 91.7308 160.057C92.1228 159.91 92.5216 159.838 92.9158 159.838C93.4641 159.838 93.9965 159.974 94.4723 160.225C94.7215 161.464 95.0795 162.726 95.5621 164.015C95.6799 164.33 95.7343 164.65 95.7343 164.963C95.3605 165.552 94.8008 166.027 94.1007 166.295C93.711 166.442 93.31 166.512 92.9181 166.512Z" fill="#8ECF5D"/>
<path d="M88.5542 157.427C88.3616 157.427 88.1736 157.404 87.9901 157.359C87.9674 155.854 88.0852 154.325 88.3141 152.789C88.3934 152.78 88.4726 152.775 88.5519 152.775C89.4877 152.775 90.3713 153.346 90.7247 154.275C91.1801 155.474 90.5775 156.817 89.3767 157.275C89.1048 157.379 88.8261 157.427 88.5542 157.427Z" fill="#8ECF5D"/>
<path d="M220.365 167.067C219.778 167.067 219.254 166.893 218.955 166.48C218.892 166.274 218.815 166.075 218.72 165.88C218.681 165.633 218.688 165.345 218.756 165.01C219.66 160.431 221.466 156.131 221.796 151.423C222.191 145.727 221.574 140.593 219.671 135.219C219.218 133.934 220.346 132.613 221.475 132.613C221.916 132.613 222.358 132.815 222.705 133.3C227.624 140.19 228.933 152.17 225.759 160.853C225.351 160.51 224.846 160.336 224.336 160.336C223.826 160.336 223.314 160.513 222.9 160.873C221.973 161.673 221.876 163.068 222.673 163.986C223.006 164.371 223.444 164.611 223.906 164.706C223.677 165.071 223.439 165.425 223.19 165.767C222.639 166.521 221.402 167.067 220.365 167.067Z" fill="#D4EB76"/>
<path d="M218.955 166.481C218.84 166.317 218.756 166.118 218.72 165.88C218.815 166.075 218.892 166.274 218.955 166.481Z" fill="#8ECF5D"/>
<path d="M223.906 164.706C223.444 164.611 223.006 164.371 222.673 163.986C221.876 163.068 221.973 161.673 222.9 160.873C223.314 160.513 223.826 160.336 224.336 160.336C224.846 160.336 225.351 160.51 225.759 160.852C225.256 162.232 224.638 163.526 223.906 164.706Z" fill="#8ECF5D"/>
<path d="M86.9706 193.156C86.3815 193.156 85.8559 192.794 85.6542 192.117C84.9383 189.704 88.253 186.908 89.9024 185.594C91.8124 184.071 93.8673 182.936 96.2553 182.408C96.3437 182.388 96.4253 182.379 96.4978 182.379C97.3859 182.379 97.1186 183.77 96.5612 184.173C94.8891 185.397 93.131 186.577 91.6832 188.07C90.2921 189.507 89.5489 191.804 87.8859 192.871C87.5869 193.064 87.2697 193.156 86.9706 193.156Z" fill="#ABE0AF"/>
<path d="M106.072 190.997C105.112 190.997 104.371 189.774 105.375 188.87C106.242 188.091 107.164 187.354 108.211 186.824C109.26 186.292 110.187 186.04 111.317 185.77C111.385 185.755 111.447 185.746 111.503 185.746C112.099 185.746 112.226 186.532 111.673 186.865C110.033 187.848 108.365 189.149 107.044 190.537C106.734 190.864 106.39 190.997 106.072 190.997Z" fill="#ABE0AF"/>
<path d="M205.588 193.984C203.456 193.981 202.441 192.37 200.83 191.145C199.267 189.955 197.479 189.053 195.796 188.054C194.327 187.182 195.626 185.324 197.003 185.324C197.157 185.324 197.314 185.347 197.465 185.397C199.523 186.076 201.328 187.146 203.272 188.077C205.078 188.945 207.128 189.579 207.588 191.725C207.81 192.756 206.8 193.936 205.774 193.979C205.71 193.981 205.649 193.984 205.588 193.984Z" fill="#ABE0AF"/>
<path d="M220.432 190.379C220.081 190.379 219.746 190.243 219.485 189.921C218.436 188.623 217.299 187.395 216.137 186.201C215.335 185.378 216.311 183.976 217.317 183.976C217.485 183.976 217.65 184.015 217.811 184.098C219.515 185.011 221.361 185.884 222.392 187.592C223.086 188.747 221.654 190.379 220.432 190.379Z" fill="#ABE0AF"/>
</svg>
