<svg width="250" height="250" viewBox="0 0 250 250" fill="none" xmlns="http://www.w3.org/2000/svg">
<path d="M99.4709 210.67C95.2106 209.742 93.0998 206.799 91.8359 203.433C92.7129 199.013 93.1557 194.068 91.305 189.882C89.465 185.723 84.3321 183.088 79.8397 181.594C75.3623 180.107 70.6399 180.049 66.0808 181.246C61.0489 182.568 58.4652 186.503 56.6403 190.512L56.5392 190.605C55.2861 195.297 53.3881 199.364 52.8207 204.243C52.264 209.06 53.0765 215.098 49.2203 219.047C48.7968 219.481 49.1966 220.169 49.8393 219.801C51.5073 218.838 52.9819 217.856 54.2759 216.618C53.4526 220.749 54.1383 224.951 54.9745 229.336C54.1254 230.669 52.9174 232.208 51.2236 232.354C50.7184 232.397 50.3617 232.911 50.5143 233.263C49.6975 233.588 48.9258 234.001 48.4207 234.254C45.8263 235.542 43.8895 238.231 43.2275 240.724C42.9094 241.926 42.099 244.168 43.9455 244.675C44.8181 244.916 45.8241 244.004 46.3529 243.544C47.7221 242.345 49.173 242.192 50.8968 241.786C50.6754 242.478 50.5379 243.198 50.5057 243.944C50.4476 245.154 50.9205 246.091 52.3929 246.104C53.2355 246.113 53.9728 245.472 54.551 245.03C56.0255 243.905 57.4979 243.2 59.1767 242.411C58.9295 242.966 58.721 243.546 58.5748 244.165C58.3126 245.266 59.2454 246.631 60.6942 246.162C62.3149 245.638 63.6455 244.724 65.0706 243.884C69.0686 241.532 72.8108 243.114 76.9894 243.701C79.5108 244.056 83.1112 243.688 85.0586 242.128L85.1832 241.982C87.1973 241.687 89.1082 240.915 90.8644 239.336C93.7619 236.726 93.1643 233.82 91.5565 231.14C92.3797 231.78 93.1192 232.472 93.6587 233.528C93.9897 234.173 94.9226 233.579 95.0107 233.111C95.5051 230.439 95.7866 227.329 95.1934 224.474C95.4191 224.386 95.6147 224.201 95.6427 223.956C96.0102 220.704 96.3476 218.32 95.2836 215.126C94.8774 213.905 94.3121 212.82 93.6286 211.799C95.3116 212.271 97.1 211.99 99.1656 211.872C99.8578 211.831 100.286 210.846 99.4709 210.67Z" fill="#201D1C"/>
<path d="M146.059 211.872C148.125 211.99 149.913 212.271 151.596 211.799C150.912 212.82 150.349 213.905 149.943 215.126C148.879 218.32 149.214 220.704 149.58 223.956C149.61 224.201 149.805 224.386 150.031 224.474C149.436 227.329 149.719 230.439 150.216 233.111C150.302 233.579 151.237 234.173 151.566 233.528C152.108 232.472 152.847 231.78 153.67 231.14C152.06 233.82 151.463 236.726 154.362 239.336C156.118 240.915 158.027 241.687 160.039 241.982L160.168 242.128C162.113 243.688 165.716 244.056 168.237 243.701C172.416 243.114 176.158 241.532 180.154 243.884C181.581 244.724 182.912 245.638 184.53 246.162C185.979 246.631 186.912 245.266 186.65 244.165C186.504 243.546 186.295 242.966 186.05 242.411C187.727 243.2 189.199 243.905 190.674 245.03C191.25 245.472 191.989 246.113 192.832 246.104C194.304 246.091 194.775 245.154 194.719 243.944C194.687 243.198 194.549 242.478 194.33 241.786C196.052 242.192 197.502 242.345 198.874 243.544C199.4 244.004 200.406 244.916 201.281 244.675C203.123 244.168 202.315 241.926 201.997 240.724C201.335 238.231 199.398 235.542 196.806 234.254C196.299 234.001 195.529 233.588 194.71 233.263C194.863 232.911 194.508 232.397 194.001 232.354C192.309 232.208 191.099 230.669 190.252 229.336C191.088 224.951 191.772 220.749 190.949 216.618C192.243 217.856 193.719 218.838 195.387 219.801C196.03 220.169 196.43 219.481 196.004 219.047C192.15 215.098 192.961 209.06 192.404 204.243C191.839 199.364 189.938 195.297 188.685 190.605L188.584 190.512C186.759 186.503 184.176 182.568 179.146 181.246C174.585 180.049 169.862 180.107 165.387 181.594C160.895 183.088 155.762 185.723 153.92 189.882C152.067 194.068 152.514 199.013 153.391 203.433C152.127 206.799 150.014 209.742 145.756 210.67C144.941 210.846 145.369 211.831 146.059 211.872Z" fill="#201D1C"/>
<path d="M46.9419 241.681C46.4067 241.975 45.9875 242.459 45.5705 242.861C44.0337 244.34 43.8918 242.611 43.9756 241.565C44.2357 238.349 47.2965 234.446 51.1699 233.618C53.0571 234.048 54.9552 234.142 56.7801 233.672C56.247 234.501 55.8321 235.387 55.542 236.275C53.6547 237.373 52.1801 238.904 51.3247 240.7C49.9404 240.896 48.1305 241.023 46.9419 241.681Z" fill="#EF7017"/>
<path d="M59.6109 241.556L59.2563 241.526C57.7302 241.951 56.333 242.607 55.0046 243.387C54.4178 243.731 53.8589 244.241 53.2979 244.602C51.6407 245.67 51.905 243.469 51.933 243.054C52.0813 240.784 53.4935 238.888 55.2754 237.33C55.2411 237.947 56.2277 237.754 56.5308 237.418C58.6007 235.144 61.7153 234.577 64.7461 233.94C63.7423 235.172 62.9792 236.61 62.3387 237.91C62.2226 238.143 62.2741 238.334 62.4096 238.467C61.2231 239.34 60.2902 240.367 59.6109 241.556Z" fill="#EF7017"/>
<path d="M68.4711 241.283C66.6376 241.444 64.832 242.601 63.3553 243.465C61.5584 244.518 59.6303 245.047 60.4514 242.429C60.9307 240.907 61.9517 239.707 63.1705 238.641L63.3725 238.564C67.0395 236.608 70.7152 234.607 75.113 235.939L75.5622 235.922C75.2978 236.711 75.1775 237.543 75.2076 238.392C75.2248 238.88 75.7256 239.103 76.2092 238.841C77.0088 238.407 77.716 237.988 78.4941 237.663C78.0062 238.658 77.4065 239.624 76.1748 240.127C75.7019 240.322 75.3301 241.049 76.0588 241.197C78.6016 241.713 81.0864 242.173 83.4509 242.123C81.138 243.456 77.6644 242.762 74.3843 242.07C72.1918 241.605 70.0853 241.141 68.4711 241.283Z" fill="#EF7017"/>
<path d="M96.1069 211.371C95.4664 211.364 94.813 211.326 94.1703 211.24L93.9381 211.253L93.3965 211.1C92.5173 210.922 91.6833 210.634 90.9503 210.208C91.866 211.996 93.1535 213.654 93.8478 215.567C94.6861 217.884 94.5443 219.915 94.4519 222.118C93.8392 220.706 92.9322 219.419 91.6081 218.367L91.4726 218.488C93.0332 220.023 93.9596 221.91 94.411 223.917L94.4089 224.061L94.5013 224.345C94.8753 226.327 94.7807 228.403 94.3809 230.374C94.4411 230.561 94.4949 230.755 94.5271 230.953C94.5916 231.34 94.0907 231.694 93.7253 231.361C92.6011 230.344 91.2104 229.663 89.7424 229.121C91.1675 231.419 91.5952 234.164 91.1631 236.758C91.1115 237.064 90.7913 237.113 90.5398 237.01C90.0884 237.848 89.3189 238.646 88.1152 239.372C84.921 241.29 81.1874 240.421 77.6042 240.159C78.3372 239.366 78.8251 238.435 79.1088 237.431C79.4097 237.339 79.7193 237.257 80.0611 237.206C80.5189 237.135 81.181 236.365 80.491 236.133C79.1647 235.692 77.8148 236.47 76.6477 237.199C76.6713 236.782 76.738 236.369 76.8218 235.959C76.6713 235.039 76.8304 234.205 77.1098 233.388C76.5918 233.923 76.1834 234.514 75.8782 235.142L75.76 235.035C72.3143 232.926 68.1207 234.658 64.7202 236.417C65.0319 235.909 65.3693 235.428 65.7261 234.966L65.767 234.643C66.6655 233.223 67.9616 232.109 69.333 231.054C67.9057 231.312 66.7407 231.965 65.7735 232.846L65.3995 232.728C62.5944 232.741 59.5271 233.751 57.2293 235.353C58.1106 233.298 59.6883 231.421 61.7174 230.19C61.9259 230.063 61.8851 229.706 61.5755 229.807C60.0451 230.316 58.7554 231.258 57.7365 232.408C56.1696 232.526 54.7616 232.705 53.2785 232.619C55.5892 231.075 56.8251 228.257 57.6183 225.764C57.6957 225.321 57.7258 224.878 57.6699 224.438L57.6506 224.317C57.1583 225.446 56.5866 226.542 55.974 227.625C55.9353 226.024 55.7956 224.425 55.6537 222.826L55.5484 222.589C54.8949 219.167 55.1958 215.782 55.7031 212.392C55.2689 213.273 54.9271 214.159 54.6628 215.044C53.6654 215.889 52.6724 216.695 51.6234 217.454C52.9819 214.976 53.2484 212.155 53.3236 209.338C53.4161 205.948 53.6074 202.644 54.2286 199.287C54.7788 196.299 56.4791 193.612 56.8445 190.613L56.8295 190.573C59.8409 186.22 62.805 183.152 68.8257 182.108C73.3955 181.313 78.1759 182.602 82.2277 184.378C86.1763 186.11 89.0674 189.003 90.0798 192.78C90.5419 194.504 90.5075 196.258 90.3614 198.016C90.2281 197.386 90.097 196.767 89.9659 196.174L89.7488 196.243C89.8541 197.455 89.9809 198.73 90.1679 200.007C90.0003 201.636 89.8627 203.263 90.0454 204.871C90.1271 205.582 90.9697 205.339 91.3802 204.918C91.9283 206.341 92.6699 207.665 93.6952 208.789C94.5314 209.439 95.4062 210.049 96.352 210.586C96.7389 210.81 96.6056 211.38 96.1069 211.371Z" fill="#41B0BE"/>
<path d="M94.5013 224.345L94.4089 224.061L94.411 223.917C93.9596 221.91 93.0332 220.023 91.4726 218.488L91.6081 218.367C92.9322 219.419 93.8392 220.706 94.4519 222.118C94.5443 219.915 94.6861 217.884 93.8478 215.567C93.1922 213.757 92.0057 212.175 91.1051 210.494C91.0793 212.059 91.0299 213.624 90.8794 215.186C90.845 215.522 90.3485 215.825 90.0648 215.5C89.45 214.793 88.8202 214.161 88.0787 213.604C88.5709 218.086 90.1894 222.443 89.4371 226.98C89.3898 227.249 88.8524 227.696 88.6224 227.292C87.5541 225.407 86.5074 223.571 84.9318 222.002C85.1424 224.513 85.6992 227.133 84.5664 229.493C84.4525 229.728 84.1129 229.813 83.8829 229.68C81.699 228.423 80.2395 226.624 78.7047 224.829C77.9202 226.361 77.6257 228.04 76.9207 229.607C76.7895 229.893 76.3897 230.117 76.1232 229.82C74.2338 227.75 73.776 225.078 72.7034 222.662C69.9091 225.306 68.226 229.085 63.9937 230.168C63.6992 230.241 63.5315 229.962 63.5939 229.753C64.1549 227.849 65.7326 226.063 65.5564 224.066C64.5569 224.562 63.4971 224.926 62.4203 225.293C62.1494 225.386 61.9065 225.265 61.8936 225.007C61.784 222.83 62.9039 220.369 62.1301 218.247C60.8189 219.468 59.5743 220.715 57.8526 221.504C57.5904 221.62 57.3346 221.454 57.326 221.216C57.2035 217.319 58.491 213.482 57.8848 209.598C56.2211 210.69 54.6692 211.893 53.0335 212.998C52.8013 214.55 52.3908 216.055 51.6234 217.454C52.6724 216.695 53.6654 215.889 54.6628 215.044C54.9271 214.159 55.2689 213.273 55.7031 212.392C55.1958 215.782 54.8949 219.167 55.5484 222.589L55.6537 222.826C55.7956 224.425 55.9353 226.024 55.974 227.625C56.5866 226.542 57.1583 225.446 57.6506 224.317L57.6699 224.438C57.7258 224.878 57.6957 225.321 57.6183 225.764C56.8251 228.257 55.5892 231.075 53.2785 232.619C54.7616 232.705 56.1696 232.526 57.7365 232.408C58.7554 231.258 60.0451 230.316 61.5755 229.807C61.8851 229.706 61.9259 230.063 61.7174 230.19C59.6883 231.421 58.1106 233.298 57.2293 235.353C59.5271 233.751 62.5944 232.741 65.3995 232.728L65.7735 232.846C66.7407 231.965 67.9057 231.312 69.333 231.054C67.9616 232.109 66.6655 233.223 65.767 234.643L65.7261 234.966C65.3693 235.428 65.0319 235.909 64.7202 236.417C68.1207 234.658 72.3143 232.926 75.76 235.035L75.8782 235.142C76.1834 234.514 76.5918 233.923 77.1098 233.388C76.8304 234.205 76.6713 235.039 76.8218 235.959C76.738 236.369 76.6713 236.782 76.6477 237.199C77.8148 236.47 79.1647 235.692 80.491 236.133C81.181 236.365 80.5189 237.135 80.0611 237.206C79.7193 237.257 79.4097 237.339 79.1088 237.431C78.8251 238.435 78.3372 239.366 77.6042 240.159C81.1874 240.421 84.921 241.29 88.1152 239.372C89.3189 238.646 90.0884 237.848 90.5398 237.01C90.7913 237.113 91.1115 237.064 91.1631 236.758C91.5952 234.164 91.1675 231.419 89.7424 229.121C91.2104 229.663 92.6011 230.344 93.7253 231.361C94.0907 231.694 94.5916 231.34 94.5271 230.953C94.4949 230.755 94.4411 230.561 94.3809 230.374C94.7807 228.403 94.8753 226.327 94.5013 224.345Z" fill="#93D8B2"/>
<path d="M193.9 240.7C193.044 238.904 191.568 237.373 189.685 236.275C189.397 235.387 188.978 234.501 188.444 233.672C190.269 234.142 192.169 234.048 194.055 233.618C197.93 234.446 200.991 238.349 201.249 241.565C201.333 242.611 201.193 244.34 199.654 242.861C199.237 242.459 198.818 241.975 198.285 241.681C197.096 241.023 195.282 240.896 193.9 240.7Z" fill="#EF7017"/>
<path d="M182.815 238.467C182.95 238.334 183.002 238.143 182.888 237.91C182.247 236.61 181.484 235.172 180.481 233.94C183.511 234.577 186.626 235.144 188.694 237.418C188.999 237.754 189.986 237.947 189.949 237.33C191.731 238.888 193.145 240.784 193.292 243.054C193.317 243.469 193.584 245.67 191.929 244.602C191.366 244.241 190.805 243.731 190.22 243.387C188.892 242.607 187.494 241.951 185.97 241.526L185.616 241.556C184.936 240.367 184.004 239.34 182.815 238.467Z" fill="#EF7017"/>
<path d="M161.774 242.123C164.138 242.173 166.623 241.713 169.166 241.197C169.892 241.049 169.525 240.322 169.05 240.127C167.82 239.624 167.218 238.658 166.73 237.663C167.508 237.988 168.216 238.407 169.015 238.841C169.499 239.103 170 238.88 170.017 238.392C170.047 237.543 169.927 236.711 169.664 235.922L170.114 235.939C174.509 234.607 178.185 236.608 181.854 238.564L182.056 238.641C183.275 239.707 184.294 240.907 184.773 242.429C185.598 245.047 183.664 244.518 181.869 243.465C180.395 242.601 178.585 241.444 176.751 241.283C175.139 241.141 173.033 241.605 170.84 242.07C167.562 242.762 164.086 243.456 161.774 242.123Z" fill="#EF7017"/>
<path d="M148.875 210.586C149.82 210.049 150.691 209.439 151.531 208.789C152.557 207.665 153.298 206.341 153.844 204.918C154.255 205.339 155.1 205.582 155.181 204.871C155.364 203.263 155.222 201.636 155.057 200.007C155.246 198.73 155.37 197.455 155.476 196.243L155.256 196.174C155.127 196.767 154.996 197.386 154.863 198.016C154.717 196.258 154.685 194.504 155.147 192.78C156.155 189.003 159.05 186.11 162.997 184.378C167.049 182.602 171.829 181.313 176.399 182.108C182.417 183.152 185.386 186.22 188.393 190.573L188.38 190.613C188.748 193.612 190.448 196.299 190.996 199.287C191.615 202.644 191.811 205.948 191.901 209.338C191.978 212.155 192.243 214.976 193.599 217.454C192.554 216.695 191.561 215.889 190.564 215.044C190.297 214.159 189.956 213.273 189.519 212.392C190.029 215.782 190.33 219.167 189.678 222.589L189.569 222.826C189.431 224.425 189.291 226.024 189.251 227.625C188.638 226.542 188.07 225.446 187.574 224.317L187.557 224.438C187.501 224.878 187.529 225.321 187.606 225.764C188.401 228.257 189.637 231.075 191.946 232.619C190.465 232.705 189.057 232.526 187.488 232.408C186.469 231.258 185.179 230.316 183.651 229.807C183.342 229.706 183.299 230.063 183.509 230.19C185.538 231.421 187.114 233.298 187.995 235.353C185.697 233.751 182.63 232.741 179.827 232.728L179.451 232.846C178.484 231.965 177.319 231.312 175.891 231.054C177.263 232.109 178.561 233.223 179.457 234.643L179.498 234.966C179.859 235.428 180.193 235.909 180.506 236.417C177.104 234.658 172.912 232.926 169.465 235.035L169.346 235.142C169.041 234.514 168.633 233.923 168.115 233.388C168.396 234.205 168.553 235.039 168.403 235.959C168.489 236.369 168.553 236.782 168.579 237.199C167.412 236.47 166.062 235.692 164.736 236.133C164.046 236.365 164.703 237.135 165.161 237.206C165.505 237.257 165.817 237.339 166.118 237.431C166.399 238.435 166.889 239.366 167.62 240.159C164.037 240.421 160.306 241.29 157.111 239.372C155.906 238.646 155.136 237.848 154.687 237.01C154.435 237.113 154.115 237.064 154.061 236.758C153.629 234.164 154.057 231.419 155.482 229.121C154.016 229.663 152.625 230.344 151.501 231.361C151.134 231.694 150.633 231.34 150.697 230.953C150.728 230.755 150.783 230.561 150.844 230.374C150.446 228.403 150.349 226.327 150.723 224.345L150.816 224.061L150.813 223.917C151.263 221.91 152.193 220.023 153.754 218.488L153.614 218.367C152.292 219.419 151.385 220.706 150.773 222.118C150.68 219.915 150.541 217.884 151.377 215.567C152.071 213.654 153.359 211.996 154.274 210.208C153.543 210.634 152.707 210.922 151.83 211.1L151.289 211.253L151.054 211.24C150.414 211.326 149.758 211.364 149.115 211.371C148.621 211.38 148.486 210.81 148.875 210.586Z" fill="#41B0BE"/>
<path d="M165.161 237.206C164.71 237.139 164.074 236.391 164.708 236.148C161.116 236.356 157.438 235.995 153.917 235.219C153.937 235.737 153.975 236.251 154.061 236.758C154.115 237.064 154.435 237.113 154.687 237.01C155.136 237.848 155.906 238.646 157.111 239.372C160.306 241.29 164.037 240.421 167.62 240.159C166.889 239.366 166.401 238.435 166.118 237.431C165.817 237.339 165.505 237.257 165.161 237.206Z" fill="#69CCB5"/>
<path d="M179.457 234.643C178.888 233.738 178.144 232.967 177.334 232.249C176.526 232.829 175.642 233.362 174.645 233.818C174.408 233.927 174.163 234.016 173.923 234.117C176.182 234.342 178.484 235.37 180.506 236.417C180.193 235.909 179.859 235.428 179.498 234.966L179.457 234.643Z" fill="#69CCB5"/>
<path d="M151.824 220.263L151.789 220.162C151.839 217.738 152.239 215.354 152.666 212.97C152.172 213.806 151.71 214.657 151.377 215.567C150.541 217.884 150.68 219.915 150.773 222.118C151.054 221.469 151.407 220.852 151.824 220.263Z" fill="#69CCB5"/>
<path d="M193.599 217.454C192.243 214.976 191.978 212.155 191.901 209.338C191.858 207.82 191.791 206.322 191.679 204.826C191.211 205.937 190.628 207.012 189.848 208.011C189.672 208.235 189.169 208.433 189.057 208.041L188.846 207.51C187.29 212.65 186.071 217.875 183.597 222.757C183.483 222.976 183.011 223.146 182.847 222.871C181.837 221.164 181.886 219.227 181.414 217.385C179.301 221.514 177.979 226.06 174.63 229.588C174.43 229.798 174.017 229.824 173.916 229.525C173.297 227.731 173.065 225.919 171.642 224.474C170.294 225.929 169.535 227.673 168.454 229.285C168.246 229.594 167.696 229.654 167.655 229.218C167.474 227.275 167.41 225.321 167.248 223.376C165.009 225.975 163.231 228.855 161.243 231.6C161.047 231.87 160.43 231.997 160.443 231.535C160.546 227.617 161.98 223.943 163.36 220.261C160.501 222.834 158.358 225.998 155.065 228.191C154.814 228.356 154.422 228.266 154.435 227.954C154.564 224.345 156.458 220.977 156.574 217.392C155.044 218.239 153.778 219.348 152.423 220.399L152.183 220.478C151.531 221.547 151.084 222.712 150.813 223.917L150.816 224.061L150.723 224.345C150.349 226.327 150.446 228.403 150.844 230.374C150.783 230.561 150.727 230.755 150.697 230.953C150.633 231.34 151.134 231.694 151.501 231.361C152.625 230.344 154.016 229.663 155.482 229.121C154.057 231.419 153.629 234.164 154.061 236.758C154.115 237.064 154.435 237.113 154.687 237.01C155.136 237.848 155.906 238.646 157.111 239.372C160.306 241.29 164.037 240.421 167.62 240.159C166.889 239.366 166.399 238.435 166.118 237.431C165.817 237.339 165.505 237.257 165.161 237.206C164.703 237.135 164.046 236.365 164.736 236.133C166.062 235.692 167.412 236.47 168.579 237.199C168.553 236.782 168.489 236.369 168.403 235.959C168.553 235.039 168.396 234.205 168.115 233.388C168.633 233.923 169.041 234.514 169.346 235.142L169.465 235.035C172.912 232.926 177.104 234.658 180.506 236.417C180.193 235.909 179.859 235.428 179.498 234.966L179.457 234.643C178.561 233.223 177.263 232.109 175.891 231.054C177.319 231.312 178.484 231.965 179.451 232.846L179.827 232.728C182.63 232.741 185.697 233.751 187.995 235.353C187.114 233.298 185.538 231.421 183.509 230.19C183.299 230.063 183.342 229.706 183.651 229.807C185.179 230.316 186.469 231.258 187.488 232.408C189.057 232.526 190.465 232.705 191.946 232.619C189.637 231.075 188.401 228.257 187.606 225.764C187.529 225.321 187.501 224.878 187.557 224.438L187.574 224.317C188.07 225.446 188.638 226.542 189.251 227.625C189.291 226.024 189.431 224.425 189.569 222.826L189.678 222.589C190.33 219.167 190.029 215.782 189.519 212.392C189.956 213.273 190.297 214.159 190.564 215.044C191.561 215.889 192.554 216.695 193.599 217.454Z" fill="#93D8B2"/>
<path d="M96.3521 210.588C95.4063 210.049 94.5314 209.438 93.6953 208.789C92.67 207.665 91.9284 206.341 91.3803 204.918L91.232 205.045C91.1396 206.786 91.1352 208.536 91.1073 210.29C91.8016 210.67 92.5797 210.935 93.3965 211.1L93.9382 211.253L94.1703 211.24C94.813 211.326 95.4686 211.364 96.107 211.371C96.6057 211.379 96.739 210.81 96.3521 210.588Z" fill="#69CCB5"/>
<path d="M46.4561 148.662C49.9339 141.719 52.7562 134.535 52.6659 126.873C52.6273 123.403 51.6385 119.076 46.6861 119.169C42.7891 119.246 37.9484 121.052 36.0697 124.22L36.2052 124.429C22.7193 136.481 12.7006 155.628 16.4472 172.732C15.2198 173.344 14.0677 174.097 12.9241 175.384C10.2738 178.361 8.21676 181.487 6.83894 185.068C5.84588 187.653 4.71097 195.422 10.0223 194.987C10.0739 195.198 10.1191 195.407 10.1835 195.622C11.1659 198.88 13.8312 203.336 18.3645 202.67L18.4763 202.631C20.1593 204.411 22.6377 205.202 26.223 204.131L26.554 203.88C28.9141 205.008 32.3683 205.823 34.348 204.082C36.3212 202.349 35.1434 199.538 33.5764 197.829C34.7951 196.879 35.283 195.428 35.1584 194.009C34.9692 191.875 34.2793 189.831 34.9692 187.679C35.526 185.932 37.3509 184.249 38.417 182.703C39.6143 180.966 40.7492 178.273 40.2204 176.22C39.8228 174.679 38.806 173.435 37.8409 172.175L38.0021 171.825C37.9205 163.366 42.6687 156.222 46.4561 148.662Z" fill="#201D1C"/>
<path d="M36.1902 172.887C37.1961 174.821 38.4342 176.698 38.2128 179.146C37.841 183.202 32.7682 185.811 33.0455 189.951C33.0993 190.779 33.7054 198.085 31.3409 195.789C30.0835 194.571 29.3076 192.851 28.5853 191.357C27.8674 189.867 27.6052 188.324 27.4461 186.772C26.855 185.089 26.4315 183.357 26.1435 181.607C25.9586 186.018 26.2058 190.009 28.192 194.218C28.7164 195.323 30.2684 198.171 32.1148 198.317C32.708 199.293 33.2905 200.155 33.6645 201.27C35.0015 205.26 28.3381 202.831 27.5557 202.532C24.9935 201.558 23.3083 199.68 22.167 197.526C20.1722 193.756 20.787 189.072 21.0665 185.059C21.0858 184.773 20.6301 184.866 20.6 185.1C19.7703 191.441 18.5967 198.725 25.0258 202.992C20.4409 202.573 18.2656 200.587 17.1479 196.226C16.2021 192.529 16.2559 188.67 16.6277 184.917C16.6557 184.61 16.1462 184.651 16.0818 184.902C15.108 188.541 14.6502 196.619 17.4123 201.225C13.7281 200.204 12.1804 196.75 11.398 193.534C10.4308 189.562 12.7974 185.044 14.2741 181.371C14.3901 180.951 14.532 180.539 14.6932 180.135L14.6266 180.186C11.57 184.528 9.02288 188.889 9.80744 193.926C3.5417 192.836 10.046 181.353 11.6474 179.2C13.6335 176.523 15.8453 173.901 19.2995 172.601C20.5097 172.145 20.6924 171.885 21.4576 171.032C21.7113 170.75 21.3115 170.468 21.002 170.632C19.7424 171.298 18.5988 171.754 17.5262 172.227C17.4596 163.633 17.81 155.839 20.9375 147.553C24.2627 138.759 30.1351 130.591 37.2649 123.799L37.3057 123.698C40.7084 121.378 45.8543 118.726 49.5815 121.684C52.0297 123.627 51.1076 128.663 50.8669 131.174C50.5143 134.83 49.2505 138.394 47.8748 141.839C45.7597 147.144 42.8493 152.2 40.3022 157.35C38.3032 161.402 36.2676 165.654 36.446 170.092C36.145 169.516 35.9129 168.912 35.8097 168.25L35.7022 168.078C35.728 169.692 35.8721 171.296 36.1902 172.887Z" fill="#52C4B7"/>
<path d="M49.5815 121.684C45.8543 118.726 40.7084 121.379 37.3057 123.698L37.2649 123.799C30.1351 130.591 24.2627 138.759 20.9375 147.553C20.5828 148.49 20.2711 149.419 19.9831 150.345C19.9186 150.846 19.8412 151.345 19.7896 151.85C22.8892 147.843 25.9436 143.8 29.8191 140.328C30.1673 140.017 30.7369 140.247 30.4833 140.685C25.0666 149.932 26.5197 161.613 29.7052 171.266C31.4162 176.457 32.0202 181.525 31.7923 186.906C31.6677 189.855 31.8826 192.595 32.9552 195.076C33.3163 193.406 33.0777 190.461 33.0455 189.951C32.7682 185.811 37.841 183.202 38.2128 179.146C38.4342 176.698 37.1961 174.821 36.1902 172.887C35.872 171.296 35.728 169.692 35.7022 168.078L35.8097 168.25C35.9129 168.912 36.145 169.516 36.4459 170.092C36.2675 165.654 38.3031 161.402 40.3022 157.35C42.8493 152.2 45.7597 147.144 47.8748 141.839C49.2505 138.394 50.5143 134.83 50.8668 131.174C51.1076 128.663 52.0297 123.627 49.5815 121.684Z" fill="#3FACB8"/>
<path d="M212.411 171.825L212.57 172.175C211.605 173.435 210.591 174.679 210.193 176.22C209.664 178.273 210.797 180.966 211.994 182.703C213.06 184.249 214.885 185.932 215.444 187.679C216.134 189.831 215.442 191.875 215.255 194.009C215.128 195.428 215.618 196.879 216.837 197.829C215.27 199.538 214.09 202.349 216.065 204.082C218.043 205.823 221.499 205.008 223.859 203.88L224.19 204.131C227.776 205.202 230.254 204.411 231.935 202.631L232.051 202.67C236.58 203.336 239.247 198.88 240.228 195.622C240.29 195.407 240.337 195.198 240.387 194.987C245.7 195.422 244.565 187.653 243.572 185.068C242.197 181.487 240.139 178.361 237.489 175.384C236.346 174.097 235.194 173.344 233.966 172.732C237.711 155.628 227.692 136.481 214.208 124.429L214.341 124.22C212.465 121.052 207.624 119.246 203.725 119.169C198.773 119.076 197.786 123.403 197.745 126.873C197.655 134.535 200.479 141.719 203.955 148.662C207.742 156.222 212.491 163.366 212.411 171.825Z" fill="#201D1C"/>
<path d="M214.711 168.078L214.604 168.25C214.5 168.912 214.268 169.516 213.965 170.092C214.144 165.654 212.11 161.402 210.107 157.35C207.564 152.2 204.654 147.144 202.539 141.839C201.161 138.394 199.897 134.83 199.544 131.174C199.306 128.663 198.381 123.627 200.832 121.684C204.559 118.726 209.705 121.378 213.105 123.698L213.146 123.799C220.276 130.591 226.153 138.759 229.474 147.553C232.605 155.839 232.949 163.633 232.887 172.227C231.812 171.754 230.671 171.298 229.409 170.632C229.102 170.468 228.702 170.75 228.956 171.032C229.719 171.885 229.904 172.145 231.112 172.601C234.568 173.901 236.78 176.523 238.766 179.2C240.365 181.353 246.872 192.836 240.604 193.926C241.39 188.889 238.841 184.528 235.787 180.186L235.722 180.135C235.881 180.539 236.023 180.951 236.139 181.371C237.616 185.044 239.98 189.562 239.015 193.534C238.231 196.75 236.685 200.204 232.999 201.225C235.763 196.619 235.303 188.541 234.329 184.902C234.265 184.651 233.755 184.61 233.786 184.917C234.155 188.67 234.211 192.529 233.263 196.226C232.143 200.587 229.97 202.573 225.385 202.992C231.817 198.725 230.645 191.441 229.811 185.1C229.783 184.866 229.328 184.773 229.347 185.059C229.626 189.072 230.241 193.756 228.244 197.526C227.105 199.68 225.418 201.558 222.858 202.532C222.075 202.831 215.41 205.26 216.747 201.27C217.123 200.155 217.703 199.293 218.299 198.317C220.143 198.171 221.697 195.323 222.219 194.218C224.205 190.009 224.455 186.018 224.268 181.607C223.98 183.357 223.556 185.089 222.967 186.772C222.808 188.324 222.546 189.867 221.826 191.357C221.104 192.851 220.332 194.571 219.072 195.789C216.706 198.085 217.314 190.779 217.368 189.951C217.643 185.811 212.57 183.202 212.198 179.146C211.977 176.698 213.215 174.821 214.221 172.887C214.541 171.296 214.687 169.692 214.711 168.078Z" fill="#52C4B7"/>
<path d="M214.604 168.25L214.711 168.078C214.687 169.692 214.541 171.296 214.221 172.887C213.215 174.821 211.977 176.698 212.198 179.146C212.57 183.202 217.643 185.811 217.368 189.951C217.333 190.469 217.084 193.522 217.482 195.177C218.408 193.332 218.862 191.277 218.907 189.01C218.98 185.265 218.587 181.545 219.214 177.817C219.99 173.198 222.662 169.067 224.003 164.587C224.775 162.01 224.928 159.777 224.715 157.18C224.532 154.919 222.819 143.636 224.799 138.084C221.628 132.9 217.637 128.076 213.146 123.799L213.105 123.698C209.705 121.378 204.559 118.726 200.832 121.684C198.381 123.627 199.306 128.663 199.544 131.174C199.897 134.83 201.161 138.394 202.539 141.839C204.654 147.144 207.564 152.2 210.107 157.35C212.11 161.402 214.144 165.654 213.965 170.092C214.268 169.516 214.5 168.912 214.604 168.25Z" fill="#3FACB8"/>
<path d="M32.1148 198.317C30.2684 198.171 28.7164 195.323 28.192 194.218C26.2058 190.009 25.9586 186.018 26.1435 181.607C26.4315 183.357 26.855 185.089 27.4461 186.772C27.6052 188.324 27.8674 189.867 28.5853 191.357C29.3076 192.851 30.0835 194.571 31.3409 195.789C33.7054 198.085 33.0993 190.779 33.0455 189.951C32.8951 187.712 34.3115 185.919 35.7044 184.105C35.1348 184.563 34.5157 184.969 33.8408 185.302C33.5399 185.452 33.0949 185.27 33.1186 184.939C33.2518 182.925 33.4109 180.939 33.0412 178.967C32.2416 181.242 31.5494 183.542 30.537 185.753C30.35 186.162 29.5569 186.153 29.5913 185.642C29.8191 182.273 29.4623 179.021 28.3467 175.831C27.9534 176.992 27.5127 178.133 26.9603 179.255C26.7776 179.629 26.2123 179.449 26.0833 179.154C25.5309 177.899 25.3052 176.584 24.9548 175.287C23.4201 178.002 22.5732 180.971 21.1932 183.748C20.9955 184.146 20.2883 183.931 20.2991 183.535C20.3614 180.646 21.06 177.884 21.8704 175.109C19.5403 176.766 17.5263 178.709 15.9034 180.941C15.667 181.267 14.964 181.168 15.0092 180.728C15.222 178.606 16.0259 176.788 17.1931 175.012C15.9184 175.537 14.6932 176.199 13.5196 176.854C12.8597 177.611 12.2407 178.4 11.6474 179.2C10.046 181.353 3.5417 192.836 9.80744 193.926C9.02288 188.889 11.57 184.528 14.6266 180.186L14.6932 180.135C14.532 180.539 14.3901 180.951 14.2741 181.371C12.7974 185.044 10.4308 189.562 11.398 193.534C12.1804 196.75 13.7281 200.204 17.4123 201.225C14.6502 196.619 15.108 188.541 16.0818 184.902C16.1462 184.651 16.6557 184.61 16.6277 184.917C16.2559 188.67 16.2021 192.529 17.1479 196.226C18.2656 200.587 20.4409 202.573 25.0258 202.992C18.5967 198.725 19.7703 191.441 20.6 185.1C20.6301 184.866 21.0858 184.773 21.0665 185.059C20.787 189.072 20.1722 193.756 22.167 197.526C23.3083 199.68 24.9935 201.558 27.5557 202.532C28.3381 202.831 35.0015 205.26 33.6645 201.27C33.2905 200.155 32.708 199.293 32.1148 198.317Z" fill="#C8E9B1"/>
<path d="M238.766 179.2C237.973 178.131 237.139 177.074 236.208 176.104C235.991 177.974 235.359 179.756 234.157 181.22C233.949 181.478 233.345 181.523 233.28 181.121C232.954 179.15 232.075 177.463 230.755 175.939C231.073 177.484 231.178 179.034 230.523 180.558C230.355 180.943 229.747 180.975 229.594 180.558C229.078 179.139 228.279 177.923 227.346 176.743C227.541 178.787 227.537 180.792 226.836 182.804C226.709 183.176 225.994 183.241 225.91 182.804C225.336 179.875 224.579 176.938 222.522 174.572C222.83 176.799 223.238 178.933 222.189 181.121C222.009 181.497 221.424 181.543 221.263 181.121C220.805 179.937 220.465 178.74 219.825 177.646C219.603 179.922 219.427 182.22 218.294 184.311C218.101 184.664 217.54 184.526 217.415 184.21C216.426 181.654 215.708 179.034 215.711 176.354C214.522 178.495 214.227 180.917 214.131 183.337C215.672 185.424 217.54 187.396 217.368 189.951C217.314 190.779 216.706 198.085 219.072 195.789C220.332 194.571 221.104 192.851 221.826 191.357C222.546 189.867 222.808 188.324 222.967 186.772C223.556 185.089 223.98 183.357 224.268 181.607C224.455 186.018 224.205 190.009 222.219 194.218C221.697 195.323 220.143 198.171 218.299 198.317C217.703 199.293 217.123 200.155 216.747 201.27C215.41 205.26 222.075 202.831 222.858 202.532C225.418 201.558 227.105 199.68 228.244 197.526C230.241 193.756 229.626 189.072 229.347 185.059C229.328 184.773 229.783 184.866 229.811 185.1C230.645 191.441 231.817 198.725 225.385 202.992C229.97 202.573 232.143 200.587 233.263 196.226C234.211 192.529 234.155 188.67 233.786 184.917C233.755 184.61 234.265 184.651 234.329 184.902C235.303 188.541 235.763 196.619 232.999 201.225C236.685 200.204 238.231 196.75 239.015 193.534C239.98 189.562 237.616 185.044 236.139 181.371C236.023 180.951 235.881 180.539 235.722 180.135L235.787 180.186C238.841 184.528 241.39 188.889 240.604 193.926C246.872 192.836 240.365 181.353 238.766 179.2Z" fill="#C8E9B1"/>
<path d="M216.674 131.924C217.8 132.588 218.924 133.256 220.027 133.964C220.508 134.271 221.175 133.871 221.102 133.364C219.825 124.626 215.178 116.753 210.668 108.984C209.314 106.654 207.551 103.877 205.445 101.274C206.203 101.911 206.96 102.551 207.717 103.192C208.084 103.501 208.703 103.14 208.731 102.751C208.951 99.8341 206.936 96.5755 204.712 94.4067C201.365 89.033 196.744 84.0462 192.238 79.586C187.956 75.3537 183.032 71.5856 177.151 69.5114C178.97 69.3008 180.756 68.7376 181.794 67.622C182.045 67.3512 181.854 67.0223 181.493 67.1255C181.534 66.9621 181.474 66.7966 181.226 66.7579L180.685 66.659C179.073 65.8422 177.091 65.6058 175.294 65.2124C175.07 65.163 174.849 65.1071 174.63 65.0512C173.626 63.7551 172.485 62.5385 171.27 61.3756C171.627 60.6319 171.971 59.8839 172.295 59.1294L172.323 59.1595C172.465 58.6844 172.644 58.2244 172.867 57.7752V57.7731C173.033 57.3647 173.205 56.9563 173.366 56.5479C174.37 53.99 176.023 50.942 175.879 48.1154C181.957 48.2724 188.169 46.5291 193.326 42.9438C195.349 41.538 197.014 39.5928 198.289 37.4282L198.366 37.0284C201.533 32.2673 201.457 26.4164 200.123 21.1781C199.579 19.0566 198.575 16.8404 197.294 14.9811C192.896 8.60362 184.732 4.59486 176.341 4.0403C170.084 3.6319 163.596 6.36609 159.407 10.4329C150.295 19.2759 148.821 31.8804 158.373 41.0802C160.286 42.9223 162.462 44.3732 164.794 45.4888C164.286 46.6925 163.865 47.9241 163.459 49.1622L163.424 49.4245C163.287 49.7405 163.173 50.0629 163.061 50.3875L162.934 50.7851C162.633 51.7395 162.386 52.7089 161.982 53.6375L161.939 53.7063C160.628 52.696 159.28 51.7072 157.827 50.9313C159.207 50.9205 160.583 50.9033 161.965 50.8539C162.427 50.8345 162.687 50.2778 162.287 50.0349C157.152 46.8988 151.25 44.6676 145.184 44.7106C145.921 44.3603 146.648 43.9884 147.368 43.5843C147.774 43.3565 147.952 42.6708 147.327 42.5698C141.508 41.639 135.412 41.581 129.62 42.7267C127.988 43.0491 125.843 43.3952 123.997 44.083C124.519 42.4623 125.061 40.8051 125.136 39.1392C125.151 38.7953 124.798 38.5395 124.411 38.6771C121.929 39.5562 117.537 41.9271 116.368 44.7042C115.592 43.4188 114.554 42.2108 113.354 41.2436C113.049 40.9964 112.647 41.2436 112.508 41.5122C111.833 42.8019 111.689 44.8138 112.495 46.211C106.197 43.1566 97.53 44.0766 91.4641 46.9956C91.0536 47.189 91.0987 47.7608 91.6146 47.7543C93.39 47.7436 94.8345 48.1434 96.3692 48.7409C91.7156 49.3686 87.206 50.8646 83.0661 52.9367C82.4599 51.0602 81.8817 49.1794 81.1122 47.3502C83.4422 46.2368 85.624 44.7859 87.5349 42.9438C97.085 33.7418 95.6126 21.1394 86.5009 12.2943C82.3116 8.22961 75.8245 5.49338 69.5695 5.90608C61.1736 6.4585 53.012 10.4672 48.6163 16.8447C47.3309 18.704 46.3293 20.9181 45.7876 23.0439C44.4485 28.28 44.3754 34.1288 47.5416 38.892L47.6168 39.2918C48.8936 41.4585 50.5594 43.3995 52.5843 44.8074C57.7366 48.3906 63.9485 50.1359 70.0294 49.979C69.8854 52.8078 71.5384 55.8536 72.5444 58.4114C72.7056 58.822 72.8754 59.2283 73.0387 59.6367C72.8281 59.8215 72.6153 60.0021 72.4046 60.1869C67.5274 64.5869 63.8282 69.8919 59.8323 74.8894C55.5183 80.2803 47.2256 88.2742 38.776 85.6518C38.1763 85.4648 37.51 86.3461 38.144 86.531L38.5051 86.6234C39.2661 88.1882 42.6515 89.1061 44.1239 89.4478C46.7935 90.0733 49.4052 90.2195 51.9566 89.8154C40.2054 95.4879 32.7531 104.464 31.1324 116.751C31.0378 117.468 32.2652 117.262 32.3232 116.647L32.3748 116.273C34.6769 112.555 38.8705 110.816 43.1631 109.296C34.6189 115.545 28.7121 126.58 29.6923 135.649L29.7954 135.842L30.077 135.89L30.0856 135.883C30.3027 135.829 30.5306 135.655 30.565 135.477L30.5821 135.391C32.1018 133.835 33.2647 132.04 34.9434 130.608C37.1531 128.721 39.5734 127.513 42.2732 126.363C31.27 136.081 30.1093 151.082 30.3543 164.755C30.3629 165.275 31.0959 165.088 31.1797 164.686C31.8288 161.612 33.0175 158.775 34.5608 156.082C29.7073 167.358 33.4044 182.551 40.5944 191.83L40.6568 191.881L40.6525 192.427C40.646 193.077 41.7165 192.885 41.7186 192.335C41.7337 188.552 41.9658 184.87 43.0061 181.321C40.9126 192.531 46.1057 207.072 59.3573 210.995C59.5572 211.053 59.7743 210.962 59.9183 210.829L60.1031 211.046L60.4299 210.818C57.8333 206.292 57.6957 201.159 58.4803 196.217C58.6178 197.82 59.1295 199.424 59.6518 200.926C61.984 207.629 70.2358 213.34 78.3157 213.297L78.3931 213.279L78.6768 213.12C78.8874 212.895 78.9197 212.521 78.5263 212.469L78.1244 212.411C74.4273 207.88 73.1419 203.108 73.3418 197.472C73.3612 196.92 73.4084 196.37 73.4729 195.819C73.7051 197.311 74.1307 198.779 74.6315 200.219C77.5204 208.557 85.3574 214.367 94.7356 216.667L94.9763 216.824C95.1827 216.938 95.4449 216.772 95.5266 216.581C95.7867 216.336 95.8383 215.898 95.3783 215.771C95.1612 215.708 94.9463 215.642 94.7313 215.577C90.9977 211.532 91.3545 203.618 91.8833 199.071C92.1197 197.027 92.6871 195.041 93.4158 193.096C94.3895 190.495 93.1837 193.67 93.0891 194.575C92.8097 197.242 93.375 199.901 94.2821 202.431C97.7836 212.185 109.711 218.946 121.011 219.541C121.436 219.562 121.808 218.939 121.282 218.86L121.191 218.845C121.183 216.454 120.117 214.275 120.368 211.745C120.731 208.119 122.877 204.808 125.155 201.812C125.695 206.012 124.848 210.477 123.158 214.251L123.367 214.498C129.31 213.933 135.305 210.838 138.991 206.678C138.383 210.066 136.696 213.421 134.348 215.326C134.052 215.567 133.985 216.229 134.542 216.257C139.759 216.521 145.347 216.285 149.636 213.381V213.376C149.051 214.842 148.268 216.211 147.23 217.344C146.936 217.664 146.97 218.135 147.533 218.144C156.232 218.264 165.363 214.417 170.978 208.342C169.791 210.655 168.065 212.744 165.98 214.537C165.724 214.756 165.675 215.283 166.144 215.33C176.382 216.34 186.336 207.052 187.658 198.237C188.889 202.418 193.702 205.333 198.375 206.145C198.745 206.208 199.063 205.872 199.026 205.571C198.904 204.54 198.635 203.65 198.274 202.661C197.543 200.673 198.038 198.444 198.543 196.453C199.102 194.254 200.14 192.144 201.103 190.046C201.485 191.871 202.113 193.541 203.018 195.273C203.282 195.783 203.989 195.469 204.262 195.164C209.898 188.853 215.313 180.186 214.748 171.87C215.438 172.71 216.125 173.549 216.766 174.419C217.071 174.836 217.649 174.572 217.832 174.206C221.542 166.864 221.744 157.756 217.57 150.592C218.926 152.088 220.177 153.64 221.338 155.276C221.598 155.645 222.243 155.377 222.262 154.99C222.63 147.176 221.043 138.854 216.674 131.924Z" fill="#231F20"/>
<path d="M158.878 38.8683C152.385 31.3343 151.585 21.6445 157.438 14.1428L157.537 14.1471C165.654 12.9928 174.458 14.908 181.757 18.0699C185.147 19.5401 188.466 21.1823 191.475 23.2028C194.676 25.3501 196.87 28.1123 199.794 30.4316C199.725 30.7863 199.656 31.1431 199.549 31.4891L199.585 31.4848C198.055 36.8585 194.85 41.5036 188.683 43.782C178.447 47.5629 166.079 47.2298 158.878 38.8683Z" fill="#DEDEB6"/>
<path d="M164.645 50.5099L164.86 50.2305C165.219 48.7603 165.501 47.3072 165.705 45.9122C168.618 47.1675 171.752 47.8919 174.946 48.0789C174.546 51.0065 173.235 54.0974 171.967 56.9025C171.631 57.8418 171.154 58.7382 170.7 59.6754L170.658 59.7312C168.863 63.4198 166.606 66.7858 164.297 70.2659L164.276 70.3304L164.001 70.6592C164.684 68.4108 165.022 66.1023 163.925 63.927C163.738 63.5616 162.919 63.3553 162.808 63.74C162.569 63.6626 162.313 63.7121 162.236 63.9936C161.694 65.9841 160.71 67.7617 159.149 69.2061C159.467 67.5618 159.162 65.8035 158.481 64.1312L158.642 63.6927L158.747 63.3789L158.997 63.2091C159.71 62.3128 160.355 61.3326 160.95 60.3073L161.028 60.0537C162.745 57.0315 163.553 53.7277 164.645 50.5099Z" fill="#42BCB6"/>
<path d="M57.225 45.6459C51.0582 43.3653 47.8533 38.7224 46.3207 33.3487L46.3573 33.353C46.2519 33.0069 46.1831 32.6501 46.1122 32.2955C49.0376 29.9762 51.2323 27.2162 54.4329 25.0689C57.4421 23.0484 60.7609 21.4018 64.1528 19.9337C71.4525 16.7719 80.2546 14.8546 88.3689 16.0088L88.4699 16.0045C94.3208 23.5062 93.5212 33.1982 87.0319 40.7321C79.829 49.0915 67.4587 49.4268 57.225 45.6459Z" fill="#DEDEB6"/>
<path d="M70.9645 49.9404C74.1565 49.7555 77.2883 49.0311 80.2009 47.7737C80.4094 49.1687 80.6909 50.6239 81.0456 52.092L81.2627 52.3736C82.3546 55.5935 83.1628 58.8951 84.8803 61.9194L84.9577 62.1709C85.5531 63.1962 86.2001 64.1764 86.9115 65.0705L87.1588 65.2425L87.2641 65.5542L87.4274 65.9948C86.7461 67.6671 86.4387 69.4254 86.7568 71.0698C85.1984 69.6232 84.214 67.8477 83.6702 65.8551C83.5949 65.5735 83.337 65.5263 83.1027 65.6037C82.9887 65.2168 82.1676 65.4274 81.9849 65.7928C80.8844 67.9659 81.224 70.2766 81.9075 72.5228L81.6324 72.194L81.6109 72.1295C79.3024 68.6473 77.0454 65.2834 75.2506 61.5948L75.2076 61.539C74.7541 60.5996 74.2769 59.7055 73.9416 58.7683C72.6712 55.9611 71.3622 52.868 70.9645 49.9404Z" fill="#42BCB6"/>
<path d="M165.705 45.9122C165.645 46.3228 165.563 46.7462 165.49 47.1675C171.53 48.5024 168.456 57.1927 164.261 64.7288C164.933 66.6655 164.6 68.686 164 70.6592L164.276 70.3304L164.297 70.2659C166.606 66.7858 168.863 63.4198 170.657 59.7312L170.7 59.6754C171.154 58.7382 171.631 57.8418 171.966 56.9025C173.235 54.0974 174.546 51.0065 174.946 48.0789C171.752 47.8919 168.618 47.1675 165.705 45.9122Z" fill="#3BA7A6"/>
<path d="M73.0195 51.8858C73.8835 52.2211 74.7798 52.6274 75.4032 53.2722C76.9852 54.908 77.8708 57.0596 78.8295 59.0092C79.9279 61.2403 80.9253 63.5038 82.0537 65.6984C82.316 65.3953 82.9973 65.2535 83.1027 65.6038C83.337 65.5264 83.5949 65.5737 83.6702 65.8553C84.214 67.8479 85.1984 69.6233 86.7568 71.0699C86.4387 69.4256 86.7461 67.6673 87.4274 65.995L87.2641 65.5543L87.1588 65.2427L86.9115 65.0707C86.2001 64.1765 85.5531 63.1964 84.9577 62.1711L84.8803 61.9196C83.1628 58.8953 82.3546 55.5937 81.2627 52.3738L81.0456 52.0922C80.6909 50.6241 80.4094 49.1688 80.2009 47.7738C77.2883 49.0313 74.1565 49.7557 70.9645 49.9405C71.0441 50.5273 71.1688 51.1206 71.3128 51.7182C71.8759 51.6967 72.4348 51.6623 73.0195 51.8858Z" fill="#3BA7A6"/>
<path d="M216.377 148.531L216.177 148.483C214.769 146.618 213.032 144.922 210.915 143.49L210.851 143.546C219.543 151.269 221.744 163.018 217.226 173.005C216.426 171.924 215.528 170.939 214.511 169.983L214.468 169.791C213.419 168.906 212.551 167.85 211.801 166.717C214.49 176.792 210.307 185.231 203.846 193.661C202.698 191.488 201.855 189.293 201.812 186.839C201.791 185.62 201.892 184.567 201.515 183.453C201.567 184.844 201.266 186.377 200.862 187.69C200.847 187.98 200.843 188.268 200.864 188.558L200.482 188.79L200.365 189.1C198.676 193.18 196.653 196.913 197.025 201.367L196.952 201.659C197.047 202.392 197.21 203.123 197.479 203.843L197.412 204.318C198.21 206.341 195.005 204.353 193.988 203.893C190.989 202.539 189.025 200.159 187.746 197.515C187.78 197.135 187.795 196.759 187.8 196.382C187.501 195.725 187.249 195.05 187.021 194.366L187.019 194.375C187.015 202.349 182.353 208.486 174.505 212.349C172.678 213.247 170.724 213.828 168.686 214.21C166.062 214.707 168.549 212.944 169.192 212.194C170.606 210.539 171.651 208.802 172.233 206.878C173.564 205.185 174.617 203.34 175.341 201.384C175.477 200.086 175.472 198.798 175.309 197.513C174.793 200.32 173.738 202.855 172.242 205.114L172.231 205.131L172.229 205.135C168.846 210.247 163.188 213.933 156.219 216.018C153.851 216.729 151.375 216.994 148.89 217.146C148.623 217.164 149.833 214.859 150.027 214.389C151.112 211.794 151.31 208.867 151.145 206.132L151.078 206.145C151 208.308 150.607 210.756 149.767 213.009L149.464 212.914C145.077 214.481 140.808 215.201 136.145 215.141C139.385 211.706 141.53 205.174 139.529 200.911C139.144 200.408 138.72 199.929 138.271 199.469C139.174 201.255 139.404 203.536 139.11 205.86C136.074 208.594 133.074 210.853 129.041 212.424C127.582 212.991 126.056 213.383 124.519 213.746C123.702 213.937 125.402 211.074 125.521 210.831C127.343 207.083 127.623 202.19 125.493 198.459C124.925 197.713 124.27 197.081 123.569 196.481C124.261 197.87 124.732 199.353 125.009 200.883C120.041 206.281 118.305 212.175 120.553 218.741C106.038 216.39 93.115 206.999 94.093 193.506C93.9296 192.567 93.8651 191.617 93.9984 190.693V190.684L93.7598 190.843C91.1245 195.422 90.542 200.563 90.7548 205.63C90.8644 208.153 91.2556 212.403 93.0977 215.057C82.9694 211.528 75.1259 203.923 74.2962 194.274C73.9888 193.253 73.7459 192.221 73.5869 191.226L73.5267 190.841L73.4837 190.921C71.7727 197.563 70.9495 206.986 76.996 212.224C66.3152 210.21 56.462 201.664 59.7292 191.299C59.8431 190.938 59.3036 190.927 59.1746 191.217C56.9305 196.262 55.5549 204.89 59.2004 209.961C46.6646 204.312 41.5768 191.955 43.578 180.012L43.4662 179.902C43.9756 178.488 44.6269 177.093 45.4673 175.726L45.2309 175.621C41.723 180.16 40.8524 185.205 40.6847 190.508C37.9914 184.369 35.1133 178.559 33.9741 171.951C32.693 164.54 34.1159 157.565 37.9721 151.011C38.2988 150.231 38.6535 149.457 39.0361 148.694L38.776 148.853C35.6657 152.552 33.1336 156.361 31.4613 160.727C31.1497 161.539 30.8444 162.573 30.6553 163.412C30.8487 162.545 31.1217 161.226 31.0787 159.99C30.9755 156.993 30.9605 154.051 31.3431 151.065C32.1019 145.124 33.9311 139.393 37.2176 134.151C38.8835 131.498 40.9921 129.456 43.2276 127.522C43.9799 126.496 44.7946 125.499 45.6587 124.51C46.0821 124.02 46.4819 123.513 46.8753 122.995C45.6049 123.775 44.4206 124.598 43.3308 125.477C43.2749 125.355 43.133 125.273 42.8773 125.325C40.1302 125.875 37.7099 127.421 35.5733 128.97C33.4561 130.507 32.1707 132.455 30.7757 134.428C31.8375 129.138 32.9294 124.231 35.8076 119.347C39.0834 113.78 43.8789 109.78 49.4697 106.031L49.6115 105.84L49.4998 105.799C47.8619 106.427 46.2756 107.246 44.7559 108.215C40.4741 108.568 35.0144 111.562 32.5361 115.052C34.2557 103.129 41.7337 94.9312 53.5709 89.4801C54.1319 89.3339 54.6929 89.1577 55.2496 88.9578L55.5226 88.6999C55.7483 88.4785 55.9375 88.2463 56.1352 88.0163L56.0535 88.0206C55.5033 88.2334 54.9766 88.4656 54.4414 88.6913C51.8835 89.4135 49.3042 89.5854 46.54 89.2845C44.8698 89.104 41.1469 88.2807 39.395 86.8255C49.2074 88.7235 57.6377 79.0681 62.517 72.9657C65.7778 68.8881 69.462 64.7116 73.6127 60.9952C75.1281 64.5031 76.9594 67.9423 79.4743 70.9645C79.8075 71.7018 80.2009 72.4283 80.6479 73.1204C76.8584 71.5255 72.1424 70.9258 69.0364 73.2881C68.6581 73.574 68.6001 74.3993 69.2729 74.4294C70.0316 74.4595 70.7797 74.567 71.5126 74.7304C70.597 74.7863 69.7436 74.9088 69.0708 75.055C66.384 75.6396 63.652 76.7982 62.5063 79.1411C62.3343 79.4872 62.7191 79.6914 63.0566 79.6248C65.0943 79.2121 67.0396 78.5307 69.0945 78.2061C71.4439 77.8299 73.9631 78.6124 76.0781 79.4055L76.1555 79.2959C74.2016 78.3781 72.3789 77.6687 70.1585 77.4774C68.1143 77.299 66.0573 78.176 64.0497 78.5973C65.4769 77.1357 67.5275 76.4951 69.7501 76.1877C72.2327 75.846 74.0576 76.5059 76.3834 76.9422L76.6005 76.9465C77.0261 77.2345 77.4409 77.5333 77.83 77.8536C78.219 78.1717 78.8316 77.6687 78.6403 77.2818C77.572 75.1452 74.6852 73.834 71.9597 73.3031C75.5859 72.3724 80.7188 74.3907 83.2445 76.1942C83.8936 76.6584 84.7126 75.9406 84.4762 75.3301C83.3778 72.4713 82.5287 69.965 82.8812 67.0739C83.496 69.1331 85.0307 70.8763 87.034 72.0693L87.1007 72.2671C87.191 72.4885 87.408 72.482 87.5993 72.3788L87.8466 72.5121C88.04 72.6088 88.3452 72.3036 88.1496 72.1768L87.9111 72.0005L87.9239 71.9167C87.5478 68.4969 88.7343 64.9739 91.0815 62.2161C91.1589 64.3033 91.1739 66.3796 91.4856 68.4582C91.5866 69.1567 92.5647 68.7548 92.7667 68.3528C93.7748 66.3237 95.215 64.8621 96.9303 63.7057C98.263 62.2978 99.8407 61.051 101.588 60.0214C97.8782 61.1994 94.6282 63.4048 92.5819 66.3496C92.3949 64.4451 92.3777 62.5385 92.2874 60.6255C92.2637 60.1526 91.52 60.2149 91.2578 60.4642C90.125 61.5433 89.0417 62.9125 88.2034 64.4086L87.8509 63.9485C86.6278 61.3326 85.2543 58.8049 84.186 56.1201C83.8937 55.3764 83.6271 54.6241 83.3735 53.8654C87.5521 51.4923 92.1068 49.7555 97.0721 49.0226L97.459 48.9624C99.6064 48.6679 101.829 48.5626 104.133 48.6722L104.189 48.5303C101.975 48.3304 99.7676 48.3605 97.5837 48.5819L97.4719 48.4594C96.0275 47.6082 94.6454 47.2364 92.9408 46.9505C94.0027 47.1267 97.732 45.7339 99.0668 45.5039C104.978 44.4829 110.377 45.865 115.465 48.4185L115.633 48.2359C115.055 47.7372 114.423 47.3073 113.771 46.9075L113.812 46.5786C113.112 45.2631 112.744 43.8101 113.148 42.4043C114.367 43.4855 115.396 44.7816 116.078 46.1659L116.084 46.1702C116.093 46.5077 116.142 46.843 116.273 47.1804C116.347 47.3782 116.693 47.2363 116.731 47.0902C117.617 43.7907 120.36 41.4284 123.807 40.0291C123.552 41.6305 122.829 43.1373 122.569 44.7322C121.649 45.2416 120.897 45.8929 120.458 46.7441C120.36 46.9418 120.669 47.03 120.807 46.8989C121.314 46.4024 121.946 45.9896 122.649 45.6371C122.933 45.8263 123.502 45.6801 123.612 45.3125L123.651 45.1857C126.094 44.2271 129.127 43.838 131.371 43.4876C135.989 42.7697 140.724 42.8278 145.347 43.4533C144.464 43.9068 143.583 44.3539 142.719 44.8418L142.708 44.8504C141.061 45.0353 139.408 45.3964 137.764 45.9703C137.504 46.0606 137.399 46.5292 137.781 46.4711C145.39 45.3233 153.558 46.671 160.269 50.0436C158.88 50.0672 157.49 50.0887 156.101 50.1467C154.683 49.6115 153.154 49.3192 151.465 49.4309H151.46L151.465 49.4331C154.842 50.3853 157.737 52.1006 160.531 54.0717C160.875 54.2565 161.213 54.4565 161.548 54.6585C160.508 57.1927 159.218 59.6002 158.057 62.085L157.707 62.5449C156.866 61.051 155.785 59.6776 154.648 58.6007C154.39 58.3535 153.642 58.289 153.621 58.7597C153.53 60.6749 153.513 62.5836 153.326 64.4859C151.28 61.5433 148.028 59.3379 144.318 58.1579C146.065 59.1875 147.645 60.4342 148.98 61.84C150.691 62.9964 152.133 64.4601 153.141 66.4871C153.343 66.8934 154.321 67.2932 154.422 66.5967C154.732 64.5182 154.751 62.4375 154.824 60.3525C157.174 63.1103 158.358 66.6333 157.984 70.0531L157.995 70.1369L157.758 70.3132C157.561 70.4422 157.866 70.7453 158.062 70.6485L158.309 70.5131C158.5 70.6184 158.719 70.6248 158.807 70.4056L158.874 70.2057C160.875 69.0128 162.412 67.2695 163.029 65.2103C163.379 68.0992 162.53 70.6077 161.432 73.4665L161.4 73.7545C163.298 72.7872 165.574 72.2305 167.556 71.7899L168.007 71.8307C170.023 71.2396 172.169 70.9817 173.948 71.4417C171.289 71.9576 168.489 73.2236 167.364 75.2678C169.151 74.7411 171.001 74.3929 172.904 74.294L173.224 74.3499C174.142 74.221 175.088 74.1779 176.158 74.3263C178.381 74.6315 180.431 75.272 181.858 76.7358C179.849 76.3124 177.794 75.4354 175.75 75.616C173.527 75.8073 171.704 76.5166 169.75 77.4323L169.83 77.5419C171.947 76.7487 174.462 75.9685 176.811 76.3382C178.866 76.6671 180.816 77.3484 182.849 77.7611C183.189 77.8299 183.572 77.6236 183.404 77.2775C182.256 74.9367 179.522 73.7738 176.837 73.1935C176.164 73.0452 175.309 72.9226 174.398 72.8667C175.131 72.7055 175.879 72.5981 176.637 72.5658C177.306 72.5358 177.248 71.7125 176.872 71.4223C173.766 69.0643 169.05 69.6619 165.258 71.2568C165.707 70.5625 166.101 69.8381 166.432 69.0987C168.119 67.076 169.495 64.8578 170.679 62.56C171.479 63.2457 172.276 63.9314 173.071 64.6364C172.476 64.4623 171.887 64.2817 171.294 64.1033C171.511 64.3634 171.706 64.6385 171.883 64.9223C172.442 65.2189 173.119 65.494 173.377 65.6058C174.254 65.9949 175.152 66.3689 176.091 66.629C176.392 66.7106 176.534 66.9148 176.56 67.1276C177.766 67.392 179.019 67.5425 180.343 67.5275L180.354 67.5296C178.189 68.153 175.801 67.9186 173.609 68.4625L173.546 68.4904C172.897 68.3486 172.242 68.2218 171.571 68.125L171.511 68.1336C173.245 69.2427 175.195 69.9736 177.097 71.0053C179.9 72.5293 182.658 74.1242 185.295 75.861C189.119 78.3759 192.384 81.5227 195.192 84.9168C198.227 88.04 201.021 91.3416 203.592 94.6539C204.508 97.0334 206.178 98.9594 207.087 101.285C205.941 100.46 204.755 99.7052 203.484 99.0345C200.911 96.3069 197.922 94.022 194.579 93.0569L194.5 93.1687C201.47 96.1543 206.438 103.63 209.896 109.41C214.019 116.291 219.158 124.336 219.816 132.255C219.281 131.864 218.737 131.511 218.174 131.182L217.791 131.178C216.115 130.684 214.277 129.755 212.695 128.553C217.942 136.405 220.577 144.449 221.207 153.569C219.732 151.781 218.292 150.012 216.377 148.531Z" fill="#7DD2B4"/>
<path d="M64.0496 78.5974C65.3028 78.3352 66.5752 77.8945 67.8499 77.643C67.132 77.6258 66.4076 77.628 65.6746 77.6796L65.3479 77.5807C64.8772 77.8666 64.4387 78.1998 64.0496 78.5974Z" fill="#7DD2B4"/>
<path d="M83.2445 76.1941C80.7188 74.3907 75.5859 72.3723 71.9597 73.303C74.6874 73.834 77.572 75.1451 78.6403 77.2817C78.8316 77.6686 78.219 78.1717 77.8299 77.8535C77.4409 77.5333 77.026 77.2344 76.6004 76.9464L76.3833 76.9421C74.0576 76.5058 72.2327 75.8459 69.7501 76.1877C68.7312 76.3295 67.7553 76.5445 66.8547 76.8712C68.7677 76.8239 70.6464 76.9894 72.5422 77.3312C72.9335 77.4021 72.884 77.731 72.6819 77.9459C73.8706 78.277 74.9926 78.7477 76.1555 79.2937L76.0781 79.4054C74.8916 78.9605 73.5804 78.5284 72.2456 78.292C70.569 79.5602 68.8322 80.7531 67.0482 81.8967C71.2869 81.6989 75.4849 81.9719 79.6936 82.4491C78.9477 81.7871 78.0858 81.2798 77.1529 80.7746C76.7875 80.5769 77.2174 80.1255 77.4818 80.0739C79.8956 79.5903 82.2257 80.1019 84.5837 80.5661C84.2741 79.5795 83.6035 78.7971 82.8533 77.9653C82.6147 77.7009 83.0489 77.3032 83.3606 77.3312C85.0372 77.4752 86.3225 78.2168 87.6638 79.0228C88.8568 76.624 90.2432 74.3584 92.3153 72.4411C92.483 72.2842 92.8398 72.1767 92.9946 72.4175C93.7705 73.6448 93.9855 75.0076 94.2585 76.3682C96.6788 72.138 99.6451 68.1185 104.189 65.4123C104.585 65.178 104.937 65.4832 104.757 65.8443C104.204 66.9449 103.626 68.0325 103.056 69.1223C105.616 67.2759 108.211 65.4316 110.276 63.1553C105.143 63.2478 101.051 66.6612 96.7927 68.8063C96.5885 68.9074 96.3327 68.8021 96.2747 68.6129C95.5739 66.285 96.8786 64.1785 98.4048 62.3149C97.8868 62.7599 97.3881 63.2198 96.9303 63.7056C95.215 64.8599 93.7748 66.3237 92.7667 68.3528C92.5646 68.7547 91.5866 69.1567 91.4856 68.4581C91.1739 66.3795 91.1589 64.3032 91.0815 62.216C88.7343 64.9738 87.5477 68.4968 87.9239 71.9166L87.911 72.0004L88.1496 72.1767C88.3452 72.3035 88.04 72.6088 87.8466 72.512L87.5993 72.3787C87.408 72.4819 87.191 72.4884 87.1007 72.267L87.034 72.0692C85.0307 70.8763 83.496 69.133 82.8812 67.0738C82.5287 69.9649 83.3778 72.4712 84.4762 75.33C84.7126 75.9405 83.8936 76.6584 83.2445 76.1941Z" fill="#41B8B7"/>
<path d="M158.876 70.2059L158.807 70.4057C158.719 70.625 158.5 70.6185 158.309 70.5132L158.061 70.6487C157.866 70.7454 157.561 70.4423 157.758 70.3133L157.995 70.1371L157.984 70.0532C158.358 66.6334 157.176 63.1104 154.824 60.3526C154.751 62.4398 154.732 64.5183 154.422 66.5969C154.321 67.2933 153.343 66.8935 153.141 66.4872C152.133 64.4603 150.691 62.9965 148.98 61.8401C148.393 61.221 147.75 60.6406 147.076 60.0882C147.43 61.494 147.892 62.8998 148.075 64.2883C148.116 64.5957 147.695 65.0385 147.338 64.7676C145.094 63.0739 142.501 61.9819 139.681 61.3715C142.839 63.8649 145.719 66.5646 147.316 70.1005C147.46 70.4229 146.998 70.9753 146.618 70.6658C144.846 69.2278 142.682 68.3594 140.427 67.7017C143.262 70.1456 145.255 73.1571 147.508 76.0503C149.139 74.3887 150.192 72.4564 151.132 70.4251C151.267 70.1306 151.802 70.064 151.92 70.3971C152.589 72.2371 152.948 73.9438 152.512 75.8053C155.856 75.4162 159.252 75.73 162.588 75.3173L162.597 75.313L163.035 75.2614L163.293 75.2292C163.893 75.1346 163.758 75.917 163.263 75.9965L162.79 76.0567C160.944 77.3292 159.059 78.5609 157.309 79.9323C161.41 79.44 165.567 78.8425 169.514 80.2998C169.901 80.4438 169.677 80.9103 169.381 81.0221C167.289 81.8066 165.058 82.2817 162.999 83.1178C168.729 82.7696 174.473 82.5224 180.053 83.7433C178.507 82.6965 176.835 81.8216 175.07 81.0328C174.63 80.835 174.984 80.2267 175.421 80.2783C177.944 80.59 180.483 80.7275 182.978 81.1359C179.754 78.9607 176.265 77.0132 172.048 77.0541L171.767 76.8865C171.098 77.0864 170.445 77.312 169.83 77.542L169.75 77.4324C170.46 77.1014 171.15 76.7961 171.85 76.5318L172.298 76.2781L172.558 76.2824C173.564 75.9514 174.604 75.7128 175.75 75.6161C177.794 75.4355 179.849 76.3125 181.858 76.736C180.431 75.2743 178.381 74.6316 176.16 74.3264C175.088 74.1781 174.142 74.2211 173.224 74.3501L172.904 74.2942C171.001 74.393 169.151 74.7413 167.364 75.2679C168.489 73.2237 171.289 71.9577 173.948 71.4418C172.169 70.9818 170.023 71.2398 168.007 71.8309L167.556 71.79C165.574 72.2306 163.298 72.7874 161.4 73.7525L161.432 73.4666C162.53 70.6078 163.379 68.0994 163.029 65.2105C162.412 67.2697 160.875 69.0129 158.876 70.2059Z" fill="#41B8B7"/>
<path d="M210.915 143.49C213.032 144.922 214.769 146.618 216.177 148.483L216.377 148.531C218.292 150.012 219.732 151.781 221.207 153.569C220.577 144.449 217.942 136.405 212.695 128.553C214.277 129.755 216.115 130.684 217.791 131.178L218.174 131.182C218.737 131.511 219.281 131.864 219.816 132.255C219.158 124.336 214.019 116.291 209.896 109.41C206.438 103.63 201.47 96.1543 194.5 93.1686L194.579 93.0569C197.922 94.022 200.911 96.3068 203.484 99.0345C204.755 99.7052 205.941 100.46 207.087 101.285C206.178 98.9594 204.508 97.0334 203.592 94.6539C202.629 93.4115 201.625 92.1777 200.598 90.9504C195.306 86.9437 191.316 81.1143 184.208 79.9041C187.193 82.7737 190.555 85.1618 192.062 89.0008C192.172 89.278 191.733 89.6714 191.415 89.5274C186.882 87.4574 182.207 86.0023 177.185 85.6841C185.375 90.7827 193.313 97.4525 194.626 106.414C194.672 106.717 194.242 107.164 193.891 106.891C191.488 105.036 189.227 102.865 186.731 101.027C193.896 108.142 199.605 116.787 198.803 126.163C198.781 126.421 198.345 126.814 198.057 126.55C196.952 125.538 196.034 124.405 195.144 123.259C196.051 126.099 196.484 129.041 196.318 131.995C199.766 137.736 202.135 144.558 198.1 149.672C197.96 149.846 197.515 150.102 197.35 149.786C195.136 145.584 192.494 138.237 186.557 137.134C188.627 142.226 193.455 145.947 194.119 151.572C194.659 156.11 194.525 161.557 190.974 165.209C190.785 165.402 190.34 165.46 190.261 165.146C189.438 161.98 188.358 158.801 186.774 155.86C186.665 155.656 186.549 155.448 186.433 155.241C187.77 163.012 187.193 171.141 181.36 177.282C181.11 177.544 180.67 177.48 180.635 177.125C180.027 170.855 180.251 160.441 173.065 156.789C175.015 164.235 181.162 173.714 173.252 179.889L172.672 179.834C171.01 176.401 170.548 172.171 168.686 168.749C168.97 172.891 168.669 177.091 167.685 181.087C166.279 186.809 163.356 192.604 157.124 195.387C156.869 195.499 156.596 195.34 156.6 195.097C156.671 188.595 158.502 181.929 155.663 175.709C154.117 178.649 154.493 182.17 152.589 185.055C152.456 185.257 152.013 185.461 151.841 185.169C147.067 177.093 148.357 166.743 139.013 161.146C137.24 168.517 141.586 176.238 137.891 183.322L137.899 183.359L137.618 183.827C137.489 184.051 137.353 184.27 137.207 184.494C136.924 184.921 136.154 184.704 136.47 184.231C136.659 183.946 136.825 183.662 136.984 183.374C135.073 175.281 131.844 166.851 124.169 161.623C124.555 169.075 128.007 177.091 123.102 183.931C122.941 184.156 122.412 184.352 122.318 183.961C121.355 180.096 120.36 176.205 118.732 172.549C118.464 176.609 117.997 180.663 117.054 184.64C115.798 189.925 113.827 195.505 109.154 199.265L108.641 199.284C101.543 192.032 98.3962 181.368 98.7788 171.814C97.8911 173.654 97.0334 175.505 96.2274 177.375C96.1178 177.628 95.4729 177.968 95.3934 177.501C94.8796 174.561 94.6625 171.644 94.6948 168.732C89.4651 174.89 84.1387 180.986 80.16 187.864C79.9709 188.189 79.3905 188.219 79.3583 187.797C78.8166 180.345 80.1944 172.919 83.913 166.212C77.4839 171.356 72.7508 177.62 68.9419 184.494C68.8129 184.722 68.196 184.911 68.153 184.522C67.9294 182.563 68.0025 180.595 67.9187 178.63C65.8595 183.028 64.6558 187.677 63.2178 192.258C63.1168 192.582 62.5343 192.789 62.3838 192.384C58.2396 181.205 58.9081 169.759 61.797 158.446C55.5506 163.768 51.3462 170.496 50.0952 178.118C50.0285 178.525 49.2332 178.806 49.2332 178.249V178.172C47.4836 173.884 47.9521 169.471 49.0699 165.069C49.6072 161.185 50.6949 157.365 52.3952 153.756L52.4661 153.459C47.9457 158.408 43.0557 163.467 41.7445 169.791C41.6649 170.176 40.8202 170.296 40.8997 169.823C42.1292 162.608 42.1163 155.267 43.4576 148.064C44.6764 141.53 47.1955 135.509 51.6708 130.247C47.4879 132.788 43.7413 135.771 40.6633 139.374C40.4118 139.666 39.8013 139.52 39.9561 139.114C43.5436 129.744 48.2079 121.054 56.1137 113.935C51.1291 114.934 46.4927 116.837 42.1744 119.231C41.7982 119.437 41.3747 119.169 41.6047 118.797C46.5227 110.831 54.0481 105.322 61.999 99.8299C55.8429 100.606 49.977 102.521 43.8789 103.587C43.5328 103.647 43.3695 103.306 43.5264 103.071C48.8055 95.2493 59.8904 90.8235 63.1082 81.9139C58.7898 83.4616 54.3318 85.97 49.5987 84.9533C46.4583 86.6471 43.0212 87.5262 39.395 86.8255C41.1469 88.2807 44.8698 89.104 46.54 89.2845C49.3042 89.5854 51.8835 89.4135 54.4414 88.6913C54.9766 88.4656 55.5033 88.2334 56.0535 88.0206L56.1352 88.0163C55.9375 88.2463 55.7483 88.4785 55.5226 88.6999L55.2496 88.9578C54.6929 89.1577 54.1319 89.3339 53.5709 89.4801C41.7337 94.9312 34.2557 103.129 32.5361 115.052C35.0144 111.562 40.4741 108.568 44.7559 108.215C46.2756 107.246 47.8619 106.427 49.4998 105.799L49.6115 105.84L49.4697 106.031C43.8789 109.78 39.0834 113.78 35.8076 119.347C32.9294 124.231 31.8375 129.138 30.7757 134.428C32.1707 132.455 33.4561 130.507 35.5733 128.97C37.7099 127.421 40.1302 125.875 42.8773 125.325C43.133 125.273 43.2749 125.355 43.3308 125.477C44.4206 124.598 45.6049 123.775 46.8753 122.995C46.4819 123.513 46.0821 124.02 45.6587 124.51C44.7946 125.499 43.9799 126.496 43.2276 127.522C40.9921 129.456 38.8835 131.498 37.2176 134.151C33.9311 139.393 32.1019 145.124 31.3431 151.065C30.9605 154.051 30.9755 156.993 31.0787 159.99C31.1217 161.226 30.8487 162.545 30.6553 163.412C30.8444 162.573 31.1497 161.539 31.4613 160.727C33.1336 156.361 35.6657 152.552 38.776 148.853L39.0361 148.694C38.6535 149.457 38.2988 150.231 37.9721 151.011C34.1159 157.565 32.693 164.54 33.9741 171.951C35.1133 178.559 37.9914 184.369 40.6847 190.508C40.8524 185.205 41.723 180.16 45.2309 175.621L45.4673 175.726C44.6269 177.093 43.9756 178.488 43.4662 179.902L43.578 180.012C41.5768 191.955 46.6646 204.312 59.2004 209.961C55.5549 204.89 56.9305 196.262 59.1746 191.217C59.3036 190.927 59.8431 190.938 59.7292 191.299C56.462 201.664 66.3152 210.21 76.996 212.224C70.9495 206.986 71.7727 197.563 73.4837 190.921L73.5267 190.841L73.5869 191.226C73.7459 192.221 73.9888 193.253 74.2962 194.274C75.1259 203.923 82.9694 211.528 93.0977 215.057C91.2556 212.403 90.8644 208.153 90.7548 205.63C90.542 200.563 91.1245 195.422 93.7598 190.843L93.9984 190.684V190.693C93.8651 191.617 93.9296 192.567 94.093 193.506C93.115 206.999 106.038 216.39 120.553 218.741C118.305 212.175 120.041 206.281 125.009 200.883C124.732 199.353 124.261 197.87 123.569 196.481C124.27 197.081 124.925 197.713 125.493 198.459C127.623 202.19 127.343 207.083 125.521 210.831C125.402 211.074 123.702 213.937 124.519 213.746C126.056 213.383 127.582 212.991 129.041 212.424C133.074 210.853 136.074 208.594 139.11 205.86C139.404 203.536 139.174 201.255 138.271 199.469C138.72 199.929 139.144 200.408 139.529 200.911C141.53 205.174 139.385 211.706 136.145 215.141C140.808 215.201 145.077 214.481 149.464 212.914L149.767 213.009C150.607 210.756 151 208.308 151.078 206.145L151.145 206.132C151.31 208.867 151.112 211.794 150.027 214.389C149.833 214.859 148.623 217.164 148.89 217.146C151.375 216.994 153.851 216.729 156.219 216.018C163.188 213.933 168.846 210.247 172.229 205.135L172.231 205.131L172.242 205.114C173.738 202.855 174.793 200.32 175.309 197.513C175.472 198.798 175.477 200.086 175.341 201.384C174.617 203.34 173.564 205.185 172.233 206.878C171.651 208.802 170.606 210.539 169.192 212.194C168.549 212.944 166.062 214.707 168.686 214.21C170.724 213.828 172.678 213.247 174.505 212.349C182.353 208.486 187.015 202.349 187.019 194.375L187.021 194.366C187.249 195.05 187.501 195.725 187.8 196.382C187.795 196.759 187.78 197.135 187.746 197.515C189.025 200.159 190.989 202.539 193.988 203.893C195.005 204.353 198.21 206.341 197.412 204.318L197.479 203.843C197.21 203.123 197.047 202.392 196.952 201.659L197.025 201.367C196.653 196.913 198.676 193.18 200.365 189.1L200.482 188.79L200.864 188.558C200.843 188.268 200.847 187.98 200.862 187.69C201.266 186.377 201.567 184.844 201.515 183.453C201.892 184.567 201.791 185.62 201.812 186.839C201.855 189.293 202.698 191.488 203.846 193.661C210.307 185.231 214.49 176.792 211.801 166.717C212.551 167.85 213.419 168.906 214.468 169.791L214.511 169.983C215.528 170.939 216.426 171.924 217.226 173.005C221.744 163.018 219.543 151.269 210.851 143.546L210.915 143.49Z" fill="#41B8B7"/>
<path d="M210.915 143.49C213.032 144.922 214.769 146.618 216.177 148.483L216.377 148.531C218.292 150.012 219.732 151.781 221.207 153.569C220.577 144.449 217.942 136.405 212.695 128.553C214.277 129.755 216.115 130.684 217.791 131.178L218.174 131.182C218.737 131.511 219.281 131.864 219.816 132.255C219.158 124.336 214.019 116.291 209.896 109.41C206.438 103.63 201.47 96.1543 194.5 93.1686L194.579 93.0569C197.922 94.022 200.911 96.3068 203.484 99.0345C204.755 99.7052 205.941 100.46 207.087 101.285C206.178 98.9594 204.508 97.0334 203.592 94.6539C202.629 93.4115 201.625 92.1777 200.598 90.9504C195.306 86.9437 191.316 81.1143 184.208 79.9041C187.193 82.7737 190.555 85.1618 192.062 89.0008C192.172 89.278 191.733 89.6714 191.415 89.5274C186.882 87.4574 182.207 86.0023 177.185 85.6841C185.375 90.7827 193.313 97.4525 194.626 106.414C194.672 106.717 194.242 107.164 193.891 106.891C191.488 105.036 189.227 102.865 186.731 101.027C193.896 108.142 199.605 116.787 198.803 126.163C198.781 126.421 198.345 126.814 198.057 126.55C196.952 125.538 196.034 124.405 195.144 123.259C196.051 126.099 196.484 129.041 196.318 131.995C199.766 137.736 202.135 144.558 198.1 149.672C197.96 149.846 197.515 150.102 197.35 149.786C195.136 145.584 192.494 138.237 186.557 137.134C188.627 142.226 193.455 145.947 194.119 151.572C194.659 156.11 194.525 161.557 190.974 165.209C190.785 165.402 190.34 165.46 190.261 165.146C189.438 161.98 188.358 158.801 186.774 155.86C186.665 155.656 186.549 155.448 186.433 155.241C187.77 163.012 187.193 171.141 181.36 177.282C181.11 177.544 180.67 177.48 180.635 177.125C180.027 170.855 180.251 160.441 173.065 156.789C175.015 164.235 181.162 173.714 173.252 179.889L172.672 179.834C171.01 176.401 170.548 172.171 168.686 168.749C168.97 172.891 168.669 177.091 167.685 181.087C166.279 186.809 163.356 192.604 157.124 195.387C156.869 195.499 156.596 195.34 156.6 195.097C156.671 188.595 158.502 181.929 155.663 175.709C154.117 178.649 154.493 182.17 152.589 185.055C152.456 185.257 152.013 185.461 151.841 185.169C147.067 177.093 148.357 166.743 139.013 161.146C137.24 168.517 141.586 176.238 137.891 183.322L137.899 183.359L137.618 183.827C137.489 184.051 137.353 184.27 137.207 184.494C136.924 184.921 136.154 184.704 136.47 184.231C136.659 183.946 136.825 183.662 136.984 183.374C135.073 175.281 131.844 166.851 124.169 161.623C124.555 169.075 128.007 177.091 123.102 183.931C122.941 184.156 122.412 184.352 122.318 183.961C121.355 180.096 120.36 176.205 118.732 172.549C118.464 176.609 117.997 180.663 117.054 184.64C115.798 189.925 113.827 195.505 109.154 199.265L108.641 199.284C101.543 192.032 98.3962 181.368 98.7788 171.814C97.8911 173.654 97.0334 175.505 96.2274 177.375C96.1178 177.628 95.4729 177.968 95.3934 177.501C94.8796 174.561 94.6625 171.644 94.6948 168.732C89.4651 174.89 84.1387 180.986 80.16 187.864C79.9709 188.189 79.3905 188.219 79.3583 187.797C78.8166 180.345 80.1944 172.919 83.913 166.212C77.4839 171.356 72.7508 177.62 68.9419 184.494C68.8129 184.722 68.196 184.911 68.153 184.522C67.9294 182.563 68.0025 180.595 67.9187 178.63C65.8595 183.028 64.6558 187.677 63.2178 192.258C63.1168 192.582 62.5343 192.789 62.3838 192.384C58.2396 181.205 58.9081 169.759 61.797 158.446C55.5506 163.768 51.3462 170.496 50.0952 178.118C50.0285 178.525 49.2332 178.806 49.2332 178.249V178.172C47.4836 173.884 47.9521 169.471 49.0699 165.069C49.6072 161.185 50.6949 157.365 52.3952 153.756L52.4661 153.459C47.9457 158.408 43.0557 163.467 41.7445 169.791C41.6649 170.176 40.8202 170.296 40.8997 169.823C42.1292 162.608 42.1163 155.267 43.4576 148.064C44.6764 141.53 47.1955 135.509 51.6708 130.247C47.4879 132.788 43.7413 135.771 40.6633 139.374C40.4118 139.666 39.8013 139.52 39.9561 139.114C43.5436 129.744 48.2079 121.054 56.1137 113.935C51.1291 114.934 46.4927 116.837 42.1744 119.231C41.7982 119.437 41.3747 119.169 41.6047 118.797C46.5227 110.831 54.0481 105.322 61.999 99.8299C55.8429 100.606 49.977 102.521 43.8789 103.587C43.5328 103.647 43.3695 103.306 43.5264 103.071C48.8055 95.2493 59.8904 90.8235 63.1082 81.9139C58.7898 83.4616 54.3318 85.97 49.5987 84.9533C46.4583 86.6471 43.0212 87.5262 39.395 86.8255C41.1469 88.2807 44.8698 89.104 46.54 89.2845C49.3042 89.5854 51.8835 89.4135 54.4414 88.6913C54.9766 88.4656 55.5033 88.2334 56.0535 88.0206L56.1352 88.0163C55.9375 88.2463 55.7483 88.4785 55.5226 88.6999L55.2496 88.9578C54.6929 89.1577 54.1319 89.3339 53.5709 89.4801C41.7337 94.9312 34.2557 103.129 32.5361 115.052C35.0144 111.562 40.4741 108.568 44.7559 108.215C46.2756 107.246 47.8619 106.427 49.4998 105.799L49.6115 105.84L49.4697 106.031C43.8789 109.78 39.0834 113.78 35.8076 119.347C32.9294 124.231 31.8375 129.138 30.7757 134.428C32.1707 132.455 33.4561 130.507 35.5733 128.97C37.7099 127.421 40.1302 125.875 42.8773 125.325C43.133 125.273 43.2749 125.355 43.3308 125.477C44.4206 124.598 45.6049 123.775 46.8753 122.995C46.4819 123.513 46.0821 124.02 45.6587 124.51C44.7946 125.499 43.9799 126.496 43.2276 127.522C40.9921 129.456 38.8835 131.498 37.2176 134.151C33.9311 139.393 32.1019 145.124 31.3431 151.065C30.9605 154.051 30.9755 156.993 31.0787 159.99C31.1217 161.226 30.8487 162.545 30.6553 163.412C30.8444 162.573 31.1497 161.539 31.4613 160.727C33.1336 156.361 35.6657 152.552 38.776 148.853L39.0361 148.694C38.6535 149.457 38.2988 150.231 37.9721 151.011C34.1159 157.565 32.693 164.54 33.9741 171.951C35.1133 178.559 37.9914 184.369 40.6847 190.508C40.8524 185.205 41.723 180.16 45.2309 175.621L45.4673 175.726C44.6269 177.093 43.9756 178.488 43.4662 179.902L43.578 180.012C41.5768 191.955 46.6646 204.312 59.2004 209.961C55.5549 204.89 56.9305 196.262 59.1746 191.217C59.3036 190.927 59.8431 190.938 59.7292 191.299C56.462 201.664 66.3152 210.21 76.996 212.224C70.9495 206.986 71.7727 197.563 73.4837 190.921L73.5267 190.841L73.5869 191.226C73.7459 192.221 73.9888 193.253 74.2962 194.274C75.1259 203.923 82.9694 211.528 93.0977 215.057C91.2556 212.403 90.8644 208.153 90.7548 205.63C90.542 200.563 91.1245 195.422 93.7598 190.843L93.9984 190.684V190.693C93.8651 191.617 93.9296 192.567 94.093 193.506C93.115 206.999 106.038 216.39 120.553 218.741C118.305 212.175 120.041 206.281 125.009 200.883C124.732 199.353 124.261 197.87 123.569 196.481C124.27 197.081 124.925 197.713 125.493 198.459C127.623 202.19 127.343 207.083 125.521 210.831C125.402 211.074 123.702 213.937 124.519 213.746C126.056 213.383 127.582 212.991 129.041 212.424C133.074 210.853 136.074 208.594 139.11 205.86C139.404 203.536 139.174 201.255 138.271 199.469C138.72 199.929 139.144 200.408 139.529 200.911C141.53 205.174 139.385 211.706 136.145 215.141C140.808 215.201 145.077 214.481 149.464 212.914L149.767 213.009C150.607 210.756 151 208.308 151.078 206.145L151.145 206.132C151.31 208.867 151.112 211.794 150.027 214.389C149.833 214.859 148.623 217.164 148.89 217.146C151.375 216.994 153.851 216.729 156.219 216.018C163.188 213.933 168.846 210.247 172.229 205.135L172.231 205.131L172.242 205.114C173.738 202.855 174.793 200.32 175.309 197.513C175.472 198.798 175.477 200.086 175.341 201.384C174.617 203.34 173.564 205.185 172.233 206.878C171.651 208.802 170.606 210.539 169.192 212.194C168.549 212.944 166.062 214.707 168.686 214.21C170.724 213.828 172.678 213.247 174.505 212.349C182.353 208.486 187.015 202.349 187.019 194.375L187.021 194.366C187.249 195.05 187.501 195.725 187.8 196.382C187.795 196.759 187.78 197.135 187.746 197.515C189.025 200.159 190.989 202.539 193.988 203.893C195.005 204.353 198.21 206.341 197.412 204.318L197.479 203.843C197.21 203.123 197.047 202.392 196.952 201.659L197.025 201.367C196.653 196.913 198.676 193.18 200.365 189.1L200.482 188.79L200.864 188.558C200.843 188.268 200.847 187.98 200.862 187.69C201.266 186.377 201.567 184.844 201.515 183.453C201.892 184.567 201.791 185.62 201.812 186.839C201.855 189.293 202.698 191.488 203.846 193.661C210.307 185.231 214.49 176.792 211.801 166.717C212.551 167.85 213.419 168.906 214.468 169.791L214.511 169.983C215.528 170.939 216.426 171.924 217.226 173.005C221.744 163.018 219.543 151.269 210.851 143.546L210.915 143.49Z" fill="#41B8B7"/>
<path d="M45.4673 175.726C44.6269 177.093 43.9756 178.488 43.4662 179.902L43.578 180.012C42.7891 184.719 43.1201 189.487 44.556 193.887C45.3964 191.063 46.4583 188.275 47.3288 185.452C47.4449 185.072 48.1392 184.932 48.1736 185.418C48.5175 190.461 49.6395 195.42 52.0921 199.996C53.6053 193.464 55.039 186.828 59.2305 181.141L59.7335 180.891C58.964 173.428 59.8904 165.909 61.797 158.446C55.5506 163.768 51.3462 170.496 50.0952 178.118C50.0285 178.525 49.2332 178.806 49.2332 178.25V178.172C47.4836 173.884 47.9521 169.471 49.0699 165.069C49.6072 161.185 50.6949 157.365 52.3952 153.756L52.4661 153.46C47.9457 158.408 43.0557 163.468 41.7445 169.791C41.6649 170.176 40.8202 170.296 40.8997 169.824C42.1313 162.608 42.1163 155.267 43.4576 148.064C44.6764 141.53 47.1955 135.509 51.6729 130.247C47.4879 132.788 43.7435 135.771 40.6633 139.374C40.4118 139.666 39.8013 139.52 39.9561 139.114C43.5436 129.744 48.2079 121.054 56.1137 113.935C51.1291 114.932 46.4927 116.837 42.1744 119.231C41.7982 119.438 41.3747 119.169 41.6047 118.797C46.5227 110.831 54.0481 105.322 61.999 99.83C55.8429 100.606 49.977 102.521 43.881 103.587C43.5328 103.647 43.3695 103.306 43.5264 103.071C48.8055 95.2494 59.8904 90.8236 63.1082 81.914C58.7898 83.4616 54.3318 85.9701 49.5987 84.9534C46.4583 86.6472 43.0212 87.5263 39.395 86.8256C41.1469 88.2808 44.8698 89.104 46.54 89.2846C49.3042 89.5855 51.8835 89.4136 54.4414 88.6892C54.9766 88.4657 55.5033 88.2335 56.0535 88.0207L56.1352 88.0164C55.9375 88.2464 55.7483 88.4786 55.5248 88.6978L55.2496 88.9579C54.6929 89.1578 54.1319 89.334 53.5709 89.4802C41.7337 94.9313 34.2557 103.129 32.5361 115.053C35.0144 111.562 40.4741 108.568 44.7559 108.215C46.2756 107.248 47.8619 106.427 49.4998 105.797L49.6137 105.84L49.4697 106.031C43.881 109.78 39.0834 113.78 35.8076 119.347C32.9294 124.231 31.8375 129.138 30.7757 134.428C32.1707 132.455 33.4561 130.507 35.5733 128.97C37.7099 127.421 40.1302 125.875 42.8773 125.325C43.133 125.273 43.2749 125.355 43.3308 125.478C44.4184 124.598 45.6049 123.775 46.8753 122.995C46.4819 123.513 46.0821 124.02 45.6587 124.51C44.7946 125.499 43.9799 126.496 43.2276 127.522C40.9921 129.456 38.8835 131.498 37.2176 134.151C33.9311 139.393 32.1019 145.124 31.3431 151.065C30.9605 154.051 30.9755 156.993 31.0787 159.99C31.1217 161.226 30.8509 162.545 30.6553 163.412C30.8444 162.573 31.1497 161.539 31.4613 160.727C33.1336 156.361 35.6657 152.552 38.776 148.853L39.0361 148.694C38.6535 149.457 38.2988 150.231 37.9721 151.011C34.1159 157.565 32.693 164.54 33.9741 171.952C35.1133 178.559 37.9914 184.369 40.6847 190.508C40.8524 185.205 41.723 180.16 45.2309 175.621L45.4673 175.726Z" fill="#41B8B7"/>
<path d="M172.229 205.137L172.231 205.131L172.242 205.114C172.745 204.355 173.179 203.551 173.576 202.728C172.616 203.575 171.605 204.353 170.64 205.041C165.245 208.873 158.883 212.162 152.316 214.202C151.991 214.303 151.736 214.111 151.809 213.813C152.806 209.737 154.951 205.524 153.326 201.395C150.029 205.004 147.363 209.088 142.809 211.62C142.495 211.794 142.086 211.65 142.194 211.287C144.264 204.331 141.463 196.359 134.976 191.894C134.716 196.649 134.617 201.475 131.04 205.365C130.858 205.563 130.402 205.615 130.327 205.303C129 199.916 126.963 193.932 122.068 190.19C120.761 198.388 119.233 206.605 116.099 214.44C116.005 214.675 115.749 214.857 115.459 214.776C99.5719 210.3 97.7276 195.733 95.518 183.251C89.6477 189.534 88.1861 197.857 85.6519 205.458C85.5831 205.662 85.1575 205.986 84.9232 205.739C79.5409 200.088 75.9061 193.332 74.4058 186.095C70.5603 190.891 69.664 197.09 68.024 202.648C67.9444 202.921 67.4436 203.177 67.2308 202.861C62.9297 196.546 60.6706 189.511 59.3443 182.297C55.4409 188.07 54.1748 194.742 52.6423 201.245C52.5799 201.509 52.0361 201.782 51.847 201.457C49.3041 197.111 48.0209 192.393 47.49 187.57C46.6345 190.121 45.708 192.657 45.0202 195.235C47.4126 201.432 52.1156 206.767 59.2003 209.961C55.5548 204.89 56.9305 196.262 59.1745 191.217C59.3035 190.927 59.843 190.938 59.7291 191.299C56.4619 201.664 66.3151 210.21 76.9959 212.224C70.9494 206.986 71.7726 197.563 73.4836 190.921L73.5266 190.841L73.5868 191.226C73.7459 192.221 73.9888 193.253 74.2961 194.274C75.1258 203.923 82.9693 211.528 93.0977 215.057C91.2577 212.403 90.8644 208.153 90.7547 205.63C90.5419 200.563 91.1244 195.422 93.7597 190.843L93.9983 190.684V190.693C93.865 191.617 93.9295 192.567 94.0929 193.506C93.1149 206.999 106.038 216.39 120.553 218.741C118.307 212.175 120.041 206.283 125.009 200.883C124.732 199.353 124.261 197.87 123.569 196.481C124.269 197.081 124.925 197.713 125.492 198.459C127.623 202.19 127.343 207.083 125.52 210.831C125.402 211.074 123.702 213.937 124.519 213.746C126.056 213.383 127.582 212.991 129.041 212.424C133.074 210.853 136.074 208.594 139.109 205.86C139.404 203.536 139.174 201.255 138.271 199.469C138.72 199.929 139.144 200.408 139.531 200.911C141.53 205.174 139.385 211.708 136.145 215.141C140.808 215.201 145.076 214.481 149.464 212.914L149.767 213.009C150.607 210.756 151 208.308 151.078 206.145L151.144 206.132C151.31 208.867 151.112 211.794 150.027 214.389C149.833 214.859 148.623 217.164 148.892 217.146C151.374 216.994 153.851 216.729 156.219 216.018C163.188 213.933 168.845 210.247 172.229 205.137Z" fill="#3C9FB2"/>
<path d="M209.66 163.407C209.501 163.682 208.989 163.831 208.847 163.461C208.503 162.56 208.14 161.552 207.672 160.587C206.881 159.586 206.027 158.627 205.105 157.72L205.038 157.372L204.942 157.303C205.503 165.23 208.276 174.426 202.19 181.216C202.025 181.405 201.526 181.472 201.477 181.153C201.161 179.184 200.555 177.405 199.424 175.72C197.036 182.056 195.49 188.595 193.657 195.065C193.597 195.282 193.16 195.587 192.928 195.349C190.16 192.524 188.528 188.965 185.665 186.22C185.609 194.184 182.222 203.57 173.789 207.461C173.478 207.605 173.2 207.345 173.28 207.074C173.551 206.191 173.746 205.311 173.886 204.439C173.396 205.279 172.848 206.096 172.233 206.878C171.651 208.802 170.606 210.541 169.192 212.194C168.549 212.944 166.062 214.707 168.686 214.212C170.724 213.828 172.678 213.247 174.505 212.349C182.353 208.486 187.015 202.349 187.019 194.375L187.021 194.366C187.249 195.05 187.501 195.725 187.8 196.383C187.795 196.759 187.78 197.135 187.746 197.515C189.025 200.159 190.989 202.539 193.986 203.893C195.005 204.353 198.21 206.341 197.412 204.318L197.479 203.843C197.21 203.123 197.047 202.392 196.952 201.66L197.025 201.367C196.653 196.913 198.676 193.18 200.365 189.1L200.482 188.791L200.864 188.558C200.843 188.268 200.847 187.98 200.862 187.69C201.266 186.377 201.567 184.844 201.515 183.453C201.892 184.567 201.791 185.62 201.812 186.839C201.855 189.293 202.698 191.488 203.845 193.661C209.993 185.642 214.064 177.609 212.132 168.173C211.442 166.526 210.619 164.931 209.66 163.407Z" fill="#3C9FB2"/>
<path d="M210.915 143.49C213.032 144.92 214.769 146.618 216.177 148.483L216.377 148.531C218.292 150.012 219.732 151.781 221.207 153.569C220.577 144.449 217.942 136.406 212.695 128.553C214.277 129.755 216.115 130.684 217.791 131.178L218.174 131.182C218.737 131.511 219.281 131.866 219.816 132.255C219.268 125.665 215.62 118.99 212.033 112.972C212.979 117.228 213.512 121.548 213.546 125.884C213.548 126.165 213.088 126.501 212.798 126.269C210.369 124.304 208.39 121.957 205.935 120.029C209.544 127.427 214.399 134.52 215.457 142.639C215.494 142.901 215.173 143.335 214.812 143.166C212.08 141.876 209.954 139.92 207.543 138.256C209.359 143.542 211.936 148.625 213.415 153.995C214.109 156.52 214.614 159.106 214.707 161.709C214.935 162.681 215.141 163.657 215.311 164.639C215.58 164.566 215.874 164.684 215.771 165.017C215.676 165.323 215.59 165.626 215.502 165.933C215.762 167.749 215.915 169.583 215.915 171.436C216.377 171.943 216.822 172.459 217.226 173.005C221.744 163.018 219.543 151.269 210.851 143.546L210.915 143.49Z" fill="#3C9FB2"/>
<path d="M81.8946 22.7389C79.5947 19.3943 75.4569 17.3995 71.1085 16.8943C68.5828 17.638 66.0465 18.3925 63.6735 19.3834C61.7755 20.2733 59.8968 21.1869 58.0095 22.094C57.6119 22.2939 57.2056 22.4766 56.808 22.6722C53.4763 28.0653 54.9014 35.8184 61.2059 39.0577C69.333 43.2342 81.0305 38.4924 82.9779 30.4103C83.4981 28.2652 83.2123 24.6605 81.8946 22.7389Z" fill="#D63D2B"/>
<path d="M191.073 22.6958C188.006 21.2341 185.265 19.3275 182.17 17.883C178.841 16.3311 175.193 15.495 171.749 14.1795C170.797 14.4976 169.877 14.9211 169.005 15.4671C163.124 19.162 160.714 27.1603 165.245 32.4652C170.888 39.0727 183.769 38.675 189.141 31.8869C190.568 30.0835 191.899 26.6637 191.531 24.4455C191.432 23.8458 191.275 23.2632 191.073 22.6958Z" fill="#D63D2B"/>
<path d="M161.127 10.4203C165.806 6.66088 170.817 5.29597 175.786 5.54316C181.732 5.36475 189.008 7.76357 192.679 11.6154C195.555 13.6704 197.406 16.873 198.5 20.0865C199.458 22.9066 200.284 26.3115 199.94 29.4604C194.463 23.9406 188.758 19.6158 180.889 16.6151C173.811 13.9196 166.169 12.0517 158.429 12.9653C159.229 12.0818 160.125 11.2264 161.127 10.4203Z" fill="#7DD2B4"/>
<path d="M198.5 20.0865C198.087 18.8806 197.571 17.6748 196.933 16.5312C196.507 17.0707 195.978 17.5695 195.368 18.0102C192.537 20.0522 188.861 19.1214 185.876 17.8596C180.893 15.7532 176.336 13.4361 170.776 12.6364C166.883 12.0776 162.988 12.0625 159.091 12.2903C158.87 12.516 158.635 12.7353 158.429 12.9653C166.169 12.0517 173.811 13.9196 180.889 16.6151C188.758 19.6158 194.463 23.9406 199.94 29.4604C200.284 26.3115 199.458 22.9066 198.5 20.0865Z" fill="#55B9A9"/>
<path d="M47.4105 21.9496C48.5024 18.7383 50.3531 15.5335 53.2292 13.4807C56.9005 9.62668 64.1765 7.2257 70.122 7.40411C75.0873 7.15692 80.102 8.52398 84.7814 12.2856C85.7831 13.0916 86.6794 13.9429 87.4812 14.8306C79.7387 13.915 72.0973 15.7806 65.0191 18.4782C57.1498 21.4789 51.4451 25.8037 45.9682 31.3236C45.6243 28.1746 46.4497 24.7676 47.4105 21.9496Z" fill="#7DD2B4"/>
<path d="M84.7814 12.2856C83.1908 11.0066 81.5615 10.0115 79.9086 9.25699C79.8226 9.98781 79.5195 10.7423 78.9542 11.4774C77.7526 13.0401 75.4054 13.5495 73.4623 14.0117C70.0618 14.8156 66.7257 15.9204 63.523 17.2058C60.4063 18.4611 57.5518 19.9421 54.8198 21.7691C52.6144 23.2437 50.1231 25.6425 47.5158 26.5539C46.9828 26.7388 46.5357 26.8161 46.1531 26.8247C45.908 28.3229 45.8091 29.8512 45.9682 31.3236C51.4451 25.8037 57.1498 21.4789 65.0191 18.4782C72.0973 15.7806 79.7388 13.915 87.4812 14.8306C86.6794 13.9429 85.7831 13.0916 84.7814 12.2856Z" fill="#55B9A9"/>
<path d="M68.8021 19.9533C65.5951 20.0285 62.4762 21.2579 60.7201 23.7664C58.0203 27.6183 58.9575 33.4606 63.609 35.8508C69.404 38.8279 77.7483 35.4488 79.1347 29.6861C79.5087 28.1535 79.3045 25.5827 78.363 24.2113C76.3962 21.3482 72.54 19.8673 68.8021 19.9533Z" fill="#531815"/>
<path d="M72.5873 19.4328C70.5797 19.4801 68.628 20.2497 67.5296 21.8188C65.838 24.2305 66.4269 27.8867 69.3373 29.3828C72.9656 31.2485 78.1867 29.1314 79.0572 25.5245C79.2894 24.5659 79.1626 22.9559 78.5736 22.0983C77.3398 20.3056 74.9281 19.3791 72.5873 19.4328Z" fill="#DEDEB6"/>
<path d="M177.592 17.2381C174.589 17.2317 171.631 18.3043 169.905 20.6043C167.255 24.1466 167.945 29.6364 172.222 31.9858C177.551 34.9177 185.465 31.9578 186.951 26.5992C187.346 25.1762 187.236 22.7645 186.4 21.4597C184.653 18.7321 181.091 17.251 177.592 17.2381Z" fill="#531815"/>
<path d="M186.215 19.9509C184.691 19.4285 182.944 19.4694 181.551 20.3442C179.408 21.6877 178.533 24.6023 180.182 26.5347C182.239 28.94 186.927 28.796 188.885 26.3241C189.405 25.6685 189.891 24.4218 189.756 23.6136C189.476 21.922 187.995 20.557 186.215 19.9509Z" fill="#DEDEB6"/>
<path d="M182.073 29.613C181.214 29.3207 180.236 29.3443 179.455 29.8323C178.252 30.5889 177.759 32.2224 178.686 33.3057C179.84 34.6578 182.471 34.5782 183.567 33.1897C183.862 32.8221 184.133 32.1236 184.059 31.6679C183.9 30.72 183.069 29.9548 182.073 29.613Z" fill="#DEDEB6"/>
<path d="M76.4715 31.5796C75.6138 31.2852 74.6336 31.3088 73.8534 31.7989C72.6518 32.5555 72.1596 34.1891 73.0839 35.2724C74.2403 36.6223 76.8713 36.5428 77.9675 35.1564C78.262 34.7846 78.5328 34.0881 78.4576 33.6346C78.3007 32.6866 77.4688 31.9193 76.4715 31.5796Z" fill="#DEDEB6"/>
<path d="M118.051 85.9937L117.675 86.2538C113.776 86.9287 110.476 88.8955 110.704 92.8914C110.977 97.6848 119.227 98.2178 123.085 97.9233C127.655 97.5687 131.975 95.2902 131.75 90.8988C131.453 85.1619 122.754 84.373 118.051 85.9937Z" fill="#42BCB6"/>
<path d="M115.311 91.5565L115.235 91.6081C114.444 91.7457 113.776 92.1455 113.821 92.9537C113.877 93.9231 115.549 94.0349 116.332 93.9726C117.258 93.9016 118.131 93.4395 118.085 92.5496C118.027 91.3846 116.265 91.2255 115.311 91.5565Z" fill="#DEDEB6"/>
<path d="M124.308 91.5565L124.233 91.6081C123.442 91.7457 122.776 92.1455 122.821 92.9537C122.877 93.9231 124.549 94.0349 125.329 93.9726C126.256 93.9016 127.131 93.4395 127.085 92.5496C127.025 91.3846 125.263 91.2255 124.308 91.5565Z" fill="#DEDEB6"/>
<path d="M131.797 89.3168C130.458 86.6299 127.298 85.4864 124.102 85.1296C124.267 84.4396 124.252 83.7196 124.304 83.0124C124.396 81.7034 124.71 80.4158 125.131 79.1626C125.368 78.4619 124.334 78.2771 123.971 78.8359C123.27 79.9107 122.965 80.9962 122.862 82.2257C122.786 83.0661 122.698 84.1194 122.905 85.0329C122.208 84.9964 121.52 84.9877 120.86 85.0092C120.48 85.02 120.095 85.0501 119.71 85.0888C120.353 82.8813 119.781 80.5125 119.106 78.348C118.919 77.7461 117.98 78.1524 118.06 78.6683C118.391 80.8328 118.958 83.0145 118.812 85.2027C115.205 85.7551 111.682 87.4919 110.824 90.8043C109.793 94.7808 113.735 97.6396 117.701 98.3683C117.961 98.4177 118.161 98.0351 117.864 97.962C114.029 97.0399 110.302 93.6545 112.587 90.0541C114.096 87.6789 117.873 87.0319 120.661 86.8384C123.526 86.6407 126.668 87.004 128.906 88.6956C132.781 91.6275 128.738 95.4256 125.729 97.07C125.237 97.3365 125.385 98.1619 126.043 97.9169C129.74 96.5391 133.753 93.2353 131.797 89.3168Z" fill="#231F20"/>
<path d="M158.472 107.531C153.365 106.199 147.798 107.353 142.757 108.348C138.364 109.214 134.14 109.576 129.877 109.7C126.324 110.246 122.748 110.648 119.16 110.852C111.048 111.319 102.588 110.956 94.9118 108.52C94.3443 108.449 93.7769 108.37 93.2116 108.294C89.4736 107.815 84.7448 107.095 81.2282 108.77C74.7669 111.845 75.2011 119.231 78.0083 124.317C81.5936 130.806 89.4027 135.292 96.3993 138.598C104.075 142.226 112.303 144.621 121.052 144.823C128.046 144.986 135.064 143.688 141.867 142.418C147.002 141.459 152.075 140.608 156.916 138.763C164.802 135.763 169.961 129.226 170.449 121.712C170.894 114.906 165.664 109.414 158.472 107.531Z" fill="#41B8B7"/>
<path d="M103.149 110.135C104.208 110.281 105.275 110.397 106.345 110.491C105.277 110.38 104.213 110.264 103.149 110.135Z" fill="#41B8B7"/>
<path d="M167.081 116.886C163.807 106.311 148.081 109.554 139.376 111.278C133.856 112.372 128.407 113.602 122.769 114.154C115.184 114.894 107.581 114.201 100.032 113.477C95.3891 113.03 90.4732 112.325 85.7873 112.669C77.6687 113.26 80.0031 121.808 82.9672 125.787C88.8611 133.704 100.028 137.674 110.113 139.641C125.404 142.622 146.349 143.103 159.543 134.626C165.828 130.583 169.142 123.549 167.081 116.886Z" fill="#231F20"/>
<path d="M152.643 136.698C139.987 141.504 123.87 140.657 110.676 138.226C101.375 136.517 92.6077 132.992 86.0883 126.83C82.2859 123.24 76.8348 113.842 86.7396 113.228C90.9203 112.967 95.3719 114.354 99.3915 115.089C108.808 116.813 118.606 116.254 127.999 114.79C138.551 113.144 148.707 109.537 159.416 111.514C164.061 113.051 166.352 117.202 166.313 121.697C166.251 128.878 159.573 134.065 152.643 136.698Z" fill="#F684B8"/>
<path d="M161.636 121.615C157.288 122.047 154.934 114.474 159.102 113.064C159.349 112.983 159.528 113.084 159.618 113.238C163.22 113.864 166.457 121.136 161.636 121.615ZM155.183 113.855C155.474 115.424 153.002 117.299 152.178 118.244C150.446 120.248 146.96 121.123 144.335 121.967C139.395 123.558 134.174 124.13 128.983 124.697C120.104 125.671 110.764 125.192 102.005 123.083C100.309 122.67 98.3382 122.182 96.9905 121.129C96.2167 120.525 94.7336 119.3 95.4386 118.242C96.1888 117.12 98.5209 117.161 99.7526 117.223C105.459 117.522 110.99 118.984 116.751 119.192C122.66 119.403 128.657 118.999 134.426 117.828C138.705 116.961 142.635 115.504 146.714 114.139C148.236 113.63 154.158 111.347 155.108 113.599L155.183 113.855ZM145.947 133.59C143.798 136.238 139.597 137.353 136.124 137.871C128.747 138.97 120.237 139.028 112.989 137.145C110.612 136.528 106.893 135.509 106.055 133.138C105.135 130.527 107.448 129.759 109.941 130.219C115.745 131.292 122.341 131.176 128.231 130.645C131.653 130.337 135.35 130.028 138.656 129.147C141.446 128.405 144.12 127.38 146.923 126.683C147.151 126.627 147.327 126.711 147.428 126.845L147.712 126.933C149.902 128.457 147.054 132.223 145.947 133.59ZM159.416 111.514C148.707 109.537 138.551 113.144 127.999 114.79C118.606 116.254 108.808 116.813 99.3915 115.089C95.3719 114.354 90.9203 112.967 86.7396 113.228C76.8348 113.842 82.2859 123.24 86.0883 126.83C92.6077 132.992 101.375 136.517 110.676 138.226C123.87 140.657 139.987 141.504 152.643 136.698C159.573 134.065 166.251 128.878 166.313 121.697C166.352 117.202 164.061 113.051 159.416 111.514Z" fill="#F257A4"/>
<path d="M91.9456 136.698H166.324V113.575H91.9456V136.698Z" fill="#100F0D"/>
<path d="M130.821 140.182C130.823 140.182 130.825 140.182 130.83 140.182C130.825 140.182 130.823 140.182 130.821 140.182ZM131.251 138.426C131.561 138.396 131.87 138.364 132.18 138.329C133.517 138.207 134.841 138.063 136.124 137.872C134.544 138.108 132.91 138.295 131.251 138.426ZM136.124 137.872C137.289 137.697 138.538 137.446 139.763 137.102C139.821 137.089 139.881 137.074 139.941 137.061C138.658 137.433 137.347 137.689 136.124 137.872ZM97.1666 114.638C95.4428 114.268 93.6673 113.855 91.8897 113.567C91.9091 113.569 91.9284 113.574 91.9456 113.576C91.9499 113.576 91.9542 113.576 91.9585 113.578C91.9628 113.578 91.9649 113.578 91.9692 113.58C93.721 113.868 95.4686 114.272 97.1666 114.638Z" fill="#E92C71"/>
<path d="M130.821 140.182C123.902 140.182 116.957 139.385 110.676 138.226C101.375 136.517 92.6076 132.992 86.0882 126.83C83.8829 124.747 81.1229 120.71 81.1251 117.568C81.1294 115.293 82.5802 113.486 86.7395 113.228C87.0898 113.206 87.4402 113.195 87.7949 113.195C89.1469 113.195 90.5183 113.344 91.8897 113.567C93.6673 113.855 95.4427 114.268 97.1666 114.638C94.9527 114.479 92.4184 113.883 90.1787 113.883C88.1366 113.883 86.3375 114.38 85.2521 116.153C83.4057 119.162 84.9017 123.051 87.1156 125.544C90.1185 128.93 94.3035 131.35 98.5724 133.349C106.586 137.104 115.317 138.772 124.168 138.772C126.524 138.772 128.889 138.654 131.251 138.426C132.91 138.295 134.544 138.108 136.124 137.872C137.347 137.689 138.658 137.433 139.941 137.061C149.964 134.783 159.607 129.764 163.728 121.129C164.499 119.513 164.938 117.847 165.034 116.205C165.406 116.91 165.699 117.66 165.909 118.442C165.909 118.445 165.909 118.445 165.909 118.445C165.914 118.457 165.916 118.47 165.92 118.481C166.182 119.476 166.313 120.523 166.313 121.591C166.313 121.626 166.313 121.662 166.313 121.697C166.251 128.878 159.573 134.065 152.643 136.698C146.014 139.215 138.439 140.182 130.83 140.182C130.825 140.182 130.823 140.182 130.821 140.182Z" fill="#E62165"/>
<path d="M160.114 122.498C157.907 121.808 156.542 120.003 155.959 117.892C155.714 117.471 155.613 117.03 155.704 116.581C155.658 116.222 155.628 115.859 155.624 115.495C154.197 116.536 154.087 117.769 154.711 118.926C144.333 125.634 131.292 127.969 118.582 127.449C112.153 127.184 105.756 126.731 99.6558 124.85C96.2145 123.786 87.6037 121.179 87.6381 117.249L87.3522 117.273C87.206 120.338 91.2019 121.903 93.8543 123.077C94.8281 123.509 95.7996 123.917 96.7734 124.312C96.0511 126.535 96.7153 128.947 98.1855 130.804C98.3639 131.032 98.7272 130.972 98.882 130.746C99.3656 130.026 99.7375 129.252 100.18 128.515C100.675 127.694 101.35 126.986 101.87 126.189C105.876 127.502 109.986 128.455 114.408 128.904C125.493 130.032 138.093 128.861 148.249 124.108C148.529 124.583 149.578 126.079 149.687 126.277C150.343 127.455 150.642 128.775 150.94 130.049C151.043 130.486 151.624 130.344 151.841 130.075C153.03 128.611 153.973 126.868 154.321 125.086C154.564 123.861 154.762 122.01 153.73 121.009C154.285 120.633 154.842 120.254 155.37 119.848C156.557 121.179 158.556 122.262 160.241 122.604L160.114 122.498Z" fill="#231F20"/>
<path d="M98.3834 129.886C97.0722 128.491 96.9196 126.142 97.1044 124.444C98.3533 124.944 99.6021 125.417 100.862 125.852C99.6881 126.827 98.8713 128.474 98.3834 129.886Z" fill="white"/>
<path d="M153.004 125.2C152.853 126.449 152.357 127.681 151.665 128.794C151.149 126.997 150.414 125.121 148.963 123.775C150.229 123.152 151.448 122.464 152.626 121.724C152.776 122.883 153.156 123.936 153.004 125.2Z" fill="white"/>
<path d="M74.9324 42.3206C72.8345 41.8993 70.6012 42.312 68.4603 42.2002C66.0099 42.0734 63.6455 41.4243 61.4165 40.5602C56.8789 38.8084 54.2608 35.1628 52.7089 31.1949C52.4531 30.535 51.4106 31.0637 51.2451 31.4829C49.0763 36.934 51.9071 41.7166 57.3539 44.6162C62.2418 47.2214 70.799 48.1414 75.4375 44.7667C76.4134 44.0574 76.2264 42.5786 74.9324 42.3206Z" fill="white"/>
<path d="M173.583 38.89C168.854 37.2585 164.682 36.2719 161.956 32.1169C159.087 27.7384 161.709 22.4636 161.645 17.8379C161.636 17.2403 160.832 16.9953 160.383 17.4725C156.439 21.6382 153.657 28.6154 156.282 33.9118C158.816 39.0318 165.301 43.5844 171.941 43.0062C173.83 42.8428 176.124 39.7669 173.583 38.89Z" fill="white"/>
<path d="M84.5192 34.6855C83.107 35.5388 82.7846 36.721 82.0795 37.8345C81.4669 38.8017 80.7189 39.1414 79.771 39.9324C79.3583 40.2763 79.0165 41.1512 79.5969 41.523C81.3315 42.6365 83.3886 41.4327 84.6976 40.3365C86.0475 39.208 87.737 37.2886 87.522 35.5733C87.3608 34.3029 85.5359 34.0707 84.5192 34.6855Z" fill="white"/>
<path d="M184.135 38.7288C183.075 38.8276 182.28 39.2425 181.373 39.6917C180.693 40.0249 179.709 40.3667 178.944 40.1818C177.497 39.8358 175.99 42.0669 177.553 42.7053C180.184 43.7801 183.879 43.4254 185.558 41.1383C186.314 40.1066 185.715 38.5783 184.135 38.7288Z" fill="white"/>
<path d="M30.5049 197.846C28.5338 196.082 27.0571 194.768 25.7373 192.544C24.2886 190.108 24.3186 187.14 24.2412 184.468C24.2283 184.006 23.5362 184.152 23.4889 184.532C22.8484 189.526 20.2841 198.682 27.7277 200.899C29.5849 201.451 32.1901 199.355 30.5049 197.846Z" fill="#93D8B2"/>
<path d="M20.5269 196.38C19.1556 193.457 19.6499 190.291 18.5709 187.303C18.3796 186.768 17.5456 187.12 17.623 187.597C18.1603 190.944 17.0275 194.239 18.5472 197.474C19.0609 198.562 20.9998 197.386 20.5269 196.38Z" fill="#93D8B2"/>
<path d="M15.7981 196.314C14.56 192.731 14.1623 189.504 15.3445 185.857C15.5745 185.147 14.5858 185.012 14.1946 185.532C11.6302 188.945 11.1229 193.721 13.281 197.384C13.9667 198.547 16.185 197.431 15.7981 196.314Z" fill="#93D8B2"/>
<path d="M226.892 184.646C226.202 183.782 224.695 184.719 225.136 185.62C227.387 190.237 222.834 195.2 220.476 198.925C219.919 199.805 220.575 201.225 221.927 200.671C227.389 198.44 230.357 188.984 226.892 184.646Z" fill="#93D8B2"/>
<path d="M232.808 188.335C232.642 187.853 231.888 187.987 231.746 188.427C231.312 189.79 231 191.2 230.703 192.591C230.413 193.956 229.76 195.254 229.908 196.651C230.024 197.747 231.557 197.242 232.021 196.713C233.869 194.607 233.633 190.757 232.808 188.335Z" fill="#93D8B2"/>
<path d="M237.221 188.157C236.924 187.51 235.765 188.144 235.909 188.713C236.26 190.082 235.815 191.445 236.12 192.797C236.363 193.874 237.872 193.178 238.031 192.423C238.319 191.039 237.807 189.442 237.221 188.157Z" fill="#93D8B2"/>
<path d="M47.5889 240.094C47.0773 240.094 46.6452 239.824 46.6667 239.157C46.7248 237.635 48.18 236.292 49.6438 235.585C50.3832 235.226 51.1162 234.946 51.9609 234.847C52.1845 234.822 52.4037 234.813 52.6208 234.813C52.8078 234.813 52.9948 234.82 53.1797 234.826C53.3667 234.832 53.5515 234.837 53.7386 234.837C53.8847 234.837 54.0308 234.835 54.177 234.824C54.1856 234.824 54.1942 234.822 54.2028 234.822C54.4994 234.822 54.435 235.196 54.1921 235.262C53.0937 235.559 51.7159 236.397 50.8668 237.074C49.992 237.777 49.6115 238.676 48.9172 239.493C48.6034 239.862 48.0617 240.094 47.5889 240.094Z" fill="#FABA27"/>
<path d="M54.2006 242.68C53.6117 242.68 53.0657 242.336 53.1238 241.687C53.2162 240.645 54.2909 239.553 55.1206 238.85C55.9159 238.175 56.909 237.642 58.0375 237.622C58.0418 237.622 58.046 237.622 58.0482 237.622C58.4545 237.622 58.5254 238.009 58.2718 238.237C57.657 238.794 57.0788 239.398 56.6102 240.056C56.0965 240.784 55.8514 241.644 55.2023 242.289C54.9379 242.551 54.5618 242.68 54.2006 242.68Z" fill="#FABA27"/>
<path d="M63.983 242.399C63.0243 242.399 62.4461 241.27 62.949 240.382C64.3548 237.913 67.6757 236.698 70.7903 236.698C71.6566 236.698 72.5057 236.793 73.2945 236.98C73.7072 237.076 73.6341 237.515 73.3246 237.687C71.9102 238.474 70.3906 238.796 68.8687 239.389C67.2695 240.013 66.2421 241.156 64.8965 242.08C64.5719 242.302 64.2624 242.399 63.983 242.399Z" fill="#FABA27"/>
<path d="M178.557 240.569C178.43 240.569 178.299 240.552 178.164 240.514C176.979 240.18 175.917 239.656 174.735 239.312C173.766 239.028 172.844 238.749 172.05 238.168C171.268 237.595 172.242 236.554 172.992 236.483C173.338 236.451 173.712 236.432 174.099 236.432C176.145 236.432 178.617 236.926 179.776 238.282C180.451 239.073 179.724 240.569 178.557 240.569Z" fill="#FABA27"/>
<path d="M188.668 240.402C188.664 240.402 188.662 240.402 188.657 240.402C186.555 240.376 185.076 238.798 183.78 237.515C183.284 237.023 183.892 236.191 184.565 236.191C184.681 236.191 184.799 236.215 184.915 236.273C185.76 236.683 186.581 237.124 187.417 237.549C188.174 237.934 188.917 238.246 189.582 238.749C190.278 239.28 189.459 240.402 188.668 240.402Z" fill="#FABA27"/>
<path d="M197.386 239.305C197.33 239.305 197.275 239.303 197.217 239.297C196.477 239.219 196.056 239.017 195.635 238.469C195.42 238.19 195.22 237.895 194.988 237.629C194.474 237.04 193.891 236.421 193.09 236.133C192.365 235.868 192.866 234.929 193.431 234.792C193.816 234.699 194.188 234.652 194.547 234.652C195.383 234.652 196.153 234.908 196.886 235.428C197.337 235.748 197.745 236.103 198.16 236.455C198.652 236.87 198.829 237.24 198.891 237.827C198.975 238.596 198.268 239.305 197.386 239.305Z" fill="#FABA27"/>
</svg>
