<svg width="54" height="62" viewBox="0 0 54 62" fill="none" xmlns="http://www.w3.org/2000/svg">
<path fill-rule="evenodd" clip-rule="evenodd" d="M26.7185 35.3438C26.7185 35.3438 21.552 36.8954 21.552 40.337V53.0234C21.552 57.9953 15.1115 62 9.73501 62C4.35851 62 0 57.981 0 53.0234C0 48.0658 4.35851 44.0468 9.73501 44.0468C10.5174 44.0468 12.0073 44.3495 12.0073 42.8454C12.0073 39.8403 11.8848 16.4764 12.0073 13.7892C12.0073 13.7892 11.7324 9.50977 16.6421 9.50977C21.5518 9.50977 21.5518 13.7892 21.5518 13.7892V25.6717C21.5411 26.9043 21.0338 28.433 26.7185 26.6615V26.6546C26.7185 26.6546 31.885 25.1046 31.885 21.663V8.9766C31.885 3.32842 37.0881 0 43.7019 0C49.0784 0 53.437 4.01896 53.437 8.9766C53.437 13.9342 49.0784 17.9532 43.7019 17.9532C42.9195 17.9532 41.4296 17.6505 41.4296 19.1546C41.4296 22.1597 41.5522 45.8669 41.4296 48.5541C41.4296 53.7302 31.885 53.2547 31.885 48.5541L31.8851 36.3283C31.8959 35.0957 32.4032 33.567 26.7185 35.3385V35.3438Z" fill="#2D3C4D"/>
</svg>
